%TF.GenerationSoftware,KiCad,Pcbnew,7.0.2*%
%TF.CreationDate,2023-05-28T17:25:48-07:00*%
%TF.ProjectId,relay-prototype,72656c61-792d-4707-926f-746f74797065,rev?*%
%TF.SameCoordinates,Original*%
%TF.FileFunction,Copper,L1,Top*%
%TF.FilePolarity,Positive*%
%FSLAX46Y46*%
G04 Gerber Fmt 4.6, Leading zero omitted, Abs format (unit mm)*
G04 Created by KiCad (PCBNEW 7.0.2) date 2023-05-28 17:25:48*
%MOMM*%
%LPD*%
G01*
G04 APERTURE LIST*
G04 Aperture macros list*
%AMRoundRect*
0 Rectangle with rounded corners*
0 $1 Rounding radius*
0 $2 $3 $4 $5 $6 $7 $8 $9 X,Y pos of 4 corners*
0 Add a 4 corners polygon primitive as box body*
4,1,4,$2,$3,$4,$5,$6,$7,$8,$9,$2,$3,0*
0 Add four circle primitives for the rounded corners*
1,1,$1+$1,$2,$3*
1,1,$1+$1,$4,$5*
1,1,$1+$1,$6,$7*
1,1,$1+$1,$8,$9*
0 Add four rect primitives between the rounded corners*
20,1,$1+$1,$2,$3,$4,$5,0*
20,1,$1+$1,$4,$5,$6,$7,0*
20,1,$1+$1,$6,$7,$8,$9,0*
20,1,$1+$1,$8,$9,$2,$3,0*%
G04 Aperture macros list end*
%TA.AperFunction,ComponentPad*%
%ADD10RoundRect,0.500000X0.000000X-0.300000X0.000000X-0.300000X0.000000X0.300000X0.000000X0.300000X0*%
%TD*%
%TA.AperFunction,SMDPad,CuDef*%
%ADD11R,0.700000X2.200000*%
%TD*%
%TA.AperFunction,SMDPad,CuDef*%
%ADD12R,0.800000X2.200000*%
%TD*%
%TA.AperFunction,ComponentPad*%
%ADD13R,2.000000X2.000000*%
%TD*%
%TA.AperFunction,ComponentPad*%
%ADD14C,2.000000*%
%TD*%
%TA.AperFunction,ComponentPad*%
%ADD15R,1.800000X1.800000*%
%TD*%
%TA.AperFunction,ComponentPad*%
%ADD16C,1.800000*%
%TD*%
%TA.AperFunction,ComponentPad*%
%ADD17R,1.600000X1.600000*%
%TD*%
%TA.AperFunction,ComponentPad*%
%ADD18O,1.600000X1.600000*%
%TD*%
%TA.AperFunction,ComponentPad*%
%ADD19C,1.600000*%
%TD*%
%TA.AperFunction,ViaPad*%
%ADD20C,1.270000*%
%TD*%
%TA.AperFunction,Conductor*%
%ADD21C,0.635000*%
%TD*%
%TA.AperFunction,Conductor*%
%ADD22C,0.381000*%
%TD*%
G04 APERTURE END LIST*
D10*
%TO.P,J1,1*%
%TO.N,N/C*%
X91810000Y-107518840D03*
X91810000Y-111318840D03*
X100450000Y-107518840D03*
X100450000Y-111318840D03*
D11*
%TO.P,J1,A5,CC1*%
%TO.N,Net-(J1-CC1)*%
X95630000Y-107018840D03*
%TO.P,J1,A9,VBUS*%
%TO.N,+5V*%
X97650000Y-107018840D03*
D12*
%TO.P,J1,A12,GND*%
%TO.N,GND*%
X98880000Y-107018840D03*
D11*
%TO.P,J1,B5,CC2*%
%TO.N,Net-(J1-CC2)*%
X96630000Y-107018840D03*
%TO.P,J1,B9,VBUS*%
%TO.N,+5V*%
X94610000Y-107018840D03*
D12*
%TO.P,J1,B12,GND*%
%TO.N,GND*%
X93380000Y-107018840D03*
%TD*%
D13*
%TO.P,K15,1*%
%TO.N,GND*%
X78832600Y-61286190D03*
D14*
%TO.P,K15,2*%
X81372600Y-61286190D03*
%TO.P,K15,5*%
%TO.N,A0*%
X88992600Y-61286190D03*
%TO.P,K15,6*%
X88992600Y-56206190D03*
%TO.P,K15,9*%
%TO.N,Net-(D15-A2)*%
X81372600Y-56206190D03*
%TO.P,K15,10*%
%TO.N,+5V*%
X78832600Y-56206190D03*
%TD*%
D15*
%TO.P,LED1,1,K*%
%TO.N,GND*%
X67402600Y-45411190D03*
D16*
%TO.P,LED1,2,A*%
%TO.N,Net-(LED1-A)*%
X67402600Y-47951190D03*
%TD*%
D13*
%TO.P,K20,1*%
%TO.N,SUM0*%
X111730100Y-101926190D03*
D14*
%TO.P,K20,2*%
%TO.N,GND*%
X114270100Y-101926190D03*
%TO.P,K20,5*%
%TO.N,OUT0*%
X121890100Y-101926190D03*
%TO.P,K20,6*%
X121890100Y-96846190D03*
%TO.P,K20,9*%
%TO.N,SELECT*%
X114270100Y-96846190D03*
%TO.P,K20,10*%
%TO.N,SUB0*%
X111730100Y-96846190D03*
%TD*%
D15*
%TO.P,LED3,1,K*%
%TO.N,GND*%
X67402600Y-70811190D03*
D16*
%TO.P,LED3,2,A*%
%TO.N,Net-(LED3-A)*%
X67402600Y-73351190D03*
%TD*%
D13*
%TO.P,K10,1*%
%TO.N,Net-(K10-Pad1)*%
X111852600Y-51126190D03*
D14*
%TO.P,K10,2*%
%TO.N,GND*%
X114392600Y-51126190D03*
%TO.P,K10,5*%
%TO.N,ADDCOUT1*%
X122012600Y-51126190D03*
%TO.P,K10,6*%
X122012600Y-46046190D03*
%TO.P,K10,9*%
%TO.N,Net-(D10-A2)*%
X114392600Y-46046190D03*
%TO.P,K10,10*%
%TO.N,+5V*%
X111852600Y-46046190D03*
%TD*%
D15*
%TO.P,LED2,1,K*%
%TO.N,GND*%
X57242600Y-45411190D03*
D16*
%TO.P,LED2,2,A*%
%TO.N,Net-(LED2-A)*%
X57242600Y-47951190D03*
%TD*%
D13*
%TO.P,K11,1*%
%TO.N,GND*%
X128362600Y-81606190D03*
D14*
%TO.P,K11,2*%
%TO.N,CIN0*%
X130902600Y-81606190D03*
%TO.P,K11,5*%
%TO.N,SUB0*%
X138522600Y-81606190D03*
%TO.P,K11,6*%
X138522600Y-76526190D03*
%TO.P,K11,9*%
%TO.N,A0*%
X130902600Y-76526190D03*
%TO.P,K11,10*%
%TO.N,+5V*%
X128362600Y-76526190D03*
%TD*%
D13*
%TO.P,K14,1*%
%TO.N,SUBCOUT0*%
X128485100Y-50993690D03*
D14*
%TO.P,K14,2*%
%TO.N,GND*%
X131025100Y-50993690D03*
%TO.P,K14,5*%
%TO.N,SUBCOUT1*%
X138645100Y-50993690D03*
%TO.P,K14,6*%
X138645100Y-45913690D03*
%TO.P,K14,9*%
%TO.N,A1*%
X131025100Y-45913690D03*
%TO.P,K14,10*%
%TO.N,GND*%
X128485100Y-45913690D03*
%TD*%
D15*
%TO.P,LED6,1,K*%
%TO.N,GND*%
X57242600Y-102561190D03*
D16*
%TO.P,LED6,2,A*%
%TO.N,Net-(LED6-A)*%
X57242600Y-105101190D03*
%TD*%
D15*
%TO.P,LED5,1,K*%
%TO.N,GND*%
X67402600Y-102561190D03*
D16*
%TO.P,LED5,2,A*%
%TO.N,Net-(LED5-A)*%
X67402600Y-105101190D03*
%TD*%
D17*
%TO.P,B0,1*%
%TO.N,+5V*%
X67402600Y-77161190D03*
D18*
%TO.P,B0,2*%
%TO.N,Net-(D17-A2)*%
X67402600Y-84781190D03*
%TD*%
D13*
%TO.P,K18,1*%
%TO.N,GND*%
X78832600Y-81606190D03*
D14*
%TO.P,K18,2*%
X81372600Y-81606190D03*
%TO.P,K18,5*%
%TO.N,B1*%
X88992600Y-81606190D03*
%TO.P,K18,6*%
X88992600Y-76526190D03*
%TO.P,K18,9*%
%TO.N,Net-(D18-A2)*%
X81372600Y-76526190D03*
%TO.P,K18,10*%
%TO.N,+5V*%
X78832600Y-76526190D03*
%TD*%
D13*
%TO.P,K3,1*%
%TO.N,GND*%
X95342020Y-71446220D03*
D14*
%TO.P,K3,2*%
X97882020Y-71446220D03*
%TO.P,K3,5*%
%TO.N,Net-(K3-Pad5)*%
X105502020Y-71446220D03*
%TO.P,K3,6*%
X105502020Y-66366220D03*
%TO.P,K3,9*%
%TO.N,A0*%
X97882020Y-66366220D03*
%TO.P,K3,10*%
%TO.N,B0*%
X95342020Y-66366220D03*
%TD*%
D15*
%TO.P,LED4,1,K*%
%TO.N,GND*%
X57242600Y-70811190D03*
D16*
%TO.P,LED4,2,A*%
%TO.N,Net-(LED4-A)*%
X57242600Y-73351190D03*
%TD*%
D17*
%TO.P,A0,1*%
%TO.N,+5V*%
X67402600Y-51761190D03*
D18*
%TO.P,A0,2*%
%TO.N,Net-(D15-A2)*%
X67402600Y-59381190D03*
%TD*%
D13*
%TO.P,K7,1*%
%TO.N,GND*%
X111852600Y-81606190D03*
D14*
%TO.P,K7,2*%
%TO.N,ADDCOUT0*%
X114392600Y-81606190D03*
%TO.P,K7,5*%
%TO.N,SUM1*%
X122012600Y-81606190D03*
%TO.P,K7,6*%
X122012600Y-76526190D03*
%TO.P,K7,9*%
%TO.N,Net-(D7-A2)*%
X114392600Y-76526190D03*
%TO.P,K7,10*%
%TO.N,+5V*%
X111852600Y-76526190D03*
%TD*%
D13*
%TO.P,K21,1*%
%TO.N,SUM1*%
X128240100Y-101926190D03*
D14*
%TO.P,K21,2*%
%TO.N,GND*%
X130780100Y-101926190D03*
%TO.P,K21,5*%
%TO.N,OUT1*%
X138400100Y-101926190D03*
%TO.P,K21,6*%
X138400100Y-96846190D03*
%TO.P,K21,9*%
%TO.N,SELECT*%
X130780100Y-96846190D03*
%TO.P,K21,10*%
%TO.N,SUB1*%
X128240100Y-96846190D03*
%TD*%
D13*
%TO.P,K19,1*%
%TO.N,GND*%
X95342600Y-91766190D03*
D14*
%TO.P,K19,2*%
X97882600Y-91766190D03*
%TO.P,K19,5*%
%TO.N,SELECT*%
X105502600Y-91766190D03*
%TO.P,K19,6*%
X105502600Y-86686190D03*
%TO.P,K19,9*%
%TO.N,Net-(D19-A2)*%
X97882600Y-86686190D03*
%TO.P,K19,10*%
%TO.N,+5V*%
X95342600Y-86686190D03*
%TD*%
D17*
%TO.P,A1,1*%
%TO.N,+5V*%
X57242600Y-51761190D03*
D18*
%TO.P,A1,2*%
%TO.N,Net-(D16-A2)*%
X57242600Y-59381190D03*
%TD*%
D13*
%TO.P,K12,1*%
%TO.N,GND*%
X128485100Y-71313690D03*
D14*
%TO.P,K12,2*%
X131025100Y-71313690D03*
%TO.P,K12,5*%
%TO.N,SUBCOUT0*%
X138645100Y-71313690D03*
%TO.P,K12,6*%
X138645100Y-66233690D03*
%TO.P,K12,9*%
%TO.N,A0*%
X131025100Y-66233690D03*
%TO.P,K12,10*%
%TO.N,CIN0*%
X128485100Y-66233690D03*
%TD*%
D13*
%TO.P,K2,1*%
%TO.N,GND*%
X95342020Y-81606025D03*
D14*
%TO.P,K2,2*%
%TO.N,CIN0*%
X97882020Y-81606025D03*
%TO.P,K2,5*%
%TO.N,SUM0*%
X105502020Y-81606025D03*
%TO.P,K2,6*%
X105502020Y-76526025D03*
%TO.P,K2,9*%
%TO.N,Net-(D2-A2)*%
X97882020Y-76526025D03*
%TO.P,K2,10*%
%TO.N,+5V*%
X95342020Y-76526025D03*
%TD*%
D13*
%TO.P,K13,1*%
%TO.N,+5V*%
X128485100Y-61153690D03*
D14*
%TO.P,K13,2*%
%TO.N,SUBCOUT0*%
X131025100Y-61153690D03*
%TO.P,K13,5*%
%TO.N,SUB1*%
X138645100Y-61153690D03*
%TO.P,K13,6*%
X138645100Y-56073690D03*
%TO.P,K13,9*%
%TO.N,A1*%
X131025100Y-56073690D03*
%TO.P,K13,10*%
%TO.N,GND*%
X128485100Y-56073690D03*
%TD*%
D13*
%TO.P,K17,1*%
%TO.N,GND*%
X78832600Y-71446190D03*
D14*
%TO.P,K17,2*%
X81372600Y-71446190D03*
%TO.P,K17,5*%
%TO.N,B0*%
X88992600Y-71446190D03*
%TO.P,K17,6*%
X88992600Y-66366190D03*
%TO.P,K17,9*%
%TO.N,Net-(D17-A2)*%
X81372600Y-66366190D03*
%TO.P,K17,10*%
%TO.N,+5V*%
X78832600Y-66366190D03*
%TD*%
D13*
%TO.P,K8,1*%
%TO.N,GND*%
X111852600Y-71446190D03*
D14*
%TO.P,K8,2*%
X114392600Y-71446190D03*
%TO.P,K8,5*%
%TO.N,Net-(K10-Pad1)*%
X122012600Y-71446190D03*
%TO.P,K8,6*%
X122012600Y-66366190D03*
%TO.P,K8,9*%
%TO.N,A1*%
X114392600Y-66366190D03*
%TO.P,K8,10*%
%TO.N,B1*%
X111852600Y-66366190D03*
%TD*%
D13*
%TO.P,K9,1*%
%TO.N,GND*%
X111852600Y-61286190D03*
D14*
%TO.P,K9,2*%
X114392600Y-61286190D03*
%TO.P,K9,5*%
%TO.N,Net-(D10-A2)*%
X122012600Y-61286190D03*
%TO.P,K9,6*%
X122012600Y-56206190D03*
%TO.P,K9,9*%
%TO.N,Net-(D7-A2)*%
X114392600Y-56206190D03*
%TO.P,K9,10*%
%TO.N,ADDCOUT0*%
X111852600Y-56206190D03*
%TD*%
D17*
%TO.P,B1,1*%
%TO.N,+5V*%
X57242600Y-77161190D03*
D18*
%TO.P,B1,2*%
%TO.N,Net-(D18-A2)*%
X57242600Y-84781190D03*
%TD*%
D13*
%TO.P,K5,1*%
%TO.N,Net-(K3-Pad5)*%
X95342020Y-51126610D03*
D14*
%TO.P,K5,2*%
%TO.N,GND*%
X97882020Y-51126610D03*
%TO.P,K5,5*%
%TO.N,ADDCOUT0*%
X105502020Y-51126610D03*
%TO.P,K5,6*%
X105502020Y-46046610D03*
%TO.P,K5,9*%
%TO.N,Net-(D5-A2)*%
X97882020Y-46046610D03*
%TO.P,K5,10*%
%TO.N,+5V*%
X95342020Y-46046610D03*
%TD*%
D13*
%TO.P,K6,1*%
%TO.N,GND*%
X128362600Y-91766190D03*
D14*
%TO.P,K6,2*%
%TO.N,B1*%
X130902600Y-91766190D03*
%TO.P,K6,5*%
%TO.N,Net-(D7-A2)*%
X138522600Y-91766190D03*
%TO.P,K6,6*%
X138522600Y-86686190D03*
%TO.P,K6,9*%
%TO.N,A1*%
X130902600Y-86686190D03*
%TO.P,K6,10*%
%TO.N,+5V*%
X128362600Y-86686190D03*
%TD*%
D13*
%TO.P,K1,1*%
%TO.N,GND*%
X111852020Y-91765830D03*
D14*
%TO.P,K1,2*%
%TO.N,B0*%
X114392020Y-91765830D03*
%TO.P,K1,5*%
%TO.N,Net-(D2-A2)*%
X122012020Y-91765830D03*
%TO.P,K1,6*%
X122012020Y-86685830D03*
%TO.P,K1,9*%
%TO.N,A0*%
X114392020Y-86685830D03*
%TO.P,K1,10*%
%TO.N,+5V*%
X111852020Y-86685830D03*
%TD*%
D13*
%TO.P,K16,1*%
%TO.N,GND*%
X78832600Y-51126610D03*
D14*
%TO.P,K16,2*%
X81372600Y-51126610D03*
%TO.P,K16,5*%
%TO.N,A1*%
X88992600Y-51126610D03*
%TO.P,K16,6*%
X88992600Y-46046610D03*
%TO.P,K16,9*%
%TO.N,Net-(D16-A2)*%
X81372600Y-46046610D03*
%TO.P,K16,10*%
%TO.N,+5V*%
X78832600Y-46046610D03*
%TD*%
D13*
%TO.P,K4,1*%
%TO.N,GND*%
X95342020Y-61286415D03*
D14*
%TO.P,K4,2*%
X97882020Y-61286415D03*
%TO.P,K4,5*%
%TO.N,Net-(D5-A2)*%
X105502020Y-61286415D03*
%TO.P,K4,6*%
X105502020Y-56206415D03*
%TO.P,K4,9*%
%TO.N,Net-(D2-A2)*%
X97882020Y-56206415D03*
%TO.P,K4,10*%
%TO.N,CIN0*%
X95342020Y-56206415D03*
%TD*%
D17*
%TO.P,S1,1*%
%TO.N,+5V*%
X80102600Y-100021190D03*
D18*
%TO.P,S1,2*%
%TO.N,Net-(D19-A2)*%
X80102600Y-107641190D03*
%TD*%
D19*
%TO.P,RCC2,1*%
%TO.N,GND*%
X123282600Y-106599790D03*
D18*
%TO.P,RCC2,2*%
%TO.N,Net-(J1-CC2)*%
X113122600Y-106599790D03*
%TD*%
D19*
%TO.P,R2,1*%
%TO.N,GND*%
X59782600Y-50491190D03*
D18*
%TO.P,R2,2*%
%TO.N,Net-(D16-A2)*%
X59782600Y-60651190D03*
%TD*%
D19*
%TO.P,RCC1,1*%
%TO.N,GND*%
X123282600Y-110181190D03*
D18*
%TO.P,RCC1,2*%
%TO.N,Net-(J1-CC1)*%
X113122600Y-110181190D03*
%TD*%
D19*
%TO.P,R1,1*%
%TO.N,GND*%
X69942600Y-50491190D03*
D18*
%TO.P,R1,2*%
%TO.N,Net-(D15-A2)*%
X69942600Y-60651190D03*
%TD*%
D19*
%TO.P,R9,1*%
%TO.N,Net-(D19-A2)*%
X76292600Y-108911190D03*
D18*
%TO.P,R9,2*%
%TO.N,GND*%
X76292600Y-98751190D03*
%TD*%
D19*
%TO.P,R10,1*%
%TO.N,OUT0*%
X69942600Y-98751190D03*
D18*
%TO.P,R10,2*%
%TO.N,Net-(LED5-A)*%
X69942600Y-108911190D03*
%TD*%
D19*
%TO.P,R5,1*%
%TO.N,Net-(D15-A2)*%
X64862600Y-60651190D03*
D18*
%TO.P,R5,2*%
%TO.N,Net-(LED1-A)*%
X64862600Y-50491190D03*
%TD*%
D19*
%TO.P,R11,1*%
%TO.N,OUT1*%
X59782600Y-98751190D03*
D18*
%TO.P,R11,2*%
%TO.N,Net-(LED6-A)*%
X59782600Y-108911190D03*
%TD*%
D19*
%TO.P,R8,1*%
%TO.N,Net-(D18-A2)*%
X54702600Y-86051190D03*
D18*
%TO.P,R8,2*%
%TO.N,Net-(LED4-A)*%
X54702600Y-75891190D03*
%TD*%
D19*
%TO.P,R3,1*%
%TO.N,GND*%
X69942600Y-75891190D03*
D18*
%TO.P,R3,2*%
%TO.N,Net-(D17-A2)*%
X69942600Y-86051190D03*
%TD*%
D19*
%TO.P,R7,1*%
%TO.N,Net-(D17-A2)*%
X64862600Y-86051190D03*
D18*
%TO.P,R7,2*%
%TO.N,Net-(LED3-A)*%
X64862600Y-75891190D03*
%TD*%
D19*
%TO.P,R6,1*%
%TO.N,Net-(D16-A2)*%
X54702600Y-60651190D03*
D18*
%TO.P,R6,2*%
%TO.N,Net-(LED2-A)*%
X54702600Y-50491190D03*
%TD*%
D19*
%TO.P,R4,1*%
%TO.N,GND*%
X59782600Y-75891190D03*
D18*
%TO.P,R4,2*%
%TO.N,Net-(D18-A2)*%
X59782600Y-86051190D03*
%TD*%
D20*
%TO.N,+5V*%
X97628600Y-104085190D03*
X94580600Y-104085190D03*
%TO.N,GND*%
X100168600Y-104085190D03*
X92040600Y-104085190D03*
%TO.N,A1*%
X135220600Y-96211190D03*
X135982600Y-89353190D03*
%TD*%
D21*
%TO.N,+5V*%
X97650000Y-107018840D02*
X97650000Y-104106590D01*
D22*
X94610000Y-104114590D02*
X94580600Y-104085190D01*
X97650000Y-104106590D02*
X97628600Y-104085190D01*
D21*
X94610000Y-107018840D02*
X94610000Y-104114590D01*
D22*
%TO.N,Net-(D15-A2)*%
X81372600Y-57857190D02*
X81372600Y-56206190D01*
X72736600Y-60651190D02*
X74260600Y-59127190D01*
X80102600Y-59127190D02*
X81372600Y-57857190D01*
X74260600Y-59127190D02*
X80102600Y-59127190D01*
X69942600Y-60651190D02*
X72736600Y-60651190D01*
%TO.N,Net-(D16-A2)*%
X59782600Y-60651190D02*
X64354600Y-56079190D01*
X80356600Y-48713190D02*
X81372600Y-47697190D01*
X68926600Y-56079190D02*
X76292600Y-48713190D01*
X64354600Y-56079190D02*
X68926600Y-56079190D01*
X76292600Y-48713190D02*
X80356600Y-48713190D01*
X81372600Y-47697190D02*
X81372600Y-46046610D01*
%TO.N,Net-(D17-A2)*%
X67402600Y-84781190D02*
X67402600Y-83257190D01*
X67402600Y-83257190D02*
X73244600Y-77415190D01*
X75530600Y-69033190D02*
X80356600Y-69033190D01*
X73244600Y-71319190D02*
X75530600Y-69033190D01*
X80356600Y-69033190D02*
X81372600Y-68017190D01*
X81372600Y-68017190D02*
X81372600Y-66366190D01*
X73244600Y-77415190D02*
X73244600Y-71319190D01*
%TO.N,Net-(D18-A2)*%
X81372600Y-78177190D02*
X81372600Y-76526190D01*
X80610600Y-78939190D02*
X81372600Y-78177190D01*
X77308600Y-78939190D02*
X80610600Y-78939190D01*
X59782600Y-86051190D02*
X62322600Y-88591190D01*
X75022600Y-85543190D02*
X75022600Y-81225190D01*
X62322600Y-88591190D02*
X71974600Y-88591190D01*
X75022600Y-81225190D02*
X77308600Y-78939190D01*
X71974600Y-88591190D02*
X75022600Y-85543190D01*
%TO.N,B0*%
X88992630Y-66366220D02*
X88992600Y-66366190D01*
X95342020Y-66366220D02*
X88992630Y-66366220D01*
%TO.N,A0*%
X97882020Y-66366220D02*
X97882020Y-64714610D01*
X97882020Y-64714610D02*
X96866600Y-63699190D01*
X96866600Y-63699190D02*
X91405600Y-63699190D01*
X91405600Y-63699190D02*
X88992600Y-61286190D01*
%TO.N,CIN0*%
X123282600Y-89353190D02*
X103724600Y-89353190D01*
X101438600Y-87067190D02*
X101438600Y-85162605D01*
X125060600Y-86051190D02*
X125060600Y-87575190D01*
X127092600Y-84019190D02*
X125060600Y-86051190D01*
X130140600Y-84019190D02*
X127092600Y-84019190D01*
X130902600Y-81606190D02*
X130902600Y-83257190D01*
X103724600Y-89353190D02*
X101438600Y-87067190D01*
X130902600Y-83257190D02*
X130140600Y-84019190D01*
X101438600Y-85162605D02*
X97882020Y-81606025D01*
X125060600Y-87575190D02*
X123282600Y-89353190D01*
%TO.N,Net-(D2-A2)*%
X103470600Y-83765190D02*
X119091380Y-83765190D01*
X119091380Y-83765190D02*
X122012020Y-86685830D01*
X101946600Y-82241190D02*
X103470600Y-83765190D01*
X101946600Y-80590605D02*
X101946600Y-82241190D01*
X97882020Y-76526025D02*
X101946600Y-80590605D01*
D21*
%TO.N,GND*%
X98880000Y-107018840D02*
X98880000Y-105373790D01*
X98880000Y-105373790D02*
X100168600Y-104085190D01*
X93380000Y-105424590D02*
X93380000Y-107018840D01*
X92040600Y-104085190D02*
X93380000Y-105424590D01*
D22*
%TO.N,Net-(D5-A2)*%
X97882020Y-46046610D02*
X101438600Y-49603190D01*
X101438600Y-52142995D02*
X105502020Y-56206415D01*
X101438600Y-49603190D02*
X101438600Y-52142995D01*
%TO.N,B1*%
X130902600Y-91766190D02*
X133188600Y-89480190D01*
X101692600Y-71827190D02*
X101692600Y-70557190D01*
X132934600Y-74113190D02*
X120488600Y-74113190D01*
X103470600Y-68779190D02*
X109439600Y-68779190D01*
X134204600Y-81987190D02*
X134204600Y-75383190D01*
X115408600Y-69033190D02*
X114519600Y-69033190D01*
X91151600Y-74367190D02*
X99152600Y-74367190D01*
X133188600Y-89480190D02*
X133188600Y-83003190D01*
X99152600Y-74367190D02*
X101692600Y-71827190D01*
X133188600Y-83003190D02*
X134204600Y-81987190D01*
X120488600Y-74113190D02*
X115408600Y-69033190D01*
X114519600Y-69033190D02*
X111852600Y-66366190D01*
X109439600Y-68779190D02*
X111852600Y-66366190D01*
X134204600Y-75383190D02*
X132934600Y-74113190D01*
X101692600Y-70557190D02*
X103470600Y-68779190D01*
X88992600Y-76526190D02*
X91151600Y-74367190D01*
%TO.N,A1*%
X91405180Y-53539190D02*
X99660600Y-53539190D01*
X116805600Y-66366190D02*
X114392600Y-66366190D01*
X88992600Y-51126610D02*
X91405180Y-53539190D01*
X108296600Y-60397190D02*
X108296600Y-62429190D01*
X131025100Y-56073690D02*
X131025100Y-57734690D01*
X108296600Y-62429190D02*
X109566600Y-63699190D01*
X114392600Y-65223190D02*
X114392600Y-66366190D01*
X125314600Y-62429190D02*
X123790600Y-63953190D01*
X106772600Y-58873190D02*
X108296600Y-60397190D01*
X125314600Y-60397190D02*
X125314600Y-62429190D01*
X109566600Y-63699190D02*
X112868600Y-63699190D01*
X129886600Y-58873190D02*
X126838600Y-58873190D01*
X112868600Y-63699190D02*
X114392600Y-65223190D01*
X135982600Y-95449190D02*
X135220600Y-96211190D01*
X135982600Y-89353190D02*
X135982600Y-95449190D01*
X131025100Y-57734690D02*
X129886600Y-58873190D01*
X99660600Y-53539190D02*
X104994600Y-58873190D01*
X123790600Y-63953190D02*
X119218600Y-63953190D01*
X126838600Y-58873190D02*
X125314600Y-60397190D01*
X104994600Y-58873190D02*
X106772600Y-58873190D01*
X119218600Y-63953190D02*
X116805600Y-66366190D01*
%TO.N,ADDCOUT0*%
X105502020Y-51126610D02*
X110581600Y-56206190D01*
X110581600Y-56206190D02*
X111852600Y-56206190D01*
%TO.N,Net-(D10-A2)*%
X117694600Y-51888190D02*
X117694600Y-49348190D01*
X117694600Y-49348190D02*
X114392600Y-46046190D01*
X122012600Y-56206190D02*
X117694600Y-51888190D01*
%TO.N,SUBCOUT0*%
X138645100Y-66233690D02*
X136105100Y-66233690D01*
X136105100Y-66233690D02*
X131025100Y-61153690D01*
%TO.N,Net-(D19-A2)*%
X57242600Y-99259190D02*
X57242600Y-97735190D01*
X74006600Y-106625190D02*
X68926600Y-106625190D01*
X62068600Y-102053190D02*
X61052600Y-101037190D01*
X62068600Y-105863190D02*
X62068600Y-102053190D01*
X76292600Y-108911190D02*
X74006600Y-106625190D01*
X74260600Y-89353190D02*
X96612600Y-89353190D01*
X59020600Y-101037190D02*
X57242600Y-99259190D01*
X57242600Y-97735190D02*
X58512600Y-96465190D01*
X61052600Y-101037190D02*
X59020600Y-101037190D01*
X96612600Y-89353190D02*
X97882600Y-88083190D01*
X64100600Y-107895190D02*
X62068600Y-105863190D01*
X58512600Y-96465190D02*
X67148600Y-96465190D01*
X67656600Y-107895190D02*
X64100600Y-107895190D01*
X97882600Y-88083190D02*
X97882600Y-86686190D01*
X67148600Y-96465190D02*
X74260600Y-89353190D01*
X68926600Y-106625190D02*
X67656600Y-107895190D01*
%TO.N,SELECT*%
X116937100Y-99513190D02*
X129378600Y-99513190D01*
X105502600Y-91766190D02*
X107661600Y-93925190D01*
X129378600Y-93925190D02*
X130780100Y-95326690D01*
X107661600Y-93925190D02*
X129378600Y-93925190D01*
X130780100Y-98111690D02*
X130780100Y-96846190D01*
X114270100Y-96846190D02*
X116937100Y-99513190D01*
X129378600Y-99513190D02*
X130780100Y-98111690D01*
X130780100Y-95326690D02*
X130780100Y-96846190D01*
%TO.N,Net-(K3-Pad5)*%
X85690600Y-50999190D02*
X85690600Y-56333190D01*
X88230600Y-48459190D02*
X85690600Y-50999190D01*
X91532600Y-48459190D02*
X88230600Y-48459190D01*
X101184600Y-60905190D02*
X101184600Y-62048800D01*
X95342020Y-51126610D02*
X94200020Y-51126610D01*
X101184600Y-62048800D02*
X105502020Y-66366220D01*
X99152600Y-58873190D02*
X101184600Y-60905190D01*
X85690600Y-56333190D02*
X88230600Y-58873190D01*
X94200020Y-51126610D02*
X91532600Y-48459190D01*
X88230600Y-58873190D02*
X99152600Y-58873190D01*
%TO.N,SUB0*%
X139284600Y-99513190D02*
X140808600Y-97989190D01*
X137760600Y-99513190D02*
X139284600Y-99513190D01*
X133061600Y-104212190D02*
X137760600Y-99513190D01*
X140808600Y-97989190D02*
X140808600Y-83892190D01*
X111730100Y-96846190D02*
X111730100Y-98374690D01*
X115154600Y-99767190D02*
X119599600Y-104212190D01*
X113122600Y-99767190D02*
X115154600Y-99767190D01*
X119599600Y-104212190D02*
X133061600Y-104212190D01*
X111730100Y-98374690D02*
X113122600Y-99767190D01*
X140808600Y-83892190D02*
X138522600Y-81606190D01*
%TO.N,OUT0*%
X71466600Y-95957190D02*
X106518600Y-95957190D01*
X69942600Y-97481190D02*
X71466600Y-95957190D01*
X69942600Y-98751190D02*
X69942600Y-97481190D01*
X107534600Y-94941190D02*
X119985100Y-94941190D01*
X106518600Y-95957190D02*
X107534600Y-94941190D01*
X119985100Y-94941190D02*
X121890100Y-96846190D01*
%TO.N,OUT1*%
X98644600Y-99513190D02*
X85690600Y-99513190D01*
X103724600Y-104593190D02*
X98644600Y-99513190D01*
X115916600Y-104593190D02*
X103724600Y-104593190D01*
X119726600Y-108403190D02*
X115916600Y-104593190D01*
X138400100Y-101926190D02*
X131923100Y-108403190D01*
X74260600Y-102053190D02*
X72990600Y-100783190D01*
X85690600Y-99513190D02*
X83150600Y-102053190D01*
X66132600Y-98751190D02*
X59782600Y-98751190D01*
X131923100Y-108403190D02*
X119726600Y-108403190D01*
X72990600Y-100783190D02*
X68164600Y-100783190D01*
X83150600Y-102053190D02*
X74260600Y-102053190D01*
X68164600Y-100783190D02*
X66132600Y-98751190D01*
%TO.N,Net-(J1-CC1)*%
X95630000Y-108944590D02*
X96358600Y-109673190D01*
X95630000Y-107018840D02*
X95630000Y-108944590D01*
X103216600Y-110181190D02*
X113122600Y-110181190D01*
X102708600Y-109673190D02*
X103216600Y-110181190D01*
X96358600Y-109673190D02*
X102708600Y-109673190D01*
%TO.N,Net-(J1-CC2)*%
X107560000Y-106599790D02*
X113122600Y-106599790D01*
X96630000Y-108674590D02*
X96866600Y-108911190D01*
X96630000Y-107018840D02*
X96630000Y-108674590D01*
X96866600Y-108911190D02*
X105248600Y-108911190D01*
X105248600Y-108911190D02*
X107560000Y-106599790D01*
%TD*%
M02*
