%TF.GenerationSoftware,KiCad,Pcbnew,7.0.2*%
%TF.CreationDate,2023-05-28T17:25:48-07:00*%
%TF.ProjectId,relay-prototype,72656c61-792d-4707-926f-746f74797065,rev?*%
%TF.SameCoordinates,Original*%
%TF.FileFunction,Legend,Top*%
%TF.FilePolarity,Positive*%
%FSLAX46Y46*%
G04 Gerber Fmt 4.6, Leading zero omitted, Abs format (unit mm)*
G04 Created by KiCad (PCBNEW 7.0.2) date 2023-05-28 17:25:48*
%MOMM*%
%LPD*%
G01*
G04 APERTURE LIST*
G04 Aperture macros list*
%AMRoundRect*
0 Rectangle with rounded corners*
0 $1 Rounding radius*
0 $2 $3 $4 $5 $6 $7 $8 $9 X,Y pos of 4 corners*
0 Add a 4 corners polygon primitive as box body*
4,1,4,$2,$3,$4,$5,$6,$7,$8,$9,$2,$3,0*
0 Add four circle primitives for the rounded corners*
1,1,$1+$1,$2,$3*
1,1,$1+$1,$4,$5*
1,1,$1+$1,$6,$7*
1,1,$1+$1,$8,$9*
0 Add four rect primitives between the rounded corners*
20,1,$1+$1,$2,$3,$4,$5,0*
20,1,$1+$1,$4,$5,$6,$7,0*
20,1,$1+$1,$6,$7,$8,$9,0*
20,1,$1+$1,$8,$9,$2,$3,0*%
G04 Aperture macros list end*
%ADD10C,0.381000*%
%ADD11C,0.254000*%
%ADD12C,0.100000*%
%ADD13C,0.150000*%
%ADD14C,0.010000*%
%ADD15C,0.120000*%
%ADD16RoundRect,0.500000X0.000000X-0.300000X0.000000X-0.300000X0.000000X0.300000X0.000000X0.300000X0*%
%ADD17R,0.700000X2.200000*%
%ADD18R,0.800000X2.200000*%
%ADD19R,2.000000X2.000000*%
%ADD20C,2.000000*%
%ADD21R,1.800000X1.800000*%
%ADD22C,1.800000*%
%ADD23R,1.600000X1.600000*%
%ADD24O,1.600000X1.600000*%
%ADD25C,1.600000*%
G04 APERTURE END LIST*
D10*
X52162600Y-91131190D02*
X72736600Y-91131190D01*
X72736600Y-111705190D02*
X72736600Y-91131190D01*
D11*
X72816126Y-84182475D02*
X71546126Y-84182475D01*
X72816126Y-83577713D02*
X71546126Y-83577713D01*
X71546126Y-83577713D02*
X72816126Y-82851998D01*
X72816126Y-82851998D02*
X71546126Y-82851998D01*
X72816126Y-82247237D02*
X71546126Y-82247237D01*
X71546126Y-82247237D02*
X71546126Y-81763427D01*
X71546126Y-81763427D02*
X71606602Y-81642475D01*
X71606602Y-81642475D02*
X71667078Y-81581998D01*
X71667078Y-81581998D02*
X71788030Y-81521522D01*
X71788030Y-81521522D02*
X71969459Y-81521522D01*
X71969459Y-81521522D02*
X72090411Y-81581998D01*
X72090411Y-81581998D02*
X72150888Y-81642475D01*
X72150888Y-81642475D02*
X72211364Y-81763427D01*
X72211364Y-81763427D02*
X72211364Y-82247237D01*
X71546126Y-80977237D02*
X72574221Y-80977237D01*
X72574221Y-80977237D02*
X72695173Y-80916760D01*
X72695173Y-80916760D02*
X72755650Y-80856284D01*
X72755650Y-80856284D02*
X72816126Y-80735332D01*
X72816126Y-80735332D02*
X72816126Y-80493427D01*
X72816126Y-80493427D02*
X72755650Y-80372475D01*
X72755650Y-80372475D02*
X72695173Y-80311998D01*
X72695173Y-80311998D02*
X72574221Y-80251522D01*
X72574221Y-80251522D02*
X71546126Y-80251522D01*
X71546126Y-79828189D02*
X71546126Y-79102475D01*
X72816126Y-79465332D02*
X71546126Y-79465332D01*
X83864219Y-107865859D02*
X84468981Y-107865859D01*
X83743267Y-108228716D02*
X84166600Y-106958716D01*
X84166600Y-106958716D02*
X84589934Y-108228716D01*
X85013266Y-108228716D02*
X85013266Y-106958716D01*
X85013266Y-106958716D02*
X85315647Y-106958716D01*
X85315647Y-106958716D02*
X85497076Y-107019192D01*
X85497076Y-107019192D02*
X85618028Y-107140144D01*
X85618028Y-107140144D02*
X85678505Y-107261097D01*
X85678505Y-107261097D02*
X85738981Y-107503001D01*
X85738981Y-107503001D02*
X85738981Y-107684430D01*
X85738981Y-107684430D02*
X85678505Y-107926335D01*
X85678505Y-107926335D02*
X85618028Y-108047287D01*
X85618028Y-108047287D02*
X85497076Y-108168240D01*
X85497076Y-108168240D02*
X85315647Y-108228716D01*
X85315647Y-108228716D02*
X85013266Y-108228716D01*
X86283266Y-108228716D02*
X86283266Y-106958716D01*
X86283266Y-106958716D02*
X86585647Y-106958716D01*
X86585647Y-106958716D02*
X86767076Y-107019192D01*
X86767076Y-107019192D02*
X86888028Y-107140144D01*
X86888028Y-107140144D02*
X86948505Y-107261097D01*
X86948505Y-107261097D02*
X87008981Y-107503001D01*
X87008981Y-107503001D02*
X87008981Y-107684430D01*
X87008981Y-107684430D02*
X86948505Y-107926335D01*
X86948505Y-107926335D02*
X86888028Y-108047287D01*
X86888028Y-108047287D02*
X86767076Y-108168240D01*
X86767076Y-108168240D02*
X86585647Y-108228716D01*
X86585647Y-108228716D02*
X86283266Y-108228716D01*
D10*
X57968314Y-97386242D02*
X56516885Y-97386242D01*
X57242599Y-97386242D02*
X57242599Y-94846242D01*
X57242599Y-94846242D02*
X57000695Y-95209099D01*
X57000695Y-95209099D02*
X56758790Y-95451004D01*
X56758790Y-95451004D02*
X56516885Y-95571956D01*
D11*
X72816126Y-58782475D02*
X71546126Y-58782475D01*
X72816126Y-58177713D02*
X71546126Y-58177713D01*
X71546126Y-58177713D02*
X72816126Y-57451998D01*
X72816126Y-57451998D02*
X71546126Y-57451998D01*
X72816126Y-56847237D02*
X71546126Y-56847237D01*
X71546126Y-56847237D02*
X71546126Y-56363427D01*
X71546126Y-56363427D02*
X71606602Y-56242475D01*
X71606602Y-56242475D02*
X71667078Y-56181998D01*
X71667078Y-56181998D02*
X71788030Y-56121522D01*
X71788030Y-56121522D02*
X71969459Y-56121522D01*
X71969459Y-56121522D02*
X72090411Y-56181998D01*
X72090411Y-56181998D02*
X72150888Y-56242475D01*
X72150888Y-56242475D02*
X72211364Y-56363427D01*
X72211364Y-56363427D02*
X72211364Y-56847237D01*
X71546126Y-55577237D02*
X72574221Y-55577237D01*
X72574221Y-55577237D02*
X72695173Y-55516760D01*
X72695173Y-55516760D02*
X72755650Y-55456284D01*
X72755650Y-55456284D02*
X72816126Y-55335332D01*
X72816126Y-55335332D02*
X72816126Y-55093427D01*
X72816126Y-55093427D02*
X72755650Y-54972475D01*
X72755650Y-54972475D02*
X72695173Y-54911998D01*
X72695173Y-54911998D02*
X72574221Y-54851522D01*
X72574221Y-54851522D02*
X71546126Y-54851522D01*
X71546126Y-54428189D02*
X71546126Y-53702475D01*
X72816126Y-54065332D02*
X71546126Y-54065332D01*
D10*
X67281647Y-94846242D02*
X67523552Y-94846242D01*
X67523552Y-94846242D02*
X67765456Y-94967194D01*
X67765456Y-94967194D02*
X67886409Y-95088147D01*
X67886409Y-95088147D02*
X68007361Y-95330051D01*
X68007361Y-95330051D02*
X68128314Y-95813861D01*
X68128314Y-95813861D02*
X68128314Y-96418623D01*
X68128314Y-96418623D02*
X68007361Y-96902432D01*
X68007361Y-96902432D02*
X67886409Y-97144337D01*
X67886409Y-97144337D02*
X67765456Y-97265290D01*
X67765456Y-97265290D02*
X67523552Y-97386242D01*
X67523552Y-97386242D02*
X67281647Y-97386242D01*
X67281647Y-97386242D02*
X67039742Y-97265290D01*
X67039742Y-97265290D02*
X66918790Y-97144337D01*
X66918790Y-97144337D02*
X66797837Y-96902432D01*
X66797837Y-96902432D02*
X66676885Y-96418623D01*
X66676885Y-96418623D02*
X66676885Y-95813861D01*
X66676885Y-95813861D02*
X66797837Y-95330051D01*
X66797837Y-95330051D02*
X66918790Y-95088147D01*
X66918790Y-95088147D02*
X67039742Y-94967194D01*
X67039742Y-94967194D02*
X67281647Y-94846242D01*
D11*
X65618552Y-91718716D02*
X65860457Y-91718716D01*
X65860457Y-91718716D02*
X65981409Y-91779192D01*
X65981409Y-91779192D02*
X66102362Y-91900144D01*
X66102362Y-91900144D02*
X66162838Y-92142049D01*
X66162838Y-92142049D02*
X66162838Y-92565382D01*
X66162838Y-92565382D02*
X66102362Y-92807287D01*
X66102362Y-92807287D02*
X65981409Y-92928240D01*
X65981409Y-92928240D02*
X65860457Y-92988716D01*
X65860457Y-92988716D02*
X65618552Y-92988716D01*
X65618552Y-92988716D02*
X65497600Y-92928240D01*
X65497600Y-92928240D02*
X65376647Y-92807287D01*
X65376647Y-92807287D02*
X65316171Y-92565382D01*
X65316171Y-92565382D02*
X65316171Y-92142049D01*
X65316171Y-92142049D02*
X65376647Y-91900144D01*
X65376647Y-91900144D02*
X65497600Y-91779192D01*
X65497600Y-91779192D02*
X65618552Y-91718716D01*
X66707123Y-91718716D02*
X66707123Y-92746811D01*
X66707123Y-92746811D02*
X66767600Y-92867763D01*
X66767600Y-92867763D02*
X66828076Y-92928240D01*
X66828076Y-92928240D02*
X66949028Y-92988716D01*
X66949028Y-92988716D02*
X67190933Y-92988716D01*
X67190933Y-92988716D02*
X67311885Y-92928240D01*
X67311885Y-92928240D02*
X67372362Y-92867763D01*
X67372362Y-92867763D02*
X67432838Y-92746811D01*
X67432838Y-92746811D02*
X67432838Y-91718716D01*
X67856171Y-91718716D02*
X68581885Y-91718716D01*
X68219028Y-92988716D02*
X68219028Y-91718716D01*
X69005218Y-92988716D02*
X69005218Y-91718716D01*
X69005218Y-91718716D02*
X69489028Y-91718716D01*
X69489028Y-91718716D02*
X69609980Y-91779192D01*
X69609980Y-91779192D02*
X69670457Y-91839668D01*
X69670457Y-91839668D02*
X69730933Y-91960620D01*
X69730933Y-91960620D02*
X69730933Y-92142049D01*
X69730933Y-92142049D02*
X69670457Y-92263001D01*
X69670457Y-92263001D02*
X69609980Y-92323478D01*
X69609980Y-92323478D02*
X69489028Y-92383954D01*
X69489028Y-92383954D02*
X69005218Y-92383954D01*
X70275218Y-91718716D02*
X70275218Y-92746811D01*
X70275218Y-92746811D02*
X70335695Y-92867763D01*
X70335695Y-92867763D02*
X70396171Y-92928240D01*
X70396171Y-92928240D02*
X70517123Y-92988716D01*
X70517123Y-92988716D02*
X70759028Y-92988716D01*
X70759028Y-92988716D02*
X70879980Y-92928240D01*
X70879980Y-92928240D02*
X70940457Y-92867763D01*
X70940457Y-92867763D02*
X71000933Y-92746811D01*
X71000933Y-92746811D02*
X71000933Y-91718716D01*
X71424266Y-91718716D02*
X72149980Y-91718716D01*
X71787123Y-92988716D02*
X71787123Y-91718716D01*
X83773504Y-100548240D02*
X83954933Y-100608716D01*
X83954933Y-100608716D02*
X84257314Y-100608716D01*
X84257314Y-100608716D02*
X84378266Y-100548240D01*
X84378266Y-100548240D02*
X84438742Y-100487763D01*
X84438742Y-100487763D02*
X84499219Y-100366811D01*
X84499219Y-100366811D02*
X84499219Y-100245859D01*
X84499219Y-100245859D02*
X84438742Y-100124906D01*
X84438742Y-100124906D02*
X84378266Y-100064430D01*
X84378266Y-100064430D02*
X84257314Y-100003954D01*
X84257314Y-100003954D02*
X84015409Y-99943478D01*
X84015409Y-99943478D02*
X83894457Y-99883001D01*
X83894457Y-99883001D02*
X83833980Y-99822525D01*
X83833980Y-99822525D02*
X83773504Y-99701573D01*
X83773504Y-99701573D02*
X83773504Y-99580620D01*
X83773504Y-99580620D02*
X83833980Y-99459668D01*
X83833980Y-99459668D02*
X83894457Y-99399192D01*
X83894457Y-99399192D02*
X84015409Y-99338716D01*
X84015409Y-99338716D02*
X84317790Y-99338716D01*
X84317790Y-99338716D02*
X84499219Y-99399192D01*
X85043504Y-99338716D02*
X85043504Y-100366811D01*
X85043504Y-100366811D02*
X85103981Y-100487763D01*
X85103981Y-100487763D02*
X85164457Y-100548240D01*
X85164457Y-100548240D02*
X85285409Y-100608716D01*
X85285409Y-100608716D02*
X85527314Y-100608716D01*
X85527314Y-100608716D02*
X85648266Y-100548240D01*
X85648266Y-100548240D02*
X85708743Y-100487763D01*
X85708743Y-100487763D02*
X85769219Y-100366811D01*
X85769219Y-100366811D02*
X85769219Y-99338716D01*
X86797314Y-99943478D02*
X86978742Y-100003954D01*
X86978742Y-100003954D02*
X87039219Y-100064430D01*
X87039219Y-100064430D02*
X87099695Y-100185382D01*
X87099695Y-100185382D02*
X87099695Y-100366811D01*
X87099695Y-100366811D02*
X87039219Y-100487763D01*
X87039219Y-100487763D02*
X86978742Y-100548240D01*
X86978742Y-100548240D02*
X86857790Y-100608716D01*
X86857790Y-100608716D02*
X86373980Y-100608716D01*
X86373980Y-100608716D02*
X86373980Y-99338716D01*
X86373980Y-99338716D02*
X86797314Y-99338716D01*
X86797314Y-99338716D02*
X86918266Y-99399192D01*
X86918266Y-99399192D02*
X86978742Y-99459668D01*
X86978742Y-99459668D02*
X87039219Y-99580620D01*
X87039219Y-99580620D02*
X87039219Y-99701573D01*
X87039219Y-99701573D02*
X86978742Y-99822525D01*
X86978742Y-99822525D02*
X86918266Y-99883001D01*
X86918266Y-99883001D02*
X86797314Y-99943478D01*
X86797314Y-99943478D02*
X86373980Y-99943478D01*
D12*
%TO.C,J1*%
X95863333Y-110888935D02*
X95863333Y-111460363D01*
X95863333Y-111460363D02*
X95825238Y-111574649D01*
X95825238Y-111574649D02*
X95749047Y-111650840D01*
X95749047Y-111650840D02*
X95634762Y-111688935D01*
X95634762Y-111688935D02*
X95558571Y-111688935D01*
X96663333Y-111688935D02*
X96206190Y-111688935D01*
X96434762Y-111688935D02*
X96434762Y-110888935D01*
X96434762Y-110888935D02*
X96358571Y-111003220D01*
X96358571Y-111003220D02*
X96282381Y-111079411D01*
X96282381Y-111079411D02*
X96206190Y-111117506D01*
D13*
%TO.C,K15*%
X77095219Y-60000475D02*
X76095219Y-60000475D01*
X77095219Y-59429047D02*
X76523790Y-59857618D01*
X76095219Y-59429047D02*
X76666647Y-60000475D01*
X77095219Y-58476666D02*
X77095219Y-59048094D01*
X77095219Y-58762380D02*
X76095219Y-58762380D01*
X76095219Y-58762380D02*
X76238076Y-58857618D01*
X76238076Y-58857618D02*
X76333314Y-58952856D01*
X76333314Y-58952856D02*
X76380933Y-59048094D01*
X76095219Y-57571904D02*
X76095219Y-58048094D01*
X76095219Y-58048094D02*
X76571409Y-58095713D01*
X76571409Y-58095713D02*
X76523790Y-58048094D01*
X76523790Y-58048094D02*
X76476171Y-57952856D01*
X76476171Y-57952856D02*
X76476171Y-57714761D01*
X76476171Y-57714761D02*
X76523790Y-57619523D01*
X76523790Y-57619523D02*
X76571409Y-57571904D01*
X76571409Y-57571904D02*
X76666647Y-57524285D01*
X76666647Y-57524285D02*
X76904742Y-57524285D01*
X76904742Y-57524285D02*
X76999980Y-57571904D01*
X76999980Y-57571904D02*
X77047600Y-57619523D01*
X77047600Y-57619523D02*
X77095219Y-57714761D01*
X77095219Y-57714761D02*
X77095219Y-57952856D01*
X77095219Y-57952856D02*
X77047600Y-58048094D01*
X77047600Y-58048094D02*
X76999980Y-58095713D01*
%TO.C,LED1*%
X71825219Y-47800237D02*
X71825219Y-48276427D01*
X71825219Y-48276427D02*
X70825219Y-48276427D01*
X71301409Y-47466903D02*
X71301409Y-47133570D01*
X71825219Y-46990713D02*
X71825219Y-47466903D01*
X71825219Y-47466903D02*
X70825219Y-47466903D01*
X70825219Y-47466903D02*
X70825219Y-46990713D01*
X71825219Y-46562141D02*
X70825219Y-46562141D01*
X70825219Y-46562141D02*
X70825219Y-46324046D01*
X70825219Y-46324046D02*
X70872838Y-46181189D01*
X70872838Y-46181189D02*
X70968076Y-46085951D01*
X70968076Y-46085951D02*
X71063314Y-46038332D01*
X71063314Y-46038332D02*
X71253790Y-45990713D01*
X71253790Y-45990713D02*
X71396647Y-45990713D01*
X71396647Y-45990713D02*
X71587123Y-46038332D01*
X71587123Y-46038332D02*
X71682361Y-46085951D01*
X71682361Y-46085951D02*
X71777600Y-46181189D01*
X71777600Y-46181189D02*
X71825219Y-46324046D01*
X71825219Y-46324046D02*
X71825219Y-46562141D01*
X71825219Y-45038332D02*
X71825219Y-45609760D01*
X71825219Y-45324046D02*
X70825219Y-45324046D01*
X70825219Y-45324046D02*
X70968076Y-45419284D01*
X70968076Y-45419284D02*
X71063314Y-45514522D01*
X71063314Y-45514522D02*
X71110933Y-45609760D01*
%TO.C,K20*%
X109992719Y-100640475D02*
X108992719Y-100640475D01*
X109992719Y-100069047D02*
X109421290Y-100497618D01*
X108992719Y-100069047D02*
X109564147Y-100640475D01*
X109087957Y-99688094D02*
X109040338Y-99640475D01*
X109040338Y-99640475D02*
X108992719Y-99545237D01*
X108992719Y-99545237D02*
X108992719Y-99307142D01*
X108992719Y-99307142D02*
X109040338Y-99211904D01*
X109040338Y-99211904D02*
X109087957Y-99164285D01*
X109087957Y-99164285D02*
X109183195Y-99116666D01*
X109183195Y-99116666D02*
X109278433Y-99116666D01*
X109278433Y-99116666D02*
X109421290Y-99164285D01*
X109421290Y-99164285D02*
X109992719Y-99735713D01*
X109992719Y-99735713D02*
X109992719Y-99116666D01*
X108992719Y-98497618D02*
X108992719Y-98402380D01*
X108992719Y-98402380D02*
X109040338Y-98307142D01*
X109040338Y-98307142D02*
X109087957Y-98259523D01*
X109087957Y-98259523D02*
X109183195Y-98211904D01*
X109183195Y-98211904D02*
X109373671Y-98164285D01*
X109373671Y-98164285D02*
X109611766Y-98164285D01*
X109611766Y-98164285D02*
X109802242Y-98211904D01*
X109802242Y-98211904D02*
X109897480Y-98259523D01*
X109897480Y-98259523D02*
X109945100Y-98307142D01*
X109945100Y-98307142D02*
X109992719Y-98402380D01*
X109992719Y-98402380D02*
X109992719Y-98497618D01*
X109992719Y-98497618D02*
X109945100Y-98592856D01*
X109945100Y-98592856D02*
X109897480Y-98640475D01*
X109897480Y-98640475D02*
X109802242Y-98688094D01*
X109802242Y-98688094D02*
X109611766Y-98735713D01*
X109611766Y-98735713D02*
X109373671Y-98735713D01*
X109373671Y-98735713D02*
X109183195Y-98688094D01*
X109183195Y-98688094D02*
X109087957Y-98640475D01*
X109087957Y-98640475D02*
X109040338Y-98592856D01*
X109040338Y-98592856D02*
X108992719Y-98497618D01*
%TO.C,LED3*%
X71825219Y-73200237D02*
X71825219Y-73676427D01*
X71825219Y-73676427D02*
X70825219Y-73676427D01*
X71301409Y-72866903D02*
X71301409Y-72533570D01*
X71825219Y-72390713D02*
X71825219Y-72866903D01*
X71825219Y-72866903D02*
X70825219Y-72866903D01*
X70825219Y-72866903D02*
X70825219Y-72390713D01*
X71825219Y-71962141D02*
X70825219Y-71962141D01*
X70825219Y-71962141D02*
X70825219Y-71724046D01*
X70825219Y-71724046D02*
X70872838Y-71581189D01*
X70872838Y-71581189D02*
X70968076Y-71485951D01*
X70968076Y-71485951D02*
X71063314Y-71438332D01*
X71063314Y-71438332D02*
X71253790Y-71390713D01*
X71253790Y-71390713D02*
X71396647Y-71390713D01*
X71396647Y-71390713D02*
X71587123Y-71438332D01*
X71587123Y-71438332D02*
X71682361Y-71485951D01*
X71682361Y-71485951D02*
X71777600Y-71581189D01*
X71777600Y-71581189D02*
X71825219Y-71724046D01*
X71825219Y-71724046D02*
X71825219Y-71962141D01*
X70825219Y-71057379D02*
X70825219Y-70438332D01*
X70825219Y-70438332D02*
X71206171Y-70771665D01*
X71206171Y-70771665D02*
X71206171Y-70628808D01*
X71206171Y-70628808D02*
X71253790Y-70533570D01*
X71253790Y-70533570D02*
X71301409Y-70485951D01*
X71301409Y-70485951D02*
X71396647Y-70438332D01*
X71396647Y-70438332D02*
X71634742Y-70438332D01*
X71634742Y-70438332D02*
X71729980Y-70485951D01*
X71729980Y-70485951D02*
X71777600Y-70533570D01*
X71777600Y-70533570D02*
X71825219Y-70628808D01*
X71825219Y-70628808D02*
X71825219Y-70914522D01*
X71825219Y-70914522D02*
X71777600Y-71009760D01*
X71777600Y-71009760D02*
X71729980Y-71057379D01*
%TO.C,K10*%
X110115219Y-49840475D02*
X109115219Y-49840475D01*
X110115219Y-49269047D02*
X109543790Y-49697618D01*
X109115219Y-49269047D02*
X109686647Y-49840475D01*
X110115219Y-48316666D02*
X110115219Y-48888094D01*
X110115219Y-48602380D02*
X109115219Y-48602380D01*
X109115219Y-48602380D02*
X109258076Y-48697618D01*
X109258076Y-48697618D02*
X109353314Y-48792856D01*
X109353314Y-48792856D02*
X109400933Y-48888094D01*
X109115219Y-47697618D02*
X109115219Y-47602380D01*
X109115219Y-47602380D02*
X109162838Y-47507142D01*
X109162838Y-47507142D02*
X109210457Y-47459523D01*
X109210457Y-47459523D02*
X109305695Y-47411904D01*
X109305695Y-47411904D02*
X109496171Y-47364285D01*
X109496171Y-47364285D02*
X109734266Y-47364285D01*
X109734266Y-47364285D02*
X109924742Y-47411904D01*
X109924742Y-47411904D02*
X110019980Y-47459523D01*
X110019980Y-47459523D02*
X110067600Y-47507142D01*
X110067600Y-47507142D02*
X110115219Y-47602380D01*
X110115219Y-47602380D02*
X110115219Y-47697618D01*
X110115219Y-47697618D02*
X110067600Y-47792856D01*
X110067600Y-47792856D02*
X110019980Y-47840475D01*
X110019980Y-47840475D02*
X109924742Y-47888094D01*
X109924742Y-47888094D02*
X109734266Y-47935713D01*
X109734266Y-47935713D02*
X109496171Y-47935713D01*
X109496171Y-47935713D02*
X109305695Y-47888094D01*
X109305695Y-47888094D02*
X109210457Y-47840475D01*
X109210457Y-47840475D02*
X109162838Y-47792856D01*
X109162838Y-47792856D02*
X109115219Y-47697618D01*
%TO.C,LED2*%
X61665219Y-47800237D02*
X61665219Y-48276427D01*
X61665219Y-48276427D02*
X60665219Y-48276427D01*
X61141409Y-47466903D02*
X61141409Y-47133570D01*
X61665219Y-46990713D02*
X61665219Y-47466903D01*
X61665219Y-47466903D02*
X60665219Y-47466903D01*
X60665219Y-47466903D02*
X60665219Y-46990713D01*
X61665219Y-46562141D02*
X60665219Y-46562141D01*
X60665219Y-46562141D02*
X60665219Y-46324046D01*
X60665219Y-46324046D02*
X60712838Y-46181189D01*
X60712838Y-46181189D02*
X60808076Y-46085951D01*
X60808076Y-46085951D02*
X60903314Y-46038332D01*
X60903314Y-46038332D02*
X61093790Y-45990713D01*
X61093790Y-45990713D02*
X61236647Y-45990713D01*
X61236647Y-45990713D02*
X61427123Y-46038332D01*
X61427123Y-46038332D02*
X61522361Y-46085951D01*
X61522361Y-46085951D02*
X61617600Y-46181189D01*
X61617600Y-46181189D02*
X61665219Y-46324046D01*
X61665219Y-46324046D02*
X61665219Y-46562141D01*
X60760457Y-45609760D02*
X60712838Y-45562141D01*
X60712838Y-45562141D02*
X60665219Y-45466903D01*
X60665219Y-45466903D02*
X60665219Y-45228808D01*
X60665219Y-45228808D02*
X60712838Y-45133570D01*
X60712838Y-45133570D02*
X60760457Y-45085951D01*
X60760457Y-45085951D02*
X60855695Y-45038332D01*
X60855695Y-45038332D02*
X60950933Y-45038332D01*
X60950933Y-45038332D02*
X61093790Y-45085951D01*
X61093790Y-45085951D02*
X61665219Y-45657379D01*
X61665219Y-45657379D02*
X61665219Y-45038332D01*
%TO.C,K11*%
X126625219Y-80320475D02*
X125625219Y-80320475D01*
X126625219Y-79749047D02*
X126053790Y-80177618D01*
X125625219Y-79749047D02*
X126196647Y-80320475D01*
X126625219Y-78796666D02*
X126625219Y-79368094D01*
X126625219Y-79082380D02*
X125625219Y-79082380D01*
X125625219Y-79082380D02*
X125768076Y-79177618D01*
X125768076Y-79177618D02*
X125863314Y-79272856D01*
X125863314Y-79272856D02*
X125910933Y-79368094D01*
X126625219Y-77844285D02*
X126625219Y-78415713D01*
X126625219Y-78129999D02*
X125625219Y-78129999D01*
X125625219Y-78129999D02*
X125768076Y-78225237D01*
X125768076Y-78225237D02*
X125863314Y-78320475D01*
X125863314Y-78320475D02*
X125910933Y-78415713D01*
%TO.C,K14*%
X126747719Y-49707975D02*
X125747719Y-49707975D01*
X126747719Y-49136547D02*
X126176290Y-49565118D01*
X125747719Y-49136547D02*
X126319147Y-49707975D01*
X126747719Y-48184166D02*
X126747719Y-48755594D01*
X126747719Y-48469880D02*
X125747719Y-48469880D01*
X125747719Y-48469880D02*
X125890576Y-48565118D01*
X125890576Y-48565118D02*
X125985814Y-48660356D01*
X125985814Y-48660356D02*
X126033433Y-48755594D01*
X126081052Y-47327023D02*
X126747719Y-47327023D01*
X125700100Y-47565118D02*
X126414385Y-47803213D01*
X126414385Y-47803213D02*
X126414385Y-47184166D01*
%TO.C,LED6*%
X61665219Y-104950237D02*
X61665219Y-105426427D01*
X61665219Y-105426427D02*
X60665219Y-105426427D01*
X61141409Y-104616903D02*
X61141409Y-104283570D01*
X61665219Y-104140713D02*
X61665219Y-104616903D01*
X61665219Y-104616903D02*
X60665219Y-104616903D01*
X60665219Y-104616903D02*
X60665219Y-104140713D01*
X61665219Y-103712141D02*
X60665219Y-103712141D01*
X60665219Y-103712141D02*
X60665219Y-103474046D01*
X60665219Y-103474046D02*
X60712838Y-103331189D01*
X60712838Y-103331189D02*
X60808076Y-103235951D01*
X60808076Y-103235951D02*
X60903314Y-103188332D01*
X60903314Y-103188332D02*
X61093790Y-103140713D01*
X61093790Y-103140713D02*
X61236647Y-103140713D01*
X61236647Y-103140713D02*
X61427123Y-103188332D01*
X61427123Y-103188332D02*
X61522361Y-103235951D01*
X61522361Y-103235951D02*
X61617600Y-103331189D01*
X61617600Y-103331189D02*
X61665219Y-103474046D01*
X61665219Y-103474046D02*
X61665219Y-103712141D01*
X60665219Y-102283570D02*
X60665219Y-102474046D01*
X60665219Y-102474046D02*
X60712838Y-102569284D01*
X60712838Y-102569284D02*
X60760457Y-102616903D01*
X60760457Y-102616903D02*
X60903314Y-102712141D01*
X60903314Y-102712141D02*
X61093790Y-102759760D01*
X61093790Y-102759760D02*
X61474742Y-102759760D01*
X61474742Y-102759760D02*
X61569980Y-102712141D01*
X61569980Y-102712141D02*
X61617600Y-102664522D01*
X61617600Y-102664522D02*
X61665219Y-102569284D01*
X61665219Y-102569284D02*
X61665219Y-102378808D01*
X61665219Y-102378808D02*
X61617600Y-102283570D01*
X61617600Y-102283570D02*
X61569980Y-102235951D01*
X61569980Y-102235951D02*
X61474742Y-102188332D01*
X61474742Y-102188332D02*
X61236647Y-102188332D01*
X61236647Y-102188332D02*
X61141409Y-102235951D01*
X61141409Y-102235951D02*
X61093790Y-102283570D01*
X61093790Y-102283570D02*
X61046171Y-102378808D01*
X61046171Y-102378808D02*
X61046171Y-102569284D01*
X61046171Y-102569284D02*
X61093790Y-102664522D01*
X61093790Y-102664522D02*
X61141409Y-102712141D01*
X61141409Y-102712141D02*
X61236647Y-102759760D01*
%TO.C,LED5*%
X71825219Y-104950237D02*
X71825219Y-105426427D01*
X71825219Y-105426427D02*
X70825219Y-105426427D01*
X71301409Y-104616903D02*
X71301409Y-104283570D01*
X71825219Y-104140713D02*
X71825219Y-104616903D01*
X71825219Y-104616903D02*
X70825219Y-104616903D01*
X70825219Y-104616903D02*
X70825219Y-104140713D01*
X71825219Y-103712141D02*
X70825219Y-103712141D01*
X70825219Y-103712141D02*
X70825219Y-103474046D01*
X70825219Y-103474046D02*
X70872838Y-103331189D01*
X70872838Y-103331189D02*
X70968076Y-103235951D01*
X70968076Y-103235951D02*
X71063314Y-103188332D01*
X71063314Y-103188332D02*
X71253790Y-103140713D01*
X71253790Y-103140713D02*
X71396647Y-103140713D01*
X71396647Y-103140713D02*
X71587123Y-103188332D01*
X71587123Y-103188332D02*
X71682361Y-103235951D01*
X71682361Y-103235951D02*
X71777600Y-103331189D01*
X71777600Y-103331189D02*
X71825219Y-103474046D01*
X71825219Y-103474046D02*
X71825219Y-103712141D01*
X70825219Y-102235951D02*
X70825219Y-102712141D01*
X70825219Y-102712141D02*
X71301409Y-102759760D01*
X71301409Y-102759760D02*
X71253790Y-102712141D01*
X71253790Y-102712141D02*
X71206171Y-102616903D01*
X71206171Y-102616903D02*
X71206171Y-102378808D01*
X71206171Y-102378808D02*
X71253790Y-102283570D01*
X71253790Y-102283570D02*
X71301409Y-102235951D01*
X71301409Y-102235951D02*
X71396647Y-102188332D01*
X71396647Y-102188332D02*
X71634742Y-102188332D01*
X71634742Y-102188332D02*
X71729980Y-102235951D01*
X71729980Y-102235951D02*
X71777600Y-102283570D01*
X71777600Y-102283570D02*
X71825219Y-102378808D01*
X71825219Y-102378808D02*
X71825219Y-102616903D01*
X71825219Y-102616903D02*
X71777600Y-102712141D01*
X71777600Y-102712141D02*
X71729980Y-102759760D01*
D10*
%TO.C,B0*%
X66374504Y-88435766D02*
X66737361Y-88556718D01*
X66737361Y-88556718D02*
X66858314Y-88677670D01*
X66858314Y-88677670D02*
X66979266Y-88919575D01*
X66979266Y-88919575D02*
X66979266Y-89282432D01*
X66979266Y-89282432D02*
X66858314Y-89524337D01*
X66858314Y-89524337D02*
X66737361Y-89645290D01*
X66737361Y-89645290D02*
X66495456Y-89766242D01*
X66495456Y-89766242D02*
X65527837Y-89766242D01*
X65527837Y-89766242D02*
X65527837Y-87226242D01*
X65527837Y-87226242D02*
X66374504Y-87226242D01*
X66374504Y-87226242D02*
X66616409Y-87347194D01*
X66616409Y-87347194D02*
X66737361Y-87468147D01*
X66737361Y-87468147D02*
X66858314Y-87710051D01*
X66858314Y-87710051D02*
X66858314Y-87951956D01*
X66858314Y-87951956D02*
X66737361Y-88193861D01*
X66737361Y-88193861D02*
X66616409Y-88314813D01*
X66616409Y-88314813D02*
X66374504Y-88435766D01*
X66374504Y-88435766D02*
X65527837Y-88435766D01*
X68551647Y-87226242D02*
X68793552Y-87226242D01*
X68793552Y-87226242D02*
X69035456Y-87347194D01*
X69035456Y-87347194D02*
X69156409Y-87468147D01*
X69156409Y-87468147D02*
X69277361Y-87710051D01*
X69277361Y-87710051D02*
X69398314Y-88193861D01*
X69398314Y-88193861D02*
X69398314Y-88798623D01*
X69398314Y-88798623D02*
X69277361Y-89282432D01*
X69277361Y-89282432D02*
X69156409Y-89524337D01*
X69156409Y-89524337D02*
X69035456Y-89645290D01*
X69035456Y-89645290D02*
X68793552Y-89766242D01*
X68793552Y-89766242D02*
X68551647Y-89766242D01*
X68551647Y-89766242D02*
X68309742Y-89645290D01*
X68309742Y-89645290D02*
X68188790Y-89524337D01*
X68188790Y-89524337D02*
X68067837Y-89282432D01*
X68067837Y-89282432D02*
X67946885Y-88798623D01*
X67946885Y-88798623D02*
X67946885Y-88193861D01*
X67946885Y-88193861D02*
X68067837Y-87710051D01*
X68067837Y-87710051D02*
X68188790Y-87468147D01*
X68188790Y-87468147D02*
X68309742Y-87347194D01*
X68309742Y-87347194D02*
X68551647Y-87226242D01*
D13*
%TO.C,K18*%
X77095219Y-80320475D02*
X76095219Y-80320475D01*
X77095219Y-79749047D02*
X76523790Y-80177618D01*
X76095219Y-79749047D02*
X76666647Y-80320475D01*
X77095219Y-78796666D02*
X77095219Y-79368094D01*
X77095219Y-79082380D02*
X76095219Y-79082380D01*
X76095219Y-79082380D02*
X76238076Y-79177618D01*
X76238076Y-79177618D02*
X76333314Y-79272856D01*
X76333314Y-79272856D02*
X76380933Y-79368094D01*
X76523790Y-78225237D02*
X76476171Y-78320475D01*
X76476171Y-78320475D02*
X76428552Y-78368094D01*
X76428552Y-78368094D02*
X76333314Y-78415713D01*
X76333314Y-78415713D02*
X76285695Y-78415713D01*
X76285695Y-78415713D02*
X76190457Y-78368094D01*
X76190457Y-78368094D02*
X76142838Y-78320475D01*
X76142838Y-78320475D02*
X76095219Y-78225237D01*
X76095219Y-78225237D02*
X76095219Y-78034761D01*
X76095219Y-78034761D02*
X76142838Y-77939523D01*
X76142838Y-77939523D02*
X76190457Y-77891904D01*
X76190457Y-77891904D02*
X76285695Y-77844285D01*
X76285695Y-77844285D02*
X76333314Y-77844285D01*
X76333314Y-77844285D02*
X76428552Y-77891904D01*
X76428552Y-77891904D02*
X76476171Y-77939523D01*
X76476171Y-77939523D02*
X76523790Y-78034761D01*
X76523790Y-78034761D02*
X76523790Y-78225237D01*
X76523790Y-78225237D02*
X76571409Y-78320475D01*
X76571409Y-78320475D02*
X76619028Y-78368094D01*
X76619028Y-78368094D02*
X76714266Y-78415713D01*
X76714266Y-78415713D02*
X76904742Y-78415713D01*
X76904742Y-78415713D02*
X76999980Y-78368094D01*
X76999980Y-78368094D02*
X77047600Y-78320475D01*
X77047600Y-78320475D02*
X77095219Y-78225237D01*
X77095219Y-78225237D02*
X77095219Y-78034761D01*
X77095219Y-78034761D02*
X77047600Y-77939523D01*
X77047600Y-77939523D02*
X76999980Y-77891904D01*
X76999980Y-77891904D02*
X76904742Y-77844285D01*
X76904742Y-77844285D02*
X76714266Y-77844285D01*
X76714266Y-77844285D02*
X76619028Y-77891904D01*
X76619028Y-77891904D02*
X76571409Y-77939523D01*
X76571409Y-77939523D02*
X76523790Y-78034761D01*
%TO.C,K3*%
X93604639Y-69684314D02*
X92604639Y-69684314D01*
X93604639Y-69112886D02*
X93033210Y-69541457D01*
X92604639Y-69112886D02*
X93176067Y-69684314D01*
X92604639Y-68779552D02*
X92604639Y-68160505D01*
X92604639Y-68160505D02*
X92985591Y-68493838D01*
X92985591Y-68493838D02*
X92985591Y-68350981D01*
X92985591Y-68350981D02*
X93033210Y-68255743D01*
X93033210Y-68255743D02*
X93080829Y-68208124D01*
X93080829Y-68208124D02*
X93176067Y-68160505D01*
X93176067Y-68160505D02*
X93414162Y-68160505D01*
X93414162Y-68160505D02*
X93509400Y-68208124D01*
X93509400Y-68208124D02*
X93557020Y-68255743D01*
X93557020Y-68255743D02*
X93604639Y-68350981D01*
X93604639Y-68350981D02*
X93604639Y-68636695D01*
X93604639Y-68636695D02*
X93557020Y-68731933D01*
X93557020Y-68731933D02*
X93509400Y-68779552D01*
%TO.C,LED4*%
X61665219Y-73200237D02*
X61665219Y-73676427D01*
X61665219Y-73676427D02*
X60665219Y-73676427D01*
X61141409Y-72866903D02*
X61141409Y-72533570D01*
X61665219Y-72390713D02*
X61665219Y-72866903D01*
X61665219Y-72866903D02*
X60665219Y-72866903D01*
X60665219Y-72866903D02*
X60665219Y-72390713D01*
X61665219Y-71962141D02*
X60665219Y-71962141D01*
X60665219Y-71962141D02*
X60665219Y-71724046D01*
X60665219Y-71724046D02*
X60712838Y-71581189D01*
X60712838Y-71581189D02*
X60808076Y-71485951D01*
X60808076Y-71485951D02*
X60903314Y-71438332D01*
X60903314Y-71438332D02*
X61093790Y-71390713D01*
X61093790Y-71390713D02*
X61236647Y-71390713D01*
X61236647Y-71390713D02*
X61427123Y-71438332D01*
X61427123Y-71438332D02*
X61522361Y-71485951D01*
X61522361Y-71485951D02*
X61617600Y-71581189D01*
X61617600Y-71581189D02*
X61665219Y-71724046D01*
X61665219Y-71724046D02*
X61665219Y-71962141D01*
X60998552Y-70533570D02*
X61665219Y-70533570D01*
X60617600Y-70771665D02*
X61331885Y-71009760D01*
X61331885Y-71009760D02*
X61331885Y-70390713D01*
D10*
%TO.C,A0*%
X65588314Y-63640528D02*
X66797838Y-63640528D01*
X65346409Y-64366242D02*
X66193076Y-61826242D01*
X66193076Y-61826242D02*
X67039743Y-64366242D01*
X68370219Y-61826242D02*
X68612124Y-61826242D01*
X68612124Y-61826242D02*
X68854028Y-61947194D01*
X68854028Y-61947194D02*
X68974981Y-62068147D01*
X68974981Y-62068147D02*
X69095933Y-62310051D01*
X69095933Y-62310051D02*
X69216886Y-62793861D01*
X69216886Y-62793861D02*
X69216886Y-63398623D01*
X69216886Y-63398623D02*
X69095933Y-63882432D01*
X69095933Y-63882432D02*
X68974981Y-64124337D01*
X68974981Y-64124337D02*
X68854028Y-64245290D01*
X68854028Y-64245290D02*
X68612124Y-64366242D01*
X68612124Y-64366242D02*
X68370219Y-64366242D01*
X68370219Y-64366242D02*
X68128314Y-64245290D01*
X68128314Y-64245290D02*
X68007362Y-64124337D01*
X68007362Y-64124337D02*
X67886409Y-63882432D01*
X67886409Y-63882432D02*
X67765457Y-63398623D01*
X67765457Y-63398623D02*
X67765457Y-62793861D01*
X67765457Y-62793861D02*
X67886409Y-62310051D01*
X67886409Y-62310051D02*
X68007362Y-62068147D01*
X68007362Y-62068147D02*
X68128314Y-61947194D01*
X68128314Y-61947194D02*
X68370219Y-61826242D01*
D13*
%TO.C,K7*%
X110115219Y-79844284D02*
X109115219Y-79844284D01*
X110115219Y-79272856D02*
X109543790Y-79701427D01*
X109115219Y-79272856D02*
X109686647Y-79844284D01*
X109115219Y-78939522D02*
X109115219Y-78272856D01*
X109115219Y-78272856D02*
X110115219Y-78701427D01*
%TO.C,K21*%
X126502719Y-100640475D02*
X125502719Y-100640475D01*
X126502719Y-100069047D02*
X125931290Y-100497618D01*
X125502719Y-100069047D02*
X126074147Y-100640475D01*
X125597957Y-99688094D02*
X125550338Y-99640475D01*
X125550338Y-99640475D02*
X125502719Y-99545237D01*
X125502719Y-99545237D02*
X125502719Y-99307142D01*
X125502719Y-99307142D02*
X125550338Y-99211904D01*
X125550338Y-99211904D02*
X125597957Y-99164285D01*
X125597957Y-99164285D02*
X125693195Y-99116666D01*
X125693195Y-99116666D02*
X125788433Y-99116666D01*
X125788433Y-99116666D02*
X125931290Y-99164285D01*
X125931290Y-99164285D02*
X126502719Y-99735713D01*
X126502719Y-99735713D02*
X126502719Y-99116666D01*
X126502719Y-98164285D02*
X126502719Y-98735713D01*
X126502719Y-98449999D02*
X125502719Y-98449999D01*
X125502719Y-98449999D02*
X125645576Y-98545237D01*
X125645576Y-98545237D02*
X125740814Y-98640475D01*
X125740814Y-98640475D02*
X125788433Y-98735713D01*
%TO.C,K19*%
X93605219Y-90480475D02*
X92605219Y-90480475D01*
X93605219Y-89909047D02*
X93033790Y-90337618D01*
X92605219Y-89909047D02*
X93176647Y-90480475D01*
X93605219Y-88956666D02*
X93605219Y-89528094D01*
X93605219Y-89242380D02*
X92605219Y-89242380D01*
X92605219Y-89242380D02*
X92748076Y-89337618D01*
X92748076Y-89337618D02*
X92843314Y-89432856D01*
X92843314Y-89432856D02*
X92890933Y-89528094D01*
X93605219Y-88480475D02*
X93605219Y-88289999D01*
X93605219Y-88289999D02*
X93557600Y-88194761D01*
X93557600Y-88194761D02*
X93509980Y-88147142D01*
X93509980Y-88147142D02*
X93367123Y-88051904D01*
X93367123Y-88051904D02*
X93176647Y-88004285D01*
X93176647Y-88004285D02*
X92795695Y-88004285D01*
X92795695Y-88004285D02*
X92700457Y-88051904D01*
X92700457Y-88051904D02*
X92652838Y-88099523D01*
X92652838Y-88099523D02*
X92605219Y-88194761D01*
X92605219Y-88194761D02*
X92605219Y-88385237D01*
X92605219Y-88385237D02*
X92652838Y-88480475D01*
X92652838Y-88480475D02*
X92700457Y-88528094D01*
X92700457Y-88528094D02*
X92795695Y-88575713D01*
X92795695Y-88575713D02*
X93033790Y-88575713D01*
X93033790Y-88575713D02*
X93129028Y-88528094D01*
X93129028Y-88528094D02*
X93176647Y-88480475D01*
X93176647Y-88480475D02*
X93224266Y-88385237D01*
X93224266Y-88385237D02*
X93224266Y-88194761D01*
X93224266Y-88194761D02*
X93176647Y-88099523D01*
X93176647Y-88099523D02*
X93129028Y-88051904D01*
X93129028Y-88051904D02*
X93033790Y-88004285D01*
D10*
%TO.C,A1*%
X55428314Y-63640528D02*
X56637838Y-63640528D01*
X55186409Y-64366242D02*
X56033076Y-61826242D01*
X56033076Y-61826242D02*
X56879743Y-64366242D01*
X59056886Y-64366242D02*
X57605457Y-64366242D01*
X58331171Y-64366242D02*
X58331171Y-61826242D01*
X58331171Y-61826242D02*
X58089267Y-62189099D01*
X58089267Y-62189099D02*
X57847362Y-62431004D01*
X57847362Y-62431004D02*
X57605457Y-62551956D01*
D13*
%TO.C,K12*%
X126747719Y-70027975D02*
X125747719Y-70027975D01*
X126747719Y-69456547D02*
X126176290Y-69885118D01*
X125747719Y-69456547D02*
X126319147Y-70027975D01*
X126747719Y-68504166D02*
X126747719Y-69075594D01*
X126747719Y-68789880D02*
X125747719Y-68789880D01*
X125747719Y-68789880D02*
X125890576Y-68885118D01*
X125890576Y-68885118D02*
X125985814Y-68980356D01*
X125985814Y-68980356D02*
X126033433Y-69075594D01*
X125842957Y-68123213D02*
X125795338Y-68075594D01*
X125795338Y-68075594D02*
X125747719Y-67980356D01*
X125747719Y-67980356D02*
X125747719Y-67742261D01*
X125747719Y-67742261D02*
X125795338Y-67647023D01*
X125795338Y-67647023D02*
X125842957Y-67599404D01*
X125842957Y-67599404D02*
X125938195Y-67551785D01*
X125938195Y-67551785D02*
X126033433Y-67551785D01*
X126033433Y-67551785D02*
X126176290Y-67599404D01*
X126176290Y-67599404D02*
X126747719Y-68170832D01*
X126747719Y-68170832D02*
X126747719Y-67551785D01*
%TO.C,K2*%
X93604639Y-79844119D02*
X92604639Y-79844119D01*
X93604639Y-79272691D02*
X93033210Y-79701262D01*
X92604639Y-79272691D02*
X93176067Y-79844119D01*
X92699877Y-78891738D02*
X92652258Y-78844119D01*
X92652258Y-78844119D02*
X92604639Y-78748881D01*
X92604639Y-78748881D02*
X92604639Y-78510786D01*
X92604639Y-78510786D02*
X92652258Y-78415548D01*
X92652258Y-78415548D02*
X92699877Y-78367929D01*
X92699877Y-78367929D02*
X92795115Y-78320310D01*
X92795115Y-78320310D02*
X92890353Y-78320310D01*
X92890353Y-78320310D02*
X93033210Y-78367929D01*
X93033210Y-78367929D02*
X93604639Y-78939357D01*
X93604639Y-78939357D02*
X93604639Y-78320310D01*
%TO.C,K13*%
X126747719Y-59867975D02*
X125747719Y-59867975D01*
X126747719Y-59296547D02*
X126176290Y-59725118D01*
X125747719Y-59296547D02*
X126319147Y-59867975D01*
X126747719Y-58344166D02*
X126747719Y-58915594D01*
X126747719Y-58629880D02*
X125747719Y-58629880D01*
X125747719Y-58629880D02*
X125890576Y-58725118D01*
X125890576Y-58725118D02*
X125985814Y-58820356D01*
X125985814Y-58820356D02*
X126033433Y-58915594D01*
X125747719Y-58010832D02*
X125747719Y-57391785D01*
X125747719Y-57391785D02*
X126128671Y-57725118D01*
X126128671Y-57725118D02*
X126128671Y-57582261D01*
X126128671Y-57582261D02*
X126176290Y-57487023D01*
X126176290Y-57487023D02*
X126223909Y-57439404D01*
X126223909Y-57439404D02*
X126319147Y-57391785D01*
X126319147Y-57391785D02*
X126557242Y-57391785D01*
X126557242Y-57391785D02*
X126652480Y-57439404D01*
X126652480Y-57439404D02*
X126700100Y-57487023D01*
X126700100Y-57487023D02*
X126747719Y-57582261D01*
X126747719Y-57582261D02*
X126747719Y-57867975D01*
X126747719Y-57867975D02*
X126700100Y-57963213D01*
X126700100Y-57963213D02*
X126652480Y-58010832D01*
%TO.C,K17*%
X77095219Y-70160475D02*
X76095219Y-70160475D01*
X77095219Y-69589047D02*
X76523790Y-70017618D01*
X76095219Y-69589047D02*
X76666647Y-70160475D01*
X77095219Y-68636666D02*
X77095219Y-69208094D01*
X77095219Y-68922380D02*
X76095219Y-68922380D01*
X76095219Y-68922380D02*
X76238076Y-69017618D01*
X76238076Y-69017618D02*
X76333314Y-69112856D01*
X76333314Y-69112856D02*
X76380933Y-69208094D01*
X76095219Y-68303332D02*
X76095219Y-67636666D01*
X76095219Y-67636666D02*
X77095219Y-68065237D01*
%TO.C,K8*%
X110115219Y-69684284D02*
X109115219Y-69684284D01*
X110115219Y-69112856D02*
X109543790Y-69541427D01*
X109115219Y-69112856D02*
X109686647Y-69684284D01*
X109543790Y-68541427D02*
X109496171Y-68636665D01*
X109496171Y-68636665D02*
X109448552Y-68684284D01*
X109448552Y-68684284D02*
X109353314Y-68731903D01*
X109353314Y-68731903D02*
X109305695Y-68731903D01*
X109305695Y-68731903D02*
X109210457Y-68684284D01*
X109210457Y-68684284D02*
X109162838Y-68636665D01*
X109162838Y-68636665D02*
X109115219Y-68541427D01*
X109115219Y-68541427D02*
X109115219Y-68350951D01*
X109115219Y-68350951D02*
X109162838Y-68255713D01*
X109162838Y-68255713D02*
X109210457Y-68208094D01*
X109210457Y-68208094D02*
X109305695Y-68160475D01*
X109305695Y-68160475D02*
X109353314Y-68160475D01*
X109353314Y-68160475D02*
X109448552Y-68208094D01*
X109448552Y-68208094D02*
X109496171Y-68255713D01*
X109496171Y-68255713D02*
X109543790Y-68350951D01*
X109543790Y-68350951D02*
X109543790Y-68541427D01*
X109543790Y-68541427D02*
X109591409Y-68636665D01*
X109591409Y-68636665D02*
X109639028Y-68684284D01*
X109639028Y-68684284D02*
X109734266Y-68731903D01*
X109734266Y-68731903D02*
X109924742Y-68731903D01*
X109924742Y-68731903D02*
X110019980Y-68684284D01*
X110019980Y-68684284D02*
X110067600Y-68636665D01*
X110067600Y-68636665D02*
X110115219Y-68541427D01*
X110115219Y-68541427D02*
X110115219Y-68350951D01*
X110115219Y-68350951D02*
X110067600Y-68255713D01*
X110067600Y-68255713D02*
X110019980Y-68208094D01*
X110019980Y-68208094D02*
X109924742Y-68160475D01*
X109924742Y-68160475D02*
X109734266Y-68160475D01*
X109734266Y-68160475D02*
X109639028Y-68208094D01*
X109639028Y-68208094D02*
X109591409Y-68255713D01*
X109591409Y-68255713D02*
X109543790Y-68350951D01*
%TO.C,K9*%
X110115219Y-59524284D02*
X109115219Y-59524284D01*
X110115219Y-58952856D02*
X109543790Y-59381427D01*
X109115219Y-58952856D02*
X109686647Y-59524284D01*
X110115219Y-58476665D02*
X110115219Y-58286189D01*
X110115219Y-58286189D02*
X110067600Y-58190951D01*
X110067600Y-58190951D02*
X110019980Y-58143332D01*
X110019980Y-58143332D02*
X109877123Y-58048094D01*
X109877123Y-58048094D02*
X109686647Y-58000475D01*
X109686647Y-58000475D02*
X109305695Y-58000475D01*
X109305695Y-58000475D02*
X109210457Y-58048094D01*
X109210457Y-58048094D02*
X109162838Y-58095713D01*
X109162838Y-58095713D02*
X109115219Y-58190951D01*
X109115219Y-58190951D02*
X109115219Y-58381427D01*
X109115219Y-58381427D02*
X109162838Y-58476665D01*
X109162838Y-58476665D02*
X109210457Y-58524284D01*
X109210457Y-58524284D02*
X109305695Y-58571903D01*
X109305695Y-58571903D02*
X109543790Y-58571903D01*
X109543790Y-58571903D02*
X109639028Y-58524284D01*
X109639028Y-58524284D02*
X109686647Y-58476665D01*
X109686647Y-58476665D02*
X109734266Y-58381427D01*
X109734266Y-58381427D02*
X109734266Y-58190951D01*
X109734266Y-58190951D02*
X109686647Y-58095713D01*
X109686647Y-58095713D02*
X109639028Y-58048094D01*
X109639028Y-58048094D02*
X109543790Y-58000475D01*
D10*
%TO.C,B1*%
X56214504Y-88435766D02*
X56577361Y-88556718D01*
X56577361Y-88556718D02*
X56698314Y-88677670D01*
X56698314Y-88677670D02*
X56819266Y-88919575D01*
X56819266Y-88919575D02*
X56819266Y-89282432D01*
X56819266Y-89282432D02*
X56698314Y-89524337D01*
X56698314Y-89524337D02*
X56577361Y-89645290D01*
X56577361Y-89645290D02*
X56335456Y-89766242D01*
X56335456Y-89766242D02*
X55367837Y-89766242D01*
X55367837Y-89766242D02*
X55367837Y-87226242D01*
X55367837Y-87226242D02*
X56214504Y-87226242D01*
X56214504Y-87226242D02*
X56456409Y-87347194D01*
X56456409Y-87347194D02*
X56577361Y-87468147D01*
X56577361Y-87468147D02*
X56698314Y-87710051D01*
X56698314Y-87710051D02*
X56698314Y-87951956D01*
X56698314Y-87951956D02*
X56577361Y-88193861D01*
X56577361Y-88193861D02*
X56456409Y-88314813D01*
X56456409Y-88314813D02*
X56214504Y-88435766D01*
X56214504Y-88435766D02*
X55367837Y-88435766D01*
X59238314Y-89766242D02*
X57786885Y-89766242D01*
X58512599Y-89766242D02*
X58512599Y-87226242D01*
X58512599Y-87226242D02*
X58270695Y-87589099D01*
X58270695Y-87589099D02*
X58028790Y-87831004D01*
X58028790Y-87831004D02*
X57786885Y-87951956D01*
D13*
%TO.C,K5*%
X93604639Y-49364704D02*
X92604639Y-49364704D01*
X93604639Y-48793276D02*
X93033210Y-49221847D01*
X92604639Y-48793276D02*
X93176067Y-49364704D01*
X92604639Y-47888514D02*
X92604639Y-48364704D01*
X92604639Y-48364704D02*
X93080829Y-48412323D01*
X93080829Y-48412323D02*
X93033210Y-48364704D01*
X93033210Y-48364704D02*
X92985591Y-48269466D01*
X92985591Y-48269466D02*
X92985591Y-48031371D01*
X92985591Y-48031371D02*
X93033210Y-47936133D01*
X93033210Y-47936133D02*
X93080829Y-47888514D01*
X93080829Y-47888514D02*
X93176067Y-47840895D01*
X93176067Y-47840895D02*
X93414162Y-47840895D01*
X93414162Y-47840895D02*
X93509400Y-47888514D01*
X93509400Y-47888514D02*
X93557020Y-47936133D01*
X93557020Y-47936133D02*
X93604639Y-48031371D01*
X93604639Y-48031371D02*
X93604639Y-48269466D01*
X93604639Y-48269466D02*
X93557020Y-48364704D01*
X93557020Y-48364704D02*
X93509400Y-48412323D01*
%TO.C,K6*%
X126625219Y-90004284D02*
X125625219Y-90004284D01*
X126625219Y-89432856D02*
X126053790Y-89861427D01*
X125625219Y-89432856D02*
X126196647Y-90004284D01*
X125625219Y-88575713D02*
X125625219Y-88766189D01*
X125625219Y-88766189D02*
X125672838Y-88861427D01*
X125672838Y-88861427D02*
X125720457Y-88909046D01*
X125720457Y-88909046D02*
X125863314Y-89004284D01*
X125863314Y-89004284D02*
X126053790Y-89051903D01*
X126053790Y-89051903D02*
X126434742Y-89051903D01*
X126434742Y-89051903D02*
X126529980Y-89004284D01*
X126529980Y-89004284D02*
X126577600Y-88956665D01*
X126577600Y-88956665D02*
X126625219Y-88861427D01*
X126625219Y-88861427D02*
X126625219Y-88670951D01*
X126625219Y-88670951D02*
X126577600Y-88575713D01*
X126577600Y-88575713D02*
X126529980Y-88528094D01*
X126529980Y-88528094D02*
X126434742Y-88480475D01*
X126434742Y-88480475D02*
X126196647Y-88480475D01*
X126196647Y-88480475D02*
X126101409Y-88528094D01*
X126101409Y-88528094D02*
X126053790Y-88575713D01*
X126053790Y-88575713D02*
X126006171Y-88670951D01*
X126006171Y-88670951D02*
X126006171Y-88861427D01*
X126006171Y-88861427D02*
X126053790Y-88956665D01*
X126053790Y-88956665D02*
X126101409Y-89004284D01*
X126101409Y-89004284D02*
X126196647Y-89051903D01*
%TO.C,K1*%
X110114639Y-90003924D02*
X109114639Y-90003924D01*
X110114639Y-89432496D02*
X109543210Y-89861067D01*
X109114639Y-89432496D02*
X109686067Y-90003924D01*
X110114639Y-88480115D02*
X110114639Y-89051543D01*
X110114639Y-88765829D02*
X109114639Y-88765829D01*
X109114639Y-88765829D02*
X109257496Y-88861067D01*
X109257496Y-88861067D02*
X109352734Y-88956305D01*
X109352734Y-88956305D02*
X109400353Y-89051543D01*
%TO.C,K16*%
X77095219Y-49840895D02*
X76095219Y-49840895D01*
X77095219Y-49269467D02*
X76523790Y-49698038D01*
X76095219Y-49269467D02*
X76666647Y-49840895D01*
X77095219Y-48317086D02*
X77095219Y-48888514D01*
X77095219Y-48602800D02*
X76095219Y-48602800D01*
X76095219Y-48602800D02*
X76238076Y-48698038D01*
X76238076Y-48698038D02*
X76333314Y-48793276D01*
X76333314Y-48793276D02*
X76380933Y-48888514D01*
X76095219Y-47459943D02*
X76095219Y-47650419D01*
X76095219Y-47650419D02*
X76142838Y-47745657D01*
X76142838Y-47745657D02*
X76190457Y-47793276D01*
X76190457Y-47793276D02*
X76333314Y-47888514D01*
X76333314Y-47888514D02*
X76523790Y-47936133D01*
X76523790Y-47936133D02*
X76904742Y-47936133D01*
X76904742Y-47936133D02*
X76999980Y-47888514D01*
X76999980Y-47888514D02*
X77047600Y-47840895D01*
X77047600Y-47840895D02*
X77095219Y-47745657D01*
X77095219Y-47745657D02*
X77095219Y-47555181D01*
X77095219Y-47555181D02*
X77047600Y-47459943D01*
X77047600Y-47459943D02*
X76999980Y-47412324D01*
X76999980Y-47412324D02*
X76904742Y-47364705D01*
X76904742Y-47364705D02*
X76666647Y-47364705D01*
X76666647Y-47364705D02*
X76571409Y-47412324D01*
X76571409Y-47412324D02*
X76523790Y-47459943D01*
X76523790Y-47459943D02*
X76476171Y-47555181D01*
X76476171Y-47555181D02*
X76476171Y-47745657D01*
X76476171Y-47745657D02*
X76523790Y-47840895D01*
X76523790Y-47840895D02*
X76571409Y-47888514D01*
X76571409Y-47888514D02*
X76666647Y-47936133D01*
%TO.C,K4*%
X93604639Y-59524509D02*
X92604639Y-59524509D01*
X93604639Y-58953081D02*
X93033210Y-59381652D01*
X92604639Y-58953081D02*
X93176067Y-59524509D01*
X92937972Y-58095938D02*
X93604639Y-58095938D01*
X92557020Y-58334033D02*
X93271305Y-58572128D01*
X93271305Y-58572128D02*
X93271305Y-57953081D01*
%TO.C,S1*%
X83937600Y-104593094D02*
X83985219Y-104450237D01*
X83985219Y-104450237D02*
X83985219Y-104212142D01*
X83985219Y-104212142D02*
X83937600Y-104116904D01*
X83937600Y-104116904D02*
X83889980Y-104069285D01*
X83889980Y-104069285D02*
X83794742Y-104021666D01*
X83794742Y-104021666D02*
X83699504Y-104021666D01*
X83699504Y-104021666D02*
X83604266Y-104069285D01*
X83604266Y-104069285D02*
X83556647Y-104116904D01*
X83556647Y-104116904D02*
X83509028Y-104212142D01*
X83509028Y-104212142D02*
X83461409Y-104402618D01*
X83461409Y-104402618D02*
X83413790Y-104497856D01*
X83413790Y-104497856D02*
X83366171Y-104545475D01*
X83366171Y-104545475D02*
X83270933Y-104593094D01*
X83270933Y-104593094D02*
X83175695Y-104593094D01*
X83175695Y-104593094D02*
X83080457Y-104545475D01*
X83080457Y-104545475D02*
X83032838Y-104497856D01*
X83032838Y-104497856D02*
X82985219Y-104402618D01*
X82985219Y-104402618D02*
X82985219Y-104164523D01*
X82985219Y-104164523D02*
X83032838Y-104021666D01*
X83985219Y-103069285D02*
X83985219Y-103640713D01*
X83985219Y-103354999D02*
X82985219Y-103354999D01*
X82985219Y-103354999D02*
X83128076Y-103450237D01*
X83128076Y-103450237D02*
X83223314Y-103545475D01*
X83223314Y-103545475D02*
X83270933Y-103640713D01*
D12*
%TO.C,J1*%
X91630000Y-106818840D02*
X91630000Y-113618840D01*
X91630000Y-106818840D02*
X92130000Y-106818840D01*
X92130000Y-106818840D02*
X92630000Y-107318840D01*
X92630000Y-107318840D02*
X99630000Y-107318840D01*
D14*
X92630000Y-108118840D02*
X99630000Y-108118840D01*
D12*
X99630000Y-107318840D02*
X100130000Y-106818840D01*
X100130000Y-106818840D02*
X100630000Y-106818840D01*
X100330000Y-112718840D02*
X91930000Y-112718840D01*
X100630000Y-106818840D02*
X100630000Y-113618840D01*
X100630000Y-113618840D02*
X91630000Y-113618840D01*
D15*
%TO.C,K15*%
X77332600Y-62886190D02*
X77332600Y-60686190D01*
X79432600Y-62886190D02*
X77332600Y-62886190D01*
X77532600Y-62686190D02*
X77532600Y-54886190D01*
X90232600Y-62686190D02*
X77532600Y-62686190D01*
X82515600Y-60524190D02*
X83150600Y-60524190D01*
X83150600Y-60524190D02*
X83150600Y-59864190D01*
X82642600Y-59864190D02*
X83658600Y-59864190D01*
X83658600Y-59864190D02*
X83658600Y-57959190D01*
X82642600Y-58340190D02*
X83658600Y-58975190D01*
X82642600Y-57959190D02*
X82642600Y-59864190D01*
X82642600Y-57959190D02*
X83658600Y-57959190D01*
X82515600Y-57324190D02*
X83150600Y-57324190D01*
X83150600Y-57324190D02*
X83150600Y-57959190D01*
X77532600Y-54886190D02*
X90232600Y-54886190D01*
X90232600Y-54886190D02*
X90232600Y-62686190D01*
%TO.C,LED1*%
X68947600Y-44121190D02*
X65857600Y-44121190D01*
X67402138Y-49671189D02*
G75*
G03*
X68947430Y-44121191I462J2989999D01*
G01*
X65857770Y-44121190D02*
G75*
G03*
X67403062Y-49671190I1544830J-2560000D01*
G01*
X69902600Y-46681190D02*
G75*
G03*
X69902600Y-46681190I-2500000J0D01*
G01*
%TO.C,K20*%
X110230100Y-103526190D02*
X110230100Y-101326190D01*
X112330100Y-103526190D02*
X110230100Y-103526190D01*
X110430100Y-103326190D02*
X110430100Y-95526190D01*
X123130100Y-103326190D02*
X110430100Y-103326190D01*
X115413100Y-101164190D02*
X116048100Y-101164190D01*
X116048100Y-101164190D02*
X116048100Y-100504190D01*
X115540100Y-100504190D02*
X116556100Y-100504190D01*
X116556100Y-100504190D02*
X116556100Y-98599190D01*
X115540100Y-98980190D02*
X116556100Y-99615190D01*
X115540100Y-98599190D02*
X115540100Y-100504190D01*
X115540100Y-98599190D02*
X116556100Y-98599190D01*
X115413100Y-97964190D02*
X116048100Y-97964190D01*
X116048100Y-97964190D02*
X116048100Y-98599190D01*
X110430100Y-95526190D02*
X123130100Y-95526190D01*
X123130100Y-95526190D02*
X123130100Y-103326190D01*
%TO.C,LED3*%
X68947600Y-69521190D02*
X65857600Y-69521190D01*
X67402138Y-75071189D02*
G75*
G03*
X68947430Y-69521191I462J2989999D01*
G01*
X65857770Y-69521190D02*
G75*
G03*
X67403062Y-75071190I1544830J-2560000D01*
G01*
X69902600Y-72081190D02*
G75*
G03*
X69902600Y-72081190I-2500000J0D01*
G01*
%TO.C,K10*%
X110352600Y-52726190D02*
X110352600Y-50526190D01*
X112452600Y-52726190D02*
X110352600Y-52726190D01*
X110552600Y-52526190D02*
X110552600Y-44726190D01*
X123252600Y-52526190D02*
X110552600Y-52526190D01*
X115535600Y-50364190D02*
X116170600Y-50364190D01*
X116170600Y-50364190D02*
X116170600Y-49704190D01*
X115662600Y-49704190D02*
X116678600Y-49704190D01*
X116678600Y-49704190D02*
X116678600Y-47799190D01*
X115662600Y-48180190D02*
X116678600Y-48815190D01*
X115662600Y-47799190D02*
X115662600Y-49704190D01*
X115662600Y-47799190D02*
X116678600Y-47799190D01*
X115535600Y-47164190D02*
X116170600Y-47164190D01*
X116170600Y-47164190D02*
X116170600Y-47799190D01*
X110552600Y-44726190D02*
X123252600Y-44726190D01*
X123252600Y-44726190D02*
X123252600Y-52526190D01*
%TO.C,LED2*%
X58787600Y-44121190D02*
X55697600Y-44121190D01*
X57242138Y-49671189D02*
G75*
G03*
X58787430Y-44121191I462J2989999D01*
G01*
X55697770Y-44121190D02*
G75*
G03*
X57243062Y-49671190I1544830J-2560000D01*
G01*
X59742600Y-46681190D02*
G75*
G03*
X59742600Y-46681190I-2500000J0D01*
G01*
%TO.C,K11*%
X126862600Y-83206190D02*
X126862600Y-81006190D01*
X128962600Y-83206190D02*
X126862600Y-83206190D01*
X127062600Y-83006190D02*
X127062600Y-75206190D01*
X139762600Y-83006190D02*
X127062600Y-83006190D01*
X132045600Y-80844190D02*
X132680600Y-80844190D01*
X132680600Y-80844190D02*
X132680600Y-80184190D01*
X132172600Y-80184190D02*
X133188600Y-80184190D01*
X133188600Y-80184190D02*
X133188600Y-78279190D01*
X132172600Y-78660190D02*
X133188600Y-79295190D01*
X132172600Y-78279190D02*
X132172600Y-80184190D01*
X132172600Y-78279190D02*
X133188600Y-78279190D01*
X132045600Y-77644190D02*
X132680600Y-77644190D01*
X132680600Y-77644190D02*
X132680600Y-78279190D01*
X127062600Y-75206190D02*
X139762600Y-75206190D01*
X139762600Y-75206190D02*
X139762600Y-83006190D01*
%TO.C,K14*%
X126985100Y-52593690D02*
X126985100Y-50393690D01*
X129085100Y-52593690D02*
X126985100Y-52593690D01*
X127185100Y-52393690D02*
X127185100Y-44593690D01*
X139885100Y-52393690D02*
X127185100Y-52393690D01*
X132168100Y-50231690D02*
X132803100Y-50231690D01*
X132803100Y-50231690D02*
X132803100Y-49571690D01*
X132295100Y-49571690D02*
X133311100Y-49571690D01*
X133311100Y-49571690D02*
X133311100Y-47666690D01*
X132295100Y-48047690D02*
X133311100Y-48682690D01*
X132295100Y-47666690D02*
X132295100Y-49571690D01*
X132295100Y-47666690D02*
X133311100Y-47666690D01*
X132168100Y-47031690D02*
X132803100Y-47031690D01*
X132803100Y-47031690D02*
X132803100Y-47666690D01*
X127185100Y-44593690D02*
X139885100Y-44593690D01*
X139885100Y-44593690D02*
X139885100Y-52393690D01*
%TO.C,LED6*%
X58787600Y-101271190D02*
X55697600Y-101271190D01*
X57242138Y-106821189D02*
G75*
G03*
X58787430Y-101271191I462J2989999D01*
G01*
X55697770Y-101271190D02*
G75*
G03*
X57243062Y-106821190I1544830J-2560000D01*
G01*
X59742600Y-103831190D02*
G75*
G03*
X59742600Y-103831190I-2500000J0D01*
G01*
%TO.C,LED5*%
X68947600Y-101271190D02*
X65857600Y-101271190D01*
X67402138Y-106821189D02*
G75*
G03*
X68947430Y-101271191I462J2989999D01*
G01*
X65857770Y-101271190D02*
G75*
G03*
X67403062Y-106821190I1544830J-2560000D01*
G01*
X69902600Y-103831190D02*
G75*
G03*
X69902600Y-103831190I-2500000J0D01*
G01*
%TO.C,B0*%
X70062600Y-75781190D02*
X68679600Y-75781190D01*
X70062600Y-75781190D02*
X70062600Y-77165190D01*
X69822600Y-76021190D02*
X64982600Y-76021190D01*
X69822600Y-76021190D02*
X69822600Y-85921190D01*
X64982600Y-76021190D02*
X64982600Y-85921190D01*
X68037600Y-78941190D02*
X66767600Y-78941190D01*
X67917600Y-78941190D02*
X67917600Y-80294523D01*
X67797600Y-78941190D02*
X67797600Y-80294523D01*
X67677600Y-78941190D02*
X67677600Y-80294523D01*
X67557600Y-78941190D02*
X67557600Y-80294523D01*
X67437600Y-78941190D02*
X67437600Y-80294523D01*
X67317600Y-78941190D02*
X67317600Y-80294523D01*
X67197600Y-78941190D02*
X67197600Y-80294523D01*
X67077600Y-78941190D02*
X67077600Y-80294523D01*
X66957600Y-78941190D02*
X66957600Y-80294523D01*
X66837600Y-78941190D02*
X66837600Y-80294523D01*
X66767600Y-78941190D02*
X66767600Y-83001190D01*
X68037600Y-80294523D02*
X66767600Y-80294523D01*
X68037600Y-83001190D02*
X68037600Y-78941190D01*
X66767600Y-83001190D02*
X68037600Y-83001190D01*
X69822600Y-85921190D02*
X64982600Y-85921190D01*
%TO.C,K18*%
X77332600Y-83206190D02*
X77332600Y-81006190D01*
X79432600Y-83206190D02*
X77332600Y-83206190D01*
X77532600Y-83006190D02*
X77532600Y-75206190D01*
X90232600Y-83006190D02*
X77532600Y-83006190D01*
X82515600Y-80844190D02*
X83150600Y-80844190D01*
X83150600Y-80844190D02*
X83150600Y-80184190D01*
X82642600Y-80184190D02*
X83658600Y-80184190D01*
X83658600Y-80184190D02*
X83658600Y-78279190D01*
X82642600Y-78660190D02*
X83658600Y-79295190D01*
X82642600Y-78279190D02*
X82642600Y-80184190D01*
X82642600Y-78279190D02*
X83658600Y-78279190D01*
X82515600Y-77644190D02*
X83150600Y-77644190D01*
X83150600Y-77644190D02*
X83150600Y-78279190D01*
X77532600Y-75206190D02*
X90232600Y-75206190D01*
X90232600Y-75206190D02*
X90232600Y-83006190D01*
%TO.C,K3*%
X93842020Y-73046220D02*
X93842020Y-70846220D01*
X95942020Y-73046220D02*
X93842020Y-73046220D01*
X94042020Y-72846220D02*
X94042020Y-65046220D01*
X106742020Y-72846220D02*
X94042020Y-72846220D01*
X99025020Y-70684220D02*
X99660020Y-70684220D01*
X99660020Y-70684220D02*
X99660020Y-70024220D01*
X99152020Y-70024220D02*
X100168020Y-70024220D01*
X100168020Y-70024220D02*
X100168020Y-68119220D01*
X99152020Y-68500220D02*
X100168020Y-69135220D01*
X99152020Y-68119220D02*
X99152020Y-70024220D01*
X99152020Y-68119220D02*
X100168020Y-68119220D01*
X99025020Y-67484220D02*
X99660020Y-67484220D01*
X99660020Y-67484220D02*
X99660020Y-68119220D01*
X94042020Y-65046220D02*
X106742020Y-65046220D01*
X106742020Y-65046220D02*
X106742020Y-72846220D01*
%TO.C,LED4*%
X58787600Y-69521190D02*
X55697600Y-69521190D01*
X57242138Y-75071189D02*
G75*
G03*
X58787430Y-69521191I462J2989999D01*
G01*
X55697770Y-69521190D02*
G75*
G03*
X57243062Y-75071190I1544830J-2560000D01*
G01*
X59742600Y-72081190D02*
G75*
G03*
X59742600Y-72081190I-2500000J0D01*
G01*
%TO.C,A0*%
X70062600Y-50381190D02*
X68679600Y-50381190D01*
X70062600Y-50381190D02*
X70062600Y-51765190D01*
X69822600Y-50621190D02*
X64982600Y-50621190D01*
X69822600Y-50621190D02*
X69822600Y-60521190D01*
X64982600Y-50621190D02*
X64982600Y-60521190D01*
X68037600Y-53541190D02*
X66767600Y-53541190D01*
X67917600Y-53541190D02*
X67917600Y-54894523D01*
X67797600Y-53541190D02*
X67797600Y-54894523D01*
X67677600Y-53541190D02*
X67677600Y-54894523D01*
X67557600Y-53541190D02*
X67557600Y-54894523D01*
X67437600Y-53541190D02*
X67437600Y-54894523D01*
X67317600Y-53541190D02*
X67317600Y-54894523D01*
X67197600Y-53541190D02*
X67197600Y-54894523D01*
X67077600Y-53541190D02*
X67077600Y-54894523D01*
X66957600Y-53541190D02*
X66957600Y-54894523D01*
X66837600Y-53541190D02*
X66837600Y-54894523D01*
X66767600Y-53541190D02*
X66767600Y-57601190D01*
X68037600Y-54894523D02*
X66767600Y-54894523D01*
X68037600Y-57601190D02*
X68037600Y-53541190D01*
X66767600Y-57601190D02*
X68037600Y-57601190D01*
X69822600Y-60521190D02*
X64982600Y-60521190D01*
%TO.C,K7*%
X110352600Y-83206190D02*
X110352600Y-81006190D01*
X112452600Y-83206190D02*
X110352600Y-83206190D01*
X110552600Y-83006190D02*
X110552600Y-75206190D01*
X123252600Y-83006190D02*
X110552600Y-83006190D01*
X115535600Y-80844190D02*
X116170600Y-80844190D01*
X116170600Y-80844190D02*
X116170600Y-80184190D01*
X115662600Y-80184190D02*
X116678600Y-80184190D01*
X116678600Y-80184190D02*
X116678600Y-78279190D01*
X115662600Y-78660190D02*
X116678600Y-79295190D01*
X115662600Y-78279190D02*
X115662600Y-80184190D01*
X115662600Y-78279190D02*
X116678600Y-78279190D01*
X115535600Y-77644190D02*
X116170600Y-77644190D01*
X116170600Y-77644190D02*
X116170600Y-78279190D01*
X110552600Y-75206190D02*
X123252600Y-75206190D01*
X123252600Y-75206190D02*
X123252600Y-83006190D01*
%TO.C,K21*%
X126740100Y-103526190D02*
X126740100Y-101326190D01*
X128840100Y-103526190D02*
X126740100Y-103526190D01*
X126940100Y-103326190D02*
X126940100Y-95526190D01*
X139640100Y-103326190D02*
X126940100Y-103326190D01*
X131923100Y-101164190D02*
X132558100Y-101164190D01*
X132558100Y-101164190D02*
X132558100Y-100504190D01*
X132050100Y-100504190D02*
X133066100Y-100504190D01*
X133066100Y-100504190D02*
X133066100Y-98599190D01*
X132050100Y-98980190D02*
X133066100Y-99615190D01*
X132050100Y-98599190D02*
X132050100Y-100504190D01*
X132050100Y-98599190D02*
X133066100Y-98599190D01*
X131923100Y-97964190D02*
X132558100Y-97964190D01*
X132558100Y-97964190D02*
X132558100Y-98599190D01*
X126940100Y-95526190D02*
X139640100Y-95526190D01*
X139640100Y-95526190D02*
X139640100Y-103326190D01*
%TO.C,K19*%
X93842600Y-93366190D02*
X93842600Y-91166190D01*
X95942600Y-93366190D02*
X93842600Y-93366190D01*
X94042600Y-93166190D02*
X94042600Y-85366190D01*
X106742600Y-93166190D02*
X94042600Y-93166190D01*
X99025600Y-91004190D02*
X99660600Y-91004190D01*
X99660600Y-91004190D02*
X99660600Y-90344190D01*
X99152600Y-90344190D02*
X100168600Y-90344190D01*
X100168600Y-90344190D02*
X100168600Y-88439190D01*
X99152600Y-88820190D02*
X100168600Y-89455190D01*
X99152600Y-88439190D02*
X99152600Y-90344190D01*
X99152600Y-88439190D02*
X100168600Y-88439190D01*
X99025600Y-87804190D02*
X99660600Y-87804190D01*
X99660600Y-87804190D02*
X99660600Y-88439190D01*
X94042600Y-85366190D02*
X106742600Y-85366190D01*
X106742600Y-85366190D02*
X106742600Y-93166190D01*
%TO.C,A1*%
X59902600Y-50381190D02*
X58519600Y-50381190D01*
X59902600Y-50381190D02*
X59902600Y-51765190D01*
X59662600Y-50621190D02*
X54822600Y-50621190D01*
X59662600Y-50621190D02*
X59662600Y-60521190D01*
X54822600Y-50621190D02*
X54822600Y-60521190D01*
X57877600Y-53541190D02*
X56607600Y-53541190D01*
X57757600Y-53541190D02*
X57757600Y-54894523D01*
X57637600Y-53541190D02*
X57637600Y-54894523D01*
X57517600Y-53541190D02*
X57517600Y-54894523D01*
X57397600Y-53541190D02*
X57397600Y-54894523D01*
X57277600Y-53541190D02*
X57277600Y-54894523D01*
X57157600Y-53541190D02*
X57157600Y-54894523D01*
X57037600Y-53541190D02*
X57037600Y-54894523D01*
X56917600Y-53541190D02*
X56917600Y-54894523D01*
X56797600Y-53541190D02*
X56797600Y-54894523D01*
X56677600Y-53541190D02*
X56677600Y-54894523D01*
X56607600Y-53541190D02*
X56607600Y-57601190D01*
X57877600Y-54894523D02*
X56607600Y-54894523D01*
X57877600Y-57601190D02*
X57877600Y-53541190D01*
X56607600Y-57601190D02*
X57877600Y-57601190D01*
X59662600Y-60521190D02*
X54822600Y-60521190D01*
%TO.C,K12*%
X126985100Y-72913690D02*
X126985100Y-70713690D01*
X129085100Y-72913690D02*
X126985100Y-72913690D01*
X127185100Y-72713690D02*
X127185100Y-64913690D01*
X139885100Y-72713690D02*
X127185100Y-72713690D01*
X132168100Y-70551690D02*
X132803100Y-70551690D01*
X132803100Y-70551690D02*
X132803100Y-69891690D01*
X132295100Y-69891690D02*
X133311100Y-69891690D01*
X133311100Y-69891690D02*
X133311100Y-67986690D01*
X132295100Y-68367690D02*
X133311100Y-69002690D01*
X132295100Y-67986690D02*
X132295100Y-69891690D01*
X132295100Y-67986690D02*
X133311100Y-67986690D01*
X132168100Y-67351690D02*
X132803100Y-67351690D01*
X132803100Y-67351690D02*
X132803100Y-67986690D01*
X127185100Y-64913690D02*
X139885100Y-64913690D01*
X139885100Y-64913690D02*
X139885100Y-72713690D01*
%TO.C,K2*%
X93842020Y-83206025D02*
X93842020Y-81006025D01*
X95942020Y-83206025D02*
X93842020Y-83206025D01*
X94042020Y-83006025D02*
X94042020Y-75206025D01*
X106742020Y-83006025D02*
X94042020Y-83006025D01*
X99025020Y-80844025D02*
X99660020Y-80844025D01*
X99660020Y-80844025D02*
X99660020Y-80184025D01*
X99152020Y-80184025D02*
X100168020Y-80184025D01*
X100168020Y-80184025D02*
X100168020Y-78279025D01*
X99152020Y-78660025D02*
X100168020Y-79295025D01*
X99152020Y-78279025D02*
X99152020Y-80184025D01*
X99152020Y-78279025D02*
X100168020Y-78279025D01*
X99025020Y-77644025D02*
X99660020Y-77644025D01*
X99660020Y-77644025D02*
X99660020Y-78279025D01*
X94042020Y-75206025D02*
X106742020Y-75206025D01*
X106742020Y-75206025D02*
X106742020Y-83006025D01*
%TO.C,K13*%
X126985100Y-62753690D02*
X126985100Y-60553690D01*
X129085100Y-62753690D02*
X126985100Y-62753690D01*
X127185100Y-62553690D02*
X127185100Y-54753690D01*
X139885100Y-62553690D02*
X127185100Y-62553690D01*
X132168100Y-60391690D02*
X132803100Y-60391690D01*
X132803100Y-60391690D02*
X132803100Y-59731690D01*
X132295100Y-59731690D02*
X133311100Y-59731690D01*
X133311100Y-59731690D02*
X133311100Y-57826690D01*
X132295100Y-58207690D02*
X133311100Y-58842690D01*
X132295100Y-57826690D02*
X132295100Y-59731690D01*
X132295100Y-57826690D02*
X133311100Y-57826690D01*
X132168100Y-57191690D02*
X132803100Y-57191690D01*
X132803100Y-57191690D02*
X132803100Y-57826690D01*
X127185100Y-54753690D02*
X139885100Y-54753690D01*
X139885100Y-54753690D02*
X139885100Y-62553690D01*
%TO.C,K17*%
X77332600Y-73046190D02*
X77332600Y-70846190D01*
X79432600Y-73046190D02*
X77332600Y-73046190D01*
X77532600Y-72846190D02*
X77532600Y-65046190D01*
X90232600Y-72846190D02*
X77532600Y-72846190D01*
X82515600Y-70684190D02*
X83150600Y-70684190D01*
X83150600Y-70684190D02*
X83150600Y-70024190D01*
X82642600Y-70024190D02*
X83658600Y-70024190D01*
X83658600Y-70024190D02*
X83658600Y-68119190D01*
X82642600Y-68500190D02*
X83658600Y-69135190D01*
X82642600Y-68119190D02*
X82642600Y-70024190D01*
X82642600Y-68119190D02*
X83658600Y-68119190D01*
X82515600Y-67484190D02*
X83150600Y-67484190D01*
X83150600Y-67484190D02*
X83150600Y-68119190D01*
X77532600Y-65046190D02*
X90232600Y-65046190D01*
X90232600Y-65046190D02*
X90232600Y-72846190D01*
%TO.C,K8*%
X110352600Y-73046190D02*
X110352600Y-70846190D01*
X112452600Y-73046190D02*
X110352600Y-73046190D01*
X110552600Y-72846190D02*
X110552600Y-65046190D01*
X123252600Y-72846190D02*
X110552600Y-72846190D01*
X115535600Y-70684190D02*
X116170600Y-70684190D01*
X116170600Y-70684190D02*
X116170600Y-70024190D01*
X115662600Y-70024190D02*
X116678600Y-70024190D01*
X116678600Y-70024190D02*
X116678600Y-68119190D01*
X115662600Y-68500190D02*
X116678600Y-69135190D01*
X115662600Y-68119190D02*
X115662600Y-70024190D01*
X115662600Y-68119190D02*
X116678600Y-68119190D01*
X115535600Y-67484190D02*
X116170600Y-67484190D01*
X116170600Y-67484190D02*
X116170600Y-68119190D01*
X110552600Y-65046190D02*
X123252600Y-65046190D01*
X123252600Y-65046190D02*
X123252600Y-72846190D01*
%TO.C,K9*%
X110352600Y-62886190D02*
X110352600Y-60686190D01*
X112452600Y-62886190D02*
X110352600Y-62886190D01*
X110552600Y-62686190D02*
X110552600Y-54886190D01*
X123252600Y-62686190D02*
X110552600Y-62686190D01*
X115535600Y-60524190D02*
X116170600Y-60524190D01*
X116170600Y-60524190D02*
X116170600Y-59864190D01*
X115662600Y-59864190D02*
X116678600Y-59864190D01*
X116678600Y-59864190D02*
X116678600Y-57959190D01*
X115662600Y-58340190D02*
X116678600Y-58975190D01*
X115662600Y-57959190D02*
X115662600Y-59864190D01*
X115662600Y-57959190D02*
X116678600Y-57959190D01*
X115535600Y-57324190D02*
X116170600Y-57324190D01*
X116170600Y-57324190D02*
X116170600Y-57959190D01*
X110552600Y-54886190D02*
X123252600Y-54886190D01*
X123252600Y-54886190D02*
X123252600Y-62686190D01*
%TO.C,B1*%
X59902600Y-75781190D02*
X58519600Y-75781190D01*
X59902600Y-75781190D02*
X59902600Y-77165190D01*
X59662600Y-76021190D02*
X54822600Y-76021190D01*
X59662600Y-76021190D02*
X59662600Y-85921190D01*
X54822600Y-76021190D02*
X54822600Y-85921190D01*
X57877600Y-78941190D02*
X56607600Y-78941190D01*
X57757600Y-78941190D02*
X57757600Y-80294523D01*
X57637600Y-78941190D02*
X57637600Y-80294523D01*
X57517600Y-78941190D02*
X57517600Y-80294523D01*
X57397600Y-78941190D02*
X57397600Y-80294523D01*
X57277600Y-78941190D02*
X57277600Y-80294523D01*
X57157600Y-78941190D02*
X57157600Y-80294523D01*
X57037600Y-78941190D02*
X57037600Y-80294523D01*
X56917600Y-78941190D02*
X56917600Y-80294523D01*
X56797600Y-78941190D02*
X56797600Y-80294523D01*
X56677600Y-78941190D02*
X56677600Y-80294523D01*
X56607600Y-78941190D02*
X56607600Y-83001190D01*
X57877600Y-80294523D02*
X56607600Y-80294523D01*
X57877600Y-83001190D02*
X57877600Y-78941190D01*
X56607600Y-83001190D02*
X57877600Y-83001190D01*
X59662600Y-85921190D02*
X54822600Y-85921190D01*
%TO.C,K5*%
X93842020Y-52726610D02*
X93842020Y-50526610D01*
X95942020Y-52726610D02*
X93842020Y-52726610D01*
X94042020Y-52526610D02*
X94042020Y-44726610D01*
X106742020Y-52526610D02*
X94042020Y-52526610D01*
X99025020Y-50364610D02*
X99660020Y-50364610D01*
X99660020Y-50364610D02*
X99660020Y-49704610D01*
X99152020Y-49704610D02*
X100168020Y-49704610D01*
X100168020Y-49704610D02*
X100168020Y-47799610D01*
X99152020Y-48180610D02*
X100168020Y-48815610D01*
X99152020Y-47799610D02*
X99152020Y-49704610D01*
X99152020Y-47799610D02*
X100168020Y-47799610D01*
X99025020Y-47164610D02*
X99660020Y-47164610D01*
X99660020Y-47164610D02*
X99660020Y-47799610D01*
X94042020Y-44726610D02*
X106742020Y-44726610D01*
X106742020Y-44726610D02*
X106742020Y-52526610D01*
%TO.C,K6*%
X126862600Y-93366190D02*
X126862600Y-91166190D01*
X128962600Y-93366190D02*
X126862600Y-93366190D01*
X127062600Y-93166190D02*
X127062600Y-85366190D01*
X139762600Y-93166190D02*
X127062600Y-93166190D01*
X132045600Y-91004190D02*
X132680600Y-91004190D01*
X132680600Y-91004190D02*
X132680600Y-90344190D01*
X132172600Y-90344190D02*
X133188600Y-90344190D01*
X133188600Y-90344190D02*
X133188600Y-88439190D01*
X132172600Y-88820190D02*
X133188600Y-89455190D01*
X132172600Y-88439190D02*
X132172600Y-90344190D01*
X132172600Y-88439190D02*
X133188600Y-88439190D01*
X132045600Y-87804190D02*
X132680600Y-87804190D01*
X132680600Y-87804190D02*
X132680600Y-88439190D01*
X127062600Y-85366190D02*
X139762600Y-85366190D01*
X139762600Y-85366190D02*
X139762600Y-93166190D01*
%TO.C,K1*%
X110352020Y-93365830D02*
X110352020Y-91165830D01*
X112452020Y-93365830D02*
X110352020Y-93365830D01*
X110552020Y-93165830D02*
X110552020Y-85365830D01*
X123252020Y-93165830D02*
X110552020Y-93165830D01*
X115535020Y-91003830D02*
X116170020Y-91003830D01*
X116170020Y-91003830D02*
X116170020Y-90343830D01*
X115662020Y-90343830D02*
X116678020Y-90343830D01*
X116678020Y-90343830D02*
X116678020Y-88438830D01*
X115662020Y-88819830D02*
X116678020Y-89454830D01*
X115662020Y-88438830D02*
X115662020Y-90343830D01*
X115662020Y-88438830D02*
X116678020Y-88438830D01*
X115535020Y-87803830D02*
X116170020Y-87803830D01*
X116170020Y-87803830D02*
X116170020Y-88438830D01*
X110552020Y-85365830D02*
X123252020Y-85365830D01*
X123252020Y-85365830D02*
X123252020Y-93165830D01*
%TO.C,K16*%
X77332600Y-52726610D02*
X77332600Y-50526610D01*
X79432600Y-52726610D02*
X77332600Y-52726610D01*
X77532600Y-52526610D02*
X77532600Y-44726610D01*
X90232600Y-52526610D02*
X77532600Y-52526610D01*
X82515600Y-50364610D02*
X83150600Y-50364610D01*
X83150600Y-50364610D02*
X83150600Y-49704610D01*
X82642600Y-49704610D02*
X83658600Y-49704610D01*
X83658600Y-49704610D02*
X83658600Y-47799610D01*
X82642600Y-48180610D02*
X83658600Y-48815610D01*
X82642600Y-47799610D02*
X82642600Y-49704610D01*
X82642600Y-47799610D02*
X83658600Y-47799610D01*
X82515600Y-47164610D02*
X83150600Y-47164610D01*
X83150600Y-47164610D02*
X83150600Y-47799610D01*
X77532600Y-44726610D02*
X90232600Y-44726610D01*
X90232600Y-44726610D02*
X90232600Y-52526610D01*
%TO.C,K4*%
X93842020Y-62886415D02*
X93842020Y-60686415D01*
X95942020Y-62886415D02*
X93842020Y-62886415D01*
X94042020Y-62686415D02*
X94042020Y-54886415D01*
X106742020Y-62686415D02*
X94042020Y-62686415D01*
X99025020Y-60524415D02*
X99660020Y-60524415D01*
X99660020Y-60524415D02*
X99660020Y-59864415D01*
X99152020Y-59864415D02*
X100168020Y-59864415D01*
X100168020Y-59864415D02*
X100168020Y-57959415D01*
X99152020Y-58340415D02*
X100168020Y-58975415D01*
X99152020Y-57959415D02*
X99152020Y-59864415D01*
X99152020Y-57959415D02*
X100168020Y-57959415D01*
X99025020Y-57324415D02*
X99660020Y-57324415D01*
X99660020Y-57324415D02*
X99660020Y-57959415D01*
X94042020Y-54886415D02*
X106742020Y-54886415D01*
X106742020Y-54886415D02*
X106742020Y-62686415D01*
%TO.C,S1*%
X82762600Y-98641190D02*
X81379600Y-98641190D01*
X82762600Y-98641190D02*
X82762600Y-100025190D01*
X82522600Y-98881190D02*
X77682600Y-98881190D01*
X82522600Y-98881190D02*
X82522600Y-108781190D01*
X77682600Y-98881190D02*
X77682600Y-108781190D01*
X80737600Y-101801190D02*
X79467600Y-101801190D01*
X80617600Y-101801190D02*
X80617600Y-103154523D01*
X80497600Y-101801190D02*
X80497600Y-103154523D01*
X80377600Y-101801190D02*
X80377600Y-103154523D01*
X80257600Y-101801190D02*
X80257600Y-103154523D01*
X80137600Y-101801190D02*
X80137600Y-103154523D01*
X80017600Y-101801190D02*
X80017600Y-103154523D01*
X79897600Y-101801190D02*
X79897600Y-103154523D01*
X79777600Y-101801190D02*
X79777600Y-103154523D01*
X79657600Y-101801190D02*
X79657600Y-103154523D01*
X79537600Y-101801190D02*
X79537600Y-103154523D01*
X79467600Y-101801190D02*
X79467600Y-105861190D01*
X80737600Y-103154523D02*
X79467600Y-103154523D01*
X80737600Y-105861190D02*
X80737600Y-101801190D01*
X79467600Y-105861190D02*
X80737600Y-105861190D01*
X82522600Y-108781190D02*
X77682600Y-108781190D01*
%TD*%
%LPC*%
D16*
%TO.C,J1*%
X91810000Y-107518840D03*
X91810000Y-111318840D03*
X100450000Y-107518840D03*
X100450000Y-111318840D03*
D17*
X95630000Y-107018840D03*
X97650000Y-107018840D03*
D18*
X98880000Y-107018840D03*
D17*
X96630000Y-107018840D03*
X94610000Y-107018840D03*
D18*
X93380000Y-107018840D03*
%TD*%
D19*
%TO.C,K15*%
X78832600Y-61286190D03*
D20*
X81372600Y-61286190D03*
X88992600Y-61286190D03*
X88992600Y-56206190D03*
X81372600Y-56206190D03*
X78832600Y-56206190D03*
%TD*%
D21*
%TO.C,LED1*%
X67402600Y-45411190D03*
D22*
X67402600Y-47951190D03*
%TD*%
D19*
%TO.C,K20*%
X111730100Y-101926190D03*
D20*
X114270100Y-101926190D03*
X121890100Y-101926190D03*
X121890100Y-96846190D03*
X114270100Y-96846190D03*
X111730100Y-96846190D03*
%TD*%
D21*
%TO.C,LED3*%
X67402600Y-70811190D03*
D22*
X67402600Y-73351190D03*
%TD*%
D19*
%TO.C,K10*%
X111852600Y-51126190D03*
D20*
X114392600Y-51126190D03*
X122012600Y-51126190D03*
X122012600Y-46046190D03*
X114392600Y-46046190D03*
X111852600Y-46046190D03*
%TD*%
D21*
%TO.C,LED2*%
X57242600Y-45411190D03*
D22*
X57242600Y-47951190D03*
%TD*%
D19*
%TO.C,K11*%
X128362600Y-81606190D03*
D20*
X130902600Y-81606190D03*
X138522600Y-81606190D03*
X138522600Y-76526190D03*
X130902600Y-76526190D03*
X128362600Y-76526190D03*
%TD*%
D19*
%TO.C,K14*%
X128485100Y-50993690D03*
D20*
X131025100Y-50993690D03*
X138645100Y-50993690D03*
X138645100Y-45913690D03*
X131025100Y-45913690D03*
X128485100Y-45913690D03*
%TD*%
D21*
%TO.C,LED6*%
X57242600Y-102561190D03*
D22*
X57242600Y-105101190D03*
%TD*%
D21*
%TO.C,LED5*%
X67402600Y-102561190D03*
D22*
X67402600Y-105101190D03*
%TD*%
D23*
%TO.C,B0*%
X67402600Y-77161190D03*
D24*
X67402600Y-84781190D03*
%TD*%
D19*
%TO.C,K18*%
X78832600Y-81606190D03*
D20*
X81372600Y-81606190D03*
X88992600Y-81606190D03*
X88992600Y-76526190D03*
X81372600Y-76526190D03*
X78832600Y-76526190D03*
%TD*%
D19*
%TO.C,K3*%
X95342020Y-71446220D03*
D20*
X97882020Y-71446220D03*
X105502020Y-71446220D03*
X105502020Y-66366220D03*
X97882020Y-66366220D03*
X95342020Y-66366220D03*
%TD*%
D21*
%TO.C,LED4*%
X57242600Y-70811190D03*
D22*
X57242600Y-73351190D03*
%TD*%
D23*
%TO.C,A0*%
X67402600Y-51761190D03*
D24*
X67402600Y-59381190D03*
%TD*%
D19*
%TO.C,K7*%
X111852600Y-81606190D03*
D20*
X114392600Y-81606190D03*
X122012600Y-81606190D03*
X122012600Y-76526190D03*
X114392600Y-76526190D03*
X111852600Y-76526190D03*
%TD*%
D19*
%TO.C,K21*%
X128240100Y-101926190D03*
D20*
X130780100Y-101926190D03*
X138400100Y-101926190D03*
X138400100Y-96846190D03*
X130780100Y-96846190D03*
X128240100Y-96846190D03*
%TD*%
D19*
%TO.C,K19*%
X95342600Y-91766190D03*
D20*
X97882600Y-91766190D03*
X105502600Y-91766190D03*
X105502600Y-86686190D03*
X97882600Y-86686190D03*
X95342600Y-86686190D03*
%TD*%
D23*
%TO.C,A1*%
X57242600Y-51761190D03*
D24*
X57242600Y-59381190D03*
%TD*%
D19*
%TO.C,K12*%
X128485100Y-71313690D03*
D20*
X131025100Y-71313690D03*
X138645100Y-71313690D03*
X138645100Y-66233690D03*
X131025100Y-66233690D03*
X128485100Y-66233690D03*
%TD*%
D19*
%TO.C,K2*%
X95342020Y-81606025D03*
D20*
X97882020Y-81606025D03*
X105502020Y-81606025D03*
X105502020Y-76526025D03*
X97882020Y-76526025D03*
X95342020Y-76526025D03*
%TD*%
D19*
%TO.C,K13*%
X128485100Y-61153690D03*
D20*
X131025100Y-61153690D03*
X138645100Y-61153690D03*
X138645100Y-56073690D03*
X131025100Y-56073690D03*
X128485100Y-56073690D03*
%TD*%
D19*
%TO.C,K17*%
X78832600Y-71446190D03*
D20*
X81372600Y-71446190D03*
X88992600Y-71446190D03*
X88992600Y-66366190D03*
X81372600Y-66366190D03*
X78832600Y-66366190D03*
%TD*%
D19*
%TO.C,K8*%
X111852600Y-71446190D03*
D20*
X114392600Y-71446190D03*
X122012600Y-71446190D03*
X122012600Y-66366190D03*
X114392600Y-66366190D03*
X111852600Y-66366190D03*
%TD*%
D19*
%TO.C,K9*%
X111852600Y-61286190D03*
D20*
X114392600Y-61286190D03*
X122012600Y-61286190D03*
X122012600Y-56206190D03*
X114392600Y-56206190D03*
X111852600Y-56206190D03*
%TD*%
D23*
%TO.C,B1*%
X57242600Y-77161190D03*
D24*
X57242600Y-84781190D03*
%TD*%
D19*
%TO.C,K5*%
X95342020Y-51126610D03*
D20*
X97882020Y-51126610D03*
X105502020Y-51126610D03*
X105502020Y-46046610D03*
X97882020Y-46046610D03*
X95342020Y-46046610D03*
%TD*%
D19*
%TO.C,K6*%
X128362600Y-91766190D03*
D20*
X130902600Y-91766190D03*
X138522600Y-91766190D03*
X138522600Y-86686190D03*
X130902600Y-86686190D03*
X128362600Y-86686190D03*
%TD*%
D19*
%TO.C,K1*%
X111852020Y-91765830D03*
D20*
X114392020Y-91765830D03*
X122012020Y-91765830D03*
X122012020Y-86685830D03*
X114392020Y-86685830D03*
X111852020Y-86685830D03*
%TD*%
D19*
%TO.C,K16*%
X78832600Y-51126610D03*
D20*
X81372600Y-51126610D03*
X88992600Y-51126610D03*
X88992600Y-46046610D03*
X81372600Y-46046610D03*
X78832600Y-46046610D03*
%TD*%
D19*
%TO.C,K4*%
X95342020Y-61286415D03*
D20*
X97882020Y-61286415D03*
X105502020Y-61286415D03*
X105502020Y-56206415D03*
X97882020Y-56206415D03*
X95342020Y-56206415D03*
%TD*%
D23*
%TO.C,S1*%
X80102600Y-100021190D03*
D24*
X80102600Y-107641190D03*
%TD*%
D25*
%TO.C,RCC2*%
X123282600Y-106599790D03*
D24*
X113122600Y-106599790D03*
%TD*%
D25*
%TO.C,R2*%
X59782600Y-50491190D03*
D24*
X59782600Y-60651190D03*
%TD*%
D25*
%TO.C,RCC1*%
X123282600Y-110181190D03*
D24*
X113122600Y-110181190D03*
%TD*%
D25*
%TO.C,R1*%
X69942600Y-50491190D03*
D24*
X69942600Y-60651190D03*
%TD*%
D25*
%TO.C,R9*%
X76292600Y-108911190D03*
D24*
X76292600Y-98751190D03*
%TD*%
D25*
%TO.C,R10*%
X69942600Y-98751190D03*
D24*
X69942600Y-108911190D03*
%TD*%
D25*
%TO.C,R5*%
X64862600Y-60651190D03*
D24*
X64862600Y-50491190D03*
%TD*%
D25*
%TO.C,R11*%
X59782600Y-98751190D03*
D24*
X59782600Y-108911190D03*
%TD*%
D25*
%TO.C,R8*%
X54702600Y-86051190D03*
D24*
X54702600Y-75891190D03*
%TD*%
D25*
%TO.C,R3*%
X69942600Y-75891190D03*
D24*
X69942600Y-86051190D03*
%TD*%
D25*
%TO.C,R7*%
X64862600Y-86051190D03*
D24*
X64862600Y-75891190D03*
%TD*%
D25*
%TO.C,R6*%
X54702600Y-60651190D03*
D24*
X54702600Y-50491190D03*
%TD*%
D25*
%TO.C,R4*%
X59782600Y-75891190D03*
D24*
X59782600Y-86051190D03*
%TD*%
%LPD*%
M02*
