%TF.GenerationSoftware,KiCad,Pcbnew,7.0.2*%
%TF.CreationDate,2023-05-28T17:26:04-07:00*%
%TF.ProjectId,relay-prototype,72656c61-792d-4707-926f-746f74797065,rev?*%
%TF.SameCoordinates,Original*%
%TF.FileFunction,Drillmap*%
%TF.FilePolarity,Positive*%
%FSLAX45Y45*%
G04 Gerber Fmt 4.5, Leading zero omitted, Abs format (unit mm)*
G04 Created by KiCad (PCBNEW 7.0.2) date 2023-05-28 17:26:04*
%MOMM*%
%LPD*%
G01*
G04 APERTURE LIST*
%ADD10C,0.100000*%
%ADD11C,0.200000*%
%ADD12C,0.060000*%
%ADD13C,0.076200*%
%ADD14C,0.080000*%
%ADD15C,0.090000*%
G04 APERTURE END LIST*
D10*
X5343260Y-11272119D02*
X5089260Y-11018119D01*
X5089260Y-4414119D02*
X5343260Y-4160119D01*
X13979260Y-4160119D02*
X14233260Y-4414119D01*
X14233260Y-11018119D02*
X13979260Y-11272119D01*
X5089260Y-11018119D02*
X5089260Y-4414119D01*
X13979260Y-11272119D02*
X5343260Y-11272119D01*
X5343260Y-4160119D02*
X13979260Y-4160119D01*
X14233260Y-4414119D02*
X14233260Y-11018119D01*
D11*
D12*
X9151000Y-10721884D02*
X9211000Y-10781884D01*
X9211000Y-10721884D02*
X9151000Y-10781884D01*
D11*
X9151000Y-10721884D02*
X9151000Y-10781884D01*
X9151000Y-10781884D02*
G75*
G03*
X9211000Y-10781884I30000J0D01*
G01*
X9211000Y-10781884D02*
X9211000Y-10721884D01*
X9211000Y-10721884D02*
G75*
G03*
X9151000Y-10721884I-30000J0D01*
G01*
D12*
X9151000Y-11101884D02*
X9211000Y-11161884D01*
X9211000Y-11101884D02*
X9151000Y-11161884D01*
D11*
X9151000Y-11101884D02*
X9151000Y-11161884D01*
X9151000Y-11161884D02*
G75*
G03*
X9211000Y-11161884I30000J0D01*
G01*
X9211000Y-11161884D02*
X9211000Y-11101884D01*
X9211000Y-11101884D02*
G75*
G03*
X9151000Y-11101884I-30000J0D01*
G01*
D12*
X10015000Y-10721884D02*
X10075000Y-10781884D01*
X10075000Y-10721884D02*
X10015000Y-10781884D01*
D11*
X10015000Y-10721884D02*
X10015000Y-10781884D01*
X10015000Y-10781884D02*
G75*
G03*
X10075000Y-10781884I30000J0D01*
G01*
X10075000Y-10781884D02*
X10075000Y-10721884D01*
X10075000Y-10721884D02*
G75*
G03*
X10015000Y-10721884I-30000J0D01*
G01*
D12*
X10015000Y-11101884D02*
X10075000Y-11161884D01*
X10075000Y-11101884D02*
X10015000Y-11161884D01*
D11*
X10015000Y-11101884D02*
X10015000Y-11161884D01*
X10015000Y-11161884D02*
G75*
G03*
X10075000Y-11161884I30000J0D01*
G01*
X10075000Y-11161884D02*
X10075000Y-11101884D01*
X10075000Y-11101884D02*
G75*
G03*
X10015000Y-11101884I-30000J0D01*
G01*
D13*
X9242160Y-10408519D02*
G75*
G03*
X9242160Y-10408519I-38100J0D01*
G01*
X9496160Y-10408519D02*
G75*
G03*
X9496160Y-10408519I-38100J0D01*
G01*
X9800960Y-10408519D02*
G75*
G03*
X9800960Y-10408519I-38100J0D01*
G01*
X10054960Y-10408519D02*
G75*
G03*
X10054960Y-10408519I-38100J0D01*
G01*
X13560160Y-9621119D02*
G75*
G03*
X13560160Y-9621119I-38100J0D01*
G01*
X13636360Y-8935319D02*
G75*
G03*
X13636360Y-8935319I-38100J0D01*
G01*
D14*
X5470260Y-5009119D02*
X5470260Y-5089119D01*
X5430260Y-5049119D02*
X5510260Y-5049119D01*
X5470260Y-6025119D02*
X5470260Y-6105119D01*
X5430260Y-6065119D02*
X5510260Y-6065119D01*
X5470260Y-7549119D02*
X5470260Y-7629119D01*
X5430260Y-7589119D02*
X5510260Y-7589119D01*
X5470260Y-8565119D02*
X5470260Y-8645119D01*
X5430260Y-8605119D02*
X5510260Y-8605119D01*
X5724260Y-5136119D02*
X5724260Y-5216119D01*
X5684260Y-5176119D02*
X5764260Y-5176119D01*
X5724260Y-5898119D02*
X5724260Y-5978119D01*
X5684260Y-5938119D02*
X5764260Y-5938119D01*
X5724260Y-7676119D02*
X5724260Y-7756119D01*
X5684260Y-7716119D02*
X5764260Y-7716119D01*
X5724260Y-8438119D02*
X5724260Y-8518119D01*
X5684260Y-8478119D02*
X5764260Y-8478119D01*
X5978260Y-5009119D02*
X5978260Y-5089119D01*
X5938260Y-5049119D02*
X6018260Y-5049119D01*
X5978260Y-6025119D02*
X5978260Y-6105119D01*
X5938260Y-6065119D02*
X6018260Y-6065119D01*
X5978260Y-7549119D02*
X5978260Y-7629119D01*
X5938260Y-7589119D02*
X6018260Y-7589119D01*
X5978260Y-8565119D02*
X5978260Y-8645119D01*
X5938260Y-8605119D02*
X6018260Y-8605119D01*
X5978260Y-9835119D02*
X5978260Y-9915119D01*
X5938260Y-9875119D02*
X6018260Y-9875119D01*
X5978260Y-10851119D02*
X5978260Y-10931119D01*
X5938260Y-10891119D02*
X6018260Y-10891119D01*
X6486260Y-5009119D02*
X6486260Y-5089119D01*
X6446260Y-5049119D02*
X6526260Y-5049119D01*
X6486260Y-6025119D02*
X6486260Y-6105119D01*
X6446260Y-6065119D02*
X6526260Y-6065119D01*
X6486260Y-7549119D02*
X6486260Y-7629119D01*
X6446260Y-7589119D02*
X6526260Y-7589119D01*
X6486260Y-8565119D02*
X6486260Y-8645119D01*
X6446260Y-8605119D02*
X6526260Y-8605119D01*
X6740260Y-5136119D02*
X6740260Y-5216119D01*
X6700260Y-5176119D02*
X6780260Y-5176119D01*
X6740260Y-5898119D02*
X6740260Y-5978119D01*
X6700260Y-5938119D02*
X6780260Y-5938119D01*
X6740260Y-7676119D02*
X6740260Y-7756119D01*
X6700260Y-7716119D02*
X6780260Y-7716119D01*
X6740260Y-8438119D02*
X6740260Y-8518119D01*
X6700260Y-8478119D02*
X6780260Y-8478119D01*
X6994260Y-5009119D02*
X6994260Y-5089119D01*
X6954260Y-5049119D02*
X7034260Y-5049119D01*
X6994260Y-6025119D02*
X6994260Y-6105119D01*
X6954260Y-6065119D02*
X7034260Y-6065119D01*
X6994260Y-7549119D02*
X6994260Y-7629119D01*
X6954260Y-7589119D02*
X7034260Y-7589119D01*
X6994260Y-8565119D02*
X6994260Y-8645119D01*
X6954260Y-8605119D02*
X7034260Y-8605119D01*
X6994260Y-9835119D02*
X6994260Y-9915119D01*
X6954260Y-9875119D02*
X7034260Y-9875119D01*
X6994260Y-10851119D02*
X6994260Y-10931119D01*
X6954260Y-10891119D02*
X7034260Y-10891119D01*
X7629260Y-9835119D02*
X7629260Y-9915119D01*
X7589260Y-9875119D02*
X7669260Y-9875119D01*
X7629260Y-10851119D02*
X7629260Y-10931119D01*
X7589260Y-10891119D02*
X7669260Y-10891119D01*
X8010260Y-9962119D02*
X8010260Y-10042119D01*
X7970260Y-10002119D02*
X8050260Y-10002119D01*
X8010260Y-10724119D02*
X8010260Y-10804119D01*
X7970260Y-10764119D02*
X8050260Y-10764119D01*
X11312260Y-10619979D02*
X11312260Y-10699979D01*
X11272260Y-10659979D02*
X11352260Y-10659979D01*
X11312260Y-10978119D02*
X11312260Y-11058119D01*
X11272260Y-11018119D02*
X11352260Y-11018119D01*
X12328260Y-10619979D02*
X12328260Y-10699979D01*
X12288260Y-10659979D02*
X12368260Y-10659979D01*
X12328260Y-10978119D02*
X12328260Y-11058119D01*
X12288260Y-11018119D02*
X12368260Y-11018119D01*
D15*
X5756080Y-4572939D02*
X5756080Y-4509299D01*
X5692440Y-4509299D01*
X5692440Y-4572939D01*
X5756080Y-4572939D01*
X5756080Y-4826939D02*
X5756080Y-4763299D01*
X5692440Y-4763299D01*
X5692440Y-4826939D01*
X5756080Y-4826939D01*
X5756080Y-7112939D02*
X5756080Y-7049299D01*
X5692440Y-7049299D01*
X5692440Y-7112939D01*
X5756080Y-7112939D01*
X5756080Y-7366939D02*
X5756080Y-7303299D01*
X5692440Y-7303299D01*
X5692440Y-7366939D01*
X5756080Y-7366939D01*
X5756080Y-10287939D02*
X5756080Y-10224299D01*
X5692440Y-10224299D01*
X5692440Y-10287939D01*
X5756080Y-10287939D01*
X5756080Y-10541939D02*
X5756080Y-10478299D01*
X5692440Y-10478299D01*
X5692440Y-10541939D01*
X5756080Y-10541939D01*
X6772080Y-4572939D02*
X6772080Y-4509299D01*
X6708440Y-4509299D01*
X6708440Y-4572939D01*
X6772080Y-4572939D01*
X6772080Y-4826939D02*
X6772080Y-4763299D01*
X6708440Y-4763299D01*
X6708440Y-4826939D01*
X6772080Y-4826939D01*
X6772080Y-7112939D02*
X6772080Y-7049299D01*
X6708440Y-7049299D01*
X6708440Y-7112939D01*
X6772080Y-7112939D01*
X6772080Y-7366939D02*
X6772080Y-7303299D01*
X6708440Y-7303299D01*
X6708440Y-7366939D01*
X6772080Y-7366939D01*
X6772080Y-10287939D02*
X6772080Y-10224299D01*
X6708440Y-10224299D01*
X6708440Y-10287939D01*
X6772080Y-10287939D01*
X6772080Y-10541939D02*
X6772080Y-10478299D01*
X6708440Y-10478299D01*
X6708440Y-10541939D01*
X6772080Y-10541939D01*
D10*
X7883260Y-4654661D02*
X7933260Y-4604661D01*
X7883260Y-4554661D01*
X7833260Y-4604661D01*
X7883260Y-4654661D01*
X7883260Y-5162661D02*
X7933260Y-5112661D01*
X7883260Y-5062661D01*
X7833260Y-5112661D01*
X7883260Y-5162661D01*
X7883260Y-5670619D02*
X7933260Y-5620619D01*
X7883260Y-5570619D01*
X7833260Y-5620619D01*
X7883260Y-5670619D01*
X7883260Y-6178619D02*
X7933260Y-6128619D01*
X7883260Y-6078619D01*
X7833260Y-6128619D01*
X7883260Y-6178619D01*
X7883260Y-6686619D02*
X7933260Y-6636619D01*
X7883260Y-6586619D01*
X7833260Y-6636619D01*
X7883260Y-6686619D01*
X7883260Y-7194619D02*
X7933260Y-7144619D01*
X7883260Y-7094619D01*
X7833260Y-7144619D01*
X7883260Y-7194619D01*
X7883260Y-7702619D02*
X7933260Y-7652619D01*
X7883260Y-7602619D01*
X7833260Y-7652619D01*
X7883260Y-7702619D01*
X7883260Y-8210619D02*
X7933260Y-8160619D01*
X7883260Y-8110619D01*
X7833260Y-8160619D01*
X7883260Y-8210619D01*
X8137260Y-4654661D02*
X8187260Y-4604661D01*
X8137260Y-4554661D01*
X8087260Y-4604661D01*
X8137260Y-4654661D01*
X8137260Y-5162661D02*
X8187260Y-5112661D01*
X8137260Y-5062661D01*
X8087260Y-5112661D01*
X8137260Y-5162661D01*
X8137260Y-5670619D02*
X8187260Y-5620619D01*
X8137260Y-5570619D01*
X8087260Y-5620619D01*
X8137260Y-5670619D01*
X8137260Y-6178619D02*
X8187260Y-6128619D01*
X8137260Y-6078619D01*
X8087260Y-6128619D01*
X8137260Y-6178619D01*
X8137260Y-6686619D02*
X8187260Y-6636619D01*
X8137260Y-6586619D01*
X8087260Y-6636619D01*
X8137260Y-6686619D01*
X8137260Y-7194619D02*
X8187260Y-7144619D01*
X8137260Y-7094619D01*
X8087260Y-7144619D01*
X8137260Y-7194619D01*
X8137260Y-7702619D02*
X8187260Y-7652619D01*
X8137260Y-7602619D01*
X8087260Y-7652619D01*
X8137260Y-7702619D01*
X8137260Y-8210619D02*
X8187260Y-8160619D01*
X8137260Y-8110619D01*
X8087260Y-8160619D01*
X8137260Y-8210619D01*
X8899260Y-4654661D02*
X8949260Y-4604661D01*
X8899260Y-4554661D01*
X8849260Y-4604661D01*
X8899260Y-4654661D01*
X8899260Y-5162661D02*
X8949260Y-5112661D01*
X8899260Y-5062661D01*
X8849260Y-5112661D01*
X8899260Y-5162661D01*
X8899260Y-5670619D02*
X8949260Y-5620619D01*
X8899260Y-5570619D01*
X8849260Y-5620619D01*
X8899260Y-5670619D01*
X8899260Y-6178619D02*
X8949260Y-6128619D01*
X8899260Y-6078619D01*
X8849260Y-6128619D01*
X8899260Y-6178619D01*
X8899260Y-6686619D02*
X8949260Y-6636619D01*
X8899260Y-6586619D01*
X8849260Y-6636619D01*
X8899260Y-6686619D01*
X8899260Y-7194619D02*
X8949260Y-7144619D01*
X8899260Y-7094619D01*
X8849260Y-7144619D01*
X8899260Y-7194619D01*
X8899260Y-7702619D02*
X8949260Y-7652619D01*
X8899260Y-7602619D01*
X8849260Y-7652619D01*
X8899260Y-7702619D01*
X8899260Y-8210619D02*
X8949260Y-8160619D01*
X8899260Y-8110619D01*
X8849260Y-8160619D01*
X8899260Y-8210619D01*
X9534202Y-4654661D02*
X9584202Y-4604661D01*
X9534202Y-4554661D01*
X9484202Y-4604661D01*
X9534202Y-4654661D01*
X9534202Y-5162661D02*
X9584202Y-5112661D01*
X9534202Y-5062661D01*
X9484202Y-5112661D01*
X9534202Y-5162661D01*
X9534202Y-5670641D02*
X9584202Y-5620641D01*
X9534202Y-5570642D01*
X9484202Y-5620641D01*
X9534202Y-5670641D01*
X9534202Y-6178641D02*
X9584202Y-6128641D01*
X9534202Y-6078641D01*
X9484202Y-6128641D01*
X9534202Y-6178641D01*
X9534202Y-6686622D02*
X9584202Y-6636622D01*
X9534202Y-6586622D01*
X9484202Y-6636622D01*
X9534202Y-6686622D01*
X9534202Y-7194622D02*
X9584202Y-7144622D01*
X9534202Y-7094622D01*
X9484202Y-7144622D01*
X9534202Y-7194622D01*
X9534202Y-7702602D02*
X9584202Y-7652602D01*
X9534202Y-7602602D01*
X9484202Y-7652602D01*
X9534202Y-7702602D01*
X9534202Y-8210602D02*
X9584202Y-8160602D01*
X9534202Y-8110602D01*
X9484202Y-8160602D01*
X9534202Y-8210602D01*
X9534260Y-8718619D02*
X9584260Y-8668619D01*
X9534260Y-8618619D01*
X9484260Y-8668619D01*
X9534260Y-8718619D01*
X9534260Y-9226619D02*
X9584260Y-9176619D01*
X9534260Y-9126619D01*
X9484260Y-9176619D01*
X9534260Y-9226619D01*
X9788202Y-4654661D02*
X9838202Y-4604661D01*
X9788202Y-4554661D01*
X9738202Y-4604661D01*
X9788202Y-4654661D01*
X9788202Y-5162661D02*
X9838202Y-5112661D01*
X9788202Y-5062661D01*
X9738202Y-5112661D01*
X9788202Y-5162661D01*
X9788202Y-5670641D02*
X9838202Y-5620641D01*
X9788202Y-5570642D01*
X9738202Y-5620641D01*
X9788202Y-5670641D01*
X9788202Y-6178641D02*
X9838202Y-6128641D01*
X9788202Y-6078641D01*
X9738202Y-6128641D01*
X9788202Y-6178641D01*
X9788202Y-6686622D02*
X9838202Y-6636622D01*
X9788202Y-6586622D01*
X9738202Y-6636622D01*
X9788202Y-6686622D01*
X9788202Y-7194622D02*
X9838202Y-7144622D01*
X9788202Y-7094622D01*
X9738202Y-7144622D01*
X9788202Y-7194622D01*
X9788202Y-7702602D02*
X9838202Y-7652602D01*
X9788202Y-7602602D01*
X9738202Y-7652602D01*
X9788202Y-7702602D01*
X9788202Y-8210602D02*
X9838202Y-8160602D01*
X9788202Y-8110602D01*
X9738202Y-8160602D01*
X9788202Y-8210602D01*
X9788260Y-8718619D02*
X9838260Y-8668619D01*
X9788260Y-8618619D01*
X9738260Y-8668619D01*
X9788260Y-8718619D01*
X9788260Y-9226619D02*
X9838260Y-9176619D01*
X9788260Y-9126619D01*
X9738260Y-9176619D01*
X9788260Y-9226619D01*
X10550202Y-4654661D02*
X10600202Y-4604661D01*
X10550202Y-4554661D01*
X10500202Y-4604661D01*
X10550202Y-4654661D01*
X10550202Y-5162661D02*
X10600202Y-5112661D01*
X10550202Y-5062661D01*
X10500202Y-5112661D01*
X10550202Y-5162661D01*
X10550202Y-5670641D02*
X10600202Y-5620641D01*
X10550202Y-5570642D01*
X10500202Y-5620641D01*
X10550202Y-5670641D01*
X10550202Y-6178641D02*
X10600202Y-6128641D01*
X10550202Y-6078641D01*
X10500202Y-6128641D01*
X10550202Y-6178641D01*
X10550202Y-6686622D02*
X10600202Y-6636622D01*
X10550202Y-6586622D01*
X10500202Y-6636622D01*
X10550202Y-6686622D01*
X10550202Y-7194622D02*
X10600202Y-7144622D01*
X10550202Y-7094622D01*
X10500202Y-7144622D01*
X10550202Y-7194622D01*
X10550202Y-7702602D02*
X10600202Y-7652602D01*
X10550202Y-7602602D01*
X10500202Y-7652602D01*
X10550202Y-7702602D01*
X10550202Y-8210602D02*
X10600202Y-8160602D01*
X10550202Y-8110602D01*
X10500202Y-8160602D01*
X10550202Y-8210602D01*
X10550260Y-8718619D02*
X10600260Y-8668619D01*
X10550260Y-8618619D01*
X10500260Y-8668619D01*
X10550260Y-8718619D01*
X10550260Y-9226619D02*
X10600260Y-9176619D01*
X10550260Y-9126619D01*
X10500260Y-9176619D01*
X10550260Y-9226619D01*
X11173010Y-9734619D02*
X11223010Y-9684619D01*
X11173010Y-9634619D01*
X11123010Y-9684619D01*
X11173010Y-9734619D01*
X11173010Y-10242619D02*
X11223010Y-10192619D01*
X11173010Y-10142619D01*
X11123010Y-10192619D01*
X11173010Y-10242619D01*
X11185202Y-8718583D02*
X11235202Y-8668583D01*
X11185202Y-8618583D01*
X11135202Y-8668583D01*
X11185202Y-8718583D01*
X11185202Y-9226583D02*
X11235202Y-9176583D01*
X11185202Y-9126583D01*
X11135202Y-9176583D01*
X11185202Y-9226583D01*
X11185260Y-4654619D02*
X11235260Y-4604619D01*
X11185260Y-4554619D01*
X11135260Y-4604619D01*
X11185260Y-4654619D01*
X11185260Y-5162619D02*
X11235260Y-5112619D01*
X11185260Y-5062619D01*
X11135260Y-5112619D01*
X11185260Y-5162619D01*
X11185260Y-5670619D02*
X11235260Y-5620619D01*
X11185260Y-5570619D01*
X11135260Y-5620619D01*
X11185260Y-5670619D01*
X11185260Y-6178619D02*
X11235260Y-6128619D01*
X11185260Y-6078619D01*
X11135260Y-6128619D01*
X11185260Y-6178619D01*
X11185260Y-6686619D02*
X11235260Y-6636619D01*
X11185260Y-6586619D01*
X11135260Y-6636619D01*
X11185260Y-6686619D01*
X11185260Y-7194619D02*
X11235260Y-7144619D01*
X11185260Y-7094619D01*
X11135260Y-7144619D01*
X11185260Y-7194619D01*
X11185260Y-7702619D02*
X11235260Y-7652619D01*
X11185260Y-7602619D01*
X11135260Y-7652619D01*
X11185260Y-7702619D01*
X11185260Y-8210619D02*
X11235260Y-8160619D01*
X11185260Y-8110619D01*
X11135260Y-8160619D01*
X11185260Y-8210619D01*
X11427010Y-9734619D02*
X11477010Y-9684619D01*
X11427010Y-9634619D01*
X11377010Y-9684619D01*
X11427010Y-9734619D01*
X11427010Y-10242619D02*
X11477010Y-10192619D01*
X11427010Y-10142619D01*
X11377010Y-10192619D01*
X11427010Y-10242619D01*
X11439202Y-8718583D02*
X11489202Y-8668583D01*
X11439202Y-8618583D01*
X11389202Y-8668583D01*
X11439202Y-8718583D01*
X11439202Y-9226583D02*
X11489202Y-9176583D01*
X11439202Y-9126583D01*
X11389202Y-9176583D01*
X11439202Y-9226583D01*
X11439260Y-4654619D02*
X11489260Y-4604619D01*
X11439260Y-4554619D01*
X11389260Y-4604619D01*
X11439260Y-4654619D01*
X11439260Y-5162619D02*
X11489260Y-5112619D01*
X11439260Y-5062619D01*
X11389260Y-5112619D01*
X11439260Y-5162619D01*
X11439260Y-5670619D02*
X11489260Y-5620619D01*
X11439260Y-5570619D01*
X11389260Y-5620619D01*
X11439260Y-5670619D01*
X11439260Y-6178619D02*
X11489260Y-6128619D01*
X11439260Y-6078619D01*
X11389260Y-6128619D01*
X11439260Y-6178619D01*
X11439260Y-6686619D02*
X11489260Y-6636619D01*
X11439260Y-6586619D01*
X11389260Y-6636619D01*
X11439260Y-6686619D01*
X11439260Y-7194619D02*
X11489260Y-7144619D01*
X11439260Y-7094619D01*
X11389260Y-7144619D01*
X11439260Y-7194619D01*
X11439260Y-7702619D02*
X11489260Y-7652619D01*
X11439260Y-7602619D01*
X11389260Y-7652619D01*
X11439260Y-7702619D01*
X11439260Y-8210619D02*
X11489260Y-8160619D01*
X11439260Y-8110619D01*
X11389260Y-8160619D01*
X11439260Y-8210619D01*
X12189010Y-9734619D02*
X12239010Y-9684619D01*
X12189010Y-9634619D01*
X12139010Y-9684619D01*
X12189010Y-9734619D01*
X12189010Y-10242619D02*
X12239010Y-10192619D01*
X12189010Y-10142619D01*
X12139010Y-10192619D01*
X12189010Y-10242619D01*
X12201202Y-8718583D02*
X12251202Y-8668583D01*
X12201202Y-8618583D01*
X12151202Y-8668583D01*
X12201202Y-8718583D01*
X12201202Y-9226583D02*
X12251202Y-9176583D01*
X12201202Y-9126583D01*
X12151202Y-9176583D01*
X12201202Y-9226583D01*
X12201260Y-4654619D02*
X12251260Y-4604619D01*
X12201260Y-4554619D01*
X12151260Y-4604619D01*
X12201260Y-4654619D01*
X12201260Y-5162619D02*
X12251260Y-5112619D01*
X12201260Y-5062619D01*
X12151260Y-5112619D01*
X12201260Y-5162619D01*
X12201260Y-5670619D02*
X12251260Y-5620619D01*
X12201260Y-5570619D01*
X12151260Y-5620619D01*
X12201260Y-5670619D01*
X12201260Y-6178619D02*
X12251260Y-6128619D01*
X12201260Y-6078619D01*
X12151260Y-6128619D01*
X12201260Y-6178619D01*
X12201260Y-6686619D02*
X12251260Y-6636619D01*
X12201260Y-6586619D01*
X12151260Y-6636619D01*
X12201260Y-6686619D01*
X12201260Y-7194619D02*
X12251260Y-7144619D01*
X12201260Y-7094619D01*
X12151260Y-7144619D01*
X12201260Y-7194619D01*
X12201260Y-7702619D02*
X12251260Y-7652619D01*
X12201260Y-7602619D01*
X12151260Y-7652619D01*
X12201260Y-7702619D01*
X12201260Y-8210619D02*
X12251260Y-8160619D01*
X12201260Y-8110619D01*
X12151260Y-8160619D01*
X12201260Y-8210619D01*
X12824010Y-9734619D02*
X12874010Y-9684619D01*
X12824010Y-9634619D01*
X12774010Y-9684619D01*
X12824010Y-9734619D01*
X12824010Y-10242619D02*
X12874010Y-10192619D01*
X12824010Y-10142619D01*
X12774010Y-10192619D01*
X12824010Y-10242619D01*
X12836260Y-7702619D02*
X12886260Y-7652619D01*
X12836260Y-7602619D01*
X12786260Y-7652619D01*
X12836260Y-7702619D01*
X12836260Y-8210619D02*
X12886260Y-8160619D01*
X12836260Y-8110619D01*
X12786260Y-8160619D01*
X12836260Y-8210619D01*
X12836260Y-8718619D02*
X12886260Y-8668619D01*
X12836260Y-8618619D01*
X12786260Y-8668619D01*
X12836260Y-8718619D01*
X12836260Y-9226619D02*
X12886260Y-9176619D01*
X12836260Y-9126619D01*
X12786260Y-9176619D01*
X12836260Y-9226619D01*
X12848510Y-4641369D02*
X12898510Y-4591369D01*
X12848510Y-4541369D01*
X12798510Y-4591369D01*
X12848510Y-4641369D01*
X12848510Y-5149369D02*
X12898510Y-5099369D01*
X12848510Y-5049369D01*
X12798510Y-5099369D01*
X12848510Y-5149369D01*
X12848510Y-5657369D02*
X12898510Y-5607369D01*
X12848510Y-5557369D01*
X12798510Y-5607369D01*
X12848510Y-5657369D01*
X12848510Y-6165369D02*
X12898510Y-6115369D01*
X12848510Y-6065369D01*
X12798510Y-6115369D01*
X12848510Y-6165369D01*
X12848510Y-6673369D02*
X12898510Y-6623369D01*
X12848510Y-6573369D01*
X12798510Y-6623369D01*
X12848510Y-6673369D01*
X12848510Y-7181369D02*
X12898510Y-7131369D01*
X12848510Y-7081369D01*
X12798510Y-7131369D01*
X12848510Y-7181369D01*
X13078010Y-9734619D02*
X13128010Y-9684619D01*
X13078010Y-9634619D01*
X13028010Y-9684619D01*
X13078010Y-9734619D01*
X13078010Y-10242619D02*
X13128010Y-10192619D01*
X13078010Y-10142619D01*
X13028010Y-10192619D01*
X13078010Y-10242619D01*
X13090260Y-7702619D02*
X13140260Y-7652619D01*
X13090260Y-7602619D01*
X13040260Y-7652619D01*
X13090260Y-7702619D01*
X13090260Y-8210619D02*
X13140260Y-8160619D01*
X13090260Y-8110619D01*
X13040260Y-8160619D01*
X13090260Y-8210619D01*
X13090260Y-8718619D02*
X13140260Y-8668619D01*
X13090260Y-8618619D01*
X13040260Y-8668619D01*
X13090260Y-8718619D01*
X13090260Y-9226619D02*
X13140260Y-9176619D01*
X13090260Y-9126619D01*
X13040260Y-9176619D01*
X13090260Y-9226619D01*
X13102510Y-4641369D02*
X13152510Y-4591369D01*
X13102510Y-4541369D01*
X13052510Y-4591369D01*
X13102510Y-4641369D01*
X13102510Y-5149369D02*
X13152510Y-5099369D01*
X13102510Y-5049369D01*
X13052510Y-5099369D01*
X13102510Y-5149369D01*
X13102510Y-5657369D02*
X13152510Y-5607369D01*
X13102510Y-5557369D01*
X13052510Y-5607369D01*
X13102510Y-5657369D01*
X13102510Y-6165369D02*
X13152510Y-6115369D01*
X13102510Y-6065369D01*
X13052510Y-6115369D01*
X13102510Y-6165369D01*
X13102510Y-6673369D02*
X13152510Y-6623369D01*
X13102510Y-6573369D01*
X13052510Y-6623369D01*
X13102510Y-6673369D01*
X13102510Y-7181369D02*
X13152510Y-7131369D01*
X13102510Y-7081369D01*
X13052510Y-7131369D01*
X13102510Y-7181369D01*
X13840010Y-9734619D02*
X13890010Y-9684619D01*
X13840010Y-9634619D01*
X13790010Y-9684619D01*
X13840010Y-9734619D01*
X13840010Y-10242619D02*
X13890010Y-10192619D01*
X13840010Y-10142619D01*
X13790010Y-10192619D01*
X13840010Y-10242619D01*
X13852260Y-7702619D02*
X13902260Y-7652619D01*
X13852260Y-7602619D01*
X13802260Y-7652619D01*
X13852260Y-7702619D01*
X13852260Y-8210619D02*
X13902260Y-8160619D01*
X13852260Y-8110619D01*
X13802260Y-8160619D01*
X13852260Y-8210619D01*
X13852260Y-8718619D02*
X13902260Y-8668619D01*
X13852260Y-8618619D01*
X13802260Y-8668619D01*
X13852260Y-8718619D01*
X13852260Y-9226619D02*
X13902260Y-9176619D01*
X13852260Y-9126619D01*
X13802260Y-9176619D01*
X13852260Y-9226619D01*
X13864510Y-4641369D02*
X13914510Y-4591369D01*
X13864510Y-4541369D01*
X13814510Y-4591369D01*
X13864510Y-4641369D01*
X13864510Y-5149369D02*
X13914510Y-5099369D01*
X13864510Y-5049369D01*
X13814510Y-5099369D01*
X13864510Y-5149369D01*
X13864510Y-5657369D02*
X13914510Y-5607369D01*
X13864510Y-5557369D01*
X13814510Y-5607369D01*
X13864510Y-5657369D01*
X13864510Y-6165369D02*
X13914510Y-6115369D01*
X13864510Y-6065369D01*
X13814510Y-6115369D01*
X13864510Y-6165369D01*
X13864510Y-6673369D02*
X13914510Y-6623369D01*
X13864510Y-6573369D01*
X13814510Y-6623369D01*
X13864510Y-6673369D01*
X13864510Y-7181369D02*
X13914510Y-7131369D01*
X13864510Y-7081369D01*
X13814510Y-7131369D01*
X13864510Y-7181369D01*
D11*
X5331879Y-11589643D02*
X5331879Y-11389643D01*
X5331879Y-11389643D02*
X5379498Y-11389643D01*
X5379498Y-11389643D02*
X5408070Y-11399167D01*
X5408070Y-11399167D02*
X5427117Y-11418214D01*
X5427117Y-11418214D02*
X5436641Y-11437262D01*
X5436641Y-11437262D02*
X5446165Y-11475357D01*
X5446165Y-11475357D02*
X5446165Y-11503928D01*
X5446165Y-11503928D02*
X5436641Y-11542024D01*
X5436641Y-11542024D02*
X5427117Y-11561071D01*
X5427117Y-11561071D02*
X5408070Y-11580119D01*
X5408070Y-11580119D02*
X5379498Y-11589643D01*
X5379498Y-11589643D02*
X5331879Y-11589643D01*
X5531879Y-11589643D02*
X5531879Y-11456309D01*
X5531879Y-11494405D02*
X5541403Y-11475357D01*
X5541403Y-11475357D02*
X5550927Y-11465833D01*
X5550927Y-11465833D02*
X5569974Y-11456309D01*
X5569974Y-11456309D02*
X5589022Y-11456309D01*
X5655688Y-11589643D02*
X5655688Y-11456309D01*
X5655688Y-11389643D02*
X5646165Y-11399167D01*
X5646165Y-11399167D02*
X5655688Y-11408690D01*
X5655688Y-11408690D02*
X5665212Y-11399167D01*
X5665212Y-11399167D02*
X5655688Y-11389643D01*
X5655688Y-11389643D02*
X5655688Y-11408690D01*
X5779498Y-11589643D02*
X5760450Y-11580119D01*
X5760450Y-11580119D02*
X5750927Y-11561071D01*
X5750927Y-11561071D02*
X5750927Y-11389643D01*
X5884260Y-11589643D02*
X5865212Y-11580119D01*
X5865212Y-11580119D02*
X5855688Y-11561071D01*
X5855688Y-11561071D02*
X5855688Y-11389643D01*
X6112831Y-11589643D02*
X6112831Y-11389643D01*
X6112831Y-11389643D02*
X6179498Y-11532500D01*
X6179498Y-11532500D02*
X6246165Y-11389643D01*
X6246165Y-11389643D02*
X6246165Y-11589643D01*
X6427117Y-11589643D02*
X6427117Y-11484881D01*
X6427117Y-11484881D02*
X6417593Y-11465833D01*
X6417593Y-11465833D02*
X6398546Y-11456309D01*
X6398546Y-11456309D02*
X6360450Y-11456309D01*
X6360450Y-11456309D02*
X6341403Y-11465833D01*
X6427117Y-11580119D02*
X6408069Y-11589643D01*
X6408069Y-11589643D02*
X6360450Y-11589643D01*
X6360450Y-11589643D02*
X6341403Y-11580119D01*
X6341403Y-11580119D02*
X6331879Y-11561071D01*
X6331879Y-11561071D02*
X6331879Y-11542024D01*
X6331879Y-11542024D02*
X6341403Y-11522976D01*
X6341403Y-11522976D02*
X6360450Y-11513452D01*
X6360450Y-11513452D02*
X6408069Y-11513452D01*
X6408069Y-11513452D02*
X6427117Y-11503928D01*
X6522355Y-11456309D02*
X6522355Y-11656309D01*
X6522355Y-11465833D02*
X6541403Y-11456309D01*
X6541403Y-11456309D02*
X6579498Y-11456309D01*
X6579498Y-11456309D02*
X6598546Y-11465833D01*
X6598546Y-11465833D02*
X6608069Y-11475357D01*
X6608069Y-11475357D02*
X6617593Y-11494405D01*
X6617593Y-11494405D02*
X6617593Y-11551547D01*
X6617593Y-11551547D02*
X6608069Y-11570595D01*
X6608069Y-11570595D02*
X6598546Y-11580119D01*
X6598546Y-11580119D02*
X6579498Y-11589643D01*
X6579498Y-11589643D02*
X6541403Y-11589643D01*
X6541403Y-11589643D02*
X6522355Y-11580119D01*
X6703308Y-11570595D02*
X6712831Y-11580119D01*
X6712831Y-11580119D02*
X6703308Y-11589643D01*
X6703308Y-11589643D02*
X6693784Y-11580119D01*
X6693784Y-11580119D02*
X6703308Y-11570595D01*
X6703308Y-11570595D02*
X6703308Y-11589643D01*
X6703308Y-11465833D02*
X6712831Y-11475357D01*
X6712831Y-11475357D02*
X6703308Y-11484881D01*
X6703308Y-11484881D02*
X6693784Y-11475357D01*
X6693784Y-11475357D02*
X6703308Y-11465833D01*
X6703308Y-11465833D02*
X6703308Y-11484881D01*
D12*
X5024260Y-11887119D02*
X5084260Y-11947119D01*
X5084260Y-11887119D02*
X5024260Y-11947119D01*
D11*
X5369974Y-11809643D02*
X5389022Y-11809643D01*
X5389022Y-11809643D02*
X5408070Y-11819167D01*
X5408070Y-11819167D02*
X5417593Y-11828690D01*
X5417593Y-11828690D02*
X5427117Y-11847738D01*
X5427117Y-11847738D02*
X5436641Y-11885833D01*
X5436641Y-11885833D02*
X5436641Y-11933452D01*
X5436641Y-11933452D02*
X5427117Y-11971547D01*
X5427117Y-11971547D02*
X5417593Y-11990595D01*
X5417593Y-11990595D02*
X5408070Y-12000119D01*
X5408070Y-12000119D02*
X5389022Y-12009643D01*
X5389022Y-12009643D02*
X5369974Y-12009643D01*
X5369974Y-12009643D02*
X5350927Y-12000119D01*
X5350927Y-12000119D02*
X5341403Y-11990595D01*
X5341403Y-11990595D02*
X5331879Y-11971547D01*
X5331879Y-11971547D02*
X5322355Y-11933452D01*
X5322355Y-11933452D02*
X5322355Y-11885833D01*
X5322355Y-11885833D02*
X5331879Y-11847738D01*
X5331879Y-11847738D02*
X5341403Y-11828690D01*
X5341403Y-11828690D02*
X5350927Y-11819167D01*
X5350927Y-11819167D02*
X5369974Y-11809643D01*
X5522355Y-11990595D02*
X5531879Y-12000119D01*
X5531879Y-12000119D02*
X5522355Y-12009643D01*
X5522355Y-12009643D02*
X5512831Y-12000119D01*
X5512831Y-12000119D02*
X5522355Y-11990595D01*
X5522355Y-11990595D02*
X5522355Y-12009643D01*
X5703308Y-11809643D02*
X5665212Y-11809643D01*
X5665212Y-11809643D02*
X5646165Y-11819167D01*
X5646165Y-11819167D02*
X5636641Y-11828690D01*
X5636641Y-11828690D02*
X5617593Y-11857262D01*
X5617593Y-11857262D02*
X5608069Y-11895357D01*
X5608069Y-11895357D02*
X5608069Y-11971547D01*
X5608069Y-11971547D02*
X5617593Y-11990595D01*
X5617593Y-11990595D02*
X5627117Y-12000119D01*
X5627117Y-12000119D02*
X5646165Y-12009643D01*
X5646165Y-12009643D02*
X5684260Y-12009643D01*
X5684260Y-12009643D02*
X5703308Y-12000119D01*
X5703308Y-12000119D02*
X5712831Y-11990595D01*
X5712831Y-11990595D02*
X5722355Y-11971547D01*
X5722355Y-11971547D02*
X5722355Y-11923928D01*
X5722355Y-11923928D02*
X5712831Y-11904881D01*
X5712831Y-11904881D02*
X5703308Y-11895357D01*
X5703308Y-11895357D02*
X5684260Y-11885833D01*
X5684260Y-11885833D02*
X5646165Y-11885833D01*
X5646165Y-11885833D02*
X5627117Y-11895357D01*
X5627117Y-11895357D02*
X5617593Y-11904881D01*
X5617593Y-11904881D02*
X5608069Y-11923928D01*
X5846165Y-11809643D02*
X5865212Y-11809643D01*
X5865212Y-11809643D02*
X5884260Y-11819167D01*
X5884260Y-11819167D02*
X5893784Y-11828690D01*
X5893784Y-11828690D02*
X5903308Y-11847738D01*
X5903308Y-11847738D02*
X5912831Y-11885833D01*
X5912831Y-11885833D02*
X5912831Y-11933452D01*
X5912831Y-11933452D02*
X5903308Y-11971547D01*
X5903308Y-11971547D02*
X5893784Y-11990595D01*
X5893784Y-11990595D02*
X5884260Y-12000119D01*
X5884260Y-12000119D02*
X5865212Y-12009643D01*
X5865212Y-12009643D02*
X5846165Y-12009643D01*
X5846165Y-12009643D02*
X5827117Y-12000119D01*
X5827117Y-12000119D02*
X5817593Y-11990595D01*
X5817593Y-11990595D02*
X5808069Y-11971547D01*
X5808069Y-11971547D02*
X5798546Y-11933452D01*
X5798546Y-11933452D02*
X5798546Y-11885833D01*
X5798546Y-11885833D02*
X5808069Y-11847738D01*
X5808069Y-11847738D02*
X5817593Y-11828690D01*
X5817593Y-11828690D02*
X5827117Y-11819167D01*
X5827117Y-11819167D02*
X5846165Y-11809643D01*
X6036641Y-11809643D02*
X6055689Y-11809643D01*
X6055689Y-11809643D02*
X6074736Y-11819167D01*
X6074736Y-11819167D02*
X6084260Y-11828690D01*
X6084260Y-11828690D02*
X6093784Y-11847738D01*
X6093784Y-11847738D02*
X6103308Y-11885833D01*
X6103308Y-11885833D02*
X6103308Y-11933452D01*
X6103308Y-11933452D02*
X6093784Y-11971547D01*
X6093784Y-11971547D02*
X6084260Y-11990595D01*
X6084260Y-11990595D02*
X6074736Y-12000119D01*
X6074736Y-12000119D02*
X6055689Y-12009643D01*
X6055689Y-12009643D02*
X6036641Y-12009643D01*
X6036641Y-12009643D02*
X6017593Y-12000119D01*
X6017593Y-12000119D02*
X6008069Y-11990595D01*
X6008069Y-11990595D02*
X5998546Y-11971547D01*
X5998546Y-11971547D02*
X5989022Y-11933452D01*
X5989022Y-11933452D02*
X5989022Y-11885833D01*
X5989022Y-11885833D02*
X5998546Y-11847738D01*
X5998546Y-11847738D02*
X6008069Y-11828690D01*
X6008069Y-11828690D02*
X6017593Y-11819167D01*
X6017593Y-11819167D02*
X6036641Y-11809643D01*
X6189022Y-12009643D02*
X6189022Y-11876309D01*
X6189022Y-11895357D02*
X6198546Y-11885833D01*
X6198546Y-11885833D02*
X6217593Y-11876309D01*
X6217593Y-11876309D02*
X6246165Y-11876309D01*
X6246165Y-11876309D02*
X6265212Y-11885833D01*
X6265212Y-11885833D02*
X6274736Y-11904881D01*
X6274736Y-11904881D02*
X6274736Y-12009643D01*
X6274736Y-11904881D02*
X6284260Y-11885833D01*
X6284260Y-11885833D02*
X6303308Y-11876309D01*
X6303308Y-11876309D02*
X6331879Y-11876309D01*
X6331879Y-11876309D02*
X6350927Y-11885833D01*
X6350927Y-11885833D02*
X6360450Y-11904881D01*
X6360450Y-11904881D02*
X6360450Y-12009643D01*
X6455689Y-12009643D02*
X6455689Y-11876309D01*
X6455689Y-11895357D02*
X6465212Y-11885833D01*
X6465212Y-11885833D02*
X6484260Y-11876309D01*
X6484260Y-11876309D02*
X6512831Y-11876309D01*
X6512831Y-11876309D02*
X6531879Y-11885833D01*
X6531879Y-11885833D02*
X6541403Y-11904881D01*
X6541403Y-11904881D02*
X6541403Y-12009643D01*
X6541403Y-11904881D02*
X6550927Y-11885833D01*
X6550927Y-11885833D02*
X6569974Y-11876309D01*
X6569974Y-11876309D02*
X6598546Y-11876309D01*
X6598546Y-11876309D02*
X6617593Y-11885833D01*
X6617593Y-11885833D02*
X6627117Y-11904881D01*
X6627117Y-11904881D02*
X6627117Y-12009643D01*
X7017593Y-11800119D02*
X6846165Y-12057262D01*
X7274736Y-11809643D02*
X7293784Y-11809643D01*
X7293784Y-11809643D02*
X7312832Y-11819167D01*
X7312832Y-11819167D02*
X7322355Y-11828690D01*
X7322355Y-11828690D02*
X7331879Y-11847738D01*
X7331879Y-11847738D02*
X7341403Y-11885833D01*
X7341403Y-11885833D02*
X7341403Y-11933452D01*
X7341403Y-11933452D02*
X7331879Y-11971547D01*
X7331879Y-11971547D02*
X7322355Y-11990595D01*
X7322355Y-11990595D02*
X7312832Y-12000119D01*
X7312832Y-12000119D02*
X7293784Y-12009643D01*
X7293784Y-12009643D02*
X7274736Y-12009643D01*
X7274736Y-12009643D02*
X7255689Y-12000119D01*
X7255689Y-12000119D02*
X7246165Y-11990595D01*
X7246165Y-11990595D02*
X7236641Y-11971547D01*
X7236641Y-11971547D02*
X7227117Y-11933452D01*
X7227117Y-11933452D02*
X7227117Y-11885833D01*
X7227117Y-11885833D02*
X7236641Y-11847738D01*
X7236641Y-11847738D02*
X7246165Y-11828690D01*
X7246165Y-11828690D02*
X7255689Y-11819167D01*
X7255689Y-11819167D02*
X7274736Y-11809643D01*
X7427117Y-11990595D02*
X7436641Y-12000119D01*
X7436641Y-12000119D02*
X7427117Y-12009643D01*
X7427117Y-12009643D02*
X7417593Y-12000119D01*
X7417593Y-12000119D02*
X7427117Y-11990595D01*
X7427117Y-11990595D02*
X7427117Y-12009643D01*
X7560451Y-11809643D02*
X7579498Y-11809643D01*
X7579498Y-11809643D02*
X7598546Y-11819167D01*
X7598546Y-11819167D02*
X7608070Y-11828690D01*
X7608070Y-11828690D02*
X7617593Y-11847738D01*
X7617593Y-11847738D02*
X7627117Y-11885833D01*
X7627117Y-11885833D02*
X7627117Y-11933452D01*
X7627117Y-11933452D02*
X7617593Y-11971547D01*
X7617593Y-11971547D02*
X7608070Y-11990595D01*
X7608070Y-11990595D02*
X7598546Y-12000119D01*
X7598546Y-12000119D02*
X7579498Y-12009643D01*
X7579498Y-12009643D02*
X7560451Y-12009643D01*
X7560451Y-12009643D02*
X7541403Y-12000119D01*
X7541403Y-12000119D02*
X7531879Y-11990595D01*
X7531879Y-11990595D02*
X7522355Y-11971547D01*
X7522355Y-11971547D02*
X7512832Y-11933452D01*
X7512832Y-11933452D02*
X7512832Y-11885833D01*
X7512832Y-11885833D02*
X7522355Y-11847738D01*
X7522355Y-11847738D02*
X7531879Y-11828690D01*
X7531879Y-11828690D02*
X7541403Y-11819167D01*
X7541403Y-11819167D02*
X7560451Y-11809643D01*
X7703308Y-11828690D02*
X7712832Y-11819167D01*
X7712832Y-11819167D02*
X7731879Y-11809643D01*
X7731879Y-11809643D02*
X7779498Y-11809643D01*
X7779498Y-11809643D02*
X7798546Y-11819167D01*
X7798546Y-11819167D02*
X7808070Y-11828690D01*
X7808070Y-11828690D02*
X7817593Y-11847738D01*
X7817593Y-11847738D02*
X7817593Y-11866786D01*
X7817593Y-11866786D02*
X7808070Y-11895357D01*
X7808070Y-11895357D02*
X7693784Y-12009643D01*
X7693784Y-12009643D02*
X7817593Y-12009643D01*
X7884260Y-11809643D02*
X8008070Y-11809643D01*
X8008070Y-11809643D02*
X7941403Y-11885833D01*
X7941403Y-11885833D02*
X7969974Y-11885833D01*
X7969974Y-11885833D02*
X7989022Y-11895357D01*
X7989022Y-11895357D02*
X7998546Y-11904881D01*
X7998546Y-11904881D02*
X8008070Y-11923928D01*
X8008070Y-11923928D02*
X8008070Y-11971547D01*
X8008070Y-11971547D02*
X7998546Y-11990595D01*
X7998546Y-11990595D02*
X7989022Y-12000119D01*
X7989022Y-12000119D02*
X7969974Y-12009643D01*
X7969974Y-12009643D02*
X7912832Y-12009643D01*
X7912832Y-12009643D02*
X7893784Y-12000119D01*
X7893784Y-12000119D02*
X7884260Y-11990595D01*
X8179498Y-11809643D02*
X8141403Y-11809643D01*
X8141403Y-11809643D02*
X8122355Y-11819167D01*
X8122355Y-11819167D02*
X8112832Y-11828690D01*
X8112832Y-11828690D02*
X8093784Y-11857262D01*
X8093784Y-11857262D02*
X8084260Y-11895357D01*
X8084260Y-11895357D02*
X8084260Y-11971547D01*
X8084260Y-11971547D02*
X8093784Y-11990595D01*
X8093784Y-11990595D02*
X8103308Y-12000119D01*
X8103308Y-12000119D02*
X8122355Y-12009643D01*
X8122355Y-12009643D02*
X8160451Y-12009643D01*
X8160451Y-12009643D02*
X8179498Y-12000119D01*
X8179498Y-12000119D02*
X8189022Y-11990595D01*
X8189022Y-11990595D02*
X8198546Y-11971547D01*
X8198546Y-11971547D02*
X8198546Y-11923928D01*
X8198546Y-11923928D02*
X8189022Y-11904881D01*
X8189022Y-11904881D02*
X8179498Y-11895357D01*
X8179498Y-11895357D02*
X8160451Y-11885833D01*
X8160451Y-11885833D02*
X8122355Y-11885833D01*
X8122355Y-11885833D02*
X8103308Y-11895357D01*
X8103308Y-11895357D02*
X8093784Y-11904881D01*
X8093784Y-11904881D02*
X8084260Y-11923928D01*
X8274736Y-11809643D02*
X8274736Y-11847738D01*
X8350927Y-11809643D02*
X8350927Y-11847738D01*
X8646165Y-12085833D02*
X8636641Y-12076309D01*
X8636641Y-12076309D02*
X8617594Y-12047738D01*
X8617594Y-12047738D02*
X8608070Y-12028690D01*
X8608070Y-12028690D02*
X8598546Y-12000119D01*
X8598546Y-12000119D02*
X8589022Y-11952500D01*
X8589022Y-11952500D02*
X8589022Y-11914405D01*
X8589022Y-11914405D02*
X8598546Y-11866786D01*
X8598546Y-11866786D02*
X8608070Y-11838214D01*
X8608070Y-11838214D02*
X8617594Y-11819167D01*
X8617594Y-11819167D02*
X8636641Y-11790595D01*
X8636641Y-11790595D02*
X8646165Y-11781071D01*
X8760451Y-11809643D02*
X8779498Y-11809643D01*
X8779498Y-11809643D02*
X8798546Y-11819167D01*
X8798546Y-11819167D02*
X8808070Y-11828690D01*
X8808070Y-11828690D02*
X8817594Y-11847738D01*
X8817594Y-11847738D02*
X8827117Y-11885833D01*
X8827117Y-11885833D02*
X8827117Y-11933452D01*
X8827117Y-11933452D02*
X8817594Y-11971547D01*
X8817594Y-11971547D02*
X8808070Y-11990595D01*
X8808070Y-11990595D02*
X8798546Y-12000119D01*
X8798546Y-12000119D02*
X8779498Y-12009643D01*
X8779498Y-12009643D02*
X8760451Y-12009643D01*
X8760451Y-12009643D02*
X8741403Y-12000119D01*
X8741403Y-12000119D02*
X8731879Y-11990595D01*
X8731879Y-11990595D02*
X8722356Y-11971547D01*
X8722356Y-11971547D02*
X8712832Y-11933452D01*
X8712832Y-11933452D02*
X8712832Y-11885833D01*
X8712832Y-11885833D02*
X8722356Y-11847738D01*
X8722356Y-11847738D02*
X8731879Y-11828690D01*
X8731879Y-11828690D02*
X8741403Y-11819167D01*
X8741403Y-11819167D02*
X8760451Y-11809643D01*
X9065213Y-12009643D02*
X9065213Y-11809643D01*
X9150927Y-12009643D02*
X9150927Y-11904881D01*
X9150927Y-11904881D02*
X9141403Y-11885833D01*
X9141403Y-11885833D02*
X9122356Y-11876309D01*
X9122356Y-11876309D02*
X9093784Y-11876309D01*
X9093784Y-11876309D02*
X9074737Y-11885833D01*
X9074737Y-11885833D02*
X9065213Y-11895357D01*
X9274737Y-12009643D02*
X9255689Y-12000119D01*
X9255689Y-12000119D02*
X9246165Y-11990595D01*
X9246165Y-11990595D02*
X9236641Y-11971547D01*
X9236641Y-11971547D02*
X9236641Y-11914405D01*
X9236641Y-11914405D02*
X9246165Y-11895357D01*
X9246165Y-11895357D02*
X9255689Y-11885833D01*
X9255689Y-11885833D02*
X9274737Y-11876309D01*
X9274737Y-11876309D02*
X9303308Y-11876309D01*
X9303308Y-11876309D02*
X9322356Y-11885833D01*
X9322356Y-11885833D02*
X9331879Y-11895357D01*
X9331879Y-11895357D02*
X9341403Y-11914405D01*
X9341403Y-11914405D02*
X9341403Y-11971547D01*
X9341403Y-11971547D02*
X9331879Y-11990595D01*
X9331879Y-11990595D02*
X9322356Y-12000119D01*
X9322356Y-12000119D02*
X9303308Y-12009643D01*
X9303308Y-12009643D02*
X9274737Y-12009643D01*
X9455689Y-12009643D02*
X9436641Y-12000119D01*
X9436641Y-12000119D02*
X9427118Y-11981071D01*
X9427118Y-11981071D02*
X9427118Y-11809643D01*
X9608070Y-12000119D02*
X9589022Y-12009643D01*
X9589022Y-12009643D02*
X9550927Y-12009643D01*
X9550927Y-12009643D02*
X9531879Y-12000119D01*
X9531879Y-12000119D02*
X9522356Y-11981071D01*
X9522356Y-11981071D02*
X9522356Y-11904881D01*
X9522356Y-11904881D02*
X9531879Y-11885833D01*
X9531879Y-11885833D02*
X9550927Y-11876309D01*
X9550927Y-11876309D02*
X9589022Y-11876309D01*
X9589022Y-11876309D02*
X9608070Y-11885833D01*
X9608070Y-11885833D02*
X9617594Y-11904881D01*
X9617594Y-11904881D02*
X9617594Y-11923928D01*
X9617594Y-11923928D02*
X9522356Y-11942976D01*
X9693784Y-12000119D02*
X9712832Y-12009643D01*
X9712832Y-12009643D02*
X9750927Y-12009643D01*
X9750927Y-12009643D02*
X9769975Y-12000119D01*
X9769975Y-12000119D02*
X9779499Y-11981071D01*
X9779499Y-11981071D02*
X9779499Y-11971547D01*
X9779499Y-11971547D02*
X9769975Y-11952500D01*
X9769975Y-11952500D02*
X9750927Y-11942976D01*
X9750927Y-11942976D02*
X9722356Y-11942976D01*
X9722356Y-11942976D02*
X9703308Y-11933452D01*
X9703308Y-11933452D02*
X9693784Y-11914405D01*
X9693784Y-11914405D02*
X9693784Y-11904881D01*
X9693784Y-11904881D02*
X9703308Y-11885833D01*
X9703308Y-11885833D02*
X9722356Y-11876309D01*
X9722356Y-11876309D02*
X9750927Y-11876309D01*
X9750927Y-11876309D02*
X9769975Y-11885833D01*
X10017594Y-11933452D02*
X10169975Y-11933452D01*
X10093784Y-12009643D02*
X10093784Y-11857262D01*
X10503308Y-11876309D02*
X10503308Y-12009643D01*
X10455689Y-11800119D02*
X10408070Y-11942976D01*
X10408070Y-11942976D02*
X10531880Y-11942976D01*
X10750927Y-12000119D02*
X10769975Y-12009643D01*
X10769975Y-12009643D02*
X10808070Y-12009643D01*
X10808070Y-12009643D02*
X10827118Y-12000119D01*
X10827118Y-12000119D02*
X10836642Y-11981071D01*
X10836642Y-11981071D02*
X10836642Y-11971547D01*
X10836642Y-11971547D02*
X10827118Y-11952500D01*
X10827118Y-11952500D02*
X10808070Y-11942976D01*
X10808070Y-11942976D02*
X10779499Y-11942976D01*
X10779499Y-11942976D02*
X10760451Y-11933452D01*
X10760451Y-11933452D02*
X10750927Y-11914405D01*
X10750927Y-11914405D02*
X10750927Y-11904881D01*
X10750927Y-11904881D02*
X10760451Y-11885833D01*
X10760451Y-11885833D02*
X10779499Y-11876309D01*
X10779499Y-11876309D02*
X10808070Y-11876309D01*
X10808070Y-11876309D02*
X10827118Y-11885833D01*
X10950927Y-12009643D02*
X10931880Y-12000119D01*
X10931880Y-12000119D02*
X10922356Y-11981071D01*
X10922356Y-11981071D02*
X10922356Y-11809643D01*
X11055689Y-12009643D02*
X11036642Y-12000119D01*
X11036642Y-12000119D02*
X11027118Y-11990595D01*
X11027118Y-11990595D02*
X11017594Y-11971547D01*
X11017594Y-11971547D02*
X11017594Y-11914405D01*
X11017594Y-11914405D02*
X11027118Y-11895357D01*
X11027118Y-11895357D02*
X11036642Y-11885833D01*
X11036642Y-11885833D02*
X11055689Y-11876309D01*
X11055689Y-11876309D02*
X11084261Y-11876309D01*
X11084261Y-11876309D02*
X11103308Y-11885833D01*
X11103308Y-11885833D02*
X11112832Y-11895357D01*
X11112832Y-11895357D02*
X11122356Y-11914405D01*
X11122356Y-11914405D02*
X11122356Y-11971547D01*
X11122356Y-11971547D02*
X11112832Y-11990595D01*
X11112832Y-11990595D02*
X11103308Y-12000119D01*
X11103308Y-12000119D02*
X11084261Y-12009643D01*
X11084261Y-12009643D02*
X11055689Y-12009643D01*
X11179499Y-11876309D02*
X11255689Y-11876309D01*
X11208070Y-11809643D02*
X11208070Y-11981071D01*
X11208070Y-11981071D02*
X11217594Y-12000119D01*
X11217594Y-12000119D02*
X11236641Y-12009643D01*
X11236641Y-12009643D02*
X11255689Y-12009643D01*
X11312832Y-12000119D02*
X11331880Y-12009643D01*
X11331880Y-12009643D02*
X11369975Y-12009643D01*
X11369975Y-12009643D02*
X11389022Y-12000119D01*
X11389022Y-12000119D02*
X11398546Y-11981071D01*
X11398546Y-11981071D02*
X11398546Y-11971547D01*
X11398546Y-11971547D02*
X11389022Y-11952500D01*
X11389022Y-11952500D02*
X11369975Y-11942976D01*
X11369975Y-11942976D02*
X11341403Y-11942976D01*
X11341403Y-11942976D02*
X11322356Y-11933452D01*
X11322356Y-11933452D02*
X11312832Y-11914405D01*
X11312832Y-11914405D02*
X11312832Y-11904881D01*
X11312832Y-11904881D02*
X11322356Y-11885833D01*
X11322356Y-11885833D02*
X11341403Y-11876309D01*
X11341403Y-11876309D02*
X11369975Y-11876309D01*
X11369975Y-11876309D02*
X11389022Y-11885833D01*
X11465213Y-12085833D02*
X11474737Y-12076309D01*
X11474737Y-12076309D02*
X11493784Y-12047738D01*
X11493784Y-12047738D02*
X11503308Y-12028690D01*
X11503308Y-12028690D02*
X11512832Y-12000119D01*
X11512832Y-12000119D02*
X11522356Y-11952500D01*
X11522356Y-11952500D02*
X11522356Y-11914405D01*
X11522356Y-11914405D02*
X11512832Y-11866786D01*
X11512832Y-11866786D02*
X11503308Y-11838214D01*
X11503308Y-11838214D02*
X11493784Y-11819167D01*
X11493784Y-11819167D02*
X11474737Y-11790595D01*
X11474737Y-11790595D02*
X11465213Y-11781071D01*
D13*
X5084260Y-12181119D02*
G75*
G03*
X5084260Y-12181119I-38100J0D01*
G01*
D11*
X5369974Y-12073643D02*
X5389022Y-12073643D01*
X5389022Y-12073643D02*
X5408070Y-12083167D01*
X5408070Y-12083167D02*
X5417593Y-12092690D01*
X5417593Y-12092690D02*
X5427117Y-12111738D01*
X5427117Y-12111738D02*
X5436641Y-12149833D01*
X5436641Y-12149833D02*
X5436641Y-12197452D01*
X5436641Y-12197452D02*
X5427117Y-12235547D01*
X5427117Y-12235547D02*
X5417593Y-12254595D01*
X5417593Y-12254595D02*
X5408070Y-12264119D01*
X5408070Y-12264119D02*
X5389022Y-12273643D01*
X5389022Y-12273643D02*
X5369974Y-12273643D01*
X5369974Y-12273643D02*
X5350927Y-12264119D01*
X5350927Y-12264119D02*
X5341403Y-12254595D01*
X5341403Y-12254595D02*
X5331879Y-12235547D01*
X5331879Y-12235547D02*
X5322355Y-12197452D01*
X5322355Y-12197452D02*
X5322355Y-12149833D01*
X5322355Y-12149833D02*
X5331879Y-12111738D01*
X5331879Y-12111738D02*
X5341403Y-12092690D01*
X5341403Y-12092690D02*
X5350927Y-12083167D01*
X5350927Y-12083167D02*
X5369974Y-12073643D01*
X5522355Y-12254595D02*
X5531879Y-12264119D01*
X5531879Y-12264119D02*
X5522355Y-12273643D01*
X5522355Y-12273643D02*
X5512831Y-12264119D01*
X5512831Y-12264119D02*
X5522355Y-12254595D01*
X5522355Y-12254595D02*
X5522355Y-12273643D01*
X5598546Y-12073643D02*
X5731879Y-12073643D01*
X5731879Y-12073643D02*
X5646165Y-12273643D01*
X5893784Y-12073643D02*
X5855688Y-12073643D01*
X5855688Y-12073643D02*
X5836641Y-12083167D01*
X5836641Y-12083167D02*
X5827117Y-12092690D01*
X5827117Y-12092690D02*
X5808069Y-12121262D01*
X5808069Y-12121262D02*
X5798546Y-12159357D01*
X5798546Y-12159357D02*
X5798546Y-12235547D01*
X5798546Y-12235547D02*
X5808069Y-12254595D01*
X5808069Y-12254595D02*
X5817593Y-12264119D01*
X5817593Y-12264119D02*
X5836641Y-12273643D01*
X5836641Y-12273643D02*
X5874736Y-12273643D01*
X5874736Y-12273643D02*
X5893784Y-12264119D01*
X5893784Y-12264119D02*
X5903308Y-12254595D01*
X5903308Y-12254595D02*
X5912831Y-12235547D01*
X5912831Y-12235547D02*
X5912831Y-12187928D01*
X5912831Y-12187928D02*
X5903308Y-12168881D01*
X5903308Y-12168881D02*
X5893784Y-12159357D01*
X5893784Y-12159357D02*
X5874736Y-12149833D01*
X5874736Y-12149833D02*
X5836641Y-12149833D01*
X5836641Y-12149833D02*
X5817593Y-12159357D01*
X5817593Y-12159357D02*
X5808069Y-12168881D01*
X5808069Y-12168881D02*
X5798546Y-12187928D01*
X5989022Y-12092690D02*
X5998546Y-12083167D01*
X5998546Y-12083167D02*
X6017593Y-12073643D01*
X6017593Y-12073643D02*
X6065212Y-12073643D01*
X6065212Y-12073643D02*
X6084260Y-12083167D01*
X6084260Y-12083167D02*
X6093784Y-12092690D01*
X6093784Y-12092690D02*
X6103308Y-12111738D01*
X6103308Y-12111738D02*
X6103308Y-12130786D01*
X6103308Y-12130786D02*
X6093784Y-12159357D01*
X6093784Y-12159357D02*
X5979498Y-12273643D01*
X5979498Y-12273643D02*
X6103308Y-12273643D01*
X6189022Y-12273643D02*
X6189022Y-12140309D01*
X6189022Y-12159357D02*
X6198546Y-12149833D01*
X6198546Y-12149833D02*
X6217593Y-12140309D01*
X6217593Y-12140309D02*
X6246165Y-12140309D01*
X6246165Y-12140309D02*
X6265212Y-12149833D01*
X6265212Y-12149833D02*
X6274736Y-12168881D01*
X6274736Y-12168881D02*
X6274736Y-12273643D01*
X6274736Y-12168881D02*
X6284260Y-12149833D01*
X6284260Y-12149833D02*
X6303308Y-12140309D01*
X6303308Y-12140309D02*
X6331879Y-12140309D01*
X6331879Y-12140309D02*
X6350927Y-12149833D01*
X6350927Y-12149833D02*
X6360450Y-12168881D01*
X6360450Y-12168881D02*
X6360450Y-12273643D01*
X6455689Y-12273643D02*
X6455689Y-12140309D01*
X6455689Y-12159357D02*
X6465212Y-12149833D01*
X6465212Y-12149833D02*
X6484260Y-12140309D01*
X6484260Y-12140309D02*
X6512831Y-12140309D01*
X6512831Y-12140309D02*
X6531879Y-12149833D01*
X6531879Y-12149833D02*
X6541403Y-12168881D01*
X6541403Y-12168881D02*
X6541403Y-12273643D01*
X6541403Y-12168881D02*
X6550927Y-12149833D01*
X6550927Y-12149833D02*
X6569974Y-12140309D01*
X6569974Y-12140309D02*
X6598546Y-12140309D01*
X6598546Y-12140309D02*
X6617593Y-12149833D01*
X6617593Y-12149833D02*
X6627117Y-12168881D01*
X6627117Y-12168881D02*
X6627117Y-12273643D01*
X7017593Y-12064119D02*
X6846165Y-12321262D01*
X7274736Y-12073643D02*
X7293784Y-12073643D01*
X7293784Y-12073643D02*
X7312832Y-12083167D01*
X7312832Y-12083167D02*
X7322355Y-12092690D01*
X7322355Y-12092690D02*
X7331879Y-12111738D01*
X7331879Y-12111738D02*
X7341403Y-12149833D01*
X7341403Y-12149833D02*
X7341403Y-12197452D01*
X7341403Y-12197452D02*
X7331879Y-12235547D01*
X7331879Y-12235547D02*
X7322355Y-12254595D01*
X7322355Y-12254595D02*
X7312832Y-12264119D01*
X7312832Y-12264119D02*
X7293784Y-12273643D01*
X7293784Y-12273643D02*
X7274736Y-12273643D01*
X7274736Y-12273643D02*
X7255689Y-12264119D01*
X7255689Y-12264119D02*
X7246165Y-12254595D01*
X7246165Y-12254595D02*
X7236641Y-12235547D01*
X7236641Y-12235547D02*
X7227117Y-12197452D01*
X7227117Y-12197452D02*
X7227117Y-12149833D01*
X7227117Y-12149833D02*
X7236641Y-12111738D01*
X7236641Y-12111738D02*
X7246165Y-12092690D01*
X7246165Y-12092690D02*
X7255689Y-12083167D01*
X7255689Y-12083167D02*
X7274736Y-12073643D01*
X7427117Y-12254595D02*
X7436641Y-12264119D01*
X7436641Y-12264119D02*
X7427117Y-12273643D01*
X7427117Y-12273643D02*
X7417593Y-12264119D01*
X7417593Y-12264119D02*
X7427117Y-12254595D01*
X7427117Y-12254595D02*
X7427117Y-12273643D01*
X7560451Y-12073643D02*
X7579498Y-12073643D01*
X7579498Y-12073643D02*
X7598546Y-12083167D01*
X7598546Y-12083167D02*
X7608070Y-12092690D01*
X7608070Y-12092690D02*
X7617593Y-12111738D01*
X7617593Y-12111738D02*
X7627117Y-12149833D01*
X7627117Y-12149833D02*
X7627117Y-12197452D01*
X7627117Y-12197452D02*
X7617593Y-12235547D01*
X7617593Y-12235547D02*
X7608070Y-12254595D01*
X7608070Y-12254595D02*
X7598546Y-12264119D01*
X7598546Y-12264119D02*
X7579498Y-12273643D01*
X7579498Y-12273643D02*
X7560451Y-12273643D01*
X7560451Y-12273643D02*
X7541403Y-12264119D01*
X7541403Y-12264119D02*
X7531879Y-12254595D01*
X7531879Y-12254595D02*
X7522355Y-12235547D01*
X7522355Y-12235547D02*
X7512832Y-12197452D01*
X7512832Y-12197452D02*
X7512832Y-12149833D01*
X7512832Y-12149833D02*
X7522355Y-12111738D01*
X7522355Y-12111738D02*
X7531879Y-12092690D01*
X7531879Y-12092690D02*
X7541403Y-12083167D01*
X7541403Y-12083167D02*
X7560451Y-12073643D01*
X7693784Y-12073643D02*
X7817593Y-12073643D01*
X7817593Y-12073643D02*
X7750927Y-12149833D01*
X7750927Y-12149833D02*
X7779498Y-12149833D01*
X7779498Y-12149833D02*
X7798546Y-12159357D01*
X7798546Y-12159357D02*
X7808070Y-12168881D01*
X7808070Y-12168881D02*
X7817593Y-12187928D01*
X7817593Y-12187928D02*
X7817593Y-12235547D01*
X7817593Y-12235547D02*
X7808070Y-12254595D01*
X7808070Y-12254595D02*
X7798546Y-12264119D01*
X7798546Y-12264119D02*
X7779498Y-12273643D01*
X7779498Y-12273643D02*
X7722355Y-12273643D01*
X7722355Y-12273643D02*
X7703308Y-12264119D01*
X7703308Y-12264119D02*
X7693784Y-12254595D01*
X7941403Y-12073643D02*
X7960451Y-12073643D01*
X7960451Y-12073643D02*
X7979498Y-12083167D01*
X7979498Y-12083167D02*
X7989022Y-12092690D01*
X7989022Y-12092690D02*
X7998546Y-12111738D01*
X7998546Y-12111738D02*
X8008070Y-12149833D01*
X8008070Y-12149833D02*
X8008070Y-12197452D01*
X8008070Y-12197452D02*
X7998546Y-12235547D01*
X7998546Y-12235547D02*
X7989022Y-12254595D01*
X7989022Y-12254595D02*
X7979498Y-12264119D01*
X7979498Y-12264119D02*
X7960451Y-12273643D01*
X7960451Y-12273643D02*
X7941403Y-12273643D01*
X7941403Y-12273643D02*
X7922355Y-12264119D01*
X7922355Y-12264119D02*
X7912832Y-12254595D01*
X7912832Y-12254595D02*
X7903308Y-12235547D01*
X7903308Y-12235547D02*
X7893784Y-12197452D01*
X7893784Y-12197452D02*
X7893784Y-12149833D01*
X7893784Y-12149833D02*
X7903308Y-12111738D01*
X7903308Y-12111738D02*
X7912832Y-12092690D01*
X7912832Y-12092690D02*
X7922355Y-12083167D01*
X7922355Y-12083167D02*
X7941403Y-12073643D01*
X8131879Y-12073643D02*
X8150927Y-12073643D01*
X8150927Y-12073643D02*
X8169974Y-12083167D01*
X8169974Y-12083167D02*
X8179498Y-12092690D01*
X8179498Y-12092690D02*
X8189022Y-12111738D01*
X8189022Y-12111738D02*
X8198546Y-12149833D01*
X8198546Y-12149833D02*
X8198546Y-12197452D01*
X8198546Y-12197452D02*
X8189022Y-12235547D01*
X8189022Y-12235547D02*
X8179498Y-12254595D01*
X8179498Y-12254595D02*
X8169974Y-12264119D01*
X8169974Y-12264119D02*
X8150927Y-12273643D01*
X8150927Y-12273643D02*
X8131879Y-12273643D01*
X8131879Y-12273643D02*
X8112832Y-12264119D01*
X8112832Y-12264119D02*
X8103308Y-12254595D01*
X8103308Y-12254595D02*
X8093784Y-12235547D01*
X8093784Y-12235547D02*
X8084260Y-12197452D01*
X8084260Y-12197452D02*
X8084260Y-12149833D01*
X8084260Y-12149833D02*
X8093784Y-12111738D01*
X8093784Y-12111738D02*
X8103308Y-12092690D01*
X8103308Y-12092690D02*
X8112832Y-12083167D01*
X8112832Y-12083167D02*
X8131879Y-12073643D01*
X8274736Y-12073643D02*
X8274736Y-12111738D01*
X8350927Y-12073643D02*
X8350927Y-12111738D01*
X8646165Y-12349833D02*
X8636641Y-12340309D01*
X8636641Y-12340309D02*
X8617594Y-12311738D01*
X8617594Y-12311738D02*
X8608070Y-12292690D01*
X8608070Y-12292690D02*
X8598546Y-12264119D01*
X8598546Y-12264119D02*
X8589022Y-12216500D01*
X8589022Y-12216500D02*
X8589022Y-12178405D01*
X8589022Y-12178405D02*
X8598546Y-12130786D01*
X8598546Y-12130786D02*
X8608070Y-12102214D01*
X8608070Y-12102214D02*
X8617594Y-12083167D01*
X8617594Y-12083167D02*
X8636641Y-12054595D01*
X8636641Y-12054595D02*
X8646165Y-12045071D01*
X8808070Y-12073643D02*
X8769975Y-12073643D01*
X8769975Y-12073643D02*
X8750927Y-12083167D01*
X8750927Y-12083167D02*
X8741403Y-12092690D01*
X8741403Y-12092690D02*
X8722356Y-12121262D01*
X8722356Y-12121262D02*
X8712832Y-12159357D01*
X8712832Y-12159357D02*
X8712832Y-12235547D01*
X8712832Y-12235547D02*
X8722356Y-12254595D01*
X8722356Y-12254595D02*
X8731879Y-12264119D01*
X8731879Y-12264119D02*
X8750927Y-12273643D01*
X8750927Y-12273643D02*
X8789022Y-12273643D01*
X8789022Y-12273643D02*
X8808070Y-12264119D01*
X8808070Y-12264119D02*
X8817594Y-12254595D01*
X8817594Y-12254595D02*
X8827117Y-12235547D01*
X8827117Y-12235547D02*
X8827117Y-12187928D01*
X8827117Y-12187928D02*
X8817594Y-12168881D01*
X8817594Y-12168881D02*
X8808070Y-12159357D01*
X8808070Y-12159357D02*
X8789022Y-12149833D01*
X8789022Y-12149833D02*
X8750927Y-12149833D01*
X8750927Y-12149833D02*
X8731879Y-12159357D01*
X8731879Y-12159357D02*
X8722356Y-12168881D01*
X8722356Y-12168881D02*
X8712832Y-12187928D01*
X9065213Y-12273643D02*
X9065213Y-12073643D01*
X9150927Y-12273643D02*
X9150927Y-12168881D01*
X9150927Y-12168881D02*
X9141403Y-12149833D01*
X9141403Y-12149833D02*
X9122356Y-12140309D01*
X9122356Y-12140309D02*
X9093784Y-12140309D01*
X9093784Y-12140309D02*
X9074737Y-12149833D01*
X9074737Y-12149833D02*
X9065213Y-12159357D01*
X9274737Y-12273643D02*
X9255689Y-12264119D01*
X9255689Y-12264119D02*
X9246165Y-12254595D01*
X9246165Y-12254595D02*
X9236641Y-12235547D01*
X9236641Y-12235547D02*
X9236641Y-12178405D01*
X9236641Y-12178405D02*
X9246165Y-12159357D01*
X9246165Y-12159357D02*
X9255689Y-12149833D01*
X9255689Y-12149833D02*
X9274737Y-12140309D01*
X9274737Y-12140309D02*
X9303308Y-12140309D01*
X9303308Y-12140309D02*
X9322356Y-12149833D01*
X9322356Y-12149833D02*
X9331879Y-12159357D01*
X9331879Y-12159357D02*
X9341403Y-12178405D01*
X9341403Y-12178405D02*
X9341403Y-12235547D01*
X9341403Y-12235547D02*
X9331879Y-12254595D01*
X9331879Y-12254595D02*
X9322356Y-12264119D01*
X9322356Y-12264119D02*
X9303308Y-12273643D01*
X9303308Y-12273643D02*
X9274737Y-12273643D01*
X9455689Y-12273643D02*
X9436641Y-12264119D01*
X9436641Y-12264119D02*
X9427118Y-12245071D01*
X9427118Y-12245071D02*
X9427118Y-12073643D01*
X9608070Y-12264119D02*
X9589022Y-12273643D01*
X9589022Y-12273643D02*
X9550927Y-12273643D01*
X9550927Y-12273643D02*
X9531879Y-12264119D01*
X9531879Y-12264119D02*
X9522356Y-12245071D01*
X9522356Y-12245071D02*
X9522356Y-12168881D01*
X9522356Y-12168881D02*
X9531879Y-12149833D01*
X9531879Y-12149833D02*
X9550927Y-12140309D01*
X9550927Y-12140309D02*
X9589022Y-12140309D01*
X9589022Y-12140309D02*
X9608070Y-12149833D01*
X9608070Y-12149833D02*
X9617594Y-12168881D01*
X9617594Y-12168881D02*
X9617594Y-12187928D01*
X9617594Y-12187928D02*
X9522356Y-12206976D01*
X9693784Y-12264119D02*
X9712832Y-12273643D01*
X9712832Y-12273643D02*
X9750927Y-12273643D01*
X9750927Y-12273643D02*
X9769975Y-12264119D01*
X9769975Y-12264119D02*
X9779499Y-12245071D01*
X9779499Y-12245071D02*
X9779499Y-12235547D01*
X9779499Y-12235547D02*
X9769975Y-12216500D01*
X9769975Y-12216500D02*
X9750927Y-12206976D01*
X9750927Y-12206976D02*
X9722356Y-12206976D01*
X9722356Y-12206976D02*
X9703308Y-12197452D01*
X9703308Y-12197452D02*
X9693784Y-12178405D01*
X9693784Y-12178405D02*
X9693784Y-12168881D01*
X9693784Y-12168881D02*
X9703308Y-12149833D01*
X9703308Y-12149833D02*
X9722356Y-12140309D01*
X9722356Y-12140309D02*
X9750927Y-12140309D01*
X9750927Y-12140309D02*
X9769975Y-12149833D01*
X9846165Y-12349833D02*
X9855689Y-12340309D01*
X9855689Y-12340309D02*
X9874737Y-12311738D01*
X9874737Y-12311738D02*
X9884260Y-12292690D01*
X9884260Y-12292690D02*
X9893784Y-12264119D01*
X9893784Y-12264119D02*
X9903308Y-12216500D01*
X9903308Y-12216500D02*
X9903308Y-12178405D01*
X9903308Y-12178405D02*
X9893784Y-12130786D01*
X9893784Y-12130786D02*
X9884260Y-12102214D01*
X9884260Y-12102214D02*
X9874737Y-12083167D01*
X9874737Y-12083167D02*
X9855689Y-12054595D01*
X9855689Y-12054595D02*
X9846165Y-12045071D01*
D14*
X5044260Y-12405119D02*
X5044260Y-12485119D01*
X5004260Y-12445119D02*
X5084260Y-12445119D01*
D11*
X5369974Y-12337643D02*
X5389022Y-12337643D01*
X5389022Y-12337643D02*
X5408070Y-12347167D01*
X5408070Y-12347167D02*
X5417593Y-12356690D01*
X5417593Y-12356690D02*
X5427117Y-12375738D01*
X5427117Y-12375738D02*
X5436641Y-12413833D01*
X5436641Y-12413833D02*
X5436641Y-12461452D01*
X5436641Y-12461452D02*
X5427117Y-12499547D01*
X5427117Y-12499547D02*
X5417593Y-12518595D01*
X5417593Y-12518595D02*
X5408070Y-12528119D01*
X5408070Y-12528119D02*
X5389022Y-12537643D01*
X5389022Y-12537643D02*
X5369974Y-12537643D01*
X5369974Y-12537643D02*
X5350927Y-12528119D01*
X5350927Y-12528119D02*
X5341403Y-12518595D01*
X5341403Y-12518595D02*
X5331879Y-12499547D01*
X5331879Y-12499547D02*
X5322355Y-12461452D01*
X5322355Y-12461452D02*
X5322355Y-12413833D01*
X5322355Y-12413833D02*
X5331879Y-12375738D01*
X5331879Y-12375738D02*
X5341403Y-12356690D01*
X5341403Y-12356690D02*
X5350927Y-12347167D01*
X5350927Y-12347167D02*
X5369974Y-12337643D01*
X5522355Y-12518595D02*
X5531879Y-12528119D01*
X5531879Y-12528119D02*
X5522355Y-12537643D01*
X5522355Y-12537643D02*
X5512831Y-12528119D01*
X5512831Y-12528119D02*
X5522355Y-12518595D01*
X5522355Y-12518595D02*
X5522355Y-12537643D01*
X5646165Y-12423357D02*
X5627117Y-12413833D01*
X5627117Y-12413833D02*
X5617593Y-12404309D01*
X5617593Y-12404309D02*
X5608069Y-12385262D01*
X5608069Y-12385262D02*
X5608069Y-12375738D01*
X5608069Y-12375738D02*
X5617593Y-12356690D01*
X5617593Y-12356690D02*
X5627117Y-12347167D01*
X5627117Y-12347167D02*
X5646165Y-12337643D01*
X5646165Y-12337643D02*
X5684260Y-12337643D01*
X5684260Y-12337643D02*
X5703308Y-12347167D01*
X5703308Y-12347167D02*
X5712831Y-12356690D01*
X5712831Y-12356690D02*
X5722355Y-12375738D01*
X5722355Y-12375738D02*
X5722355Y-12385262D01*
X5722355Y-12385262D02*
X5712831Y-12404309D01*
X5712831Y-12404309D02*
X5703308Y-12413833D01*
X5703308Y-12413833D02*
X5684260Y-12423357D01*
X5684260Y-12423357D02*
X5646165Y-12423357D01*
X5646165Y-12423357D02*
X5627117Y-12432881D01*
X5627117Y-12432881D02*
X5617593Y-12442405D01*
X5617593Y-12442405D02*
X5608069Y-12461452D01*
X5608069Y-12461452D02*
X5608069Y-12499547D01*
X5608069Y-12499547D02*
X5617593Y-12518595D01*
X5617593Y-12518595D02*
X5627117Y-12528119D01*
X5627117Y-12528119D02*
X5646165Y-12537643D01*
X5646165Y-12537643D02*
X5684260Y-12537643D01*
X5684260Y-12537643D02*
X5703308Y-12528119D01*
X5703308Y-12528119D02*
X5712831Y-12518595D01*
X5712831Y-12518595D02*
X5722355Y-12499547D01*
X5722355Y-12499547D02*
X5722355Y-12461452D01*
X5722355Y-12461452D02*
X5712831Y-12442405D01*
X5712831Y-12442405D02*
X5703308Y-12432881D01*
X5703308Y-12432881D02*
X5684260Y-12423357D01*
X5846165Y-12337643D02*
X5865212Y-12337643D01*
X5865212Y-12337643D02*
X5884260Y-12347167D01*
X5884260Y-12347167D02*
X5893784Y-12356690D01*
X5893784Y-12356690D02*
X5903308Y-12375738D01*
X5903308Y-12375738D02*
X5912831Y-12413833D01*
X5912831Y-12413833D02*
X5912831Y-12461452D01*
X5912831Y-12461452D02*
X5903308Y-12499547D01*
X5903308Y-12499547D02*
X5893784Y-12518595D01*
X5893784Y-12518595D02*
X5884260Y-12528119D01*
X5884260Y-12528119D02*
X5865212Y-12537643D01*
X5865212Y-12537643D02*
X5846165Y-12537643D01*
X5846165Y-12537643D02*
X5827117Y-12528119D01*
X5827117Y-12528119D02*
X5817593Y-12518595D01*
X5817593Y-12518595D02*
X5808069Y-12499547D01*
X5808069Y-12499547D02*
X5798546Y-12461452D01*
X5798546Y-12461452D02*
X5798546Y-12413833D01*
X5798546Y-12413833D02*
X5808069Y-12375738D01*
X5808069Y-12375738D02*
X5817593Y-12356690D01*
X5817593Y-12356690D02*
X5827117Y-12347167D01*
X5827117Y-12347167D02*
X5846165Y-12337643D01*
X6036641Y-12337643D02*
X6055689Y-12337643D01*
X6055689Y-12337643D02*
X6074736Y-12347167D01*
X6074736Y-12347167D02*
X6084260Y-12356690D01*
X6084260Y-12356690D02*
X6093784Y-12375738D01*
X6093784Y-12375738D02*
X6103308Y-12413833D01*
X6103308Y-12413833D02*
X6103308Y-12461452D01*
X6103308Y-12461452D02*
X6093784Y-12499547D01*
X6093784Y-12499547D02*
X6084260Y-12518595D01*
X6084260Y-12518595D02*
X6074736Y-12528119D01*
X6074736Y-12528119D02*
X6055689Y-12537643D01*
X6055689Y-12537643D02*
X6036641Y-12537643D01*
X6036641Y-12537643D02*
X6017593Y-12528119D01*
X6017593Y-12528119D02*
X6008069Y-12518595D01*
X6008069Y-12518595D02*
X5998546Y-12499547D01*
X5998546Y-12499547D02*
X5989022Y-12461452D01*
X5989022Y-12461452D02*
X5989022Y-12413833D01*
X5989022Y-12413833D02*
X5998546Y-12375738D01*
X5998546Y-12375738D02*
X6008069Y-12356690D01*
X6008069Y-12356690D02*
X6017593Y-12347167D01*
X6017593Y-12347167D02*
X6036641Y-12337643D01*
X6189022Y-12537643D02*
X6189022Y-12404309D01*
X6189022Y-12423357D02*
X6198546Y-12413833D01*
X6198546Y-12413833D02*
X6217593Y-12404309D01*
X6217593Y-12404309D02*
X6246165Y-12404309D01*
X6246165Y-12404309D02*
X6265212Y-12413833D01*
X6265212Y-12413833D02*
X6274736Y-12432881D01*
X6274736Y-12432881D02*
X6274736Y-12537643D01*
X6274736Y-12432881D02*
X6284260Y-12413833D01*
X6284260Y-12413833D02*
X6303308Y-12404309D01*
X6303308Y-12404309D02*
X6331879Y-12404309D01*
X6331879Y-12404309D02*
X6350927Y-12413833D01*
X6350927Y-12413833D02*
X6360450Y-12432881D01*
X6360450Y-12432881D02*
X6360450Y-12537643D01*
X6455689Y-12537643D02*
X6455689Y-12404309D01*
X6455689Y-12423357D02*
X6465212Y-12413833D01*
X6465212Y-12413833D02*
X6484260Y-12404309D01*
X6484260Y-12404309D02*
X6512831Y-12404309D01*
X6512831Y-12404309D02*
X6531879Y-12413833D01*
X6531879Y-12413833D02*
X6541403Y-12432881D01*
X6541403Y-12432881D02*
X6541403Y-12537643D01*
X6541403Y-12432881D02*
X6550927Y-12413833D01*
X6550927Y-12413833D02*
X6569974Y-12404309D01*
X6569974Y-12404309D02*
X6598546Y-12404309D01*
X6598546Y-12404309D02*
X6617593Y-12413833D01*
X6617593Y-12413833D02*
X6627117Y-12432881D01*
X6627117Y-12432881D02*
X6627117Y-12537643D01*
X7017593Y-12328119D02*
X6846165Y-12585262D01*
X7274736Y-12337643D02*
X7293784Y-12337643D01*
X7293784Y-12337643D02*
X7312832Y-12347167D01*
X7312832Y-12347167D02*
X7322355Y-12356690D01*
X7322355Y-12356690D02*
X7331879Y-12375738D01*
X7331879Y-12375738D02*
X7341403Y-12413833D01*
X7341403Y-12413833D02*
X7341403Y-12461452D01*
X7341403Y-12461452D02*
X7331879Y-12499547D01*
X7331879Y-12499547D02*
X7322355Y-12518595D01*
X7322355Y-12518595D02*
X7312832Y-12528119D01*
X7312832Y-12528119D02*
X7293784Y-12537643D01*
X7293784Y-12537643D02*
X7274736Y-12537643D01*
X7274736Y-12537643D02*
X7255689Y-12528119D01*
X7255689Y-12528119D02*
X7246165Y-12518595D01*
X7246165Y-12518595D02*
X7236641Y-12499547D01*
X7236641Y-12499547D02*
X7227117Y-12461452D01*
X7227117Y-12461452D02*
X7227117Y-12413833D01*
X7227117Y-12413833D02*
X7236641Y-12375738D01*
X7236641Y-12375738D02*
X7246165Y-12356690D01*
X7246165Y-12356690D02*
X7255689Y-12347167D01*
X7255689Y-12347167D02*
X7274736Y-12337643D01*
X7427117Y-12518595D02*
X7436641Y-12528119D01*
X7436641Y-12528119D02*
X7427117Y-12537643D01*
X7427117Y-12537643D02*
X7417593Y-12528119D01*
X7417593Y-12528119D02*
X7427117Y-12518595D01*
X7427117Y-12518595D02*
X7427117Y-12537643D01*
X7560451Y-12337643D02*
X7579498Y-12337643D01*
X7579498Y-12337643D02*
X7598546Y-12347167D01*
X7598546Y-12347167D02*
X7608070Y-12356690D01*
X7608070Y-12356690D02*
X7617593Y-12375738D01*
X7617593Y-12375738D02*
X7627117Y-12413833D01*
X7627117Y-12413833D02*
X7627117Y-12461452D01*
X7627117Y-12461452D02*
X7617593Y-12499547D01*
X7617593Y-12499547D02*
X7608070Y-12518595D01*
X7608070Y-12518595D02*
X7598546Y-12528119D01*
X7598546Y-12528119D02*
X7579498Y-12537643D01*
X7579498Y-12537643D02*
X7560451Y-12537643D01*
X7560451Y-12537643D02*
X7541403Y-12528119D01*
X7541403Y-12528119D02*
X7531879Y-12518595D01*
X7531879Y-12518595D02*
X7522355Y-12499547D01*
X7522355Y-12499547D02*
X7512832Y-12461452D01*
X7512832Y-12461452D02*
X7512832Y-12413833D01*
X7512832Y-12413833D02*
X7522355Y-12375738D01*
X7522355Y-12375738D02*
X7531879Y-12356690D01*
X7531879Y-12356690D02*
X7541403Y-12347167D01*
X7541403Y-12347167D02*
X7560451Y-12337643D01*
X7693784Y-12337643D02*
X7817593Y-12337643D01*
X7817593Y-12337643D02*
X7750927Y-12413833D01*
X7750927Y-12413833D02*
X7779498Y-12413833D01*
X7779498Y-12413833D02*
X7798546Y-12423357D01*
X7798546Y-12423357D02*
X7808070Y-12432881D01*
X7808070Y-12432881D02*
X7817593Y-12451928D01*
X7817593Y-12451928D02*
X7817593Y-12499547D01*
X7817593Y-12499547D02*
X7808070Y-12518595D01*
X7808070Y-12518595D02*
X7798546Y-12528119D01*
X7798546Y-12528119D02*
X7779498Y-12537643D01*
X7779498Y-12537643D02*
X7722355Y-12537643D01*
X7722355Y-12537643D02*
X7703308Y-12528119D01*
X7703308Y-12528119D02*
X7693784Y-12518595D01*
X8008070Y-12537643D02*
X7893784Y-12537643D01*
X7950927Y-12537643D02*
X7950927Y-12337643D01*
X7950927Y-12337643D02*
X7931879Y-12366214D01*
X7931879Y-12366214D02*
X7912832Y-12385262D01*
X7912832Y-12385262D02*
X7893784Y-12394786D01*
X8189022Y-12337643D02*
X8093784Y-12337643D01*
X8093784Y-12337643D02*
X8084260Y-12432881D01*
X8084260Y-12432881D02*
X8093784Y-12423357D01*
X8093784Y-12423357D02*
X8112832Y-12413833D01*
X8112832Y-12413833D02*
X8160451Y-12413833D01*
X8160451Y-12413833D02*
X8179498Y-12423357D01*
X8179498Y-12423357D02*
X8189022Y-12432881D01*
X8189022Y-12432881D02*
X8198546Y-12451928D01*
X8198546Y-12451928D02*
X8198546Y-12499547D01*
X8198546Y-12499547D02*
X8189022Y-12518595D01*
X8189022Y-12518595D02*
X8179498Y-12528119D01*
X8179498Y-12528119D02*
X8160451Y-12537643D01*
X8160451Y-12537643D02*
X8112832Y-12537643D01*
X8112832Y-12537643D02*
X8093784Y-12528119D01*
X8093784Y-12528119D02*
X8084260Y-12518595D01*
X8274736Y-12337643D02*
X8274736Y-12375738D01*
X8350927Y-12337643D02*
X8350927Y-12375738D01*
X8646165Y-12613833D02*
X8636641Y-12604309D01*
X8636641Y-12604309D02*
X8617594Y-12575738D01*
X8617594Y-12575738D02*
X8608070Y-12556690D01*
X8608070Y-12556690D02*
X8598546Y-12528119D01*
X8598546Y-12528119D02*
X8589022Y-12480500D01*
X8589022Y-12480500D02*
X8589022Y-12442405D01*
X8589022Y-12442405D02*
X8598546Y-12394786D01*
X8598546Y-12394786D02*
X8608070Y-12366214D01*
X8608070Y-12366214D02*
X8617594Y-12347167D01*
X8617594Y-12347167D02*
X8636641Y-12318595D01*
X8636641Y-12318595D02*
X8646165Y-12309071D01*
X8703308Y-12337643D02*
X8827117Y-12337643D01*
X8827117Y-12337643D02*
X8760451Y-12413833D01*
X8760451Y-12413833D02*
X8789022Y-12413833D01*
X8789022Y-12413833D02*
X8808070Y-12423357D01*
X8808070Y-12423357D02*
X8817594Y-12432881D01*
X8817594Y-12432881D02*
X8827117Y-12451928D01*
X8827117Y-12451928D02*
X8827117Y-12499547D01*
X8827117Y-12499547D02*
X8817594Y-12518595D01*
X8817594Y-12518595D02*
X8808070Y-12528119D01*
X8808070Y-12528119D02*
X8789022Y-12537643D01*
X8789022Y-12537643D02*
X8731879Y-12537643D01*
X8731879Y-12537643D02*
X8712832Y-12528119D01*
X8712832Y-12528119D02*
X8703308Y-12518595D01*
X8998546Y-12337643D02*
X8960451Y-12337643D01*
X8960451Y-12337643D02*
X8941403Y-12347167D01*
X8941403Y-12347167D02*
X8931879Y-12356690D01*
X8931879Y-12356690D02*
X8912832Y-12385262D01*
X8912832Y-12385262D02*
X8903308Y-12423357D01*
X8903308Y-12423357D02*
X8903308Y-12499547D01*
X8903308Y-12499547D02*
X8912832Y-12518595D01*
X8912832Y-12518595D02*
X8922356Y-12528119D01*
X8922356Y-12528119D02*
X8941403Y-12537643D01*
X8941403Y-12537643D02*
X8979498Y-12537643D01*
X8979498Y-12537643D02*
X8998546Y-12528119D01*
X8998546Y-12528119D02*
X9008070Y-12518595D01*
X9008070Y-12518595D02*
X9017594Y-12499547D01*
X9017594Y-12499547D02*
X9017594Y-12451928D01*
X9017594Y-12451928D02*
X9008070Y-12432881D01*
X9008070Y-12432881D02*
X8998546Y-12423357D01*
X8998546Y-12423357D02*
X8979498Y-12413833D01*
X8979498Y-12413833D02*
X8941403Y-12413833D01*
X8941403Y-12413833D02*
X8922356Y-12423357D01*
X8922356Y-12423357D02*
X8912832Y-12432881D01*
X8912832Y-12432881D02*
X8903308Y-12451928D01*
X9255689Y-12537643D02*
X9255689Y-12337643D01*
X9341403Y-12537643D02*
X9341403Y-12432881D01*
X9341403Y-12432881D02*
X9331879Y-12413833D01*
X9331879Y-12413833D02*
X9312832Y-12404309D01*
X9312832Y-12404309D02*
X9284260Y-12404309D01*
X9284260Y-12404309D02*
X9265213Y-12413833D01*
X9265213Y-12413833D02*
X9255689Y-12423357D01*
X9465213Y-12537643D02*
X9446165Y-12528119D01*
X9446165Y-12528119D02*
X9436641Y-12518595D01*
X9436641Y-12518595D02*
X9427118Y-12499547D01*
X9427118Y-12499547D02*
X9427118Y-12442405D01*
X9427118Y-12442405D02*
X9436641Y-12423357D01*
X9436641Y-12423357D02*
X9446165Y-12413833D01*
X9446165Y-12413833D02*
X9465213Y-12404309D01*
X9465213Y-12404309D02*
X9493784Y-12404309D01*
X9493784Y-12404309D02*
X9512832Y-12413833D01*
X9512832Y-12413833D02*
X9522356Y-12423357D01*
X9522356Y-12423357D02*
X9531879Y-12442405D01*
X9531879Y-12442405D02*
X9531879Y-12499547D01*
X9531879Y-12499547D02*
X9522356Y-12518595D01*
X9522356Y-12518595D02*
X9512832Y-12528119D01*
X9512832Y-12528119D02*
X9493784Y-12537643D01*
X9493784Y-12537643D02*
X9465213Y-12537643D01*
X9646165Y-12537643D02*
X9627118Y-12528119D01*
X9627118Y-12528119D02*
X9617594Y-12509071D01*
X9617594Y-12509071D02*
X9617594Y-12337643D01*
X9798546Y-12528119D02*
X9779499Y-12537643D01*
X9779499Y-12537643D02*
X9741403Y-12537643D01*
X9741403Y-12537643D02*
X9722356Y-12528119D01*
X9722356Y-12528119D02*
X9712832Y-12509071D01*
X9712832Y-12509071D02*
X9712832Y-12432881D01*
X9712832Y-12432881D02*
X9722356Y-12413833D01*
X9722356Y-12413833D02*
X9741403Y-12404309D01*
X9741403Y-12404309D02*
X9779499Y-12404309D01*
X9779499Y-12404309D02*
X9798546Y-12413833D01*
X9798546Y-12413833D02*
X9808070Y-12432881D01*
X9808070Y-12432881D02*
X9808070Y-12451928D01*
X9808070Y-12451928D02*
X9712832Y-12470976D01*
X9884260Y-12528119D02*
X9903308Y-12537643D01*
X9903308Y-12537643D02*
X9941403Y-12537643D01*
X9941403Y-12537643D02*
X9960451Y-12528119D01*
X9960451Y-12528119D02*
X9969975Y-12509071D01*
X9969975Y-12509071D02*
X9969975Y-12499547D01*
X9969975Y-12499547D02*
X9960451Y-12480500D01*
X9960451Y-12480500D02*
X9941403Y-12470976D01*
X9941403Y-12470976D02*
X9912832Y-12470976D01*
X9912832Y-12470976D02*
X9893784Y-12461452D01*
X9893784Y-12461452D02*
X9884260Y-12442405D01*
X9884260Y-12442405D02*
X9884260Y-12432881D01*
X9884260Y-12432881D02*
X9893784Y-12413833D01*
X9893784Y-12413833D02*
X9912832Y-12404309D01*
X9912832Y-12404309D02*
X9941403Y-12404309D01*
X9941403Y-12404309D02*
X9960451Y-12413833D01*
X10036641Y-12613833D02*
X10046165Y-12604309D01*
X10046165Y-12604309D02*
X10065213Y-12575738D01*
X10065213Y-12575738D02*
X10074737Y-12556690D01*
X10074737Y-12556690D02*
X10084260Y-12528119D01*
X10084260Y-12528119D02*
X10093784Y-12480500D01*
X10093784Y-12480500D02*
X10093784Y-12442405D01*
X10093784Y-12442405D02*
X10084260Y-12394786D01*
X10084260Y-12394786D02*
X10074737Y-12366214D01*
X10074737Y-12366214D02*
X10065213Y-12347167D01*
X10065213Y-12347167D02*
X10046165Y-12318595D01*
X10046165Y-12318595D02*
X10036641Y-12309071D01*
D15*
X5071080Y-12740939D02*
X5071080Y-12677299D01*
X5007440Y-12677299D01*
X5007440Y-12740939D01*
X5071080Y-12740939D01*
D11*
X5369974Y-12601643D02*
X5389022Y-12601643D01*
X5389022Y-12601643D02*
X5408070Y-12611167D01*
X5408070Y-12611167D02*
X5417593Y-12620690D01*
X5417593Y-12620690D02*
X5427117Y-12639738D01*
X5427117Y-12639738D02*
X5436641Y-12677833D01*
X5436641Y-12677833D02*
X5436641Y-12725452D01*
X5436641Y-12725452D02*
X5427117Y-12763547D01*
X5427117Y-12763547D02*
X5417593Y-12782595D01*
X5417593Y-12782595D02*
X5408070Y-12792119D01*
X5408070Y-12792119D02*
X5389022Y-12801643D01*
X5389022Y-12801643D02*
X5369974Y-12801643D01*
X5369974Y-12801643D02*
X5350927Y-12792119D01*
X5350927Y-12792119D02*
X5341403Y-12782595D01*
X5341403Y-12782595D02*
X5331879Y-12763547D01*
X5331879Y-12763547D02*
X5322355Y-12725452D01*
X5322355Y-12725452D02*
X5322355Y-12677833D01*
X5322355Y-12677833D02*
X5331879Y-12639738D01*
X5331879Y-12639738D02*
X5341403Y-12620690D01*
X5341403Y-12620690D02*
X5350927Y-12611167D01*
X5350927Y-12611167D02*
X5369974Y-12601643D01*
X5522355Y-12782595D02*
X5531879Y-12792119D01*
X5531879Y-12792119D02*
X5522355Y-12801643D01*
X5522355Y-12801643D02*
X5512831Y-12792119D01*
X5512831Y-12792119D02*
X5522355Y-12782595D01*
X5522355Y-12782595D02*
X5522355Y-12801643D01*
X5627117Y-12801643D02*
X5665212Y-12801643D01*
X5665212Y-12801643D02*
X5684260Y-12792119D01*
X5684260Y-12792119D02*
X5693784Y-12782595D01*
X5693784Y-12782595D02*
X5712831Y-12754024D01*
X5712831Y-12754024D02*
X5722355Y-12715928D01*
X5722355Y-12715928D02*
X5722355Y-12639738D01*
X5722355Y-12639738D02*
X5712831Y-12620690D01*
X5712831Y-12620690D02*
X5703308Y-12611167D01*
X5703308Y-12611167D02*
X5684260Y-12601643D01*
X5684260Y-12601643D02*
X5646165Y-12601643D01*
X5646165Y-12601643D02*
X5627117Y-12611167D01*
X5627117Y-12611167D02*
X5617593Y-12620690D01*
X5617593Y-12620690D02*
X5608069Y-12639738D01*
X5608069Y-12639738D02*
X5608069Y-12687357D01*
X5608069Y-12687357D02*
X5617593Y-12706405D01*
X5617593Y-12706405D02*
X5627117Y-12715928D01*
X5627117Y-12715928D02*
X5646165Y-12725452D01*
X5646165Y-12725452D02*
X5684260Y-12725452D01*
X5684260Y-12725452D02*
X5703308Y-12715928D01*
X5703308Y-12715928D02*
X5712831Y-12706405D01*
X5712831Y-12706405D02*
X5722355Y-12687357D01*
X5846165Y-12601643D02*
X5865212Y-12601643D01*
X5865212Y-12601643D02*
X5884260Y-12611167D01*
X5884260Y-12611167D02*
X5893784Y-12620690D01*
X5893784Y-12620690D02*
X5903308Y-12639738D01*
X5903308Y-12639738D02*
X5912831Y-12677833D01*
X5912831Y-12677833D02*
X5912831Y-12725452D01*
X5912831Y-12725452D02*
X5903308Y-12763547D01*
X5903308Y-12763547D02*
X5893784Y-12782595D01*
X5893784Y-12782595D02*
X5884260Y-12792119D01*
X5884260Y-12792119D02*
X5865212Y-12801643D01*
X5865212Y-12801643D02*
X5846165Y-12801643D01*
X5846165Y-12801643D02*
X5827117Y-12792119D01*
X5827117Y-12792119D02*
X5817593Y-12782595D01*
X5817593Y-12782595D02*
X5808069Y-12763547D01*
X5808069Y-12763547D02*
X5798546Y-12725452D01*
X5798546Y-12725452D02*
X5798546Y-12677833D01*
X5798546Y-12677833D02*
X5808069Y-12639738D01*
X5808069Y-12639738D02*
X5817593Y-12620690D01*
X5817593Y-12620690D02*
X5827117Y-12611167D01*
X5827117Y-12611167D02*
X5846165Y-12601643D01*
X6036641Y-12601643D02*
X6055689Y-12601643D01*
X6055689Y-12601643D02*
X6074736Y-12611167D01*
X6074736Y-12611167D02*
X6084260Y-12620690D01*
X6084260Y-12620690D02*
X6093784Y-12639738D01*
X6093784Y-12639738D02*
X6103308Y-12677833D01*
X6103308Y-12677833D02*
X6103308Y-12725452D01*
X6103308Y-12725452D02*
X6093784Y-12763547D01*
X6093784Y-12763547D02*
X6084260Y-12782595D01*
X6084260Y-12782595D02*
X6074736Y-12792119D01*
X6074736Y-12792119D02*
X6055689Y-12801643D01*
X6055689Y-12801643D02*
X6036641Y-12801643D01*
X6036641Y-12801643D02*
X6017593Y-12792119D01*
X6017593Y-12792119D02*
X6008069Y-12782595D01*
X6008069Y-12782595D02*
X5998546Y-12763547D01*
X5998546Y-12763547D02*
X5989022Y-12725452D01*
X5989022Y-12725452D02*
X5989022Y-12677833D01*
X5989022Y-12677833D02*
X5998546Y-12639738D01*
X5998546Y-12639738D02*
X6008069Y-12620690D01*
X6008069Y-12620690D02*
X6017593Y-12611167D01*
X6017593Y-12611167D02*
X6036641Y-12601643D01*
X6189022Y-12801643D02*
X6189022Y-12668309D01*
X6189022Y-12687357D02*
X6198546Y-12677833D01*
X6198546Y-12677833D02*
X6217593Y-12668309D01*
X6217593Y-12668309D02*
X6246165Y-12668309D01*
X6246165Y-12668309D02*
X6265212Y-12677833D01*
X6265212Y-12677833D02*
X6274736Y-12696881D01*
X6274736Y-12696881D02*
X6274736Y-12801643D01*
X6274736Y-12696881D02*
X6284260Y-12677833D01*
X6284260Y-12677833D02*
X6303308Y-12668309D01*
X6303308Y-12668309D02*
X6331879Y-12668309D01*
X6331879Y-12668309D02*
X6350927Y-12677833D01*
X6350927Y-12677833D02*
X6360450Y-12696881D01*
X6360450Y-12696881D02*
X6360450Y-12801643D01*
X6455689Y-12801643D02*
X6455689Y-12668309D01*
X6455689Y-12687357D02*
X6465212Y-12677833D01*
X6465212Y-12677833D02*
X6484260Y-12668309D01*
X6484260Y-12668309D02*
X6512831Y-12668309D01*
X6512831Y-12668309D02*
X6531879Y-12677833D01*
X6531879Y-12677833D02*
X6541403Y-12696881D01*
X6541403Y-12696881D02*
X6541403Y-12801643D01*
X6541403Y-12696881D02*
X6550927Y-12677833D01*
X6550927Y-12677833D02*
X6569974Y-12668309D01*
X6569974Y-12668309D02*
X6598546Y-12668309D01*
X6598546Y-12668309D02*
X6617593Y-12677833D01*
X6617593Y-12677833D02*
X6627117Y-12696881D01*
X6627117Y-12696881D02*
X6627117Y-12801643D01*
X7017593Y-12592119D02*
X6846165Y-12849262D01*
X7274736Y-12601643D02*
X7293784Y-12601643D01*
X7293784Y-12601643D02*
X7312832Y-12611167D01*
X7312832Y-12611167D02*
X7322355Y-12620690D01*
X7322355Y-12620690D02*
X7331879Y-12639738D01*
X7331879Y-12639738D02*
X7341403Y-12677833D01*
X7341403Y-12677833D02*
X7341403Y-12725452D01*
X7341403Y-12725452D02*
X7331879Y-12763547D01*
X7331879Y-12763547D02*
X7322355Y-12782595D01*
X7322355Y-12782595D02*
X7312832Y-12792119D01*
X7312832Y-12792119D02*
X7293784Y-12801643D01*
X7293784Y-12801643D02*
X7274736Y-12801643D01*
X7274736Y-12801643D02*
X7255689Y-12792119D01*
X7255689Y-12792119D02*
X7246165Y-12782595D01*
X7246165Y-12782595D02*
X7236641Y-12763547D01*
X7236641Y-12763547D02*
X7227117Y-12725452D01*
X7227117Y-12725452D02*
X7227117Y-12677833D01*
X7227117Y-12677833D02*
X7236641Y-12639738D01*
X7236641Y-12639738D02*
X7246165Y-12620690D01*
X7246165Y-12620690D02*
X7255689Y-12611167D01*
X7255689Y-12611167D02*
X7274736Y-12601643D01*
X7427117Y-12782595D02*
X7436641Y-12792119D01*
X7436641Y-12792119D02*
X7427117Y-12801643D01*
X7427117Y-12801643D02*
X7417593Y-12792119D01*
X7417593Y-12792119D02*
X7427117Y-12782595D01*
X7427117Y-12782595D02*
X7427117Y-12801643D01*
X7560451Y-12601643D02*
X7579498Y-12601643D01*
X7579498Y-12601643D02*
X7598546Y-12611167D01*
X7598546Y-12611167D02*
X7608070Y-12620690D01*
X7608070Y-12620690D02*
X7617593Y-12639738D01*
X7617593Y-12639738D02*
X7627117Y-12677833D01*
X7627117Y-12677833D02*
X7627117Y-12725452D01*
X7627117Y-12725452D02*
X7617593Y-12763547D01*
X7617593Y-12763547D02*
X7608070Y-12782595D01*
X7608070Y-12782595D02*
X7598546Y-12792119D01*
X7598546Y-12792119D02*
X7579498Y-12801643D01*
X7579498Y-12801643D02*
X7560451Y-12801643D01*
X7560451Y-12801643D02*
X7541403Y-12792119D01*
X7541403Y-12792119D02*
X7531879Y-12782595D01*
X7531879Y-12782595D02*
X7522355Y-12763547D01*
X7522355Y-12763547D02*
X7512832Y-12725452D01*
X7512832Y-12725452D02*
X7512832Y-12677833D01*
X7512832Y-12677833D02*
X7522355Y-12639738D01*
X7522355Y-12639738D02*
X7531879Y-12620690D01*
X7531879Y-12620690D02*
X7541403Y-12611167D01*
X7541403Y-12611167D02*
X7560451Y-12601643D01*
X7693784Y-12601643D02*
X7817593Y-12601643D01*
X7817593Y-12601643D02*
X7750927Y-12677833D01*
X7750927Y-12677833D02*
X7779498Y-12677833D01*
X7779498Y-12677833D02*
X7798546Y-12687357D01*
X7798546Y-12687357D02*
X7808070Y-12696881D01*
X7808070Y-12696881D02*
X7817593Y-12715928D01*
X7817593Y-12715928D02*
X7817593Y-12763547D01*
X7817593Y-12763547D02*
X7808070Y-12782595D01*
X7808070Y-12782595D02*
X7798546Y-12792119D01*
X7798546Y-12792119D02*
X7779498Y-12801643D01*
X7779498Y-12801643D02*
X7722355Y-12801643D01*
X7722355Y-12801643D02*
X7703308Y-12792119D01*
X7703308Y-12792119D02*
X7693784Y-12782595D01*
X7998546Y-12601643D02*
X7903308Y-12601643D01*
X7903308Y-12601643D02*
X7893784Y-12696881D01*
X7893784Y-12696881D02*
X7903308Y-12687357D01*
X7903308Y-12687357D02*
X7922355Y-12677833D01*
X7922355Y-12677833D02*
X7969974Y-12677833D01*
X7969974Y-12677833D02*
X7989022Y-12687357D01*
X7989022Y-12687357D02*
X7998546Y-12696881D01*
X7998546Y-12696881D02*
X8008070Y-12715928D01*
X8008070Y-12715928D02*
X8008070Y-12763547D01*
X8008070Y-12763547D02*
X7998546Y-12782595D01*
X7998546Y-12782595D02*
X7989022Y-12792119D01*
X7989022Y-12792119D02*
X7969974Y-12801643D01*
X7969974Y-12801643D02*
X7922355Y-12801643D01*
X7922355Y-12801643D02*
X7903308Y-12792119D01*
X7903308Y-12792119D02*
X7893784Y-12782595D01*
X8179498Y-12668309D02*
X8179498Y-12801643D01*
X8131879Y-12592119D02*
X8084260Y-12734976D01*
X8084260Y-12734976D02*
X8208070Y-12734976D01*
X8274736Y-12601643D02*
X8274736Y-12639738D01*
X8350927Y-12601643D02*
X8350927Y-12639738D01*
X8646165Y-12877833D02*
X8636641Y-12868309D01*
X8636641Y-12868309D02*
X8617594Y-12839738D01*
X8617594Y-12839738D02*
X8608070Y-12820690D01*
X8608070Y-12820690D02*
X8598546Y-12792119D01*
X8598546Y-12792119D02*
X8589022Y-12744500D01*
X8589022Y-12744500D02*
X8589022Y-12706405D01*
X8589022Y-12706405D02*
X8598546Y-12658786D01*
X8598546Y-12658786D02*
X8608070Y-12630214D01*
X8608070Y-12630214D02*
X8617594Y-12611167D01*
X8617594Y-12611167D02*
X8636641Y-12582595D01*
X8636641Y-12582595D02*
X8646165Y-12573071D01*
X8827117Y-12801643D02*
X8712832Y-12801643D01*
X8769975Y-12801643D02*
X8769975Y-12601643D01*
X8769975Y-12601643D02*
X8750927Y-12630214D01*
X8750927Y-12630214D02*
X8731879Y-12649262D01*
X8731879Y-12649262D02*
X8712832Y-12658786D01*
X8903308Y-12620690D02*
X8912832Y-12611167D01*
X8912832Y-12611167D02*
X8931879Y-12601643D01*
X8931879Y-12601643D02*
X8979498Y-12601643D01*
X8979498Y-12601643D02*
X8998546Y-12611167D01*
X8998546Y-12611167D02*
X9008070Y-12620690D01*
X9008070Y-12620690D02*
X9017594Y-12639738D01*
X9017594Y-12639738D02*
X9017594Y-12658786D01*
X9017594Y-12658786D02*
X9008070Y-12687357D01*
X9008070Y-12687357D02*
X8893784Y-12801643D01*
X8893784Y-12801643D02*
X9017594Y-12801643D01*
X9255689Y-12801643D02*
X9255689Y-12601643D01*
X9341403Y-12801643D02*
X9341403Y-12696881D01*
X9341403Y-12696881D02*
X9331879Y-12677833D01*
X9331879Y-12677833D02*
X9312832Y-12668309D01*
X9312832Y-12668309D02*
X9284260Y-12668309D01*
X9284260Y-12668309D02*
X9265213Y-12677833D01*
X9265213Y-12677833D02*
X9255689Y-12687357D01*
X9465213Y-12801643D02*
X9446165Y-12792119D01*
X9446165Y-12792119D02*
X9436641Y-12782595D01*
X9436641Y-12782595D02*
X9427118Y-12763547D01*
X9427118Y-12763547D02*
X9427118Y-12706405D01*
X9427118Y-12706405D02*
X9436641Y-12687357D01*
X9436641Y-12687357D02*
X9446165Y-12677833D01*
X9446165Y-12677833D02*
X9465213Y-12668309D01*
X9465213Y-12668309D02*
X9493784Y-12668309D01*
X9493784Y-12668309D02*
X9512832Y-12677833D01*
X9512832Y-12677833D02*
X9522356Y-12687357D01*
X9522356Y-12687357D02*
X9531879Y-12706405D01*
X9531879Y-12706405D02*
X9531879Y-12763547D01*
X9531879Y-12763547D02*
X9522356Y-12782595D01*
X9522356Y-12782595D02*
X9512832Y-12792119D01*
X9512832Y-12792119D02*
X9493784Y-12801643D01*
X9493784Y-12801643D02*
X9465213Y-12801643D01*
X9646165Y-12801643D02*
X9627118Y-12792119D01*
X9627118Y-12792119D02*
X9617594Y-12773071D01*
X9617594Y-12773071D02*
X9617594Y-12601643D01*
X9798546Y-12792119D02*
X9779499Y-12801643D01*
X9779499Y-12801643D02*
X9741403Y-12801643D01*
X9741403Y-12801643D02*
X9722356Y-12792119D01*
X9722356Y-12792119D02*
X9712832Y-12773071D01*
X9712832Y-12773071D02*
X9712832Y-12696881D01*
X9712832Y-12696881D02*
X9722356Y-12677833D01*
X9722356Y-12677833D02*
X9741403Y-12668309D01*
X9741403Y-12668309D02*
X9779499Y-12668309D01*
X9779499Y-12668309D02*
X9798546Y-12677833D01*
X9798546Y-12677833D02*
X9808070Y-12696881D01*
X9808070Y-12696881D02*
X9808070Y-12715928D01*
X9808070Y-12715928D02*
X9712832Y-12734976D01*
X9884260Y-12792119D02*
X9903308Y-12801643D01*
X9903308Y-12801643D02*
X9941403Y-12801643D01*
X9941403Y-12801643D02*
X9960451Y-12792119D01*
X9960451Y-12792119D02*
X9969975Y-12773071D01*
X9969975Y-12773071D02*
X9969975Y-12763547D01*
X9969975Y-12763547D02*
X9960451Y-12744500D01*
X9960451Y-12744500D02*
X9941403Y-12734976D01*
X9941403Y-12734976D02*
X9912832Y-12734976D01*
X9912832Y-12734976D02*
X9893784Y-12725452D01*
X9893784Y-12725452D02*
X9884260Y-12706405D01*
X9884260Y-12706405D02*
X9884260Y-12696881D01*
X9884260Y-12696881D02*
X9893784Y-12677833D01*
X9893784Y-12677833D02*
X9912832Y-12668309D01*
X9912832Y-12668309D02*
X9941403Y-12668309D01*
X9941403Y-12668309D02*
X9960451Y-12677833D01*
X10036641Y-12877833D02*
X10046165Y-12868309D01*
X10046165Y-12868309D02*
X10065213Y-12839738D01*
X10065213Y-12839738D02*
X10074737Y-12820690D01*
X10074737Y-12820690D02*
X10084260Y-12792119D01*
X10084260Y-12792119D02*
X10093784Y-12744500D01*
X10093784Y-12744500D02*
X10093784Y-12706405D01*
X10093784Y-12706405D02*
X10084260Y-12658786D01*
X10084260Y-12658786D02*
X10074737Y-12630214D01*
X10074737Y-12630214D02*
X10065213Y-12611167D01*
X10065213Y-12611167D02*
X10046165Y-12582595D01*
X10046165Y-12582595D02*
X10036641Y-12573071D01*
D10*
X5034260Y-13023119D02*
X5084260Y-12973119D01*
X5034260Y-12923119D01*
X4984260Y-12973119D01*
X5034260Y-13023119D01*
D11*
X5436641Y-13065643D02*
X5322355Y-13065643D01*
X5379498Y-13065643D02*
X5379498Y-12865643D01*
X5379498Y-12865643D02*
X5360450Y-12894214D01*
X5360450Y-12894214D02*
X5341403Y-12913262D01*
X5341403Y-12913262D02*
X5322355Y-12922786D01*
X5522355Y-13046595D02*
X5531879Y-13056119D01*
X5531879Y-13056119D02*
X5522355Y-13065643D01*
X5522355Y-13065643D02*
X5512831Y-13056119D01*
X5512831Y-13056119D02*
X5522355Y-13046595D01*
X5522355Y-13046595D02*
X5522355Y-13065643D01*
X5655688Y-12865643D02*
X5674736Y-12865643D01*
X5674736Y-12865643D02*
X5693784Y-12875167D01*
X5693784Y-12875167D02*
X5703308Y-12884690D01*
X5703308Y-12884690D02*
X5712831Y-12903738D01*
X5712831Y-12903738D02*
X5722355Y-12941833D01*
X5722355Y-12941833D02*
X5722355Y-12989452D01*
X5722355Y-12989452D02*
X5712831Y-13027547D01*
X5712831Y-13027547D02*
X5703308Y-13046595D01*
X5703308Y-13046595D02*
X5693784Y-13056119D01*
X5693784Y-13056119D02*
X5674736Y-13065643D01*
X5674736Y-13065643D02*
X5655688Y-13065643D01*
X5655688Y-13065643D02*
X5636641Y-13056119D01*
X5636641Y-13056119D02*
X5627117Y-13046595D01*
X5627117Y-13046595D02*
X5617593Y-13027547D01*
X5617593Y-13027547D02*
X5608069Y-12989452D01*
X5608069Y-12989452D02*
X5608069Y-12941833D01*
X5608069Y-12941833D02*
X5617593Y-12903738D01*
X5617593Y-12903738D02*
X5627117Y-12884690D01*
X5627117Y-12884690D02*
X5636641Y-12875167D01*
X5636641Y-12875167D02*
X5655688Y-12865643D01*
X5846165Y-12865643D02*
X5865212Y-12865643D01*
X5865212Y-12865643D02*
X5884260Y-12875167D01*
X5884260Y-12875167D02*
X5893784Y-12884690D01*
X5893784Y-12884690D02*
X5903308Y-12903738D01*
X5903308Y-12903738D02*
X5912831Y-12941833D01*
X5912831Y-12941833D02*
X5912831Y-12989452D01*
X5912831Y-12989452D02*
X5903308Y-13027547D01*
X5903308Y-13027547D02*
X5893784Y-13046595D01*
X5893784Y-13046595D02*
X5884260Y-13056119D01*
X5884260Y-13056119D02*
X5865212Y-13065643D01*
X5865212Y-13065643D02*
X5846165Y-13065643D01*
X5846165Y-13065643D02*
X5827117Y-13056119D01*
X5827117Y-13056119D02*
X5817593Y-13046595D01*
X5817593Y-13046595D02*
X5808069Y-13027547D01*
X5808069Y-13027547D02*
X5798546Y-12989452D01*
X5798546Y-12989452D02*
X5798546Y-12941833D01*
X5798546Y-12941833D02*
X5808069Y-12903738D01*
X5808069Y-12903738D02*
X5817593Y-12884690D01*
X5817593Y-12884690D02*
X5827117Y-12875167D01*
X5827117Y-12875167D02*
X5846165Y-12865643D01*
X6036641Y-12865643D02*
X6055689Y-12865643D01*
X6055689Y-12865643D02*
X6074736Y-12875167D01*
X6074736Y-12875167D02*
X6084260Y-12884690D01*
X6084260Y-12884690D02*
X6093784Y-12903738D01*
X6093784Y-12903738D02*
X6103308Y-12941833D01*
X6103308Y-12941833D02*
X6103308Y-12989452D01*
X6103308Y-12989452D02*
X6093784Y-13027547D01*
X6093784Y-13027547D02*
X6084260Y-13046595D01*
X6084260Y-13046595D02*
X6074736Y-13056119D01*
X6074736Y-13056119D02*
X6055689Y-13065643D01*
X6055689Y-13065643D02*
X6036641Y-13065643D01*
X6036641Y-13065643D02*
X6017593Y-13056119D01*
X6017593Y-13056119D02*
X6008069Y-13046595D01*
X6008069Y-13046595D02*
X5998546Y-13027547D01*
X5998546Y-13027547D02*
X5989022Y-12989452D01*
X5989022Y-12989452D02*
X5989022Y-12941833D01*
X5989022Y-12941833D02*
X5998546Y-12903738D01*
X5998546Y-12903738D02*
X6008069Y-12884690D01*
X6008069Y-12884690D02*
X6017593Y-12875167D01*
X6017593Y-12875167D02*
X6036641Y-12865643D01*
X6189022Y-13065643D02*
X6189022Y-12932309D01*
X6189022Y-12951357D02*
X6198546Y-12941833D01*
X6198546Y-12941833D02*
X6217593Y-12932309D01*
X6217593Y-12932309D02*
X6246165Y-12932309D01*
X6246165Y-12932309D02*
X6265212Y-12941833D01*
X6265212Y-12941833D02*
X6274736Y-12960881D01*
X6274736Y-12960881D02*
X6274736Y-13065643D01*
X6274736Y-12960881D02*
X6284260Y-12941833D01*
X6284260Y-12941833D02*
X6303308Y-12932309D01*
X6303308Y-12932309D02*
X6331879Y-12932309D01*
X6331879Y-12932309D02*
X6350927Y-12941833D01*
X6350927Y-12941833D02*
X6360450Y-12960881D01*
X6360450Y-12960881D02*
X6360450Y-13065643D01*
X6455689Y-13065643D02*
X6455689Y-12932309D01*
X6455689Y-12951357D02*
X6465212Y-12941833D01*
X6465212Y-12941833D02*
X6484260Y-12932309D01*
X6484260Y-12932309D02*
X6512831Y-12932309D01*
X6512831Y-12932309D02*
X6531879Y-12941833D01*
X6531879Y-12941833D02*
X6541403Y-12960881D01*
X6541403Y-12960881D02*
X6541403Y-13065643D01*
X6541403Y-12960881D02*
X6550927Y-12941833D01*
X6550927Y-12941833D02*
X6569974Y-12932309D01*
X6569974Y-12932309D02*
X6598546Y-12932309D01*
X6598546Y-12932309D02*
X6617593Y-12941833D01*
X6617593Y-12941833D02*
X6627117Y-12960881D01*
X6627117Y-12960881D02*
X6627117Y-13065643D01*
X7017593Y-12856119D02*
X6846165Y-13113262D01*
X7274736Y-12865643D02*
X7293784Y-12865643D01*
X7293784Y-12865643D02*
X7312832Y-12875167D01*
X7312832Y-12875167D02*
X7322355Y-12884690D01*
X7322355Y-12884690D02*
X7331879Y-12903738D01*
X7331879Y-12903738D02*
X7341403Y-12941833D01*
X7341403Y-12941833D02*
X7341403Y-12989452D01*
X7341403Y-12989452D02*
X7331879Y-13027547D01*
X7331879Y-13027547D02*
X7322355Y-13046595D01*
X7322355Y-13046595D02*
X7312832Y-13056119D01*
X7312832Y-13056119D02*
X7293784Y-13065643D01*
X7293784Y-13065643D02*
X7274736Y-13065643D01*
X7274736Y-13065643D02*
X7255689Y-13056119D01*
X7255689Y-13056119D02*
X7246165Y-13046595D01*
X7246165Y-13046595D02*
X7236641Y-13027547D01*
X7236641Y-13027547D02*
X7227117Y-12989452D01*
X7227117Y-12989452D02*
X7227117Y-12941833D01*
X7227117Y-12941833D02*
X7236641Y-12903738D01*
X7236641Y-12903738D02*
X7246165Y-12884690D01*
X7246165Y-12884690D02*
X7255689Y-12875167D01*
X7255689Y-12875167D02*
X7274736Y-12865643D01*
X7427117Y-13046595D02*
X7436641Y-13056119D01*
X7436641Y-13056119D02*
X7427117Y-13065643D01*
X7427117Y-13065643D02*
X7417593Y-13056119D01*
X7417593Y-13056119D02*
X7427117Y-13046595D01*
X7427117Y-13046595D02*
X7427117Y-13065643D01*
X7560451Y-12865643D02*
X7579498Y-12865643D01*
X7579498Y-12865643D02*
X7598546Y-12875167D01*
X7598546Y-12875167D02*
X7608070Y-12884690D01*
X7608070Y-12884690D02*
X7617593Y-12903738D01*
X7617593Y-12903738D02*
X7627117Y-12941833D01*
X7627117Y-12941833D02*
X7627117Y-12989452D01*
X7627117Y-12989452D02*
X7617593Y-13027547D01*
X7617593Y-13027547D02*
X7608070Y-13046595D01*
X7608070Y-13046595D02*
X7598546Y-13056119D01*
X7598546Y-13056119D02*
X7579498Y-13065643D01*
X7579498Y-13065643D02*
X7560451Y-13065643D01*
X7560451Y-13065643D02*
X7541403Y-13056119D01*
X7541403Y-13056119D02*
X7531879Y-13046595D01*
X7531879Y-13046595D02*
X7522355Y-13027547D01*
X7522355Y-13027547D02*
X7512832Y-12989452D01*
X7512832Y-12989452D02*
X7512832Y-12941833D01*
X7512832Y-12941833D02*
X7522355Y-12903738D01*
X7522355Y-12903738D02*
X7531879Y-12884690D01*
X7531879Y-12884690D02*
X7541403Y-12875167D01*
X7541403Y-12875167D02*
X7560451Y-12865643D01*
X7693784Y-12865643D02*
X7817593Y-12865643D01*
X7817593Y-12865643D02*
X7750927Y-12941833D01*
X7750927Y-12941833D02*
X7779498Y-12941833D01*
X7779498Y-12941833D02*
X7798546Y-12951357D01*
X7798546Y-12951357D02*
X7808070Y-12960881D01*
X7808070Y-12960881D02*
X7817593Y-12979928D01*
X7817593Y-12979928D02*
X7817593Y-13027547D01*
X7817593Y-13027547D02*
X7808070Y-13046595D01*
X7808070Y-13046595D02*
X7798546Y-13056119D01*
X7798546Y-13056119D02*
X7779498Y-13065643D01*
X7779498Y-13065643D02*
X7722355Y-13065643D01*
X7722355Y-13065643D02*
X7703308Y-13056119D01*
X7703308Y-13056119D02*
X7693784Y-13046595D01*
X7912832Y-13065643D02*
X7950927Y-13065643D01*
X7950927Y-13065643D02*
X7969974Y-13056119D01*
X7969974Y-13056119D02*
X7979498Y-13046595D01*
X7979498Y-13046595D02*
X7998546Y-13018024D01*
X7998546Y-13018024D02*
X8008070Y-12979928D01*
X8008070Y-12979928D02*
X8008070Y-12903738D01*
X8008070Y-12903738D02*
X7998546Y-12884690D01*
X7998546Y-12884690D02*
X7989022Y-12875167D01*
X7989022Y-12875167D02*
X7969974Y-12865643D01*
X7969974Y-12865643D02*
X7931879Y-12865643D01*
X7931879Y-12865643D02*
X7912832Y-12875167D01*
X7912832Y-12875167D02*
X7903308Y-12884690D01*
X7903308Y-12884690D02*
X7893784Y-12903738D01*
X7893784Y-12903738D02*
X7893784Y-12951357D01*
X7893784Y-12951357D02*
X7903308Y-12970405D01*
X7903308Y-12970405D02*
X7912832Y-12979928D01*
X7912832Y-12979928D02*
X7931879Y-12989452D01*
X7931879Y-12989452D02*
X7969974Y-12989452D01*
X7969974Y-12989452D02*
X7989022Y-12979928D01*
X7989022Y-12979928D02*
X7998546Y-12970405D01*
X7998546Y-12970405D02*
X8008070Y-12951357D01*
X8179498Y-12932309D02*
X8179498Y-13065643D01*
X8131879Y-12856119D02*
X8084260Y-12998976D01*
X8084260Y-12998976D02*
X8208070Y-12998976D01*
X8274736Y-12865643D02*
X8274736Y-12903738D01*
X8350927Y-12865643D02*
X8350927Y-12903738D01*
X8646165Y-13141833D02*
X8636641Y-13132309D01*
X8636641Y-13132309D02*
X8617594Y-13103738D01*
X8617594Y-13103738D02*
X8608070Y-13084690D01*
X8608070Y-13084690D02*
X8598546Y-13056119D01*
X8598546Y-13056119D02*
X8589022Y-13008500D01*
X8589022Y-13008500D02*
X8589022Y-12970405D01*
X8589022Y-12970405D02*
X8598546Y-12922786D01*
X8598546Y-12922786D02*
X8608070Y-12894214D01*
X8608070Y-12894214D02*
X8617594Y-12875167D01*
X8617594Y-12875167D02*
X8636641Y-12846595D01*
X8636641Y-12846595D02*
X8646165Y-12837071D01*
X8827117Y-13065643D02*
X8712832Y-13065643D01*
X8769975Y-13065643D02*
X8769975Y-12865643D01*
X8769975Y-12865643D02*
X8750927Y-12894214D01*
X8750927Y-12894214D02*
X8731879Y-12913262D01*
X8731879Y-12913262D02*
X8712832Y-12922786D01*
X8903308Y-12884690D02*
X8912832Y-12875167D01*
X8912832Y-12875167D02*
X8931879Y-12865643D01*
X8931879Y-12865643D02*
X8979498Y-12865643D01*
X8979498Y-12865643D02*
X8998546Y-12875167D01*
X8998546Y-12875167D02*
X9008070Y-12884690D01*
X9008070Y-12884690D02*
X9017594Y-12903738D01*
X9017594Y-12903738D02*
X9017594Y-12922786D01*
X9017594Y-12922786D02*
X9008070Y-12951357D01*
X9008070Y-12951357D02*
X8893784Y-13065643D01*
X8893784Y-13065643D02*
X9017594Y-13065643D01*
X9189022Y-12865643D02*
X9150927Y-12865643D01*
X9150927Y-12865643D02*
X9131879Y-12875167D01*
X9131879Y-12875167D02*
X9122356Y-12884690D01*
X9122356Y-12884690D02*
X9103308Y-12913262D01*
X9103308Y-12913262D02*
X9093784Y-12951357D01*
X9093784Y-12951357D02*
X9093784Y-13027547D01*
X9093784Y-13027547D02*
X9103308Y-13046595D01*
X9103308Y-13046595D02*
X9112832Y-13056119D01*
X9112832Y-13056119D02*
X9131879Y-13065643D01*
X9131879Y-13065643D02*
X9169975Y-13065643D01*
X9169975Y-13065643D02*
X9189022Y-13056119D01*
X9189022Y-13056119D02*
X9198546Y-13046595D01*
X9198546Y-13046595D02*
X9208070Y-13027547D01*
X9208070Y-13027547D02*
X9208070Y-12979928D01*
X9208070Y-12979928D02*
X9198546Y-12960881D01*
X9198546Y-12960881D02*
X9189022Y-12951357D01*
X9189022Y-12951357D02*
X9169975Y-12941833D01*
X9169975Y-12941833D02*
X9131879Y-12941833D01*
X9131879Y-12941833D02*
X9112832Y-12951357D01*
X9112832Y-12951357D02*
X9103308Y-12960881D01*
X9103308Y-12960881D02*
X9093784Y-12979928D01*
X9446165Y-13065643D02*
X9446165Y-12865643D01*
X9531879Y-13065643D02*
X9531879Y-12960881D01*
X9531879Y-12960881D02*
X9522356Y-12941833D01*
X9522356Y-12941833D02*
X9503308Y-12932309D01*
X9503308Y-12932309D02*
X9474737Y-12932309D01*
X9474737Y-12932309D02*
X9455689Y-12941833D01*
X9455689Y-12941833D02*
X9446165Y-12951357D01*
X9655689Y-13065643D02*
X9636641Y-13056119D01*
X9636641Y-13056119D02*
X9627118Y-13046595D01*
X9627118Y-13046595D02*
X9617594Y-13027547D01*
X9617594Y-13027547D02*
X9617594Y-12970405D01*
X9617594Y-12970405D02*
X9627118Y-12951357D01*
X9627118Y-12951357D02*
X9636641Y-12941833D01*
X9636641Y-12941833D02*
X9655689Y-12932309D01*
X9655689Y-12932309D02*
X9684260Y-12932309D01*
X9684260Y-12932309D02*
X9703308Y-12941833D01*
X9703308Y-12941833D02*
X9712832Y-12951357D01*
X9712832Y-12951357D02*
X9722356Y-12970405D01*
X9722356Y-12970405D02*
X9722356Y-13027547D01*
X9722356Y-13027547D02*
X9712832Y-13046595D01*
X9712832Y-13046595D02*
X9703308Y-13056119D01*
X9703308Y-13056119D02*
X9684260Y-13065643D01*
X9684260Y-13065643D02*
X9655689Y-13065643D01*
X9836641Y-13065643D02*
X9817594Y-13056119D01*
X9817594Y-13056119D02*
X9808070Y-13037071D01*
X9808070Y-13037071D02*
X9808070Y-12865643D01*
X9989022Y-13056119D02*
X9969975Y-13065643D01*
X9969975Y-13065643D02*
X9931879Y-13065643D01*
X9931879Y-13065643D02*
X9912832Y-13056119D01*
X9912832Y-13056119D02*
X9903308Y-13037071D01*
X9903308Y-13037071D02*
X9903308Y-12960881D01*
X9903308Y-12960881D02*
X9912832Y-12941833D01*
X9912832Y-12941833D02*
X9931879Y-12932309D01*
X9931879Y-12932309D02*
X9969975Y-12932309D01*
X9969975Y-12932309D02*
X9989022Y-12941833D01*
X9989022Y-12941833D02*
X9998546Y-12960881D01*
X9998546Y-12960881D02*
X9998546Y-12979928D01*
X9998546Y-12979928D02*
X9903308Y-12998976D01*
X10074737Y-13056119D02*
X10093784Y-13065643D01*
X10093784Y-13065643D02*
X10131879Y-13065643D01*
X10131879Y-13065643D02*
X10150927Y-13056119D01*
X10150927Y-13056119D02*
X10160451Y-13037071D01*
X10160451Y-13037071D02*
X10160451Y-13027547D01*
X10160451Y-13027547D02*
X10150927Y-13008500D01*
X10150927Y-13008500D02*
X10131879Y-12998976D01*
X10131879Y-12998976D02*
X10103308Y-12998976D01*
X10103308Y-12998976D02*
X10084260Y-12989452D01*
X10084260Y-12989452D02*
X10074737Y-12970405D01*
X10074737Y-12970405D02*
X10074737Y-12960881D01*
X10074737Y-12960881D02*
X10084260Y-12941833D01*
X10084260Y-12941833D02*
X10103308Y-12932309D01*
X10103308Y-12932309D02*
X10131879Y-12932309D01*
X10131879Y-12932309D02*
X10150927Y-12941833D01*
X10227118Y-13141833D02*
X10236641Y-13132309D01*
X10236641Y-13132309D02*
X10255689Y-13103738D01*
X10255689Y-13103738D02*
X10265213Y-13084690D01*
X10265213Y-13084690D02*
X10274737Y-13056119D01*
X10274737Y-13056119D02*
X10284260Y-13008500D01*
X10284260Y-13008500D02*
X10284260Y-12970405D01*
X10284260Y-12970405D02*
X10274737Y-12922786D01*
X10274737Y-12922786D02*
X10265213Y-12894214D01*
X10265213Y-12894214D02*
X10255689Y-12875167D01*
X10255689Y-12875167D02*
X10236641Y-12846595D01*
X10236641Y-12846595D02*
X10227118Y-12837071D01*
M02*
