%TF.GenerationSoftware,KiCad,Pcbnew,7.0.2*%
%TF.CreationDate,2023-05-28T17:25:48-07:00*%
%TF.ProjectId,relay-prototype,72656c61-792d-4707-926f-746f74797065,rev?*%
%TF.SameCoordinates,Original*%
%TF.FileFunction,Copper,L4,Bot*%
%TF.FilePolarity,Positive*%
%FSLAX46Y46*%
G04 Gerber Fmt 4.6, Leading zero omitted, Abs format (unit mm)*
G04 Created by KiCad (PCBNEW 7.0.2) date 2023-05-28 17:25:48*
%MOMM*%
%LPD*%
G01*
G04 APERTURE LIST*
G04 Aperture macros list*
%AMRoundRect*
0 Rectangle with rounded corners*
0 $1 Rounding radius*
0 $2 $3 $4 $5 $6 $7 $8 $9 X,Y pos of 4 corners*
0 Add a 4 corners polygon primitive as box body*
4,1,4,$2,$3,$4,$5,$6,$7,$8,$9,$2,$3,0*
0 Add four circle primitives for the rounded corners*
1,1,$1+$1,$2,$3*
1,1,$1+$1,$4,$5*
1,1,$1+$1,$6,$7*
1,1,$1+$1,$8,$9*
0 Add four rect primitives between the rounded corners*
20,1,$1+$1,$2,$3,$4,$5,0*
20,1,$1+$1,$4,$5,$6,$7,0*
20,1,$1+$1,$6,$7,$8,$9,0*
20,1,$1+$1,$8,$9,$2,$3,0*%
G04 Aperture macros list end*
%TA.AperFunction,ComponentPad*%
%ADD10RoundRect,0.500000X0.000000X-0.300000X0.000000X-0.300000X0.000000X0.300000X0.000000X0.300000X0*%
%TD*%
%TA.AperFunction,ComponentPad*%
%ADD11R,2.000000X2.000000*%
%TD*%
%TA.AperFunction,ComponentPad*%
%ADD12C,2.000000*%
%TD*%
%TA.AperFunction,ComponentPad*%
%ADD13R,1.800000X1.800000*%
%TD*%
%TA.AperFunction,ComponentPad*%
%ADD14C,1.800000*%
%TD*%
%TA.AperFunction,ComponentPad*%
%ADD15R,1.600000X1.600000*%
%TD*%
%TA.AperFunction,ComponentPad*%
%ADD16O,1.600000X1.600000*%
%TD*%
%TA.AperFunction,ComponentPad*%
%ADD17C,1.600000*%
%TD*%
%TA.AperFunction,SMDPad,CuDef*%
%ADD18RoundRect,0.250000X0.250000X-0.250000X0.250000X0.250000X-0.250000X0.250000X-0.250000X-0.250000X0*%
%TD*%
%TA.AperFunction,ViaPad*%
%ADD19C,1.270000*%
%TD*%
%TA.AperFunction,Conductor*%
%ADD20C,0.381000*%
%TD*%
G04 APERTURE END LIST*
D10*
%TO.P,J1,1*%
%TO.N,N/C*%
X91810000Y-107518840D03*
X91810000Y-111318840D03*
X100450000Y-107518840D03*
X100450000Y-111318840D03*
%TD*%
D11*
%TO.P,K15,1*%
%TO.N,GND*%
X78832600Y-61286190D03*
D12*
%TO.P,K15,2*%
X81372600Y-61286190D03*
%TO.P,K15,5*%
%TO.N,A0*%
X88992600Y-61286190D03*
%TO.P,K15,6*%
X88992600Y-56206190D03*
%TO.P,K15,9*%
%TO.N,Net-(D15-A2)*%
X81372600Y-56206190D03*
%TO.P,K15,10*%
%TO.N,+5V*%
X78832600Y-56206190D03*
%TD*%
D13*
%TO.P,LED1,1,K*%
%TO.N,GND*%
X67402600Y-45411190D03*
D14*
%TO.P,LED1,2,A*%
%TO.N,Net-(LED1-A)*%
X67402600Y-47951190D03*
%TD*%
D11*
%TO.P,K20,1*%
%TO.N,SUM0*%
X111730100Y-101926190D03*
D12*
%TO.P,K20,2*%
%TO.N,GND*%
X114270100Y-101926190D03*
%TO.P,K20,5*%
%TO.N,OUT0*%
X121890100Y-101926190D03*
%TO.P,K20,6*%
X121890100Y-96846190D03*
%TO.P,K20,9*%
%TO.N,SELECT*%
X114270100Y-96846190D03*
%TO.P,K20,10*%
%TO.N,SUB0*%
X111730100Y-96846190D03*
%TD*%
D13*
%TO.P,LED3,1,K*%
%TO.N,GND*%
X67402600Y-70811190D03*
D14*
%TO.P,LED3,2,A*%
%TO.N,Net-(LED3-A)*%
X67402600Y-73351190D03*
%TD*%
D11*
%TO.P,K10,1*%
%TO.N,Net-(K10-Pad1)*%
X111852600Y-51126190D03*
D12*
%TO.P,K10,2*%
%TO.N,GND*%
X114392600Y-51126190D03*
%TO.P,K10,5*%
%TO.N,ADDCOUT1*%
X122012600Y-51126190D03*
%TO.P,K10,6*%
X122012600Y-46046190D03*
%TO.P,K10,9*%
%TO.N,Net-(D10-A2)*%
X114392600Y-46046190D03*
%TO.P,K10,10*%
%TO.N,+5V*%
X111852600Y-46046190D03*
%TD*%
D13*
%TO.P,LED2,1,K*%
%TO.N,GND*%
X57242600Y-45411190D03*
D14*
%TO.P,LED2,2,A*%
%TO.N,Net-(LED2-A)*%
X57242600Y-47951190D03*
%TD*%
D11*
%TO.P,K11,1*%
%TO.N,GND*%
X128362600Y-81606190D03*
D12*
%TO.P,K11,2*%
%TO.N,CIN0*%
X130902600Y-81606190D03*
%TO.P,K11,5*%
%TO.N,SUB0*%
X138522600Y-81606190D03*
%TO.P,K11,6*%
X138522600Y-76526190D03*
%TO.P,K11,9*%
%TO.N,A0*%
X130902600Y-76526190D03*
%TO.P,K11,10*%
%TO.N,+5V*%
X128362600Y-76526190D03*
%TD*%
D11*
%TO.P,K14,1*%
%TO.N,SUBCOUT0*%
X128485100Y-50993690D03*
D12*
%TO.P,K14,2*%
%TO.N,GND*%
X131025100Y-50993690D03*
%TO.P,K14,5*%
%TO.N,SUBCOUT1*%
X138645100Y-50993690D03*
%TO.P,K14,6*%
X138645100Y-45913690D03*
%TO.P,K14,9*%
%TO.N,A1*%
X131025100Y-45913690D03*
%TO.P,K14,10*%
%TO.N,GND*%
X128485100Y-45913690D03*
%TD*%
D13*
%TO.P,LED6,1,K*%
%TO.N,GND*%
X57242600Y-102561190D03*
D14*
%TO.P,LED6,2,A*%
%TO.N,Net-(LED6-A)*%
X57242600Y-105101190D03*
%TD*%
D13*
%TO.P,LED5,1,K*%
%TO.N,GND*%
X67402600Y-102561190D03*
D14*
%TO.P,LED5,2,A*%
%TO.N,Net-(LED5-A)*%
X67402600Y-105101190D03*
%TD*%
D15*
%TO.P,B0,1*%
%TO.N,+5V*%
X67402600Y-77161190D03*
D16*
%TO.P,B0,2*%
%TO.N,Net-(D17-A2)*%
X67402600Y-84781190D03*
%TD*%
D11*
%TO.P,K18,1*%
%TO.N,GND*%
X78832600Y-81606190D03*
D12*
%TO.P,K18,2*%
X81372600Y-81606190D03*
%TO.P,K18,5*%
%TO.N,B1*%
X88992600Y-81606190D03*
%TO.P,K18,6*%
X88992600Y-76526190D03*
%TO.P,K18,9*%
%TO.N,Net-(D18-A2)*%
X81372600Y-76526190D03*
%TO.P,K18,10*%
%TO.N,+5V*%
X78832600Y-76526190D03*
%TD*%
D11*
%TO.P,K3,1*%
%TO.N,GND*%
X95342020Y-71446220D03*
D12*
%TO.P,K3,2*%
X97882020Y-71446220D03*
%TO.P,K3,5*%
%TO.N,Net-(K3-Pad5)*%
X105502020Y-71446220D03*
%TO.P,K3,6*%
X105502020Y-66366220D03*
%TO.P,K3,9*%
%TO.N,A0*%
X97882020Y-66366220D03*
%TO.P,K3,10*%
%TO.N,B0*%
X95342020Y-66366220D03*
%TD*%
D13*
%TO.P,LED4,1,K*%
%TO.N,GND*%
X57242600Y-70811190D03*
D14*
%TO.P,LED4,2,A*%
%TO.N,Net-(LED4-A)*%
X57242600Y-73351190D03*
%TD*%
D15*
%TO.P,A0,1*%
%TO.N,+5V*%
X67402600Y-51761190D03*
D16*
%TO.P,A0,2*%
%TO.N,Net-(D15-A2)*%
X67402600Y-59381190D03*
%TD*%
D11*
%TO.P,K7,1*%
%TO.N,GND*%
X111852600Y-81606190D03*
D12*
%TO.P,K7,2*%
%TO.N,ADDCOUT0*%
X114392600Y-81606190D03*
%TO.P,K7,5*%
%TO.N,SUM1*%
X122012600Y-81606190D03*
%TO.P,K7,6*%
X122012600Y-76526190D03*
%TO.P,K7,9*%
%TO.N,Net-(D7-A2)*%
X114392600Y-76526190D03*
%TO.P,K7,10*%
%TO.N,+5V*%
X111852600Y-76526190D03*
%TD*%
D11*
%TO.P,K21,1*%
%TO.N,SUM1*%
X128240100Y-101926190D03*
D12*
%TO.P,K21,2*%
%TO.N,GND*%
X130780100Y-101926190D03*
%TO.P,K21,5*%
%TO.N,OUT1*%
X138400100Y-101926190D03*
%TO.P,K21,6*%
X138400100Y-96846190D03*
%TO.P,K21,9*%
%TO.N,SELECT*%
X130780100Y-96846190D03*
%TO.P,K21,10*%
%TO.N,SUB1*%
X128240100Y-96846190D03*
%TD*%
D11*
%TO.P,K19,1*%
%TO.N,GND*%
X95342600Y-91766190D03*
D12*
%TO.P,K19,2*%
X97882600Y-91766190D03*
%TO.P,K19,5*%
%TO.N,SELECT*%
X105502600Y-91766190D03*
%TO.P,K19,6*%
X105502600Y-86686190D03*
%TO.P,K19,9*%
%TO.N,Net-(D19-A2)*%
X97882600Y-86686190D03*
%TO.P,K19,10*%
%TO.N,+5V*%
X95342600Y-86686190D03*
%TD*%
D15*
%TO.P,A1,1*%
%TO.N,+5V*%
X57242600Y-51761190D03*
D16*
%TO.P,A1,2*%
%TO.N,Net-(D16-A2)*%
X57242600Y-59381190D03*
%TD*%
D11*
%TO.P,K12,1*%
%TO.N,GND*%
X128485100Y-71313690D03*
D12*
%TO.P,K12,2*%
X131025100Y-71313690D03*
%TO.P,K12,5*%
%TO.N,SUBCOUT0*%
X138645100Y-71313690D03*
%TO.P,K12,6*%
X138645100Y-66233690D03*
%TO.P,K12,9*%
%TO.N,A0*%
X131025100Y-66233690D03*
%TO.P,K12,10*%
%TO.N,CIN0*%
X128485100Y-66233690D03*
%TD*%
D11*
%TO.P,K2,1*%
%TO.N,GND*%
X95342020Y-81606025D03*
D12*
%TO.P,K2,2*%
%TO.N,CIN0*%
X97882020Y-81606025D03*
%TO.P,K2,5*%
%TO.N,SUM0*%
X105502020Y-81606025D03*
%TO.P,K2,6*%
X105502020Y-76526025D03*
%TO.P,K2,9*%
%TO.N,Net-(D2-A2)*%
X97882020Y-76526025D03*
%TO.P,K2,10*%
%TO.N,+5V*%
X95342020Y-76526025D03*
%TD*%
D11*
%TO.P,K13,1*%
%TO.N,+5V*%
X128485100Y-61153690D03*
D12*
%TO.P,K13,2*%
%TO.N,SUBCOUT0*%
X131025100Y-61153690D03*
%TO.P,K13,5*%
%TO.N,SUB1*%
X138645100Y-61153690D03*
%TO.P,K13,6*%
X138645100Y-56073690D03*
%TO.P,K13,9*%
%TO.N,A1*%
X131025100Y-56073690D03*
%TO.P,K13,10*%
%TO.N,GND*%
X128485100Y-56073690D03*
%TD*%
D11*
%TO.P,K17,1*%
%TO.N,GND*%
X78832600Y-71446190D03*
D12*
%TO.P,K17,2*%
X81372600Y-71446190D03*
%TO.P,K17,5*%
%TO.N,B0*%
X88992600Y-71446190D03*
%TO.P,K17,6*%
X88992600Y-66366190D03*
%TO.P,K17,9*%
%TO.N,Net-(D17-A2)*%
X81372600Y-66366190D03*
%TO.P,K17,10*%
%TO.N,+5V*%
X78832600Y-66366190D03*
%TD*%
D11*
%TO.P,K8,1*%
%TO.N,GND*%
X111852600Y-71446190D03*
D12*
%TO.P,K8,2*%
X114392600Y-71446190D03*
%TO.P,K8,5*%
%TO.N,Net-(K10-Pad1)*%
X122012600Y-71446190D03*
%TO.P,K8,6*%
X122012600Y-66366190D03*
%TO.P,K8,9*%
%TO.N,A1*%
X114392600Y-66366190D03*
%TO.P,K8,10*%
%TO.N,B1*%
X111852600Y-66366190D03*
%TD*%
D11*
%TO.P,K9,1*%
%TO.N,GND*%
X111852600Y-61286190D03*
D12*
%TO.P,K9,2*%
X114392600Y-61286190D03*
%TO.P,K9,5*%
%TO.N,Net-(D10-A2)*%
X122012600Y-61286190D03*
%TO.P,K9,6*%
X122012600Y-56206190D03*
%TO.P,K9,9*%
%TO.N,Net-(D7-A2)*%
X114392600Y-56206190D03*
%TO.P,K9,10*%
%TO.N,ADDCOUT0*%
X111852600Y-56206190D03*
%TD*%
D15*
%TO.P,B1,1*%
%TO.N,+5V*%
X57242600Y-77161190D03*
D16*
%TO.P,B1,2*%
%TO.N,Net-(D18-A2)*%
X57242600Y-84781190D03*
%TD*%
D11*
%TO.P,K5,1*%
%TO.N,Net-(K3-Pad5)*%
X95342020Y-51126610D03*
D12*
%TO.P,K5,2*%
%TO.N,GND*%
X97882020Y-51126610D03*
%TO.P,K5,5*%
%TO.N,ADDCOUT0*%
X105502020Y-51126610D03*
%TO.P,K5,6*%
X105502020Y-46046610D03*
%TO.P,K5,9*%
%TO.N,Net-(D5-A2)*%
X97882020Y-46046610D03*
%TO.P,K5,10*%
%TO.N,+5V*%
X95342020Y-46046610D03*
%TD*%
D11*
%TO.P,K6,1*%
%TO.N,GND*%
X128362600Y-91766190D03*
D12*
%TO.P,K6,2*%
%TO.N,B1*%
X130902600Y-91766190D03*
%TO.P,K6,5*%
%TO.N,Net-(D7-A2)*%
X138522600Y-91766190D03*
%TO.P,K6,6*%
X138522600Y-86686190D03*
%TO.P,K6,9*%
%TO.N,A1*%
X130902600Y-86686190D03*
%TO.P,K6,10*%
%TO.N,+5V*%
X128362600Y-86686190D03*
%TD*%
D11*
%TO.P,K1,1*%
%TO.N,GND*%
X111852020Y-91765830D03*
D12*
%TO.P,K1,2*%
%TO.N,B0*%
X114392020Y-91765830D03*
%TO.P,K1,5*%
%TO.N,Net-(D2-A2)*%
X122012020Y-91765830D03*
%TO.P,K1,6*%
X122012020Y-86685830D03*
%TO.P,K1,9*%
%TO.N,A0*%
X114392020Y-86685830D03*
%TO.P,K1,10*%
%TO.N,+5V*%
X111852020Y-86685830D03*
%TD*%
D11*
%TO.P,K16,1*%
%TO.N,GND*%
X78832600Y-51126610D03*
D12*
%TO.P,K16,2*%
X81372600Y-51126610D03*
%TO.P,K16,5*%
%TO.N,A1*%
X88992600Y-51126610D03*
%TO.P,K16,6*%
X88992600Y-46046610D03*
%TO.P,K16,9*%
%TO.N,Net-(D16-A2)*%
X81372600Y-46046610D03*
%TO.P,K16,10*%
%TO.N,+5V*%
X78832600Y-46046610D03*
%TD*%
D11*
%TO.P,K4,1*%
%TO.N,GND*%
X95342020Y-61286415D03*
D12*
%TO.P,K4,2*%
X97882020Y-61286415D03*
%TO.P,K4,5*%
%TO.N,Net-(D5-A2)*%
X105502020Y-61286415D03*
%TO.P,K4,6*%
X105502020Y-56206415D03*
%TO.P,K4,9*%
%TO.N,Net-(D2-A2)*%
X97882020Y-56206415D03*
%TO.P,K4,10*%
%TO.N,CIN0*%
X95342020Y-56206415D03*
%TD*%
D15*
%TO.P,S1,1*%
%TO.N,+5V*%
X80102600Y-100021190D03*
D16*
%TO.P,S1,2*%
%TO.N,Net-(D19-A2)*%
X80102600Y-107641190D03*
%TD*%
D17*
%TO.P,RCC2,1*%
%TO.N,GND*%
X123282600Y-106599790D03*
D16*
%TO.P,RCC2,2*%
%TO.N,Net-(J1-CC2)*%
X113122600Y-106599790D03*
%TD*%
D17*
%TO.P,R2,1*%
%TO.N,GND*%
X59782600Y-50491190D03*
D16*
%TO.P,R2,2*%
%TO.N,Net-(D16-A2)*%
X59782600Y-60651190D03*
%TD*%
D18*
%TO.P,D17,1,A1*%
%TO.N,GND*%
X83790100Y-70288690D03*
%TO.P,D17,2,A2*%
%TO.N,Net-(D17-A2)*%
X83790100Y-67788690D03*
%TD*%
D17*
%TO.P,RCC1,1*%
%TO.N,GND*%
X123282600Y-110181190D03*
D16*
%TO.P,RCC1,2*%
%TO.N,Net-(J1-CC1)*%
X113122600Y-110181190D03*
%TD*%
D17*
%TO.P,R1,1*%
%TO.N,GND*%
X69942600Y-50491190D03*
D16*
%TO.P,R1,2*%
%TO.N,Net-(D15-A2)*%
X69942600Y-60651190D03*
%TD*%
D17*
%TO.P,R9,1*%
%TO.N,Net-(D19-A2)*%
X76292600Y-108911190D03*
D16*
%TO.P,R9,2*%
%TO.N,GND*%
X76292600Y-98751190D03*
%TD*%
D18*
%TO.P,D5,1,A1*%
%TO.N,GND*%
X100299520Y-49969110D03*
%TO.P,D5,2,A2*%
%TO.N,Net-(D5-A2)*%
X100299520Y-47469110D03*
%TD*%
%TO.P,D11,1,A1*%
%TO.N,CIN0*%
X133320100Y-80448690D03*
%TO.P,D11,2,A2*%
%TO.N,A0*%
X133320100Y-77948690D03*
%TD*%
%TO.P,D19,1,A1*%
%TO.N,GND*%
X100300100Y-90608690D03*
%TO.P,D19,2,A2*%
%TO.N,Net-(D19-A2)*%
X100300100Y-88108690D03*
%TD*%
%TO.P,D13,1,A1*%
%TO.N,SUBCOUT0*%
X133442600Y-59996190D03*
%TO.P,D13,2,A2*%
%TO.N,A1*%
X133442600Y-57496190D03*
%TD*%
D17*
%TO.P,R10,1*%
%TO.N,OUT0*%
X69942600Y-98751190D03*
D16*
%TO.P,R10,2*%
%TO.N,Net-(LED5-A)*%
X69942600Y-108911190D03*
%TD*%
D18*
%TO.P,D18,1,A1*%
%TO.N,GND*%
X83790100Y-80448690D03*
%TO.P,D18,2,A2*%
%TO.N,Net-(D18-A2)*%
X83790100Y-77948690D03*
%TD*%
D17*
%TO.P,R5,1*%
%TO.N,Net-(D15-A2)*%
X64862600Y-60651190D03*
D16*
%TO.P,R5,2*%
%TO.N,Net-(LED1-A)*%
X64862600Y-50491190D03*
%TD*%
D18*
%TO.P,D15,1,A1*%
%TO.N,GND*%
X83790100Y-60128690D03*
%TO.P,D15,2,A2*%
%TO.N,Net-(D15-A2)*%
X83790100Y-57628690D03*
%TD*%
D17*
%TO.P,R11,1*%
%TO.N,OUT1*%
X59782600Y-98751190D03*
D16*
%TO.P,R11,2*%
%TO.N,Net-(LED6-A)*%
X59782600Y-108911190D03*
%TD*%
D18*
%TO.P,D21,1,A1*%
%TO.N,GND*%
X133197600Y-100768690D03*
%TO.P,D21,2,A2*%
%TO.N,SELECT*%
X133197600Y-98268690D03*
%TD*%
D17*
%TO.P,R8,1*%
%TO.N,Net-(D18-A2)*%
X54702600Y-86051190D03*
D16*
%TO.P,R8,2*%
%TO.N,Net-(LED4-A)*%
X54702600Y-75891190D03*
%TD*%
D18*
%TO.P,D3,1,A1*%
%TO.N,GND*%
X100299520Y-70288720D03*
%TO.P,D3,2,A2*%
%TO.N,A0*%
X100299520Y-67788720D03*
%TD*%
%TO.P,D7,1,A1*%
%TO.N,ADDCOUT0*%
X116810100Y-80448690D03*
%TO.P,D7,2,A2*%
%TO.N,Net-(D7-A2)*%
X116810100Y-77948690D03*
%TD*%
%TO.P,D14,1,A1*%
%TO.N,GND*%
X133442600Y-49836190D03*
%TO.P,D14,2,A2*%
%TO.N,A1*%
X133442600Y-47336190D03*
%TD*%
%TO.P,D16,1,A1*%
%TO.N,GND*%
X83790100Y-49946610D03*
%TO.P,D16,2,A2*%
%TO.N,Net-(D16-A2)*%
X83790100Y-47446610D03*
%TD*%
D17*
%TO.P,R3,1*%
%TO.N,GND*%
X69942600Y-75891190D03*
D16*
%TO.P,R3,2*%
%TO.N,Net-(D17-A2)*%
X69942600Y-86051190D03*
%TD*%
D18*
%TO.P,D6,1,A1*%
%TO.N,B1*%
X133320100Y-90608690D03*
%TO.P,D6,2,A2*%
%TO.N,A1*%
X133320100Y-88108690D03*
%TD*%
%TO.P,D12,1,A1*%
%TO.N,GND*%
X133442600Y-70156190D03*
%TO.P,D12,2,A2*%
%TO.N,A0*%
X133442600Y-67656190D03*
%TD*%
%TO.P,D4,1,A1*%
%TO.N,GND*%
X100299520Y-60118915D03*
%TO.P,D4,2,A2*%
%TO.N,Net-(D2-A2)*%
X100299520Y-57618915D03*
%TD*%
%TO.P,D2,1,A1*%
%TO.N,CIN0*%
X100299520Y-80448525D03*
%TO.P,D2,2,A2*%
%TO.N,Net-(D2-A2)*%
X100299520Y-77948525D03*
%TD*%
%TO.P,D1,1,A1*%
%TO.N,B0*%
X116809520Y-90608330D03*
%TO.P,D1,2,A2*%
%TO.N,A0*%
X116809520Y-88108330D03*
%TD*%
%TO.P,D10,1,A1*%
%TO.N,GND*%
X116810100Y-49968690D03*
%TO.P,D10,2,A2*%
%TO.N,Net-(D10-A2)*%
X116810100Y-47468690D03*
%TD*%
D17*
%TO.P,R7,1*%
%TO.N,Net-(D17-A2)*%
X64862600Y-86051190D03*
D16*
%TO.P,R7,2*%
%TO.N,Net-(LED3-A)*%
X64862600Y-75891190D03*
%TD*%
D18*
%TO.P,D8,1,A1*%
%TO.N,GND*%
X116810100Y-70288690D03*
%TO.P,D8,2,A2*%
%TO.N,A1*%
X116810100Y-67788690D03*
%TD*%
%TO.P,D20,1,A1*%
%TO.N,GND*%
X116687600Y-100768690D03*
%TO.P,D20,2,A2*%
%TO.N,SELECT*%
X116687600Y-98268690D03*
%TD*%
D17*
%TO.P,R6,1*%
%TO.N,Net-(D16-A2)*%
X54702600Y-60651190D03*
D16*
%TO.P,R6,2*%
%TO.N,Net-(LED2-A)*%
X54702600Y-50491190D03*
%TD*%
D17*
%TO.P,R4,1*%
%TO.N,GND*%
X59782600Y-75891190D03*
D16*
%TO.P,R4,2*%
%TO.N,Net-(D18-A2)*%
X59782600Y-86051190D03*
%TD*%
D18*
%TO.P,D9,1,A1*%
%TO.N,GND*%
X116810100Y-60128690D03*
%TO.P,D9,2,A2*%
%TO.N,Net-(D7-A2)*%
X116810100Y-57628690D03*
%TD*%
D19*
%TO.N,+5V*%
X97628600Y-104085190D03*
X94580600Y-104085190D03*
%TO.N,GND*%
X100168600Y-104085190D03*
X92040600Y-104085190D03*
%TO.N,A1*%
X135220600Y-96211190D03*
X135982600Y-89353190D03*
%TD*%
D20*
%TO.N,Net-(D15-A2)*%
X67402600Y-59381190D02*
X66132600Y-59381190D01*
X66132600Y-59381190D02*
X64862600Y-60651190D01*
X83790100Y-57628690D02*
X83790100Y-56972690D01*
X83023600Y-56206190D02*
X81372600Y-56206190D01*
X68672600Y-59381190D02*
X69942600Y-60651190D01*
X67402600Y-59381190D02*
X68672600Y-59381190D01*
X83790100Y-56972690D02*
X83023600Y-56206190D01*
%TO.N,Net-(D16-A2)*%
X83790100Y-46812690D02*
X83790100Y-47446610D01*
X58512600Y-59381190D02*
X59782600Y-60651190D01*
X57242600Y-59381190D02*
X58512600Y-59381190D01*
X55972600Y-59381190D02*
X54702600Y-60651190D01*
X57242600Y-59381190D02*
X55972600Y-59381190D01*
X83024020Y-46046610D02*
X83790100Y-46812690D01*
X81372600Y-46046610D02*
X83024020Y-46046610D01*
%TO.N,Net-(D17-A2)*%
X68672600Y-84781190D02*
X69942600Y-86051190D01*
X83277600Y-66366190D02*
X81372600Y-66366190D01*
X67402600Y-84781190D02*
X68672600Y-84781190D01*
X83790100Y-67788690D02*
X83790100Y-66878690D01*
X83790100Y-66878690D02*
X83277600Y-66366190D01*
X66132600Y-84781190D02*
X64862600Y-86051190D01*
X67402600Y-84781190D02*
X66132600Y-84781190D01*
%TO.N,Net-(D18-A2)*%
X57242600Y-84781190D02*
X58512600Y-84781190D01*
X57242600Y-84781190D02*
X55972600Y-84781190D01*
X58512600Y-84781190D02*
X59782600Y-86051190D01*
X83790100Y-77948690D02*
X83790100Y-77292690D01*
X55972600Y-84781190D02*
X54702600Y-86051190D01*
X83023600Y-76526190D02*
X81372600Y-76526190D01*
X83790100Y-77292690D02*
X83023600Y-76526190D01*
%TO.N,B0*%
X114392020Y-90368610D02*
X113122600Y-89099190D01*
X116809520Y-91254270D02*
X116809520Y-90608330D01*
X87976600Y-84273190D02*
X86706600Y-83003190D01*
X113122600Y-89099190D02*
X109566600Y-89099190D01*
X109566600Y-89099190D02*
X108550600Y-88083190D01*
X116297960Y-91765830D02*
X116809520Y-91254270D01*
X86706600Y-83003190D02*
X86706600Y-73732190D01*
X108550600Y-88083190D02*
X108550600Y-81479190D01*
X99152600Y-84273190D02*
X87976600Y-84273190D01*
X114392020Y-91765830D02*
X116297960Y-91765830D01*
X106518600Y-79447190D02*
X103978600Y-79447190D01*
X86706600Y-73732190D02*
X88992600Y-71446190D01*
X108550600Y-81479190D02*
X106518600Y-79447190D01*
X114392020Y-91765830D02*
X114392020Y-90368610D01*
X103978600Y-79447190D02*
X99152600Y-84273190D01*
%TO.N,A0*%
X116809520Y-87452110D02*
X116809520Y-88108330D01*
X134966600Y-76907190D02*
X133188600Y-75129190D01*
X130140600Y-74875190D02*
X130140600Y-75764190D01*
X102454600Y-65985190D02*
X102454600Y-72589190D01*
X102454600Y-72589190D02*
X104232600Y-74367190D01*
X130902600Y-76526190D02*
X132807600Y-76526190D01*
X134966600Y-83257190D02*
X134966600Y-76907190D01*
X101184600Y-64715190D02*
X102454600Y-65985190D01*
X104232600Y-74367190D02*
X105629600Y-74367190D01*
X132299600Y-75129190D02*
X130902600Y-76526190D01*
X114392020Y-85543770D02*
X120488600Y-79447190D01*
X123028600Y-79447190D02*
X127600600Y-84019190D01*
X129886600Y-68779190D02*
X127346600Y-68779190D01*
X126076600Y-73097190D02*
X126838600Y-73859190D01*
X110582600Y-84273190D02*
X113121440Y-84273190D01*
X133188600Y-75129190D02*
X132299600Y-75129190D01*
X120488600Y-79447190D02*
X123028600Y-79447190D01*
X129124600Y-73859190D02*
X130140600Y-74875190D01*
X116043240Y-86685830D02*
X116809520Y-87452110D01*
X132807600Y-76526190D02*
X133320100Y-77038690D01*
X105629600Y-74367190D02*
X109820600Y-78558190D01*
X109820600Y-83511190D02*
X110582600Y-84273190D01*
X99533630Y-66366220D02*
X97882020Y-66366220D01*
X100299520Y-67132110D02*
X99533630Y-66366220D01*
X127346600Y-68779190D02*
X126076600Y-70049190D01*
X131025100Y-67640690D02*
X129886600Y-68779190D01*
X126838600Y-73859190D02*
X129124600Y-73859190D01*
X127600600Y-84019190D02*
X134204600Y-84019190D01*
X100299520Y-67788720D02*
X100299520Y-67132110D01*
X133320100Y-77038690D02*
X133320100Y-77948690D01*
X98644600Y-64715190D02*
X101184600Y-64715190D01*
X134204600Y-84019190D02*
X134966600Y-83257190D01*
X113121440Y-84273190D02*
X114392020Y-85543770D01*
X133442600Y-67001190D02*
X133442600Y-67656190D01*
X126076600Y-70049190D02*
X126076600Y-73097190D01*
X131025100Y-66233690D02*
X131025100Y-67640690D01*
X97882020Y-65477770D02*
X98644600Y-64715190D01*
X132675100Y-66233690D02*
X133442600Y-67001190D01*
X114392020Y-86685830D02*
X116043240Y-86685830D01*
X97882020Y-66366220D02*
X97882020Y-65477770D01*
X131025100Y-66233690D02*
X132675100Y-66233690D01*
X130140600Y-75764190D02*
X130902600Y-76526190D01*
X109820600Y-78558190D02*
X109820600Y-83511190D01*
X114392020Y-85543770D02*
X114392020Y-86685830D01*
%TO.N,CIN0*%
X127352100Y-66233690D02*
X128485100Y-66233690D01*
X127092600Y-78939190D02*
X124044600Y-75891190D01*
X97882020Y-80191812D02*
X97882020Y-81606025D01*
X94072600Y-79447190D02*
X97137398Y-79447190D01*
X95342020Y-56206415D02*
X92294600Y-59253835D01*
X100299520Y-80448525D02*
X100299520Y-80840270D01*
X130902600Y-81606190D02*
X130902600Y-80209190D01*
X100299520Y-80840270D02*
X99533765Y-81606025D01*
X129632600Y-78939190D02*
X127092600Y-78939190D01*
X130902600Y-80209190D02*
X129632600Y-78939190D01*
X92294600Y-59253835D02*
X92294600Y-77669190D01*
X92294600Y-77669190D02*
X94072600Y-79447190D01*
X124044600Y-75891190D02*
X124044600Y-69541190D01*
X130902600Y-81606190D02*
X132807600Y-81606190D01*
X97137398Y-79447190D02*
X97882020Y-80191812D01*
X99533765Y-81606025D02*
X97882020Y-81606025D01*
X124044600Y-69541190D02*
X127352100Y-66233690D01*
X133320100Y-81093690D02*
X133320100Y-80448690D01*
X132807600Y-81606190D02*
X133320100Y-81093690D01*
%TO.N,Net-(D2-A2)*%
X97120600Y-74367190D02*
X94580600Y-74367190D01*
X97882020Y-75128610D02*
X97120600Y-74367190D01*
X96866600Y-58365190D02*
X97882020Y-57349770D01*
X94580600Y-74367190D02*
X93056600Y-72843190D01*
X97882020Y-76526025D02*
X99279435Y-76526025D01*
X93056600Y-59889190D02*
X94580600Y-58365190D01*
X94580600Y-58365190D02*
X96866600Y-58365190D01*
X97882020Y-57349770D02*
X97882020Y-56206415D01*
X100299520Y-77546110D02*
X100299520Y-77948525D01*
X99279435Y-76526025D02*
X100299520Y-77546110D01*
X99787825Y-56206415D02*
X100299520Y-56718110D01*
X97882020Y-56206415D02*
X99787825Y-56206415D01*
X100299520Y-56718110D02*
X100299520Y-57618915D01*
X97882020Y-76526025D02*
X97882020Y-75128610D01*
X93056600Y-72843190D02*
X93056600Y-59889190D01*
%TO.N,GND*%
X116810100Y-50613690D02*
X116810100Y-49968690D01*
X100299520Y-61028270D02*
X100299520Y-60118915D01*
X83790100Y-60128690D02*
X83790100Y-60519690D01*
X83790100Y-70288690D02*
X83790100Y-70933690D01*
X83790100Y-70933690D02*
X83277600Y-71446190D01*
X116297600Y-101926190D02*
X116687600Y-101536190D01*
X83790100Y-50613690D02*
X83277180Y-51126610D01*
X97882020Y-61286415D02*
X100041375Y-61286415D01*
X97882020Y-51126610D02*
X99787180Y-51126610D01*
X116297600Y-61286190D02*
X116810100Y-60773690D01*
X100300100Y-90608690D02*
X100300100Y-90999690D01*
X133194100Y-50993690D02*
X133442600Y-50745190D01*
X116297600Y-51126190D02*
X116810100Y-50613690D01*
X99533570Y-71446220D02*
X100299520Y-70680270D01*
X83790100Y-80839690D02*
X83023600Y-81606190D01*
X100041375Y-61286415D02*
X100299520Y-61028270D01*
X116687600Y-101536190D02*
X116687600Y-100768690D01*
X83790100Y-49946610D02*
X83790100Y-50613690D01*
X114270100Y-101926190D02*
X116297600Y-101926190D01*
X83790100Y-60519690D02*
X83023600Y-61286190D01*
X114392600Y-51126190D02*
X116297600Y-51126190D01*
X132686100Y-71313690D02*
X133442600Y-70557190D01*
X114392600Y-61286190D02*
X116297600Y-61286190D01*
X99533600Y-91766190D02*
X97882600Y-91766190D01*
X131025100Y-71313690D02*
X132686100Y-71313690D01*
X97882020Y-71446220D02*
X99533570Y-71446220D01*
X83790100Y-80448690D02*
X83790100Y-80839690D01*
X100300100Y-90999690D02*
X99533600Y-91766190D01*
X116810100Y-70933690D02*
X116810100Y-70288690D01*
X116810100Y-60773690D02*
X116810100Y-60128690D01*
X130780100Y-101926190D02*
X132807600Y-101926190D01*
X114392600Y-71446190D02*
X116297600Y-71446190D01*
X132807600Y-101926190D02*
X133197600Y-101536190D01*
X133197600Y-101536190D02*
X133197600Y-100768690D01*
X83277600Y-71446190D02*
X81372600Y-71446190D01*
X100299520Y-50614270D02*
X100299520Y-49969110D01*
X83023600Y-61286190D02*
X81372600Y-61286190D01*
X131025100Y-50993690D02*
X133194100Y-50993690D01*
X99787180Y-51126610D02*
X100299520Y-50614270D01*
X83023600Y-81606190D02*
X81372600Y-81606190D01*
X133442600Y-50745190D02*
X133442600Y-49836190D01*
X116297600Y-71446190D02*
X116810100Y-70933690D01*
X83277180Y-51126610D02*
X81372600Y-51126610D01*
X100299520Y-70680270D02*
X100299520Y-70288720D01*
X133442600Y-70557190D02*
X133442600Y-70156190D01*
%TO.N,Net-(D5-A2)*%
X100299520Y-46689030D02*
X100299520Y-47469110D01*
X97882020Y-46046610D02*
X99657100Y-46046610D01*
X99657100Y-46046610D02*
X100299520Y-46689030D01*
%TO.N,B1*%
X133320100Y-91253690D02*
X133320100Y-90608690D01*
X130902600Y-91766190D02*
X132807600Y-91766190D01*
X132807600Y-91766190D02*
X133320100Y-91253690D01*
%TO.N,A1*%
X132807600Y-86686190D02*
X133320100Y-87198690D01*
X85436600Y-87829190D02*
X85436600Y-72081190D01*
X134966600Y-53793190D02*
X132172600Y-53793190D01*
X85944600Y-54174610D02*
X88992600Y-51126610D01*
X134458600Y-85543190D02*
X135474600Y-86559190D01*
X97120600Y-96465190D02*
X94072600Y-96465190D01*
X132929100Y-45913690D02*
X133442600Y-46427190D01*
X94072600Y-96465190D02*
X85436600Y-87829190D01*
X135474600Y-45665190D02*
X135474600Y-53285190D01*
X116810100Y-67132690D02*
X116810100Y-67788690D01*
X85436600Y-72081190D02*
X85944600Y-71573190D01*
X135474600Y-86559190D02*
X135982600Y-87067190D01*
X130902600Y-86686190D02*
X132807600Y-86686190D01*
X133442600Y-46427190D02*
X133442600Y-47336190D01*
X132045600Y-85543190D02*
X132934600Y-85543190D01*
X131025100Y-44526690D02*
X131664600Y-43887190D01*
X135220600Y-96211190D02*
X135220600Y-104085190D01*
X132934600Y-85543190D02*
X134458600Y-85543190D01*
X130902600Y-86686190D02*
X132045600Y-85543190D01*
X133320100Y-87198690D02*
X133320100Y-88108690D01*
X85944600Y-71573190D02*
X85944600Y-54174610D01*
X132929100Y-56073690D02*
X133442600Y-56587190D01*
X133442600Y-56587190D02*
X133442600Y-57496190D01*
X131664600Y-43887190D02*
X133696600Y-43887190D01*
X131025100Y-56073690D02*
X132929100Y-56073690D01*
X135982600Y-87067190D02*
X135982600Y-89353190D01*
X109058600Y-108403190D02*
X97120600Y-96465190D01*
X131025100Y-45913690D02*
X132929100Y-45913690D01*
X130902600Y-108403190D02*
X109058600Y-108403190D01*
X133696600Y-43887190D02*
X135474600Y-45665190D01*
X135474600Y-53285190D02*
X134966600Y-53793190D01*
X114392600Y-66366190D02*
X116043600Y-66366190D01*
X131025100Y-54940690D02*
X131025100Y-56073690D01*
X116043600Y-66366190D02*
X116810100Y-67132690D01*
X132172600Y-53793190D02*
X131025100Y-54940690D01*
X131025100Y-45913690D02*
X131025100Y-44526690D01*
X135220600Y-104085190D02*
X130902600Y-108403190D01*
%TO.N,ADDCOUT0*%
X106010600Y-63445190D02*
X103978600Y-63445190D01*
X116810100Y-81093690D02*
X116810100Y-80448690D01*
X112106600Y-79447190D02*
X107788600Y-75129190D01*
X116932600Y-43379190D02*
X108169440Y-43379190D01*
X102962600Y-62429190D02*
X102962600Y-53666030D01*
X114138600Y-53031190D02*
X117186600Y-53031190D01*
X114392600Y-79955190D02*
X113884600Y-79447190D01*
X116297600Y-81606190D02*
X116810100Y-81093690D01*
X107788600Y-65223190D02*
X106010600Y-63445190D01*
X111852600Y-56206190D02*
X111852600Y-55317190D01*
X107788600Y-75129190D02*
X107788600Y-65223190D01*
X111852600Y-55317190D02*
X114138600Y-53031190D01*
X113884600Y-79447190D02*
X112106600Y-79447190D01*
X114392600Y-81606190D02*
X114392600Y-79955190D01*
X114392600Y-81606190D02*
X116297600Y-81606190D01*
X108169440Y-43379190D02*
X105502020Y-46046610D01*
X117186600Y-53031190D02*
X119472600Y-50745190D01*
X103978600Y-63445190D02*
X102962600Y-62429190D01*
X119472600Y-50745190D02*
X119472600Y-45919190D01*
X119472600Y-45919190D02*
X116932600Y-43379190D01*
X102962600Y-53666030D02*
X105502020Y-51126610D01*
%TO.N,Net-(D7-A2)*%
X124806600Y-62683190D02*
X124806600Y-55571190D01*
X123536600Y-54301190D02*
X116297600Y-54301190D01*
X136490600Y-66239190D02*
X133950600Y-63699190D01*
X116043600Y-76526190D02*
X116810100Y-77292690D01*
X133950600Y-63699190D02*
X125822600Y-63699190D01*
X116043600Y-56206190D02*
X116810100Y-56972690D01*
X114392600Y-56206190D02*
X116043600Y-56206190D01*
X114392600Y-76526190D02*
X116043600Y-76526190D01*
X116297600Y-54301190D02*
X114392600Y-56206190D01*
X125822600Y-63699190D02*
X124806600Y-62683190D01*
X116810100Y-77292690D02*
X116810100Y-77948690D01*
X125822600Y-65096190D02*
X125822600Y-63699190D01*
X124806600Y-55571190D02*
X123536600Y-54301190D01*
X136490600Y-84654190D02*
X136490600Y-66239190D01*
X116810100Y-56972690D02*
X116810100Y-57628690D01*
X114392600Y-76526190D02*
X125822600Y-65096190D01*
X138522600Y-86686190D02*
X136490600Y-84654190D01*
%TO.N,Net-(D10-A2)*%
X114392600Y-46046190D02*
X116043600Y-46046190D01*
X116810100Y-46812690D02*
X116810100Y-47468690D01*
X116043600Y-46046190D02*
X116810100Y-46812690D01*
%TO.N,SUBCOUT0*%
X131025100Y-61153690D02*
X132940100Y-61153690D01*
X133442600Y-60651190D02*
X133442600Y-59996190D01*
X126330600Y-57349190D02*
X127854600Y-58873190D01*
X131025100Y-59630690D02*
X131025100Y-61153690D01*
X126330600Y-53148190D02*
X126330600Y-57349190D01*
X130267600Y-58873190D02*
X131025100Y-59630690D01*
X132940100Y-61153690D02*
X133442600Y-60651190D01*
X127854600Y-58873190D02*
X130267600Y-58873190D01*
X128485100Y-50993690D02*
X126330600Y-53148190D01*
%TO.N,Net-(D19-A2)*%
X76292600Y-108911190D02*
X78832600Y-108911190D01*
X100300100Y-88108690D02*
X100300100Y-87452690D01*
X100300100Y-87452690D02*
X99533600Y-86686190D01*
X78832600Y-108911190D02*
X80102600Y-107641190D01*
X99533600Y-86686190D02*
X97882600Y-86686190D01*
%TO.N,SELECT*%
X116043600Y-96846190D02*
X116687600Y-97490190D01*
X133197600Y-97236190D02*
X133197600Y-98268690D01*
X114270100Y-96846190D02*
X116043600Y-96846190D01*
X132807600Y-96846190D02*
X133197600Y-97236190D01*
X116687600Y-97490190D02*
X116687600Y-98268690D01*
X130780100Y-96846190D02*
X132807600Y-96846190D01*
%TO.N,SUM0*%
X111730100Y-101926190D02*
X109947600Y-101926190D01*
X109947600Y-101926190D02*
X102962600Y-94941190D01*
X102962600Y-84145445D02*
X105502020Y-81606025D01*
X102962600Y-94941190D02*
X102962600Y-84145445D01*
%TO.N,SUM1*%
X119218600Y-97227190D02*
X119218600Y-84400190D01*
X126203600Y-101926190D02*
X123536600Y-99259190D01*
X128240100Y-101926190D02*
X126203600Y-101926190D01*
X123536600Y-99259190D02*
X121250600Y-99259190D01*
X121250600Y-99259190D02*
X119218600Y-97227190D01*
X119218600Y-84400190D02*
X122012600Y-81606190D01*
%TO.N,Net-(K10-Pad1)*%
X108042600Y-54936190D02*
X111852600Y-51126190D01*
X108042600Y-60905190D02*
X108042600Y-54936190D01*
X119599600Y-63953190D02*
X111090600Y-63953190D01*
X122012600Y-66366190D02*
X119599600Y-63953190D01*
X111090600Y-63953190D02*
X108042600Y-60905190D01*
%TO.N,SUB1*%
X129124600Y-94433190D02*
X139284600Y-94433190D01*
X140554600Y-63063190D02*
X138645100Y-61153690D01*
X128240100Y-96846190D02*
X128240100Y-95317690D01*
X140554600Y-93163190D02*
X140554600Y-63063190D01*
X139284600Y-94433190D02*
X140554600Y-93163190D01*
X128240100Y-95317690D02*
X129124600Y-94433190D01*
%TO.N,Net-(LED1-A)*%
X67402600Y-47951190D02*
X64862600Y-50491190D01*
%TO.N,Net-(LED2-A)*%
X57242600Y-47951190D02*
X54702600Y-50491190D01*
%TO.N,Net-(LED3-A)*%
X64862600Y-75891190D02*
X67402600Y-73351190D01*
%TO.N,Net-(LED4-A)*%
X54702600Y-75891190D02*
X57242600Y-73351190D01*
%TO.N,Net-(LED5-A)*%
X69942600Y-108911190D02*
X69942600Y-107641190D01*
X69942600Y-107641190D02*
X67402600Y-105101190D01*
%TO.N,Net-(LED6-A)*%
X59782600Y-107641190D02*
X57242600Y-105101190D01*
X59782600Y-108911190D02*
X59782600Y-107641190D01*
%TD*%
M02*
