M48
; DRILL file {KiCad 7.0.2} date Sun May 28 17:26:03 2023
; FORMAT={-:-/ absolute / inch / decimal}
; #@! TF.CreationDate,2023-05-28T17:26:03-07:00
; #@! TF.GenerationSoftware,Kicad,Pcbnew,7.0.2
; #@! TF.FileFunction,MixedPlating,1,4
FMAT,2
INCH
; #@! TA.AperFunction,Plated,PTH,ComponentDrill
T1C0.0236
; #@! TA.AperFunction,Plated,PTH,ViaDrill
T2C0.0300
; #@! TA.AperFunction,Plated,PTH,ComponentDrill
T3C0.0315
; #@! TA.AperFunction,Plated,PTH,ComponentDrill
T4C0.0354
; #@! TA.AperFunction,Plated,PTH,ComponentDrill
T5C0.0394
%
G90
G05
T2
X3.6236Y-4.0978
X3.7236Y-4.0978
X3.8436Y-4.0978
X3.9436Y-4.0978
X5.3236Y-3.7878
X5.3536Y-3.5178
T3
X2.1536Y-1.9878
X2.1536Y-2.3878
X2.1536Y-2.9878
X2.1536Y-3.3878
X2.2536Y-2.0378
X2.2536Y-2.3378
X2.2536Y-3.0378
X2.2536Y-3.3378
X2.3536Y-1.9878
X2.3536Y-2.3878
X2.3536Y-2.9878
X2.3536Y-3.3878
X2.3536Y-3.8878
X2.3536Y-4.2878
X2.5536Y-1.9878
X2.5536Y-2.3878
X2.5536Y-2.9878
X2.5536Y-3.3878
X2.6536Y-2.0378
X2.6536Y-2.3378
X2.6536Y-3.0378
X2.6536Y-3.3378
X2.7536Y-1.9878
X2.7536Y-2.3878
X2.7536Y-2.9878
X2.7536Y-3.3878
X2.7536Y-3.8878
X2.7536Y-4.2878
X3.0036Y-3.8878
X3.0036Y-4.2878
X3.1536Y-3.9378
X3.1536Y-4.2378
X4.4536Y-4.1968
X4.4536Y-4.3378
X4.8536Y-4.1968
X4.8536Y-4.3378
T4
X2.2536Y-1.7878
X2.2536Y-1.8878
X2.2536Y-2.7878
X2.2536Y-2.8878
X2.2536Y-4.0378
X2.2536Y-4.1378
X2.6536Y-1.7878
X2.6536Y-1.8878
X2.6536Y-2.7878
X2.6536Y-2.8878
X2.6536Y-4.0378
X2.6536Y-4.1378
T5
X3.1036Y-1.8129
X3.1036Y-2.0129
X3.1036Y-2.2128
X3.1036Y-2.4128
X3.1036Y-2.6128
X3.1036Y-2.8128
X3.1036Y-3.0128
X3.1036Y-3.2128
X3.2036Y-1.8129
X3.2036Y-2.0129
X3.2036Y-2.2128
X3.2036Y-2.4128
X3.2036Y-2.6128
X3.2036Y-2.8128
X3.2036Y-3.0128
X3.2036Y-3.2128
X3.5036Y-1.8129
X3.5036Y-2.0129
X3.5036Y-2.2128
X3.5036Y-2.4128
X3.5036Y-2.6128
X3.5036Y-2.8128
X3.5036Y-3.0128
X3.5036Y-3.2128
X3.7536Y-1.8129
X3.7536Y-2.0129
X3.7536Y-2.2129
X3.7536Y-2.4129
X3.7536Y-2.6128
X3.7536Y-2.8128
X3.7536Y-3.0128
X3.7536Y-3.2128
X3.7536Y-3.4128
X3.7536Y-3.6128
X3.8536Y-1.8129
X3.8536Y-2.0129
X3.8536Y-2.2129
X3.8536Y-2.4129
X3.8536Y-2.6128
X3.8536Y-2.8128
X3.8536Y-3.0128
X3.8536Y-3.2128
X3.8536Y-3.4128
X3.8536Y-3.6128
X4.1536Y-1.8129
X4.1536Y-2.0129
X4.1536Y-2.2129
X4.1536Y-2.4129
X4.1536Y-2.6128
X4.1536Y-2.8128
X4.1536Y-3.0128
X4.1536Y-3.2128
X4.1536Y-3.4128
X4.1536Y-3.6128
X4.3988Y-3.8128
X4.3988Y-4.0128
X4.4036Y-3.4128
X4.4036Y-3.6128
X4.4036Y-1.8128
X4.4036Y-2.0128
X4.4036Y-2.2128
X4.4036Y-2.4128
X4.4036Y-2.6128
X4.4036Y-2.8128
X4.4036Y-3.0128
X4.4036Y-3.2128
X4.4988Y-3.8128
X4.4988Y-4.0128
X4.5036Y-3.4128
X4.5036Y-3.6128
X4.5036Y-1.8128
X4.5036Y-2.0128
X4.5036Y-2.2128
X4.5036Y-2.4128
X4.5036Y-2.6128
X4.5036Y-2.8128
X4.5036Y-3.0128
X4.5036Y-3.2128
X4.7988Y-3.8128
X4.7988Y-4.0128
X4.8036Y-3.4128
X4.8036Y-3.6128
X4.8036Y-1.8128
X4.8036Y-2.0128
X4.8036Y-2.2128
X4.8036Y-2.4128
X4.8036Y-2.6128
X4.8036Y-2.8128
X4.8036Y-3.0128
X4.8036Y-3.2128
X5.0488Y-3.8128
X5.0488Y-4.0128
X5.0536Y-3.0128
X5.0536Y-3.2128
X5.0536Y-3.4128
X5.0536Y-3.6128
X5.0585Y-1.8076
X5.0585Y-2.0076
X5.0585Y-2.2076
X5.0585Y-2.4076
X5.0585Y-2.6076
X5.0585Y-2.8076
X5.1488Y-3.8128
X5.1488Y-4.0128
X5.1536Y-3.0128
X5.1536Y-3.2128
X5.1536Y-3.4128
X5.1536Y-3.6128
X5.1585Y-1.8076
X5.1585Y-2.0076
X5.1585Y-2.2076
X5.1585Y-2.4076
X5.1585Y-2.6076
X5.1585Y-2.8076
X5.4488Y-3.8128
X5.4488Y-4.0128
X5.4536Y-3.0128
X5.4536Y-3.2128
X5.4536Y-3.4128
X5.4536Y-3.6128
X5.4585Y-1.8076
X5.4585Y-2.0076
X5.4585Y-2.2076
X5.4585Y-2.4076
X5.4585Y-2.6076
X5.4585Y-2.8076
T1
G00X3.6146Y-4.2212
M15
G01X3.6146Y-4.2448
M16
G05
G00X3.6146Y-4.3708
M15
G01X3.6146Y-4.3944
M16
G05
G00X3.9547Y-4.2212
M15
G01X3.9547Y-4.2448
M16
G05
G00X3.9547Y-4.3708
M15
G01X3.9547Y-4.3944
M16
G05
T0
M30
