%TF.GenerationSoftware,KiCad,Pcbnew,7.0.2*%
%TF.CreationDate,2023-05-28T17:25:48-07:00*%
%TF.ProjectId,relay-prototype,72656c61-792d-4707-926f-746f74797065,rev?*%
%TF.SameCoordinates,Original*%
%TF.FileFunction,Legend,Bot*%
%TF.FilePolarity,Positive*%
%FSLAX46Y46*%
G04 Gerber Fmt 4.6, Leading zero omitted, Abs format (unit mm)*
G04 Created by KiCad (PCBNEW 7.0.2) date 2023-05-28 17:25:48*
%MOMM*%
%LPD*%
G01*
G04 APERTURE LIST*
G04 Aperture macros list*
%AMRoundRect*
0 Rectangle with rounded corners*
0 $1 Rounding radius*
0 $2 $3 $4 $5 $6 $7 $8 $9 X,Y pos of 4 corners*
0 Add a 4 corners polygon primitive as box body*
4,1,4,$2,$3,$4,$5,$6,$7,$8,$9,$2,$3,0*
0 Add four circle primitives for the rounded corners*
1,1,$1+$1,$2,$3*
1,1,$1+$1,$4,$5*
1,1,$1+$1,$6,$7*
1,1,$1+$1,$8,$9*
0 Add four rect primitives between the rounded corners*
20,1,$1+$1,$2,$3,$4,$5,0*
20,1,$1+$1,$4,$5,$6,$7,0*
20,1,$1+$1,$6,$7,$8,$9,0*
20,1,$1+$1,$8,$9,$2,$3,0*%
G04 Aperture macros list end*
%ADD10C,0.150000*%
%ADD11C,0.120000*%
%ADD12RoundRect,0.500000X0.000000X-0.300000X0.000000X-0.300000X0.000000X0.300000X0.000000X0.300000X0*%
%ADD13R,2.000000X2.000000*%
%ADD14C,2.000000*%
%ADD15R,1.800000X1.800000*%
%ADD16C,1.800000*%
%ADD17R,1.600000X1.600000*%
%ADD18O,1.600000X1.600000*%
%ADD19C,1.600000*%
%ADD20RoundRect,0.250000X0.250000X-0.250000X0.250000X0.250000X-0.250000X0.250000X-0.250000X-0.250000X0*%
G04 APERTURE END LIST*
D10*
%TO.C,RCC2*%
X128005266Y-107087809D02*
X128338599Y-106611618D01*
X128576694Y-107087809D02*
X128576694Y-106087809D01*
X128576694Y-106087809D02*
X128195742Y-106087809D01*
X128195742Y-106087809D02*
X128100504Y-106135428D01*
X128100504Y-106135428D02*
X128052885Y-106183047D01*
X128052885Y-106183047D02*
X128005266Y-106278285D01*
X128005266Y-106278285D02*
X128005266Y-106421142D01*
X128005266Y-106421142D02*
X128052885Y-106516380D01*
X128052885Y-106516380D02*
X128100504Y-106563999D01*
X128100504Y-106563999D02*
X128195742Y-106611618D01*
X128195742Y-106611618D02*
X128576694Y-106611618D01*
X127005266Y-106992570D02*
X127052885Y-107040190D01*
X127052885Y-107040190D02*
X127195742Y-107087809D01*
X127195742Y-107087809D02*
X127290980Y-107087809D01*
X127290980Y-107087809D02*
X127433837Y-107040190D01*
X127433837Y-107040190D02*
X127529075Y-106944951D01*
X127529075Y-106944951D02*
X127576694Y-106849713D01*
X127576694Y-106849713D02*
X127624313Y-106659237D01*
X127624313Y-106659237D02*
X127624313Y-106516380D01*
X127624313Y-106516380D02*
X127576694Y-106325904D01*
X127576694Y-106325904D02*
X127529075Y-106230666D01*
X127529075Y-106230666D02*
X127433837Y-106135428D01*
X127433837Y-106135428D02*
X127290980Y-106087809D01*
X127290980Y-106087809D02*
X127195742Y-106087809D01*
X127195742Y-106087809D02*
X127052885Y-106135428D01*
X127052885Y-106135428D02*
X127005266Y-106183047D01*
X126005266Y-106992570D02*
X126052885Y-107040190D01*
X126052885Y-107040190D02*
X126195742Y-107087809D01*
X126195742Y-107087809D02*
X126290980Y-107087809D01*
X126290980Y-107087809D02*
X126433837Y-107040190D01*
X126433837Y-107040190D02*
X126529075Y-106944951D01*
X126529075Y-106944951D02*
X126576694Y-106849713D01*
X126576694Y-106849713D02*
X126624313Y-106659237D01*
X126624313Y-106659237D02*
X126624313Y-106516380D01*
X126624313Y-106516380D02*
X126576694Y-106325904D01*
X126576694Y-106325904D02*
X126529075Y-106230666D01*
X126529075Y-106230666D02*
X126433837Y-106135428D01*
X126433837Y-106135428D02*
X126290980Y-106087809D01*
X126290980Y-106087809D02*
X126195742Y-106087809D01*
X126195742Y-106087809D02*
X126052885Y-106135428D01*
X126052885Y-106135428D02*
X126005266Y-106183047D01*
X125624313Y-106183047D02*
X125576694Y-106135428D01*
X125576694Y-106135428D02*
X125481456Y-106087809D01*
X125481456Y-106087809D02*
X125243361Y-106087809D01*
X125243361Y-106087809D02*
X125148123Y-106135428D01*
X125148123Y-106135428D02*
X125100504Y-106183047D01*
X125100504Y-106183047D02*
X125052885Y-106278285D01*
X125052885Y-106278285D02*
X125052885Y-106373523D01*
X125052885Y-106373523D02*
X125100504Y-106516380D01*
X125100504Y-106516380D02*
X125671932Y-107087809D01*
X125671932Y-107087809D02*
X125052885Y-107087809D01*
%TO.C,R2*%
X62785219Y-55404523D02*
X62309028Y-55071190D01*
X62785219Y-54833095D02*
X61785219Y-54833095D01*
X61785219Y-54833095D02*
X61785219Y-55214047D01*
X61785219Y-55214047D02*
X61832838Y-55309285D01*
X61832838Y-55309285D02*
X61880457Y-55356904D01*
X61880457Y-55356904D02*
X61975695Y-55404523D01*
X61975695Y-55404523D02*
X62118552Y-55404523D01*
X62118552Y-55404523D02*
X62213790Y-55356904D01*
X62213790Y-55356904D02*
X62261409Y-55309285D01*
X62261409Y-55309285D02*
X62309028Y-55214047D01*
X62309028Y-55214047D02*
X62309028Y-54833095D01*
X61880457Y-55785476D02*
X61832838Y-55833095D01*
X61832838Y-55833095D02*
X61785219Y-55928333D01*
X61785219Y-55928333D02*
X61785219Y-56166428D01*
X61785219Y-56166428D02*
X61832838Y-56261666D01*
X61832838Y-56261666D02*
X61880457Y-56309285D01*
X61880457Y-56309285D02*
X61975695Y-56356904D01*
X61975695Y-56356904D02*
X62070933Y-56356904D01*
X62070933Y-56356904D02*
X62213790Y-56309285D01*
X62213790Y-56309285D02*
X62785219Y-55737857D01*
X62785219Y-55737857D02*
X62785219Y-56356904D01*
%TO.C,D17*%
X86102719Y-67824404D02*
X85102719Y-67824404D01*
X85102719Y-67824404D02*
X85102719Y-68062499D01*
X85102719Y-68062499D02*
X85150338Y-68205356D01*
X85150338Y-68205356D02*
X85245576Y-68300594D01*
X85245576Y-68300594D02*
X85340814Y-68348213D01*
X85340814Y-68348213D02*
X85531290Y-68395832D01*
X85531290Y-68395832D02*
X85674147Y-68395832D01*
X85674147Y-68395832D02*
X85864623Y-68348213D01*
X85864623Y-68348213D02*
X85959861Y-68300594D01*
X85959861Y-68300594D02*
X86055100Y-68205356D01*
X86055100Y-68205356D02*
X86102719Y-68062499D01*
X86102719Y-68062499D02*
X86102719Y-67824404D01*
X86102719Y-69348213D02*
X86102719Y-68776785D01*
X86102719Y-69062499D02*
X85102719Y-69062499D01*
X85102719Y-69062499D02*
X85245576Y-68967261D01*
X85245576Y-68967261D02*
X85340814Y-68872023D01*
X85340814Y-68872023D02*
X85388433Y-68776785D01*
X85102719Y-69681547D02*
X85102719Y-70348213D01*
X85102719Y-70348213D02*
X86102719Y-69919642D01*
%TO.C,RCC1*%
X128005266Y-110643809D02*
X128338599Y-110167618D01*
X128576694Y-110643809D02*
X128576694Y-109643809D01*
X128576694Y-109643809D02*
X128195742Y-109643809D01*
X128195742Y-109643809D02*
X128100504Y-109691428D01*
X128100504Y-109691428D02*
X128052885Y-109739047D01*
X128052885Y-109739047D02*
X128005266Y-109834285D01*
X128005266Y-109834285D02*
X128005266Y-109977142D01*
X128005266Y-109977142D02*
X128052885Y-110072380D01*
X128052885Y-110072380D02*
X128100504Y-110119999D01*
X128100504Y-110119999D02*
X128195742Y-110167618D01*
X128195742Y-110167618D02*
X128576694Y-110167618D01*
X127005266Y-110548570D02*
X127052885Y-110596190D01*
X127052885Y-110596190D02*
X127195742Y-110643809D01*
X127195742Y-110643809D02*
X127290980Y-110643809D01*
X127290980Y-110643809D02*
X127433837Y-110596190D01*
X127433837Y-110596190D02*
X127529075Y-110500951D01*
X127529075Y-110500951D02*
X127576694Y-110405713D01*
X127576694Y-110405713D02*
X127624313Y-110215237D01*
X127624313Y-110215237D02*
X127624313Y-110072380D01*
X127624313Y-110072380D02*
X127576694Y-109881904D01*
X127576694Y-109881904D02*
X127529075Y-109786666D01*
X127529075Y-109786666D02*
X127433837Y-109691428D01*
X127433837Y-109691428D02*
X127290980Y-109643809D01*
X127290980Y-109643809D02*
X127195742Y-109643809D01*
X127195742Y-109643809D02*
X127052885Y-109691428D01*
X127052885Y-109691428D02*
X127005266Y-109739047D01*
X126005266Y-110548570D02*
X126052885Y-110596190D01*
X126052885Y-110596190D02*
X126195742Y-110643809D01*
X126195742Y-110643809D02*
X126290980Y-110643809D01*
X126290980Y-110643809D02*
X126433837Y-110596190D01*
X126433837Y-110596190D02*
X126529075Y-110500951D01*
X126529075Y-110500951D02*
X126576694Y-110405713D01*
X126576694Y-110405713D02*
X126624313Y-110215237D01*
X126624313Y-110215237D02*
X126624313Y-110072380D01*
X126624313Y-110072380D02*
X126576694Y-109881904D01*
X126576694Y-109881904D02*
X126529075Y-109786666D01*
X126529075Y-109786666D02*
X126433837Y-109691428D01*
X126433837Y-109691428D02*
X126290980Y-109643809D01*
X126290980Y-109643809D02*
X126195742Y-109643809D01*
X126195742Y-109643809D02*
X126052885Y-109691428D01*
X126052885Y-109691428D02*
X126005266Y-109739047D01*
X125052885Y-110643809D02*
X125624313Y-110643809D01*
X125338599Y-110643809D02*
X125338599Y-109643809D01*
X125338599Y-109643809D02*
X125433837Y-109786666D01*
X125433837Y-109786666D02*
X125529075Y-109881904D01*
X125529075Y-109881904D02*
X125624313Y-109929523D01*
%TO.C,R1*%
X72945219Y-55404523D02*
X72469028Y-55071190D01*
X72945219Y-54833095D02*
X71945219Y-54833095D01*
X71945219Y-54833095D02*
X71945219Y-55214047D01*
X71945219Y-55214047D02*
X71992838Y-55309285D01*
X71992838Y-55309285D02*
X72040457Y-55356904D01*
X72040457Y-55356904D02*
X72135695Y-55404523D01*
X72135695Y-55404523D02*
X72278552Y-55404523D01*
X72278552Y-55404523D02*
X72373790Y-55356904D01*
X72373790Y-55356904D02*
X72421409Y-55309285D01*
X72421409Y-55309285D02*
X72469028Y-55214047D01*
X72469028Y-55214047D02*
X72469028Y-54833095D01*
X72945219Y-56356904D02*
X72945219Y-55785476D01*
X72945219Y-56071190D02*
X71945219Y-56071190D01*
X71945219Y-56071190D02*
X72088076Y-55975952D01*
X72088076Y-55975952D02*
X72183314Y-55880714D01*
X72183314Y-55880714D02*
X72230933Y-55785476D01*
%TO.C,R9*%
X79125219Y-103664523D02*
X78649028Y-103331190D01*
X79125219Y-103093095D02*
X78125219Y-103093095D01*
X78125219Y-103093095D02*
X78125219Y-103474047D01*
X78125219Y-103474047D02*
X78172838Y-103569285D01*
X78172838Y-103569285D02*
X78220457Y-103616904D01*
X78220457Y-103616904D02*
X78315695Y-103664523D01*
X78315695Y-103664523D02*
X78458552Y-103664523D01*
X78458552Y-103664523D02*
X78553790Y-103616904D01*
X78553790Y-103616904D02*
X78601409Y-103569285D01*
X78601409Y-103569285D02*
X78649028Y-103474047D01*
X78649028Y-103474047D02*
X78649028Y-103093095D01*
X79125219Y-104140714D02*
X79125219Y-104331190D01*
X79125219Y-104331190D02*
X79077600Y-104426428D01*
X79077600Y-104426428D02*
X79029980Y-104474047D01*
X79029980Y-104474047D02*
X78887123Y-104569285D01*
X78887123Y-104569285D02*
X78696647Y-104616904D01*
X78696647Y-104616904D02*
X78315695Y-104616904D01*
X78315695Y-104616904D02*
X78220457Y-104569285D01*
X78220457Y-104569285D02*
X78172838Y-104521666D01*
X78172838Y-104521666D02*
X78125219Y-104426428D01*
X78125219Y-104426428D02*
X78125219Y-104235952D01*
X78125219Y-104235952D02*
X78172838Y-104140714D01*
X78172838Y-104140714D02*
X78220457Y-104093095D01*
X78220457Y-104093095D02*
X78315695Y-104045476D01*
X78315695Y-104045476D02*
X78553790Y-104045476D01*
X78553790Y-104045476D02*
X78649028Y-104093095D01*
X78649028Y-104093095D02*
X78696647Y-104140714D01*
X78696647Y-104140714D02*
X78744266Y-104235952D01*
X78744266Y-104235952D02*
X78744266Y-104426428D01*
X78744266Y-104426428D02*
X78696647Y-104521666D01*
X78696647Y-104521666D02*
X78649028Y-104569285D01*
X78649028Y-104569285D02*
X78553790Y-104616904D01*
%TO.C,D5*%
X102612139Y-47981015D02*
X101612139Y-47981015D01*
X101612139Y-47981015D02*
X101612139Y-48219110D01*
X101612139Y-48219110D02*
X101659758Y-48361967D01*
X101659758Y-48361967D02*
X101754996Y-48457205D01*
X101754996Y-48457205D02*
X101850234Y-48504824D01*
X101850234Y-48504824D02*
X102040710Y-48552443D01*
X102040710Y-48552443D02*
X102183567Y-48552443D01*
X102183567Y-48552443D02*
X102374043Y-48504824D01*
X102374043Y-48504824D02*
X102469281Y-48457205D01*
X102469281Y-48457205D02*
X102564520Y-48361967D01*
X102564520Y-48361967D02*
X102612139Y-48219110D01*
X102612139Y-48219110D02*
X102612139Y-47981015D01*
X101612139Y-49457205D02*
X101612139Y-48981015D01*
X101612139Y-48981015D02*
X102088329Y-48933396D01*
X102088329Y-48933396D02*
X102040710Y-48981015D01*
X102040710Y-48981015D02*
X101993091Y-49076253D01*
X101993091Y-49076253D02*
X101993091Y-49314348D01*
X101993091Y-49314348D02*
X102040710Y-49409586D01*
X102040710Y-49409586D02*
X102088329Y-49457205D01*
X102088329Y-49457205D02*
X102183567Y-49504824D01*
X102183567Y-49504824D02*
X102421662Y-49504824D01*
X102421662Y-49504824D02*
X102516900Y-49457205D01*
X102516900Y-49457205D02*
X102564520Y-49409586D01*
X102564520Y-49409586D02*
X102612139Y-49314348D01*
X102612139Y-49314348D02*
X102612139Y-49076253D01*
X102612139Y-49076253D02*
X102564520Y-48981015D01*
X102564520Y-48981015D02*
X102516900Y-48933396D01*
%TO.C,D11*%
X135632719Y-77984404D02*
X134632719Y-77984404D01*
X134632719Y-77984404D02*
X134632719Y-78222499D01*
X134632719Y-78222499D02*
X134680338Y-78365356D01*
X134680338Y-78365356D02*
X134775576Y-78460594D01*
X134775576Y-78460594D02*
X134870814Y-78508213D01*
X134870814Y-78508213D02*
X135061290Y-78555832D01*
X135061290Y-78555832D02*
X135204147Y-78555832D01*
X135204147Y-78555832D02*
X135394623Y-78508213D01*
X135394623Y-78508213D02*
X135489861Y-78460594D01*
X135489861Y-78460594D02*
X135585100Y-78365356D01*
X135585100Y-78365356D02*
X135632719Y-78222499D01*
X135632719Y-78222499D02*
X135632719Y-77984404D01*
X135632719Y-79508213D02*
X135632719Y-78936785D01*
X135632719Y-79222499D02*
X134632719Y-79222499D01*
X134632719Y-79222499D02*
X134775576Y-79127261D01*
X134775576Y-79127261D02*
X134870814Y-79032023D01*
X134870814Y-79032023D02*
X134918433Y-78936785D01*
X135632719Y-80460594D02*
X135632719Y-79889166D01*
X135632719Y-80174880D02*
X134632719Y-80174880D01*
X134632719Y-80174880D02*
X134775576Y-80079642D01*
X134775576Y-80079642D02*
X134870814Y-79984404D01*
X134870814Y-79984404D02*
X134918433Y-79889166D01*
%TO.C,D19*%
X102612719Y-88144404D02*
X101612719Y-88144404D01*
X101612719Y-88144404D02*
X101612719Y-88382499D01*
X101612719Y-88382499D02*
X101660338Y-88525356D01*
X101660338Y-88525356D02*
X101755576Y-88620594D01*
X101755576Y-88620594D02*
X101850814Y-88668213D01*
X101850814Y-88668213D02*
X102041290Y-88715832D01*
X102041290Y-88715832D02*
X102184147Y-88715832D01*
X102184147Y-88715832D02*
X102374623Y-88668213D01*
X102374623Y-88668213D02*
X102469861Y-88620594D01*
X102469861Y-88620594D02*
X102565100Y-88525356D01*
X102565100Y-88525356D02*
X102612719Y-88382499D01*
X102612719Y-88382499D02*
X102612719Y-88144404D01*
X102612719Y-89668213D02*
X102612719Y-89096785D01*
X102612719Y-89382499D02*
X101612719Y-89382499D01*
X101612719Y-89382499D02*
X101755576Y-89287261D01*
X101755576Y-89287261D02*
X101850814Y-89192023D01*
X101850814Y-89192023D02*
X101898433Y-89096785D01*
X102612719Y-90144404D02*
X102612719Y-90334880D01*
X102612719Y-90334880D02*
X102565100Y-90430118D01*
X102565100Y-90430118D02*
X102517480Y-90477737D01*
X102517480Y-90477737D02*
X102374623Y-90572975D01*
X102374623Y-90572975D02*
X102184147Y-90620594D01*
X102184147Y-90620594D02*
X101803195Y-90620594D01*
X101803195Y-90620594D02*
X101707957Y-90572975D01*
X101707957Y-90572975D02*
X101660338Y-90525356D01*
X101660338Y-90525356D02*
X101612719Y-90430118D01*
X101612719Y-90430118D02*
X101612719Y-90239642D01*
X101612719Y-90239642D02*
X101660338Y-90144404D01*
X101660338Y-90144404D02*
X101707957Y-90096785D01*
X101707957Y-90096785D02*
X101803195Y-90049166D01*
X101803195Y-90049166D02*
X102041290Y-90049166D01*
X102041290Y-90049166D02*
X102136528Y-90096785D01*
X102136528Y-90096785D02*
X102184147Y-90144404D01*
X102184147Y-90144404D02*
X102231766Y-90239642D01*
X102231766Y-90239642D02*
X102231766Y-90430118D01*
X102231766Y-90430118D02*
X102184147Y-90525356D01*
X102184147Y-90525356D02*
X102136528Y-90572975D01*
X102136528Y-90572975D02*
X102041290Y-90620594D01*
%TO.C,D13*%
X135755219Y-57531904D02*
X134755219Y-57531904D01*
X134755219Y-57531904D02*
X134755219Y-57769999D01*
X134755219Y-57769999D02*
X134802838Y-57912856D01*
X134802838Y-57912856D02*
X134898076Y-58008094D01*
X134898076Y-58008094D02*
X134993314Y-58055713D01*
X134993314Y-58055713D02*
X135183790Y-58103332D01*
X135183790Y-58103332D02*
X135326647Y-58103332D01*
X135326647Y-58103332D02*
X135517123Y-58055713D01*
X135517123Y-58055713D02*
X135612361Y-58008094D01*
X135612361Y-58008094D02*
X135707600Y-57912856D01*
X135707600Y-57912856D02*
X135755219Y-57769999D01*
X135755219Y-57769999D02*
X135755219Y-57531904D01*
X135755219Y-59055713D02*
X135755219Y-58484285D01*
X135755219Y-58769999D02*
X134755219Y-58769999D01*
X134755219Y-58769999D02*
X134898076Y-58674761D01*
X134898076Y-58674761D02*
X134993314Y-58579523D01*
X134993314Y-58579523D02*
X135040933Y-58484285D01*
X134755219Y-59389047D02*
X134755219Y-60008094D01*
X134755219Y-60008094D02*
X135136171Y-59674761D01*
X135136171Y-59674761D02*
X135136171Y-59817618D01*
X135136171Y-59817618D02*
X135183790Y-59912856D01*
X135183790Y-59912856D02*
X135231409Y-59960475D01*
X135231409Y-59960475D02*
X135326647Y-60008094D01*
X135326647Y-60008094D02*
X135564742Y-60008094D01*
X135564742Y-60008094D02*
X135659980Y-59960475D01*
X135659980Y-59960475D02*
X135707600Y-59912856D01*
X135707600Y-59912856D02*
X135755219Y-59817618D01*
X135755219Y-59817618D02*
X135755219Y-59531904D01*
X135755219Y-59531904D02*
X135707600Y-59436666D01*
X135707600Y-59436666D02*
X135659980Y-59389047D01*
%TO.C,R10*%
X72691219Y-103188332D02*
X72215028Y-102854999D01*
X72691219Y-102616904D02*
X71691219Y-102616904D01*
X71691219Y-102616904D02*
X71691219Y-102997856D01*
X71691219Y-102997856D02*
X71738838Y-103093094D01*
X71738838Y-103093094D02*
X71786457Y-103140713D01*
X71786457Y-103140713D02*
X71881695Y-103188332D01*
X71881695Y-103188332D02*
X72024552Y-103188332D01*
X72024552Y-103188332D02*
X72119790Y-103140713D01*
X72119790Y-103140713D02*
X72167409Y-103093094D01*
X72167409Y-103093094D02*
X72215028Y-102997856D01*
X72215028Y-102997856D02*
X72215028Y-102616904D01*
X72691219Y-104140713D02*
X72691219Y-103569285D01*
X72691219Y-103854999D02*
X71691219Y-103854999D01*
X71691219Y-103854999D02*
X71834076Y-103759761D01*
X71834076Y-103759761D02*
X71929314Y-103664523D01*
X71929314Y-103664523D02*
X71976933Y-103569285D01*
X71691219Y-104759761D02*
X71691219Y-104854999D01*
X71691219Y-104854999D02*
X71738838Y-104950237D01*
X71738838Y-104950237D02*
X71786457Y-104997856D01*
X71786457Y-104997856D02*
X71881695Y-105045475D01*
X71881695Y-105045475D02*
X72072171Y-105093094D01*
X72072171Y-105093094D02*
X72310266Y-105093094D01*
X72310266Y-105093094D02*
X72500742Y-105045475D01*
X72500742Y-105045475D02*
X72595980Y-104997856D01*
X72595980Y-104997856D02*
X72643600Y-104950237D01*
X72643600Y-104950237D02*
X72691219Y-104854999D01*
X72691219Y-104854999D02*
X72691219Y-104759761D01*
X72691219Y-104759761D02*
X72643600Y-104664523D01*
X72643600Y-104664523D02*
X72595980Y-104616904D01*
X72595980Y-104616904D02*
X72500742Y-104569285D01*
X72500742Y-104569285D02*
X72310266Y-104521666D01*
X72310266Y-104521666D02*
X72072171Y-104521666D01*
X72072171Y-104521666D02*
X71881695Y-104569285D01*
X71881695Y-104569285D02*
X71786457Y-104616904D01*
X71786457Y-104616904D02*
X71738838Y-104664523D01*
X71738838Y-104664523D02*
X71691219Y-104759761D01*
%TO.C,D18*%
X86102719Y-77984404D02*
X85102719Y-77984404D01*
X85102719Y-77984404D02*
X85102719Y-78222499D01*
X85102719Y-78222499D02*
X85150338Y-78365356D01*
X85150338Y-78365356D02*
X85245576Y-78460594D01*
X85245576Y-78460594D02*
X85340814Y-78508213D01*
X85340814Y-78508213D02*
X85531290Y-78555832D01*
X85531290Y-78555832D02*
X85674147Y-78555832D01*
X85674147Y-78555832D02*
X85864623Y-78508213D01*
X85864623Y-78508213D02*
X85959861Y-78460594D01*
X85959861Y-78460594D02*
X86055100Y-78365356D01*
X86055100Y-78365356D02*
X86102719Y-78222499D01*
X86102719Y-78222499D02*
X86102719Y-77984404D01*
X86102719Y-79508213D02*
X86102719Y-78936785D01*
X86102719Y-79222499D02*
X85102719Y-79222499D01*
X85102719Y-79222499D02*
X85245576Y-79127261D01*
X85245576Y-79127261D02*
X85340814Y-79032023D01*
X85340814Y-79032023D02*
X85388433Y-78936785D01*
X85531290Y-80079642D02*
X85483671Y-79984404D01*
X85483671Y-79984404D02*
X85436052Y-79936785D01*
X85436052Y-79936785D02*
X85340814Y-79889166D01*
X85340814Y-79889166D02*
X85293195Y-79889166D01*
X85293195Y-79889166D02*
X85197957Y-79936785D01*
X85197957Y-79936785D02*
X85150338Y-79984404D01*
X85150338Y-79984404D02*
X85102719Y-80079642D01*
X85102719Y-80079642D02*
X85102719Y-80270118D01*
X85102719Y-80270118D02*
X85150338Y-80365356D01*
X85150338Y-80365356D02*
X85197957Y-80412975D01*
X85197957Y-80412975D02*
X85293195Y-80460594D01*
X85293195Y-80460594D02*
X85340814Y-80460594D01*
X85340814Y-80460594D02*
X85436052Y-80412975D01*
X85436052Y-80412975D02*
X85483671Y-80365356D01*
X85483671Y-80365356D02*
X85531290Y-80270118D01*
X85531290Y-80270118D02*
X85531290Y-80079642D01*
X85531290Y-80079642D02*
X85578909Y-79984404D01*
X85578909Y-79984404D02*
X85626528Y-79936785D01*
X85626528Y-79936785D02*
X85721766Y-79889166D01*
X85721766Y-79889166D02*
X85912242Y-79889166D01*
X85912242Y-79889166D02*
X86007480Y-79936785D01*
X86007480Y-79936785D02*
X86055100Y-79984404D01*
X86055100Y-79984404D02*
X86102719Y-80079642D01*
X86102719Y-80079642D02*
X86102719Y-80270118D01*
X86102719Y-80270118D02*
X86055100Y-80365356D01*
X86055100Y-80365356D02*
X86007480Y-80412975D01*
X86007480Y-80412975D02*
X85912242Y-80460594D01*
X85912242Y-80460594D02*
X85721766Y-80460594D01*
X85721766Y-80460594D02*
X85626528Y-80412975D01*
X85626528Y-80412975D02*
X85578909Y-80365356D01*
X85578909Y-80365356D02*
X85531290Y-80270118D01*
%TO.C,R5*%
X67695219Y-55404523D02*
X67219028Y-55071190D01*
X67695219Y-54833095D02*
X66695219Y-54833095D01*
X66695219Y-54833095D02*
X66695219Y-55214047D01*
X66695219Y-55214047D02*
X66742838Y-55309285D01*
X66742838Y-55309285D02*
X66790457Y-55356904D01*
X66790457Y-55356904D02*
X66885695Y-55404523D01*
X66885695Y-55404523D02*
X67028552Y-55404523D01*
X67028552Y-55404523D02*
X67123790Y-55356904D01*
X67123790Y-55356904D02*
X67171409Y-55309285D01*
X67171409Y-55309285D02*
X67219028Y-55214047D01*
X67219028Y-55214047D02*
X67219028Y-54833095D01*
X66695219Y-56309285D02*
X66695219Y-55833095D01*
X66695219Y-55833095D02*
X67171409Y-55785476D01*
X67171409Y-55785476D02*
X67123790Y-55833095D01*
X67123790Y-55833095D02*
X67076171Y-55928333D01*
X67076171Y-55928333D02*
X67076171Y-56166428D01*
X67076171Y-56166428D02*
X67123790Y-56261666D01*
X67123790Y-56261666D02*
X67171409Y-56309285D01*
X67171409Y-56309285D02*
X67266647Y-56356904D01*
X67266647Y-56356904D02*
X67504742Y-56356904D01*
X67504742Y-56356904D02*
X67599980Y-56309285D01*
X67599980Y-56309285D02*
X67647600Y-56261666D01*
X67647600Y-56261666D02*
X67695219Y-56166428D01*
X67695219Y-56166428D02*
X67695219Y-55928333D01*
X67695219Y-55928333D02*
X67647600Y-55833095D01*
X67647600Y-55833095D02*
X67599980Y-55785476D01*
%TO.C,D15*%
X86102719Y-57664404D02*
X85102719Y-57664404D01*
X85102719Y-57664404D02*
X85102719Y-57902499D01*
X85102719Y-57902499D02*
X85150338Y-58045356D01*
X85150338Y-58045356D02*
X85245576Y-58140594D01*
X85245576Y-58140594D02*
X85340814Y-58188213D01*
X85340814Y-58188213D02*
X85531290Y-58235832D01*
X85531290Y-58235832D02*
X85674147Y-58235832D01*
X85674147Y-58235832D02*
X85864623Y-58188213D01*
X85864623Y-58188213D02*
X85959861Y-58140594D01*
X85959861Y-58140594D02*
X86055100Y-58045356D01*
X86055100Y-58045356D02*
X86102719Y-57902499D01*
X86102719Y-57902499D02*
X86102719Y-57664404D01*
X86102719Y-59188213D02*
X86102719Y-58616785D01*
X86102719Y-58902499D02*
X85102719Y-58902499D01*
X85102719Y-58902499D02*
X85245576Y-58807261D01*
X85245576Y-58807261D02*
X85340814Y-58712023D01*
X85340814Y-58712023D02*
X85388433Y-58616785D01*
X85102719Y-60092975D02*
X85102719Y-59616785D01*
X85102719Y-59616785D02*
X85578909Y-59569166D01*
X85578909Y-59569166D02*
X85531290Y-59616785D01*
X85531290Y-59616785D02*
X85483671Y-59712023D01*
X85483671Y-59712023D02*
X85483671Y-59950118D01*
X85483671Y-59950118D02*
X85531290Y-60045356D01*
X85531290Y-60045356D02*
X85578909Y-60092975D01*
X85578909Y-60092975D02*
X85674147Y-60140594D01*
X85674147Y-60140594D02*
X85912242Y-60140594D01*
X85912242Y-60140594D02*
X86007480Y-60092975D01*
X86007480Y-60092975D02*
X86055100Y-60045356D01*
X86055100Y-60045356D02*
X86102719Y-59950118D01*
X86102719Y-59950118D02*
X86102719Y-59712023D01*
X86102719Y-59712023D02*
X86055100Y-59616785D01*
X86055100Y-59616785D02*
X86007480Y-59569166D01*
%TO.C,R11*%
X62785219Y-103188332D02*
X62309028Y-102854999D01*
X62785219Y-102616904D02*
X61785219Y-102616904D01*
X61785219Y-102616904D02*
X61785219Y-102997856D01*
X61785219Y-102997856D02*
X61832838Y-103093094D01*
X61832838Y-103093094D02*
X61880457Y-103140713D01*
X61880457Y-103140713D02*
X61975695Y-103188332D01*
X61975695Y-103188332D02*
X62118552Y-103188332D01*
X62118552Y-103188332D02*
X62213790Y-103140713D01*
X62213790Y-103140713D02*
X62261409Y-103093094D01*
X62261409Y-103093094D02*
X62309028Y-102997856D01*
X62309028Y-102997856D02*
X62309028Y-102616904D01*
X62785219Y-104140713D02*
X62785219Y-103569285D01*
X62785219Y-103854999D02*
X61785219Y-103854999D01*
X61785219Y-103854999D02*
X61928076Y-103759761D01*
X61928076Y-103759761D02*
X62023314Y-103664523D01*
X62023314Y-103664523D02*
X62070933Y-103569285D01*
X62785219Y-105093094D02*
X62785219Y-104521666D01*
X62785219Y-104807380D02*
X61785219Y-104807380D01*
X61785219Y-104807380D02*
X61928076Y-104712142D01*
X61928076Y-104712142D02*
X62023314Y-104616904D01*
X62023314Y-104616904D02*
X62070933Y-104521666D01*
%TO.C,D21*%
X135510219Y-98304404D02*
X134510219Y-98304404D01*
X134510219Y-98304404D02*
X134510219Y-98542499D01*
X134510219Y-98542499D02*
X134557838Y-98685356D01*
X134557838Y-98685356D02*
X134653076Y-98780594D01*
X134653076Y-98780594D02*
X134748314Y-98828213D01*
X134748314Y-98828213D02*
X134938790Y-98875832D01*
X134938790Y-98875832D02*
X135081647Y-98875832D01*
X135081647Y-98875832D02*
X135272123Y-98828213D01*
X135272123Y-98828213D02*
X135367361Y-98780594D01*
X135367361Y-98780594D02*
X135462600Y-98685356D01*
X135462600Y-98685356D02*
X135510219Y-98542499D01*
X135510219Y-98542499D02*
X135510219Y-98304404D01*
X134605457Y-99256785D02*
X134557838Y-99304404D01*
X134557838Y-99304404D02*
X134510219Y-99399642D01*
X134510219Y-99399642D02*
X134510219Y-99637737D01*
X134510219Y-99637737D02*
X134557838Y-99732975D01*
X134557838Y-99732975D02*
X134605457Y-99780594D01*
X134605457Y-99780594D02*
X134700695Y-99828213D01*
X134700695Y-99828213D02*
X134795933Y-99828213D01*
X134795933Y-99828213D02*
X134938790Y-99780594D01*
X134938790Y-99780594D02*
X135510219Y-99209166D01*
X135510219Y-99209166D02*
X135510219Y-99828213D01*
X135510219Y-100780594D02*
X135510219Y-100209166D01*
X135510219Y-100494880D02*
X134510219Y-100494880D01*
X134510219Y-100494880D02*
X134653076Y-100399642D01*
X134653076Y-100399642D02*
X134748314Y-100304404D01*
X134748314Y-100304404D02*
X134795933Y-100209166D01*
%TO.C,R8*%
X57705219Y-80804523D02*
X57229028Y-80471190D01*
X57705219Y-80233095D02*
X56705219Y-80233095D01*
X56705219Y-80233095D02*
X56705219Y-80614047D01*
X56705219Y-80614047D02*
X56752838Y-80709285D01*
X56752838Y-80709285D02*
X56800457Y-80756904D01*
X56800457Y-80756904D02*
X56895695Y-80804523D01*
X56895695Y-80804523D02*
X57038552Y-80804523D01*
X57038552Y-80804523D02*
X57133790Y-80756904D01*
X57133790Y-80756904D02*
X57181409Y-80709285D01*
X57181409Y-80709285D02*
X57229028Y-80614047D01*
X57229028Y-80614047D02*
X57229028Y-80233095D01*
X57133790Y-81375952D02*
X57086171Y-81280714D01*
X57086171Y-81280714D02*
X57038552Y-81233095D01*
X57038552Y-81233095D02*
X56943314Y-81185476D01*
X56943314Y-81185476D02*
X56895695Y-81185476D01*
X56895695Y-81185476D02*
X56800457Y-81233095D01*
X56800457Y-81233095D02*
X56752838Y-81280714D01*
X56752838Y-81280714D02*
X56705219Y-81375952D01*
X56705219Y-81375952D02*
X56705219Y-81566428D01*
X56705219Y-81566428D02*
X56752838Y-81661666D01*
X56752838Y-81661666D02*
X56800457Y-81709285D01*
X56800457Y-81709285D02*
X56895695Y-81756904D01*
X56895695Y-81756904D02*
X56943314Y-81756904D01*
X56943314Y-81756904D02*
X57038552Y-81709285D01*
X57038552Y-81709285D02*
X57086171Y-81661666D01*
X57086171Y-81661666D02*
X57133790Y-81566428D01*
X57133790Y-81566428D02*
X57133790Y-81375952D01*
X57133790Y-81375952D02*
X57181409Y-81280714D01*
X57181409Y-81280714D02*
X57229028Y-81233095D01*
X57229028Y-81233095D02*
X57324266Y-81185476D01*
X57324266Y-81185476D02*
X57514742Y-81185476D01*
X57514742Y-81185476D02*
X57609980Y-81233095D01*
X57609980Y-81233095D02*
X57657600Y-81280714D01*
X57657600Y-81280714D02*
X57705219Y-81375952D01*
X57705219Y-81375952D02*
X57705219Y-81566428D01*
X57705219Y-81566428D02*
X57657600Y-81661666D01*
X57657600Y-81661666D02*
X57609980Y-81709285D01*
X57609980Y-81709285D02*
X57514742Y-81756904D01*
X57514742Y-81756904D02*
X57324266Y-81756904D01*
X57324266Y-81756904D02*
X57229028Y-81709285D01*
X57229028Y-81709285D02*
X57181409Y-81661666D01*
X57181409Y-81661666D02*
X57133790Y-81566428D01*
%TO.C,D3*%
X102612139Y-68300625D02*
X101612139Y-68300625D01*
X101612139Y-68300625D02*
X101612139Y-68538720D01*
X101612139Y-68538720D02*
X101659758Y-68681577D01*
X101659758Y-68681577D02*
X101754996Y-68776815D01*
X101754996Y-68776815D02*
X101850234Y-68824434D01*
X101850234Y-68824434D02*
X102040710Y-68872053D01*
X102040710Y-68872053D02*
X102183567Y-68872053D01*
X102183567Y-68872053D02*
X102374043Y-68824434D01*
X102374043Y-68824434D02*
X102469281Y-68776815D01*
X102469281Y-68776815D02*
X102564520Y-68681577D01*
X102564520Y-68681577D02*
X102612139Y-68538720D01*
X102612139Y-68538720D02*
X102612139Y-68300625D01*
X101612139Y-69205387D02*
X101612139Y-69824434D01*
X101612139Y-69824434D02*
X101993091Y-69491101D01*
X101993091Y-69491101D02*
X101993091Y-69633958D01*
X101993091Y-69633958D02*
X102040710Y-69729196D01*
X102040710Y-69729196D02*
X102088329Y-69776815D01*
X102088329Y-69776815D02*
X102183567Y-69824434D01*
X102183567Y-69824434D02*
X102421662Y-69824434D01*
X102421662Y-69824434D02*
X102516900Y-69776815D01*
X102516900Y-69776815D02*
X102564520Y-69729196D01*
X102564520Y-69729196D02*
X102612139Y-69633958D01*
X102612139Y-69633958D02*
X102612139Y-69348244D01*
X102612139Y-69348244D02*
X102564520Y-69253006D01*
X102564520Y-69253006D02*
X102516900Y-69205387D01*
%TO.C,D7*%
X119122719Y-78460595D02*
X118122719Y-78460595D01*
X118122719Y-78460595D02*
X118122719Y-78698690D01*
X118122719Y-78698690D02*
X118170338Y-78841547D01*
X118170338Y-78841547D02*
X118265576Y-78936785D01*
X118265576Y-78936785D02*
X118360814Y-78984404D01*
X118360814Y-78984404D02*
X118551290Y-79032023D01*
X118551290Y-79032023D02*
X118694147Y-79032023D01*
X118694147Y-79032023D02*
X118884623Y-78984404D01*
X118884623Y-78984404D02*
X118979861Y-78936785D01*
X118979861Y-78936785D02*
X119075100Y-78841547D01*
X119075100Y-78841547D02*
X119122719Y-78698690D01*
X119122719Y-78698690D02*
X119122719Y-78460595D01*
X118122719Y-79365357D02*
X118122719Y-80032023D01*
X118122719Y-80032023D02*
X119122719Y-79603452D01*
%TO.C,D14*%
X135755219Y-47371904D02*
X134755219Y-47371904D01*
X134755219Y-47371904D02*
X134755219Y-47609999D01*
X134755219Y-47609999D02*
X134802838Y-47752856D01*
X134802838Y-47752856D02*
X134898076Y-47848094D01*
X134898076Y-47848094D02*
X134993314Y-47895713D01*
X134993314Y-47895713D02*
X135183790Y-47943332D01*
X135183790Y-47943332D02*
X135326647Y-47943332D01*
X135326647Y-47943332D02*
X135517123Y-47895713D01*
X135517123Y-47895713D02*
X135612361Y-47848094D01*
X135612361Y-47848094D02*
X135707600Y-47752856D01*
X135707600Y-47752856D02*
X135755219Y-47609999D01*
X135755219Y-47609999D02*
X135755219Y-47371904D01*
X135755219Y-48895713D02*
X135755219Y-48324285D01*
X135755219Y-48609999D02*
X134755219Y-48609999D01*
X134755219Y-48609999D02*
X134898076Y-48514761D01*
X134898076Y-48514761D02*
X134993314Y-48419523D01*
X134993314Y-48419523D02*
X135040933Y-48324285D01*
X135088552Y-49752856D02*
X135755219Y-49752856D01*
X134707600Y-49514761D02*
X135421885Y-49276666D01*
X135421885Y-49276666D02*
X135421885Y-49895713D01*
%TO.C,D16*%
X86102719Y-47482324D02*
X85102719Y-47482324D01*
X85102719Y-47482324D02*
X85102719Y-47720419D01*
X85102719Y-47720419D02*
X85150338Y-47863276D01*
X85150338Y-47863276D02*
X85245576Y-47958514D01*
X85245576Y-47958514D02*
X85340814Y-48006133D01*
X85340814Y-48006133D02*
X85531290Y-48053752D01*
X85531290Y-48053752D02*
X85674147Y-48053752D01*
X85674147Y-48053752D02*
X85864623Y-48006133D01*
X85864623Y-48006133D02*
X85959861Y-47958514D01*
X85959861Y-47958514D02*
X86055100Y-47863276D01*
X86055100Y-47863276D02*
X86102719Y-47720419D01*
X86102719Y-47720419D02*
X86102719Y-47482324D01*
X86102719Y-49006133D02*
X86102719Y-48434705D01*
X86102719Y-48720419D02*
X85102719Y-48720419D01*
X85102719Y-48720419D02*
X85245576Y-48625181D01*
X85245576Y-48625181D02*
X85340814Y-48529943D01*
X85340814Y-48529943D02*
X85388433Y-48434705D01*
X85102719Y-49863276D02*
X85102719Y-49672800D01*
X85102719Y-49672800D02*
X85150338Y-49577562D01*
X85150338Y-49577562D02*
X85197957Y-49529943D01*
X85197957Y-49529943D02*
X85340814Y-49434705D01*
X85340814Y-49434705D02*
X85531290Y-49387086D01*
X85531290Y-49387086D02*
X85912242Y-49387086D01*
X85912242Y-49387086D02*
X86007480Y-49434705D01*
X86007480Y-49434705D02*
X86055100Y-49482324D01*
X86055100Y-49482324D02*
X86102719Y-49577562D01*
X86102719Y-49577562D02*
X86102719Y-49768038D01*
X86102719Y-49768038D02*
X86055100Y-49863276D01*
X86055100Y-49863276D02*
X86007480Y-49910895D01*
X86007480Y-49910895D02*
X85912242Y-49958514D01*
X85912242Y-49958514D02*
X85674147Y-49958514D01*
X85674147Y-49958514D02*
X85578909Y-49910895D01*
X85578909Y-49910895D02*
X85531290Y-49863276D01*
X85531290Y-49863276D02*
X85483671Y-49768038D01*
X85483671Y-49768038D02*
X85483671Y-49577562D01*
X85483671Y-49577562D02*
X85531290Y-49482324D01*
X85531290Y-49482324D02*
X85578909Y-49434705D01*
X85578909Y-49434705D02*
X85674147Y-49387086D01*
%TO.C,R3*%
X72945219Y-80804523D02*
X72469028Y-80471190D01*
X72945219Y-80233095D02*
X71945219Y-80233095D01*
X71945219Y-80233095D02*
X71945219Y-80614047D01*
X71945219Y-80614047D02*
X71992838Y-80709285D01*
X71992838Y-80709285D02*
X72040457Y-80756904D01*
X72040457Y-80756904D02*
X72135695Y-80804523D01*
X72135695Y-80804523D02*
X72278552Y-80804523D01*
X72278552Y-80804523D02*
X72373790Y-80756904D01*
X72373790Y-80756904D02*
X72421409Y-80709285D01*
X72421409Y-80709285D02*
X72469028Y-80614047D01*
X72469028Y-80614047D02*
X72469028Y-80233095D01*
X71945219Y-81137857D02*
X71945219Y-81756904D01*
X71945219Y-81756904D02*
X72326171Y-81423571D01*
X72326171Y-81423571D02*
X72326171Y-81566428D01*
X72326171Y-81566428D02*
X72373790Y-81661666D01*
X72373790Y-81661666D02*
X72421409Y-81709285D01*
X72421409Y-81709285D02*
X72516647Y-81756904D01*
X72516647Y-81756904D02*
X72754742Y-81756904D01*
X72754742Y-81756904D02*
X72849980Y-81709285D01*
X72849980Y-81709285D02*
X72897600Y-81661666D01*
X72897600Y-81661666D02*
X72945219Y-81566428D01*
X72945219Y-81566428D02*
X72945219Y-81280714D01*
X72945219Y-81280714D02*
X72897600Y-81185476D01*
X72897600Y-81185476D02*
X72849980Y-81137857D01*
%TO.C,D6*%
X135632719Y-88620595D02*
X134632719Y-88620595D01*
X134632719Y-88620595D02*
X134632719Y-88858690D01*
X134632719Y-88858690D02*
X134680338Y-89001547D01*
X134680338Y-89001547D02*
X134775576Y-89096785D01*
X134775576Y-89096785D02*
X134870814Y-89144404D01*
X134870814Y-89144404D02*
X135061290Y-89192023D01*
X135061290Y-89192023D02*
X135204147Y-89192023D01*
X135204147Y-89192023D02*
X135394623Y-89144404D01*
X135394623Y-89144404D02*
X135489861Y-89096785D01*
X135489861Y-89096785D02*
X135585100Y-89001547D01*
X135585100Y-89001547D02*
X135632719Y-88858690D01*
X135632719Y-88858690D02*
X135632719Y-88620595D01*
X134632719Y-90049166D02*
X134632719Y-89858690D01*
X134632719Y-89858690D02*
X134680338Y-89763452D01*
X134680338Y-89763452D02*
X134727957Y-89715833D01*
X134727957Y-89715833D02*
X134870814Y-89620595D01*
X134870814Y-89620595D02*
X135061290Y-89572976D01*
X135061290Y-89572976D02*
X135442242Y-89572976D01*
X135442242Y-89572976D02*
X135537480Y-89620595D01*
X135537480Y-89620595D02*
X135585100Y-89668214D01*
X135585100Y-89668214D02*
X135632719Y-89763452D01*
X135632719Y-89763452D02*
X135632719Y-89953928D01*
X135632719Y-89953928D02*
X135585100Y-90049166D01*
X135585100Y-90049166D02*
X135537480Y-90096785D01*
X135537480Y-90096785D02*
X135442242Y-90144404D01*
X135442242Y-90144404D02*
X135204147Y-90144404D01*
X135204147Y-90144404D02*
X135108909Y-90096785D01*
X135108909Y-90096785D02*
X135061290Y-90049166D01*
X135061290Y-90049166D02*
X135013671Y-89953928D01*
X135013671Y-89953928D02*
X135013671Y-89763452D01*
X135013671Y-89763452D02*
X135061290Y-89668214D01*
X135061290Y-89668214D02*
X135108909Y-89620595D01*
X135108909Y-89620595D02*
X135204147Y-89572976D01*
%TO.C,D12*%
X135755219Y-67691904D02*
X134755219Y-67691904D01*
X134755219Y-67691904D02*
X134755219Y-67929999D01*
X134755219Y-67929999D02*
X134802838Y-68072856D01*
X134802838Y-68072856D02*
X134898076Y-68168094D01*
X134898076Y-68168094D02*
X134993314Y-68215713D01*
X134993314Y-68215713D02*
X135183790Y-68263332D01*
X135183790Y-68263332D02*
X135326647Y-68263332D01*
X135326647Y-68263332D02*
X135517123Y-68215713D01*
X135517123Y-68215713D02*
X135612361Y-68168094D01*
X135612361Y-68168094D02*
X135707600Y-68072856D01*
X135707600Y-68072856D02*
X135755219Y-67929999D01*
X135755219Y-67929999D02*
X135755219Y-67691904D01*
X135755219Y-69215713D02*
X135755219Y-68644285D01*
X135755219Y-68929999D02*
X134755219Y-68929999D01*
X134755219Y-68929999D02*
X134898076Y-68834761D01*
X134898076Y-68834761D02*
X134993314Y-68739523D01*
X134993314Y-68739523D02*
X135040933Y-68644285D01*
X134850457Y-69596666D02*
X134802838Y-69644285D01*
X134802838Y-69644285D02*
X134755219Y-69739523D01*
X134755219Y-69739523D02*
X134755219Y-69977618D01*
X134755219Y-69977618D02*
X134802838Y-70072856D01*
X134802838Y-70072856D02*
X134850457Y-70120475D01*
X134850457Y-70120475D02*
X134945695Y-70168094D01*
X134945695Y-70168094D02*
X135040933Y-70168094D01*
X135040933Y-70168094D02*
X135183790Y-70120475D01*
X135183790Y-70120475D02*
X135755219Y-69549047D01*
X135755219Y-69549047D02*
X135755219Y-70168094D01*
%TO.C,D4*%
X102612139Y-58130820D02*
X101612139Y-58130820D01*
X101612139Y-58130820D02*
X101612139Y-58368915D01*
X101612139Y-58368915D02*
X101659758Y-58511772D01*
X101659758Y-58511772D02*
X101754996Y-58607010D01*
X101754996Y-58607010D02*
X101850234Y-58654629D01*
X101850234Y-58654629D02*
X102040710Y-58702248D01*
X102040710Y-58702248D02*
X102183567Y-58702248D01*
X102183567Y-58702248D02*
X102374043Y-58654629D01*
X102374043Y-58654629D02*
X102469281Y-58607010D01*
X102469281Y-58607010D02*
X102564520Y-58511772D01*
X102564520Y-58511772D02*
X102612139Y-58368915D01*
X102612139Y-58368915D02*
X102612139Y-58130820D01*
X101945472Y-59559391D02*
X102612139Y-59559391D01*
X101564520Y-59321296D02*
X102278805Y-59083201D01*
X102278805Y-59083201D02*
X102278805Y-59702248D01*
%TO.C,D2*%
X102612139Y-78460430D02*
X101612139Y-78460430D01*
X101612139Y-78460430D02*
X101612139Y-78698525D01*
X101612139Y-78698525D02*
X101659758Y-78841382D01*
X101659758Y-78841382D02*
X101754996Y-78936620D01*
X101754996Y-78936620D02*
X101850234Y-78984239D01*
X101850234Y-78984239D02*
X102040710Y-79031858D01*
X102040710Y-79031858D02*
X102183567Y-79031858D01*
X102183567Y-79031858D02*
X102374043Y-78984239D01*
X102374043Y-78984239D02*
X102469281Y-78936620D01*
X102469281Y-78936620D02*
X102564520Y-78841382D01*
X102564520Y-78841382D02*
X102612139Y-78698525D01*
X102612139Y-78698525D02*
X102612139Y-78460430D01*
X101707377Y-79412811D02*
X101659758Y-79460430D01*
X101659758Y-79460430D02*
X101612139Y-79555668D01*
X101612139Y-79555668D02*
X101612139Y-79793763D01*
X101612139Y-79793763D02*
X101659758Y-79889001D01*
X101659758Y-79889001D02*
X101707377Y-79936620D01*
X101707377Y-79936620D02*
X101802615Y-79984239D01*
X101802615Y-79984239D02*
X101897853Y-79984239D01*
X101897853Y-79984239D02*
X102040710Y-79936620D01*
X102040710Y-79936620D02*
X102612139Y-79365192D01*
X102612139Y-79365192D02*
X102612139Y-79984239D01*
%TO.C,D1*%
X119122139Y-88620235D02*
X118122139Y-88620235D01*
X118122139Y-88620235D02*
X118122139Y-88858330D01*
X118122139Y-88858330D02*
X118169758Y-89001187D01*
X118169758Y-89001187D02*
X118264996Y-89096425D01*
X118264996Y-89096425D02*
X118360234Y-89144044D01*
X118360234Y-89144044D02*
X118550710Y-89191663D01*
X118550710Y-89191663D02*
X118693567Y-89191663D01*
X118693567Y-89191663D02*
X118884043Y-89144044D01*
X118884043Y-89144044D02*
X118979281Y-89096425D01*
X118979281Y-89096425D02*
X119074520Y-89001187D01*
X119074520Y-89001187D02*
X119122139Y-88858330D01*
X119122139Y-88858330D02*
X119122139Y-88620235D01*
X119122139Y-90144044D02*
X119122139Y-89572616D01*
X119122139Y-89858330D02*
X118122139Y-89858330D01*
X118122139Y-89858330D02*
X118264996Y-89763092D01*
X118264996Y-89763092D02*
X118360234Y-89667854D01*
X118360234Y-89667854D02*
X118407853Y-89572616D01*
%TO.C,D10*%
X119122719Y-47504404D02*
X118122719Y-47504404D01*
X118122719Y-47504404D02*
X118122719Y-47742499D01*
X118122719Y-47742499D02*
X118170338Y-47885356D01*
X118170338Y-47885356D02*
X118265576Y-47980594D01*
X118265576Y-47980594D02*
X118360814Y-48028213D01*
X118360814Y-48028213D02*
X118551290Y-48075832D01*
X118551290Y-48075832D02*
X118694147Y-48075832D01*
X118694147Y-48075832D02*
X118884623Y-48028213D01*
X118884623Y-48028213D02*
X118979861Y-47980594D01*
X118979861Y-47980594D02*
X119075100Y-47885356D01*
X119075100Y-47885356D02*
X119122719Y-47742499D01*
X119122719Y-47742499D02*
X119122719Y-47504404D01*
X119122719Y-49028213D02*
X119122719Y-48456785D01*
X119122719Y-48742499D02*
X118122719Y-48742499D01*
X118122719Y-48742499D02*
X118265576Y-48647261D01*
X118265576Y-48647261D02*
X118360814Y-48552023D01*
X118360814Y-48552023D02*
X118408433Y-48456785D01*
X118122719Y-49647261D02*
X118122719Y-49742499D01*
X118122719Y-49742499D02*
X118170338Y-49837737D01*
X118170338Y-49837737D02*
X118217957Y-49885356D01*
X118217957Y-49885356D02*
X118313195Y-49932975D01*
X118313195Y-49932975D02*
X118503671Y-49980594D01*
X118503671Y-49980594D02*
X118741766Y-49980594D01*
X118741766Y-49980594D02*
X118932242Y-49932975D01*
X118932242Y-49932975D02*
X119027480Y-49885356D01*
X119027480Y-49885356D02*
X119075100Y-49837737D01*
X119075100Y-49837737D02*
X119122719Y-49742499D01*
X119122719Y-49742499D02*
X119122719Y-49647261D01*
X119122719Y-49647261D02*
X119075100Y-49552023D01*
X119075100Y-49552023D02*
X119027480Y-49504404D01*
X119027480Y-49504404D02*
X118932242Y-49456785D01*
X118932242Y-49456785D02*
X118741766Y-49409166D01*
X118741766Y-49409166D02*
X118503671Y-49409166D01*
X118503671Y-49409166D02*
X118313195Y-49456785D01*
X118313195Y-49456785D02*
X118217957Y-49504404D01*
X118217957Y-49504404D02*
X118170338Y-49552023D01*
X118170338Y-49552023D02*
X118122719Y-49647261D01*
%TO.C,R7*%
X67865219Y-80804523D02*
X67389028Y-80471190D01*
X67865219Y-80233095D02*
X66865219Y-80233095D01*
X66865219Y-80233095D02*
X66865219Y-80614047D01*
X66865219Y-80614047D02*
X66912838Y-80709285D01*
X66912838Y-80709285D02*
X66960457Y-80756904D01*
X66960457Y-80756904D02*
X67055695Y-80804523D01*
X67055695Y-80804523D02*
X67198552Y-80804523D01*
X67198552Y-80804523D02*
X67293790Y-80756904D01*
X67293790Y-80756904D02*
X67341409Y-80709285D01*
X67341409Y-80709285D02*
X67389028Y-80614047D01*
X67389028Y-80614047D02*
X67389028Y-80233095D01*
X66865219Y-81137857D02*
X66865219Y-81804523D01*
X66865219Y-81804523D02*
X67865219Y-81375952D01*
%TO.C,D8*%
X119122719Y-68300595D02*
X118122719Y-68300595D01*
X118122719Y-68300595D02*
X118122719Y-68538690D01*
X118122719Y-68538690D02*
X118170338Y-68681547D01*
X118170338Y-68681547D02*
X118265576Y-68776785D01*
X118265576Y-68776785D02*
X118360814Y-68824404D01*
X118360814Y-68824404D02*
X118551290Y-68872023D01*
X118551290Y-68872023D02*
X118694147Y-68872023D01*
X118694147Y-68872023D02*
X118884623Y-68824404D01*
X118884623Y-68824404D02*
X118979861Y-68776785D01*
X118979861Y-68776785D02*
X119075100Y-68681547D01*
X119075100Y-68681547D02*
X119122719Y-68538690D01*
X119122719Y-68538690D02*
X119122719Y-68300595D01*
X118551290Y-69443452D02*
X118503671Y-69348214D01*
X118503671Y-69348214D02*
X118456052Y-69300595D01*
X118456052Y-69300595D02*
X118360814Y-69252976D01*
X118360814Y-69252976D02*
X118313195Y-69252976D01*
X118313195Y-69252976D02*
X118217957Y-69300595D01*
X118217957Y-69300595D02*
X118170338Y-69348214D01*
X118170338Y-69348214D02*
X118122719Y-69443452D01*
X118122719Y-69443452D02*
X118122719Y-69633928D01*
X118122719Y-69633928D02*
X118170338Y-69729166D01*
X118170338Y-69729166D02*
X118217957Y-69776785D01*
X118217957Y-69776785D02*
X118313195Y-69824404D01*
X118313195Y-69824404D02*
X118360814Y-69824404D01*
X118360814Y-69824404D02*
X118456052Y-69776785D01*
X118456052Y-69776785D02*
X118503671Y-69729166D01*
X118503671Y-69729166D02*
X118551290Y-69633928D01*
X118551290Y-69633928D02*
X118551290Y-69443452D01*
X118551290Y-69443452D02*
X118598909Y-69348214D01*
X118598909Y-69348214D02*
X118646528Y-69300595D01*
X118646528Y-69300595D02*
X118741766Y-69252976D01*
X118741766Y-69252976D02*
X118932242Y-69252976D01*
X118932242Y-69252976D02*
X119027480Y-69300595D01*
X119027480Y-69300595D02*
X119075100Y-69348214D01*
X119075100Y-69348214D02*
X119122719Y-69443452D01*
X119122719Y-69443452D02*
X119122719Y-69633928D01*
X119122719Y-69633928D02*
X119075100Y-69729166D01*
X119075100Y-69729166D02*
X119027480Y-69776785D01*
X119027480Y-69776785D02*
X118932242Y-69824404D01*
X118932242Y-69824404D02*
X118741766Y-69824404D01*
X118741766Y-69824404D02*
X118646528Y-69776785D01*
X118646528Y-69776785D02*
X118598909Y-69729166D01*
X118598909Y-69729166D02*
X118551290Y-69633928D01*
%TO.C,D20*%
X119000219Y-98304404D02*
X118000219Y-98304404D01*
X118000219Y-98304404D02*
X118000219Y-98542499D01*
X118000219Y-98542499D02*
X118047838Y-98685356D01*
X118047838Y-98685356D02*
X118143076Y-98780594D01*
X118143076Y-98780594D02*
X118238314Y-98828213D01*
X118238314Y-98828213D02*
X118428790Y-98875832D01*
X118428790Y-98875832D02*
X118571647Y-98875832D01*
X118571647Y-98875832D02*
X118762123Y-98828213D01*
X118762123Y-98828213D02*
X118857361Y-98780594D01*
X118857361Y-98780594D02*
X118952600Y-98685356D01*
X118952600Y-98685356D02*
X119000219Y-98542499D01*
X119000219Y-98542499D02*
X119000219Y-98304404D01*
X118095457Y-99256785D02*
X118047838Y-99304404D01*
X118047838Y-99304404D02*
X118000219Y-99399642D01*
X118000219Y-99399642D02*
X118000219Y-99637737D01*
X118000219Y-99637737D02*
X118047838Y-99732975D01*
X118047838Y-99732975D02*
X118095457Y-99780594D01*
X118095457Y-99780594D02*
X118190695Y-99828213D01*
X118190695Y-99828213D02*
X118285933Y-99828213D01*
X118285933Y-99828213D02*
X118428790Y-99780594D01*
X118428790Y-99780594D02*
X119000219Y-99209166D01*
X119000219Y-99209166D02*
X119000219Y-99828213D01*
X118000219Y-100447261D02*
X118000219Y-100542499D01*
X118000219Y-100542499D02*
X118047838Y-100637737D01*
X118047838Y-100637737D02*
X118095457Y-100685356D01*
X118095457Y-100685356D02*
X118190695Y-100732975D01*
X118190695Y-100732975D02*
X118381171Y-100780594D01*
X118381171Y-100780594D02*
X118619266Y-100780594D01*
X118619266Y-100780594D02*
X118809742Y-100732975D01*
X118809742Y-100732975D02*
X118904980Y-100685356D01*
X118904980Y-100685356D02*
X118952600Y-100637737D01*
X118952600Y-100637737D02*
X119000219Y-100542499D01*
X119000219Y-100542499D02*
X119000219Y-100447261D01*
X119000219Y-100447261D02*
X118952600Y-100352023D01*
X118952600Y-100352023D02*
X118904980Y-100304404D01*
X118904980Y-100304404D02*
X118809742Y-100256785D01*
X118809742Y-100256785D02*
X118619266Y-100209166D01*
X118619266Y-100209166D02*
X118381171Y-100209166D01*
X118381171Y-100209166D02*
X118190695Y-100256785D01*
X118190695Y-100256785D02*
X118095457Y-100304404D01*
X118095457Y-100304404D02*
X118047838Y-100352023D01*
X118047838Y-100352023D02*
X118000219Y-100447261D01*
%TO.C,R6*%
X57535219Y-55404523D02*
X57059028Y-55071190D01*
X57535219Y-54833095D02*
X56535219Y-54833095D01*
X56535219Y-54833095D02*
X56535219Y-55214047D01*
X56535219Y-55214047D02*
X56582838Y-55309285D01*
X56582838Y-55309285D02*
X56630457Y-55356904D01*
X56630457Y-55356904D02*
X56725695Y-55404523D01*
X56725695Y-55404523D02*
X56868552Y-55404523D01*
X56868552Y-55404523D02*
X56963790Y-55356904D01*
X56963790Y-55356904D02*
X57011409Y-55309285D01*
X57011409Y-55309285D02*
X57059028Y-55214047D01*
X57059028Y-55214047D02*
X57059028Y-54833095D01*
X56535219Y-56261666D02*
X56535219Y-56071190D01*
X56535219Y-56071190D02*
X56582838Y-55975952D01*
X56582838Y-55975952D02*
X56630457Y-55928333D01*
X56630457Y-55928333D02*
X56773314Y-55833095D01*
X56773314Y-55833095D02*
X56963790Y-55785476D01*
X56963790Y-55785476D02*
X57344742Y-55785476D01*
X57344742Y-55785476D02*
X57439980Y-55833095D01*
X57439980Y-55833095D02*
X57487600Y-55880714D01*
X57487600Y-55880714D02*
X57535219Y-55975952D01*
X57535219Y-55975952D02*
X57535219Y-56166428D01*
X57535219Y-56166428D02*
X57487600Y-56261666D01*
X57487600Y-56261666D02*
X57439980Y-56309285D01*
X57439980Y-56309285D02*
X57344742Y-56356904D01*
X57344742Y-56356904D02*
X57106647Y-56356904D01*
X57106647Y-56356904D02*
X57011409Y-56309285D01*
X57011409Y-56309285D02*
X56963790Y-56261666D01*
X56963790Y-56261666D02*
X56916171Y-56166428D01*
X56916171Y-56166428D02*
X56916171Y-55975952D01*
X56916171Y-55975952D02*
X56963790Y-55880714D01*
X56963790Y-55880714D02*
X57011409Y-55833095D01*
X57011409Y-55833095D02*
X57106647Y-55785476D01*
%TO.C,R4*%
X62531219Y-80804523D02*
X62055028Y-80471190D01*
X62531219Y-80233095D02*
X61531219Y-80233095D01*
X61531219Y-80233095D02*
X61531219Y-80614047D01*
X61531219Y-80614047D02*
X61578838Y-80709285D01*
X61578838Y-80709285D02*
X61626457Y-80756904D01*
X61626457Y-80756904D02*
X61721695Y-80804523D01*
X61721695Y-80804523D02*
X61864552Y-80804523D01*
X61864552Y-80804523D02*
X61959790Y-80756904D01*
X61959790Y-80756904D02*
X62007409Y-80709285D01*
X62007409Y-80709285D02*
X62055028Y-80614047D01*
X62055028Y-80614047D02*
X62055028Y-80233095D01*
X61864552Y-81661666D02*
X62531219Y-81661666D01*
X61483600Y-81423571D02*
X62197885Y-81185476D01*
X62197885Y-81185476D02*
X62197885Y-81804523D01*
%TO.C,D9*%
X119122719Y-58140595D02*
X118122719Y-58140595D01*
X118122719Y-58140595D02*
X118122719Y-58378690D01*
X118122719Y-58378690D02*
X118170338Y-58521547D01*
X118170338Y-58521547D02*
X118265576Y-58616785D01*
X118265576Y-58616785D02*
X118360814Y-58664404D01*
X118360814Y-58664404D02*
X118551290Y-58712023D01*
X118551290Y-58712023D02*
X118694147Y-58712023D01*
X118694147Y-58712023D02*
X118884623Y-58664404D01*
X118884623Y-58664404D02*
X118979861Y-58616785D01*
X118979861Y-58616785D02*
X119075100Y-58521547D01*
X119075100Y-58521547D02*
X119122719Y-58378690D01*
X119122719Y-58378690D02*
X119122719Y-58140595D01*
X119122719Y-59188214D02*
X119122719Y-59378690D01*
X119122719Y-59378690D02*
X119075100Y-59473928D01*
X119075100Y-59473928D02*
X119027480Y-59521547D01*
X119027480Y-59521547D02*
X118884623Y-59616785D01*
X118884623Y-59616785D02*
X118694147Y-59664404D01*
X118694147Y-59664404D02*
X118313195Y-59664404D01*
X118313195Y-59664404D02*
X118217957Y-59616785D01*
X118217957Y-59616785D02*
X118170338Y-59569166D01*
X118170338Y-59569166D02*
X118122719Y-59473928D01*
X118122719Y-59473928D02*
X118122719Y-59283452D01*
X118122719Y-59283452D02*
X118170338Y-59188214D01*
X118170338Y-59188214D02*
X118217957Y-59140595D01*
X118217957Y-59140595D02*
X118313195Y-59092976D01*
X118313195Y-59092976D02*
X118551290Y-59092976D01*
X118551290Y-59092976D02*
X118646528Y-59140595D01*
X118646528Y-59140595D02*
X118694147Y-59188214D01*
X118694147Y-59188214D02*
X118741766Y-59283452D01*
X118741766Y-59283452D02*
X118741766Y-59473928D01*
X118741766Y-59473928D02*
X118694147Y-59569166D01*
X118694147Y-59569166D02*
X118646528Y-59616785D01*
X118646528Y-59616785D02*
X118551290Y-59664404D01*
D11*
%TO.C,RCC2*%
X122242600Y-106599790D02*
X121472600Y-106599790D01*
X121472600Y-107969790D02*
X114932600Y-107969790D01*
X121472600Y-105229790D02*
X121472600Y-107969790D01*
X114932600Y-107969790D02*
X114932600Y-105229790D01*
X114932600Y-105229790D02*
X121472600Y-105229790D01*
X114162600Y-106599790D02*
X114932600Y-106599790D01*
%TO.C,R2*%
X59782600Y-51531190D02*
X59782600Y-52301190D01*
X61152600Y-52301190D02*
X61152600Y-58841190D01*
X58412600Y-52301190D02*
X61152600Y-52301190D01*
X61152600Y-58841190D02*
X58412600Y-58841190D01*
X58412600Y-58841190D02*
X58412600Y-52301190D01*
X59782600Y-59611190D02*
X59782600Y-58841190D01*
%TO.C,D17*%
X82940100Y-71048690D02*
X82940100Y-67788690D01*
X84640100Y-71048690D02*
X82940100Y-71048690D01*
X84640100Y-71048690D02*
X84640100Y-67788690D01*
%TO.C,RCC1*%
X122242600Y-110181190D02*
X121472600Y-110181190D01*
X121472600Y-111551190D02*
X114932600Y-111551190D01*
X121472600Y-108811190D02*
X121472600Y-111551190D01*
X114932600Y-111551190D02*
X114932600Y-108811190D01*
X114932600Y-108811190D02*
X121472600Y-108811190D01*
X114162600Y-110181190D02*
X114932600Y-110181190D01*
%TO.C,R1*%
X69942600Y-51531190D02*
X69942600Y-52301190D01*
X71312600Y-52301190D02*
X71312600Y-58841190D01*
X68572600Y-52301190D02*
X71312600Y-52301190D01*
X71312600Y-58841190D02*
X68572600Y-58841190D01*
X68572600Y-58841190D02*
X68572600Y-52301190D01*
X69942600Y-59611190D02*
X69942600Y-58841190D01*
%TO.C,R9*%
X76292600Y-107871190D02*
X76292600Y-107101190D01*
X74922600Y-107101190D02*
X74922600Y-100561190D01*
X77662600Y-107101190D02*
X74922600Y-107101190D01*
X74922600Y-100561190D02*
X77662600Y-100561190D01*
X77662600Y-100561190D02*
X77662600Y-107101190D01*
X76292600Y-99791190D02*
X76292600Y-100561190D01*
%TO.C,D5*%
X99449520Y-50729110D02*
X99449520Y-47469110D01*
X101149520Y-50729110D02*
X99449520Y-50729110D01*
X101149520Y-50729110D02*
X101149520Y-47469110D01*
%TO.C,D11*%
X132470100Y-81208690D02*
X132470100Y-77948690D01*
X134170100Y-81208690D02*
X132470100Y-81208690D01*
X134170100Y-81208690D02*
X134170100Y-77948690D01*
%TO.C,D19*%
X99450100Y-91368690D02*
X99450100Y-88108690D01*
X101150100Y-91368690D02*
X99450100Y-91368690D01*
X101150100Y-91368690D02*
X101150100Y-88108690D01*
%TO.C,D13*%
X132592600Y-60756190D02*
X132592600Y-57496190D01*
X134292600Y-60756190D02*
X132592600Y-60756190D01*
X134292600Y-60756190D02*
X134292600Y-57496190D01*
%TO.C,R10*%
X69942600Y-99791190D02*
X69942600Y-100561190D01*
X71312600Y-100561190D02*
X71312600Y-107101190D01*
X68572600Y-100561190D02*
X71312600Y-100561190D01*
X71312600Y-107101190D02*
X68572600Y-107101190D01*
X68572600Y-107101190D02*
X68572600Y-100561190D01*
X69942600Y-107871190D02*
X69942600Y-107101190D01*
%TO.C,D18*%
X82940100Y-81208690D02*
X82940100Y-77948690D01*
X84640100Y-81208690D02*
X82940100Y-81208690D01*
X84640100Y-81208690D02*
X84640100Y-77948690D01*
%TO.C,R5*%
X64862600Y-59611190D02*
X64862600Y-58841190D01*
X63492600Y-58841190D02*
X63492600Y-52301190D01*
X66232600Y-58841190D02*
X63492600Y-58841190D01*
X63492600Y-52301190D02*
X66232600Y-52301190D01*
X66232600Y-52301190D02*
X66232600Y-58841190D01*
X64862600Y-51531190D02*
X64862600Y-52301190D01*
%TO.C,D15*%
X82940100Y-60888690D02*
X82940100Y-57628690D01*
X84640100Y-60888690D02*
X82940100Y-60888690D01*
X84640100Y-60888690D02*
X84640100Y-57628690D01*
%TO.C,R11*%
X59782600Y-99791190D02*
X59782600Y-100561190D01*
X61152600Y-100561190D02*
X61152600Y-107101190D01*
X58412600Y-100561190D02*
X61152600Y-100561190D01*
X61152600Y-107101190D02*
X58412600Y-107101190D01*
X58412600Y-107101190D02*
X58412600Y-100561190D01*
X59782600Y-107871190D02*
X59782600Y-107101190D01*
%TO.C,D21*%
X132347600Y-101528690D02*
X132347600Y-98268690D01*
X134047600Y-101528690D02*
X132347600Y-101528690D01*
X134047600Y-101528690D02*
X134047600Y-98268690D01*
%TO.C,R8*%
X54702600Y-85011190D02*
X54702600Y-84241190D01*
X53332600Y-84241190D02*
X53332600Y-77701190D01*
X56072600Y-84241190D02*
X53332600Y-84241190D01*
X53332600Y-77701190D02*
X56072600Y-77701190D01*
X56072600Y-77701190D02*
X56072600Y-84241190D01*
X54702600Y-76931190D02*
X54702600Y-77701190D01*
%TO.C,D3*%
X99449520Y-71048720D02*
X99449520Y-67788720D01*
X101149520Y-71048720D02*
X99449520Y-71048720D01*
X101149520Y-71048720D02*
X101149520Y-67788720D01*
%TO.C,D7*%
X115960100Y-81208690D02*
X115960100Y-77948690D01*
X117660100Y-81208690D02*
X115960100Y-81208690D01*
X117660100Y-81208690D02*
X117660100Y-77948690D01*
%TO.C,D14*%
X132592600Y-50596190D02*
X132592600Y-47336190D01*
X134292600Y-50596190D02*
X132592600Y-50596190D01*
X134292600Y-50596190D02*
X134292600Y-47336190D01*
%TO.C,D16*%
X82940100Y-50706610D02*
X82940100Y-47446610D01*
X84640100Y-50706610D02*
X82940100Y-50706610D01*
X84640100Y-50706610D02*
X84640100Y-47446610D01*
%TO.C,R3*%
X69942600Y-76931190D02*
X69942600Y-77701190D01*
X71312600Y-77701190D02*
X71312600Y-84241190D01*
X68572600Y-77701190D02*
X71312600Y-77701190D01*
X71312600Y-84241190D02*
X68572600Y-84241190D01*
X68572600Y-84241190D02*
X68572600Y-77701190D01*
X69942600Y-85011190D02*
X69942600Y-84241190D01*
%TO.C,D6*%
X132470100Y-91368690D02*
X132470100Y-88108690D01*
X134170100Y-91368690D02*
X132470100Y-91368690D01*
X134170100Y-91368690D02*
X134170100Y-88108690D01*
%TO.C,D12*%
X132592600Y-70916190D02*
X132592600Y-67656190D01*
X134292600Y-70916190D02*
X132592600Y-70916190D01*
X134292600Y-70916190D02*
X134292600Y-67656190D01*
%TO.C,D4*%
X99449520Y-60878915D02*
X99449520Y-57618915D01*
X101149520Y-60878915D02*
X99449520Y-60878915D01*
X101149520Y-60878915D02*
X101149520Y-57618915D01*
%TO.C,D2*%
X99449520Y-81208525D02*
X99449520Y-77948525D01*
X101149520Y-81208525D02*
X99449520Y-81208525D01*
X101149520Y-81208525D02*
X101149520Y-77948525D01*
%TO.C,D1*%
X115959520Y-91368330D02*
X115959520Y-88108330D01*
X117659520Y-91368330D02*
X115959520Y-91368330D01*
X117659520Y-91368330D02*
X117659520Y-88108330D01*
%TO.C,D10*%
X115960100Y-50728690D02*
X115960100Y-47468690D01*
X117660100Y-50728690D02*
X115960100Y-50728690D01*
X117660100Y-50728690D02*
X117660100Y-47468690D01*
%TO.C,R7*%
X64862600Y-85011190D02*
X64862600Y-84241190D01*
X63492600Y-84241190D02*
X63492600Y-77701190D01*
X66232600Y-84241190D02*
X63492600Y-84241190D01*
X63492600Y-77701190D02*
X66232600Y-77701190D01*
X66232600Y-77701190D02*
X66232600Y-84241190D01*
X64862600Y-76931190D02*
X64862600Y-77701190D01*
%TO.C,D8*%
X115960100Y-71048690D02*
X115960100Y-67788690D01*
X117660100Y-71048690D02*
X115960100Y-71048690D01*
X117660100Y-71048690D02*
X117660100Y-67788690D01*
%TO.C,D20*%
X115837600Y-101528690D02*
X115837600Y-98268690D01*
X117537600Y-101528690D02*
X115837600Y-101528690D01*
X117537600Y-101528690D02*
X117537600Y-98268690D01*
%TO.C,R6*%
X54702600Y-59611190D02*
X54702600Y-58841190D01*
X53332600Y-58841190D02*
X53332600Y-52301190D01*
X56072600Y-58841190D02*
X53332600Y-58841190D01*
X53332600Y-52301190D02*
X56072600Y-52301190D01*
X56072600Y-52301190D02*
X56072600Y-58841190D01*
X54702600Y-51531190D02*
X54702600Y-52301190D01*
%TO.C,R4*%
X59782600Y-76931190D02*
X59782600Y-77701190D01*
X61152600Y-77701190D02*
X61152600Y-84241190D01*
X58412600Y-77701190D02*
X61152600Y-77701190D01*
X61152600Y-84241190D02*
X58412600Y-84241190D01*
X58412600Y-84241190D02*
X58412600Y-77701190D01*
X59782600Y-85011190D02*
X59782600Y-84241190D01*
%TO.C,D9*%
X115960100Y-60888690D02*
X115960100Y-57628690D01*
X117660100Y-60888690D02*
X115960100Y-60888690D01*
X117660100Y-60888690D02*
X117660100Y-57628690D01*
%TD*%
%LPC*%
D12*
%TO.C,J1*%
X91810000Y-107518840D03*
X91810000Y-111318840D03*
X100450000Y-107518840D03*
X100450000Y-111318840D03*
%TD*%
D13*
%TO.C,K15*%
X78832600Y-61286190D03*
D14*
X81372600Y-61286190D03*
X88992600Y-61286190D03*
X88992600Y-56206190D03*
X81372600Y-56206190D03*
X78832600Y-56206190D03*
%TD*%
D15*
%TO.C,LED1*%
X67402600Y-45411190D03*
D16*
X67402600Y-47951190D03*
%TD*%
D13*
%TO.C,K20*%
X111730100Y-101926190D03*
D14*
X114270100Y-101926190D03*
X121890100Y-101926190D03*
X121890100Y-96846190D03*
X114270100Y-96846190D03*
X111730100Y-96846190D03*
%TD*%
D15*
%TO.C,LED3*%
X67402600Y-70811190D03*
D16*
X67402600Y-73351190D03*
%TD*%
D13*
%TO.C,K10*%
X111852600Y-51126190D03*
D14*
X114392600Y-51126190D03*
X122012600Y-51126190D03*
X122012600Y-46046190D03*
X114392600Y-46046190D03*
X111852600Y-46046190D03*
%TD*%
D15*
%TO.C,LED2*%
X57242600Y-45411190D03*
D16*
X57242600Y-47951190D03*
%TD*%
D13*
%TO.C,K11*%
X128362600Y-81606190D03*
D14*
X130902600Y-81606190D03*
X138522600Y-81606190D03*
X138522600Y-76526190D03*
X130902600Y-76526190D03*
X128362600Y-76526190D03*
%TD*%
D13*
%TO.C,K14*%
X128485100Y-50993690D03*
D14*
X131025100Y-50993690D03*
X138645100Y-50993690D03*
X138645100Y-45913690D03*
X131025100Y-45913690D03*
X128485100Y-45913690D03*
%TD*%
D15*
%TO.C,LED6*%
X57242600Y-102561190D03*
D16*
X57242600Y-105101190D03*
%TD*%
D15*
%TO.C,LED5*%
X67402600Y-102561190D03*
D16*
X67402600Y-105101190D03*
%TD*%
D17*
%TO.C,B0*%
X67402600Y-77161190D03*
D18*
X67402600Y-84781190D03*
%TD*%
D13*
%TO.C,K18*%
X78832600Y-81606190D03*
D14*
X81372600Y-81606190D03*
X88992600Y-81606190D03*
X88992600Y-76526190D03*
X81372600Y-76526190D03*
X78832600Y-76526190D03*
%TD*%
D13*
%TO.C,K3*%
X95342020Y-71446220D03*
D14*
X97882020Y-71446220D03*
X105502020Y-71446220D03*
X105502020Y-66366220D03*
X97882020Y-66366220D03*
X95342020Y-66366220D03*
%TD*%
D15*
%TO.C,LED4*%
X57242600Y-70811190D03*
D16*
X57242600Y-73351190D03*
%TD*%
D17*
%TO.C,A0*%
X67402600Y-51761190D03*
D18*
X67402600Y-59381190D03*
%TD*%
D13*
%TO.C,K7*%
X111852600Y-81606190D03*
D14*
X114392600Y-81606190D03*
X122012600Y-81606190D03*
X122012600Y-76526190D03*
X114392600Y-76526190D03*
X111852600Y-76526190D03*
%TD*%
D13*
%TO.C,K21*%
X128240100Y-101926190D03*
D14*
X130780100Y-101926190D03*
X138400100Y-101926190D03*
X138400100Y-96846190D03*
X130780100Y-96846190D03*
X128240100Y-96846190D03*
%TD*%
D13*
%TO.C,K19*%
X95342600Y-91766190D03*
D14*
X97882600Y-91766190D03*
X105502600Y-91766190D03*
X105502600Y-86686190D03*
X97882600Y-86686190D03*
X95342600Y-86686190D03*
%TD*%
D17*
%TO.C,A1*%
X57242600Y-51761190D03*
D18*
X57242600Y-59381190D03*
%TD*%
D13*
%TO.C,K12*%
X128485100Y-71313690D03*
D14*
X131025100Y-71313690D03*
X138645100Y-71313690D03*
X138645100Y-66233690D03*
X131025100Y-66233690D03*
X128485100Y-66233690D03*
%TD*%
D13*
%TO.C,K2*%
X95342020Y-81606025D03*
D14*
X97882020Y-81606025D03*
X105502020Y-81606025D03*
X105502020Y-76526025D03*
X97882020Y-76526025D03*
X95342020Y-76526025D03*
%TD*%
D13*
%TO.C,K13*%
X128485100Y-61153690D03*
D14*
X131025100Y-61153690D03*
X138645100Y-61153690D03*
X138645100Y-56073690D03*
X131025100Y-56073690D03*
X128485100Y-56073690D03*
%TD*%
D13*
%TO.C,K17*%
X78832600Y-71446190D03*
D14*
X81372600Y-71446190D03*
X88992600Y-71446190D03*
X88992600Y-66366190D03*
X81372600Y-66366190D03*
X78832600Y-66366190D03*
%TD*%
D13*
%TO.C,K8*%
X111852600Y-71446190D03*
D14*
X114392600Y-71446190D03*
X122012600Y-71446190D03*
X122012600Y-66366190D03*
X114392600Y-66366190D03*
X111852600Y-66366190D03*
%TD*%
D13*
%TO.C,K9*%
X111852600Y-61286190D03*
D14*
X114392600Y-61286190D03*
X122012600Y-61286190D03*
X122012600Y-56206190D03*
X114392600Y-56206190D03*
X111852600Y-56206190D03*
%TD*%
D17*
%TO.C,B1*%
X57242600Y-77161190D03*
D18*
X57242600Y-84781190D03*
%TD*%
D13*
%TO.C,K5*%
X95342020Y-51126610D03*
D14*
X97882020Y-51126610D03*
X105502020Y-51126610D03*
X105502020Y-46046610D03*
X97882020Y-46046610D03*
X95342020Y-46046610D03*
%TD*%
D13*
%TO.C,K6*%
X128362600Y-91766190D03*
D14*
X130902600Y-91766190D03*
X138522600Y-91766190D03*
X138522600Y-86686190D03*
X130902600Y-86686190D03*
X128362600Y-86686190D03*
%TD*%
D13*
%TO.C,K1*%
X111852020Y-91765830D03*
D14*
X114392020Y-91765830D03*
X122012020Y-91765830D03*
X122012020Y-86685830D03*
X114392020Y-86685830D03*
X111852020Y-86685830D03*
%TD*%
D13*
%TO.C,K16*%
X78832600Y-51126610D03*
D14*
X81372600Y-51126610D03*
X88992600Y-51126610D03*
X88992600Y-46046610D03*
X81372600Y-46046610D03*
X78832600Y-46046610D03*
%TD*%
D13*
%TO.C,K4*%
X95342020Y-61286415D03*
D14*
X97882020Y-61286415D03*
X105502020Y-61286415D03*
X105502020Y-56206415D03*
X97882020Y-56206415D03*
X95342020Y-56206415D03*
%TD*%
D17*
%TO.C,S1*%
X80102600Y-100021190D03*
D18*
X80102600Y-107641190D03*
%TD*%
D19*
%TO.C,RCC2*%
X123282600Y-106599790D03*
D18*
X113122600Y-106599790D03*
%TD*%
D19*
%TO.C,R2*%
X59782600Y-50491190D03*
D18*
X59782600Y-60651190D03*
%TD*%
D20*
%TO.C,D17*%
X83790100Y-70288690D03*
X83790100Y-67788690D03*
%TD*%
D19*
%TO.C,RCC1*%
X123282600Y-110181190D03*
D18*
X113122600Y-110181190D03*
%TD*%
D19*
%TO.C,R1*%
X69942600Y-50491190D03*
D18*
X69942600Y-60651190D03*
%TD*%
D19*
%TO.C,R9*%
X76292600Y-108911190D03*
D18*
X76292600Y-98751190D03*
%TD*%
D20*
%TO.C,D5*%
X100299520Y-49969110D03*
X100299520Y-47469110D03*
%TD*%
%TO.C,D11*%
X133320100Y-80448690D03*
X133320100Y-77948690D03*
%TD*%
%TO.C,D19*%
X100300100Y-90608690D03*
X100300100Y-88108690D03*
%TD*%
%TO.C,D13*%
X133442600Y-59996190D03*
X133442600Y-57496190D03*
%TD*%
D19*
%TO.C,R10*%
X69942600Y-98751190D03*
D18*
X69942600Y-108911190D03*
%TD*%
D20*
%TO.C,D18*%
X83790100Y-80448690D03*
X83790100Y-77948690D03*
%TD*%
D19*
%TO.C,R5*%
X64862600Y-60651190D03*
D18*
X64862600Y-50491190D03*
%TD*%
D20*
%TO.C,D15*%
X83790100Y-60128690D03*
X83790100Y-57628690D03*
%TD*%
D19*
%TO.C,R11*%
X59782600Y-98751190D03*
D18*
X59782600Y-108911190D03*
%TD*%
D20*
%TO.C,D21*%
X133197600Y-100768690D03*
X133197600Y-98268690D03*
%TD*%
D19*
%TO.C,R8*%
X54702600Y-86051190D03*
D18*
X54702600Y-75891190D03*
%TD*%
D20*
%TO.C,D3*%
X100299520Y-70288720D03*
X100299520Y-67788720D03*
%TD*%
%TO.C,D7*%
X116810100Y-80448690D03*
X116810100Y-77948690D03*
%TD*%
%TO.C,D14*%
X133442600Y-49836190D03*
X133442600Y-47336190D03*
%TD*%
%TO.C,D16*%
X83790100Y-49946610D03*
X83790100Y-47446610D03*
%TD*%
D19*
%TO.C,R3*%
X69942600Y-75891190D03*
D18*
X69942600Y-86051190D03*
%TD*%
D20*
%TO.C,D6*%
X133320100Y-90608690D03*
X133320100Y-88108690D03*
%TD*%
%TO.C,D12*%
X133442600Y-70156190D03*
X133442600Y-67656190D03*
%TD*%
%TO.C,D4*%
X100299520Y-60118915D03*
X100299520Y-57618915D03*
%TD*%
%TO.C,D2*%
X100299520Y-80448525D03*
X100299520Y-77948525D03*
%TD*%
%TO.C,D1*%
X116809520Y-90608330D03*
X116809520Y-88108330D03*
%TD*%
%TO.C,D10*%
X116810100Y-49968690D03*
X116810100Y-47468690D03*
%TD*%
D19*
%TO.C,R7*%
X64862600Y-86051190D03*
D18*
X64862600Y-75891190D03*
%TD*%
D20*
%TO.C,D8*%
X116810100Y-70288690D03*
X116810100Y-67788690D03*
%TD*%
%TO.C,D20*%
X116687600Y-100768690D03*
X116687600Y-98268690D03*
%TD*%
D19*
%TO.C,R6*%
X54702600Y-60651190D03*
D18*
X54702600Y-50491190D03*
%TD*%
D19*
%TO.C,R4*%
X59782600Y-75891190D03*
D18*
X59782600Y-86051190D03*
%TD*%
D20*
%TO.C,D9*%
X116810100Y-60128690D03*
X116810100Y-57628690D03*
%TD*%
%LPD*%
M02*
