%TF.GenerationSoftware,KiCad,Pcbnew,7.0.2*%
%TF.CreationDate,2023-05-28T17:25:48-07:00*%
%TF.ProjectId,relay-prototype,72656c61-792d-4707-926f-746f74797065,rev?*%
%TF.SameCoordinates,Original*%
%TF.FileFunction,Soldermask,Bot*%
%TF.FilePolarity,Negative*%
%FSLAX46Y46*%
G04 Gerber Fmt 4.6, Leading zero omitted, Abs format (unit mm)*
G04 Created by KiCad (PCBNEW 7.0.2) date 2023-05-28 17:25:48*
%MOMM*%
%LPD*%
G01*
G04 APERTURE LIST*
G04 Aperture macros list*
%AMRoundRect*
0 Rectangle with rounded corners*
0 $1 Rounding radius*
0 $2 $3 $4 $5 $6 $7 $8 $9 X,Y pos of 4 corners*
0 Add a 4 corners polygon primitive as box body*
4,1,4,$2,$3,$4,$5,$6,$7,$8,$9,$2,$3,0*
0 Add four circle primitives for the rounded corners*
1,1,$1+$1,$2,$3*
1,1,$1+$1,$4,$5*
1,1,$1+$1,$6,$7*
1,1,$1+$1,$8,$9*
0 Add four rect primitives between the rounded corners*
20,1,$1+$1,$2,$3,$4,$5,0*
20,1,$1+$1,$4,$5,$6,$7,0*
20,1,$1+$1,$6,$7,$8,$9,0*
20,1,$1+$1,$8,$9,$2,$3,0*%
G04 Aperture macros list end*
%ADD10RoundRect,0.500000X0.000000X-0.300000X0.000000X-0.300000X0.000000X0.300000X0.000000X0.300000X0*%
%ADD11R,2.000000X2.000000*%
%ADD12C,2.000000*%
%ADD13R,1.800000X1.800000*%
%ADD14C,1.800000*%
%ADD15R,1.600000X1.600000*%
%ADD16O,1.600000X1.600000*%
%ADD17C,1.600000*%
%ADD18RoundRect,0.250000X0.250000X-0.250000X0.250000X0.250000X-0.250000X0.250000X-0.250000X-0.250000X0*%
G04 APERTURE END LIST*
D10*
%TO.C,J1*%
X91810000Y-107518840D03*
X91810000Y-111318840D03*
X100450000Y-107518840D03*
X100450000Y-111318840D03*
%TD*%
D11*
%TO.C,K15*%
X78832600Y-61286190D03*
D12*
X81372600Y-61286190D03*
X88992600Y-61286190D03*
X88992600Y-56206190D03*
X81372600Y-56206190D03*
X78832600Y-56206190D03*
%TD*%
D13*
%TO.C,LED1*%
X67402600Y-45411190D03*
D14*
X67402600Y-47951190D03*
%TD*%
D11*
%TO.C,K20*%
X111730100Y-101926190D03*
D12*
X114270100Y-101926190D03*
X121890100Y-101926190D03*
X121890100Y-96846190D03*
X114270100Y-96846190D03*
X111730100Y-96846190D03*
%TD*%
D13*
%TO.C,LED3*%
X67402600Y-70811190D03*
D14*
X67402600Y-73351190D03*
%TD*%
D11*
%TO.C,K10*%
X111852600Y-51126190D03*
D12*
X114392600Y-51126190D03*
X122012600Y-51126190D03*
X122012600Y-46046190D03*
X114392600Y-46046190D03*
X111852600Y-46046190D03*
%TD*%
D13*
%TO.C,LED2*%
X57242600Y-45411190D03*
D14*
X57242600Y-47951190D03*
%TD*%
D11*
%TO.C,K11*%
X128362600Y-81606190D03*
D12*
X130902600Y-81606190D03*
X138522600Y-81606190D03*
X138522600Y-76526190D03*
X130902600Y-76526190D03*
X128362600Y-76526190D03*
%TD*%
D11*
%TO.C,K14*%
X128485100Y-50993690D03*
D12*
X131025100Y-50993690D03*
X138645100Y-50993690D03*
X138645100Y-45913690D03*
X131025100Y-45913690D03*
X128485100Y-45913690D03*
%TD*%
D13*
%TO.C,LED6*%
X57242600Y-102561190D03*
D14*
X57242600Y-105101190D03*
%TD*%
D13*
%TO.C,LED5*%
X67402600Y-102561190D03*
D14*
X67402600Y-105101190D03*
%TD*%
D15*
%TO.C,B0*%
X67402600Y-77161190D03*
D16*
X67402600Y-84781190D03*
%TD*%
D11*
%TO.C,K18*%
X78832600Y-81606190D03*
D12*
X81372600Y-81606190D03*
X88992600Y-81606190D03*
X88992600Y-76526190D03*
X81372600Y-76526190D03*
X78832600Y-76526190D03*
%TD*%
D11*
%TO.C,K3*%
X95342020Y-71446220D03*
D12*
X97882020Y-71446220D03*
X105502020Y-71446220D03*
X105502020Y-66366220D03*
X97882020Y-66366220D03*
X95342020Y-66366220D03*
%TD*%
D13*
%TO.C,LED4*%
X57242600Y-70811190D03*
D14*
X57242600Y-73351190D03*
%TD*%
D15*
%TO.C,A0*%
X67402600Y-51761190D03*
D16*
X67402600Y-59381190D03*
%TD*%
D11*
%TO.C,K7*%
X111852600Y-81606190D03*
D12*
X114392600Y-81606190D03*
X122012600Y-81606190D03*
X122012600Y-76526190D03*
X114392600Y-76526190D03*
X111852600Y-76526190D03*
%TD*%
D11*
%TO.C,K21*%
X128240100Y-101926190D03*
D12*
X130780100Y-101926190D03*
X138400100Y-101926190D03*
X138400100Y-96846190D03*
X130780100Y-96846190D03*
X128240100Y-96846190D03*
%TD*%
D11*
%TO.C,K19*%
X95342600Y-91766190D03*
D12*
X97882600Y-91766190D03*
X105502600Y-91766190D03*
X105502600Y-86686190D03*
X97882600Y-86686190D03*
X95342600Y-86686190D03*
%TD*%
D15*
%TO.C,A1*%
X57242600Y-51761190D03*
D16*
X57242600Y-59381190D03*
%TD*%
D11*
%TO.C,K12*%
X128485100Y-71313690D03*
D12*
X131025100Y-71313690D03*
X138645100Y-71313690D03*
X138645100Y-66233690D03*
X131025100Y-66233690D03*
X128485100Y-66233690D03*
%TD*%
D11*
%TO.C,K2*%
X95342020Y-81606025D03*
D12*
X97882020Y-81606025D03*
X105502020Y-81606025D03*
X105502020Y-76526025D03*
X97882020Y-76526025D03*
X95342020Y-76526025D03*
%TD*%
D11*
%TO.C,K13*%
X128485100Y-61153690D03*
D12*
X131025100Y-61153690D03*
X138645100Y-61153690D03*
X138645100Y-56073690D03*
X131025100Y-56073690D03*
X128485100Y-56073690D03*
%TD*%
D11*
%TO.C,K17*%
X78832600Y-71446190D03*
D12*
X81372600Y-71446190D03*
X88992600Y-71446190D03*
X88992600Y-66366190D03*
X81372600Y-66366190D03*
X78832600Y-66366190D03*
%TD*%
D11*
%TO.C,K8*%
X111852600Y-71446190D03*
D12*
X114392600Y-71446190D03*
X122012600Y-71446190D03*
X122012600Y-66366190D03*
X114392600Y-66366190D03*
X111852600Y-66366190D03*
%TD*%
D11*
%TO.C,K9*%
X111852600Y-61286190D03*
D12*
X114392600Y-61286190D03*
X122012600Y-61286190D03*
X122012600Y-56206190D03*
X114392600Y-56206190D03*
X111852600Y-56206190D03*
%TD*%
D15*
%TO.C,B1*%
X57242600Y-77161190D03*
D16*
X57242600Y-84781190D03*
%TD*%
D11*
%TO.C,K5*%
X95342020Y-51126610D03*
D12*
X97882020Y-51126610D03*
X105502020Y-51126610D03*
X105502020Y-46046610D03*
X97882020Y-46046610D03*
X95342020Y-46046610D03*
%TD*%
D11*
%TO.C,K6*%
X128362600Y-91766190D03*
D12*
X130902600Y-91766190D03*
X138522600Y-91766190D03*
X138522600Y-86686190D03*
X130902600Y-86686190D03*
X128362600Y-86686190D03*
%TD*%
D11*
%TO.C,K1*%
X111852020Y-91765830D03*
D12*
X114392020Y-91765830D03*
X122012020Y-91765830D03*
X122012020Y-86685830D03*
X114392020Y-86685830D03*
X111852020Y-86685830D03*
%TD*%
D11*
%TO.C,K16*%
X78832600Y-51126610D03*
D12*
X81372600Y-51126610D03*
X88992600Y-51126610D03*
X88992600Y-46046610D03*
X81372600Y-46046610D03*
X78832600Y-46046610D03*
%TD*%
D11*
%TO.C,K4*%
X95342020Y-61286415D03*
D12*
X97882020Y-61286415D03*
X105502020Y-61286415D03*
X105502020Y-56206415D03*
X97882020Y-56206415D03*
X95342020Y-56206415D03*
%TD*%
D15*
%TO.C,S1*%
X80102600Y-100021190D03*
D16*
X80102600Y-107641190D03*
%TD*%
D17*
%TO.C,RCC2*%
X123282600Y-106599790D03*
D16*
X113122600Y-106599790D03*
%TD*%
D17*
%TO.C,R2*%
X59782600Y-50491190D03*
D16*
X59782600Y-60651190D03*
%TD*%
D18*
%TO.C,D17*%
X83790100Y-70288690D03*
X83790100Y-67788690D03*
%TD*%
D17*
%TO.C,RCC1*%
X123282600Y-110181190D03*
D16*
X113122600Y-110181190D03*
%TD*%
D17*
%TO.C,R1*%
X69942600Y-50491190D03*
D16*
X69942600Y-60651190D03*
%TD*%
D17*
%TO.C,R9*%
X76292600Y-108911190D03*
D16*
X76292600Y-98751190D03*
%TD*%
D18*
%TO.C,D5*%
X100299520Y-49969110D03*
X100299520Y-47469110D03*
%TD*%
%TO.C,D11*%
X133320100Y-80448690D03*
X133320100Y-77948690D03*
%TD*%
%TO.C,D19*%
X100300100Y-90608690D03*
X100300100Y-88108690D03*
%TD*%
%TO.C,D13*%
X133442600Y-59996190D03*
X133442600Y-57496190D03*
%TD*%
D17*
%TO.C,R10*%
X69942600Y-98751190D03*
D16*
X69942600Y-108911190D03*
%TD*%
D18*
%TO.C,D18*%
X83790100Y-80448690D03*
X83790100Y-77948690D03*
%TD*%
D17*
%TO.C,R5*%
X64862600Y-60651190D03*
D16*
X64862600Y-50491190D03*
%TD*%
D18*
%TO.C,D15*%
X83790100Y-60128690D03*
X83790100Y-57628690D03*
%TD*%
D17*
%TO.C,R11*%
X59782600Y-98751190D03*
D16*
X59782600Y-108911190D03*
%TD*%
D18*
%TO.C,D21*%
X133197600Y-100768690D03*
X133197600Y-98268690D03*
%TD*%
D17*
%TO.C,R8*%
X54702600Y-86051190D03*
D16*
X54702600Y-75891190D03*
%TD*%
D18*
%TO.C,D3*%
X100299520Y-70288720D03*
X100299520Y-67788720D03*
%TD*%
%TO.C,D7*%
X116810100Y-80448690D03*
X116810100Y-77948690D03*
%TD*%
%TO.C,D14*%
X133442600Y-49836190D03*
X133442600Y-47336190D03*
%TD*%
%TO.C,D16*%
X83790100Y-49946610D03*
X83790100Y-47446610D03*
%TD*%
D17*
%TO.C,R3*%
X69942600Y-75891190D03*
D16*
X69942600Y-86051190D03*
%TD*%
D18*
%TO.C,D6*%
X133320100Y-90608690D03*
X133320100Y-88108690D03*
%TD*%
%TO.C,D12*%
X133442600Y-70156190D03*
X133442600Y-67656190D03*
%TD*%
%TO.C,D4*%
X100299520Y-60118915D03*
X100299520Y-57618915D03*
%TD*%
%TO.C,D2*%
X100299520Y-80448525D03*
X100299520Y-77948525D03*
%TD*%
%TO.C,D1*%
X116809520Y-90608330D03*
X116809520Y-88108330D03*
%TD*%
%TO.C,D10*%
X116810100Y-49968690D03*
X116810100Y-47468690D03*
%TD*%
D17*
%TO.C,R7*%
X64862600Y-86051190D03*
D16*
X64862600Y-75891190D03*
%TD*%
D18*
%TO.C,D8*%
X116810100Y-70288690D03*
X116810100Y-67788690D03*
%TD*%
%TO.C,D20*%
X116687600Y-100768690D03*
X116687600Y-98268690D03*
%TD*%
D17*
%TO.C,R6*%
X54702600Y-60651190D03*
D16*
X54702600Y-50491190D03*
%TD*%
D17*
%TO.C,R4*%
X59782600Y-75891190D03*
D16*
X59782600Y-86051190D03*
%TD*%
D18*
%TO.C,D9*%
X116810100Y-60128690D03*
X116810100Y-57628690D03*
%TD*%
M02*
